<svg xmlns="http://www.w3.org/2000/svg" width="100%" height="100%" viewBox="0 0 400 400" preserveAspectRatio="xMidYMid meet" class="max-h-full max-w-full outline-none"><rect x="0" y="0" width="400" height="400" fill="white"/><defs><marker id="arrow" viewBox="0 0 10 10" refX="9" refY="5" markerWidth="6" markerHeight="6" orient="auto-start-reverse"><path d="M 0 0 L 10 5 L 0 10 z" fill="#9ca3af"/></marker></defs><g stroke="#e5e7eb" stroke-width="1"><line x1="0" y1="0" x2="0" y2="400"/><line x1="50" y1="0" x2="50" y2="400"/><line x1="100" y1="0" x2="100" y2="400"/><line x1="150" y1="0" x2="150" y2="400"/><line x1="200" y1="0" x2="200" y2="400"/><line x1="250" y1="0" x2="250" y2="400"/><line x1="300" y1="0" x2="300" y2="400"/><line x1="350" y1="0" x2="350" y2="400"/><line x1="400" y1="0" x2="400" y2="400"/><line x1="0" y1="400" x2="400" y2="400"/><line x1="0" y1="350" x2="400" y2="350"/><line x1="0" y1="300" x2="400" y2="300"/><line x1="0" y1="250" x2="400" y2="250"/><line x1="0" y1="200" x2="400" y2="200"/><line x1="0" y1="150" x2="400" y2="150"/><line x1="0" y1="100" x2="400" y2="100"/><line x1="0" y1="50" x2="400" y2="50"/><line x1="0" y1="0" x2="400" y2="0"/></g><line x1="100" y1="400" x2="100" y2="0" stroke="#9ca3af" stroke-width="2" marker-end="url(#arrow)"/><line x1="0" y1="250" x2="400" y2="250" stroke="#9ca3af" stroke-width="2" marker-end="url(#arrow)"/><text x="385" y="240" fill="#6b7280" font-size="16" font-family="sans-serif" font-weight="bold">u</text><text x="110" y="15" fill="#6b7280" font-size="16" font-family="sans-serif" font-weight="bold">v</text><g><polygon points="133.33333333333331,258.33333333333337 266.6666666666667,291.66666666666663 266.6666666666667,141.66666666666669 133.33333333333331,108.33333333333333" fill="rgba(99, 102, 241, 0.12)"/><line x1="133.33333333333331" y1="258.33333333333337" x2="266.6666666666667" y2="291.66666666666663" stroke="#6366f1" stroke-width="2.5" stroke-dasharray=""/><line x1="133.33333333333331" y1="258.33333333333337" x2="133.33333333333331" y2="108.33333333333333" stroke="#6366f1" stroke-width="2.5" stroke-dasharray=""/><line x1="133.33333333333331" y1="108.33333333333333" x2="266.6666666666667" y2="141.66666666666669" stroke="#6366f1" stroke-width="2.5" stroke-dasharray="8,6"/><line x1="266.6666666666667" y1="291.66666666666663" x2="266.6666666666667" y2="141.66666666666669" stroke="#6366f1" stroke-width="2.5" stroke-dasharray="8,6"/></g><g stroke="#f59e0b" stroke-width="1.5" stroke-dasharray="5,5" opacity="0.6"><line x1="150" y1="400" x2="150" y2="0"/><line x1="200" y1="400" x2="200" y2="0"/><line x1="250" y1="400" x2="250" y2="0"/></g><g fill="#d1d5db"><circle cx="0" cy="400" r="3"/><circle cx="50" cy="400" r="3"/><circle cx="100" cy="400" r="3"/><circle cx="150" cy="400" r="3"/><circle cx="200" cy="400" r="3"/><circle cx="250" cy="400" r="3"/><circle cx="300" cy="400" r="3"/><circle cx="350" cy="400" r="3"/><circle cx="400" cy="400" r="3"/><circle cx="0" cy="350" r="3"/><circle cx="50" cy="350" r="3"/><circle cx="100" cy="350" r="3"/><circle cx="150" cy="350" r="3"/><circle cx="200" cy="350" r="3"/><circle cx="250" cy="350" r="3"/><circle cx="300" cy="350" r="3"/><circle cx="350" cy="350" r="3"/><circle cx="400" cy="350" r="3"/><circle cx="0" cy="300" r="3"/><circle cx="50" cy="300" r="3"/><circle cx="100" cy="300" r="3"/><circle cx="150" cy="300" r="3"/><circle cx="200" cy="300" r="3"/><circle cx="250" cy="300" r="3"/><circle cx="300" cy="300" r="3"/><circle cx="350" cy="300" r="3"/><circle cx="400" cy="300" r="3"/><circle cx="0" cy="250" r="3"/><circle cx="50" cy="250" r="3"/><circle cx="100" cy="250" r="3"/><circle cx="300" cy="250" r="3"/><circle cx="350" cy="250" r="3"/><circle cx="400" cy="250" r="3"/><circle cx="0" cy="200" r="3"/><circle cx="50" cy="200" r="3"/><circle cx="100" cy="200" r="3"/><circle cx="300" cy="200" r="3"/><circle cx="350" cy="200" r="3"/><circle cx="400" cy="200" r="3"/><circle cx="0" cy="150" r="3"/><circle cx="50" cy="150" r="3"/><circle cx="100" cy="150" r="3"/><circle cx="300" cy="150" r="3"/><circle cx="350" cy="150" r="3"/><circle cx="400" cy="150" r="3"/><circle cx="0" cy="100" r="3"/><circle cx="50" cy="100" r="3"/><circle cx="100" cy="100" r="3"/><circle cx="150" cy="100" r="3"/><circle cx="200" cy="100" r="3"/><circle cx="250" cy="100" r="3"/><circle cx="300" cy="100" r="3"/><circle cx="350" cy="100" r="3"/><circle cx="400" cy="100" r="3"/><circle cx="0" cy="50" r="3"/><circle cx="50" cy="50" r="3"/><circle cx="100" cy="50" r="3"/><circle cx="150" cy="50" r="3"/><circle cx="200" cy="50" r="3"/><circle cx="250" cy="50" r="3"/><circle cx="300" cy="50" r="3"/><circle cx="350" cy="50" r="3"/><circle cx="400" cy="50" r="3"/><circle cx="0" cy="0" r="3"/><circle cx="50" cy="0" r="3"/><circle cx="100" cy="0" r="3"/><circle cx="150" cy="0" r="3"/><circle cx="200" cy="0" r="3"/><circle cx="250" cy="0" r="3"/><circle cx="300" cy="0" r="3"/><circle cx="350" cy="0" r="3"/><circle cx="400" cy="0" r="3"/></g><g fill="#ef4444"><circle cx="150" cy="250" r="6" stroke="white" stroke-width="2"/><circle cx="200" cy="250" r="6" stroke="white" stroke-width="2"/><circle cx="250" cy="250" r="6" stroke="white" stroke-width="2"/><circle cx="150" cy="200" r="6" stroke="white" stroke-width="2"/><circle cx="200" cy="200" r="6" stroke="white" stroke-width="2"/><circle cx="250" cy="200" r="6" stroke="white" stroke-width="2"/><circle cx="150" cy="150" r="6" stroke="white" stroke-width="2"/><circle cx="200" cy="150" r="6" stroke="white" stroke-width="2"/><circle cx="250" cy="150" r="6" stroke="white" stroke-width="2"/></g></svg>