<svg xmlns="http://www.w3.org/2000/svg" width="100%" height="100%" viewBox="0 0 700 800" preserveAspectRatio="xMidYMid meet" class="max-h-full max-w-full outline-none"><rect x="0" y="0" width="700" height="800" fill="white"/><defs><marker id="arrow" viewBox="0 0 10 10" refX="9" refY="5" markerWidth="6" markerHeight="6" orient="auto-start-reverse"><path d="M 0 0 L 10 5 L 0 10 z" fill="#9ca3af"/></marker></defs><g stroke="#e5e7eb" stroke-width="1"><line x1="0" y1="0" x2="0" y2="800"/><line x1="50" y1="0" x2="50" y2="800"/><line x1="100" y1="0" x2="100" y2="800"/><line x1="150" y1="0" x2="150" y2="800"/><line x1="200" y1="0" x2="200" y2="800"/><line x1="250" y1="0" x2="250" y2="800"/><line x1="300" y1="0" x2="300" y2="800"/><line x1="350" y1="0" x2="350" y2="800"/><line x1="400" y1="0" x2="400" y2="800"/><line x1="450" y1="0" x2="450" y2="800"/><line x1="500" y1="0" x2="500" y2="800"/><line x1="550" y1="0" x2="550" y2="800"/><line x1="600" y1="0" x2="600" y2="800"/><line x1="650" y1="0" x2="650" y2="800"/><line x1="700" y1="0" x2="700" y2="800"/><line x1="0" y1="800" x2="700" y2="800"/><line x1="0" y1="750" x2="700" y2="750"/><line x1="0" y1="700" x2="700" y2="700"/><line x1="0" y1="650" x2="700" y2="650"/><line x1="0" y1="600" x2="700" y2="600"/><line x1="0" y1="550" x2="700" y2="550"/><line x1="0" y1="500" x2="700" y2="500"/><line x1="0" y1="450" x2="700" y2="450"/><line x1="0" y1="400" x2="700" y2="400"/><line x1="0" y1="350" x2="700" y2="350"/><line x1="0" y1="300" x2="700" y2="300"/><line x1="0" y1="250" x2="700" y2="250"/><line x1="0" y1="200" x2="700" y2="200"/><line x1="0" y1="150" x2="700" y2="150"/><line x1="0" y1="100" x2="700" y2="100"/><line x1="0" y1="50" x2="700" y2="50"/><line x1="0" y1="0" x2="700" y2="0"/></g><line x1="100" y1="800" x2="100" y2="0" stroke="#9ca3af" stroke-width="2" marker-end="url(#arrow)"/><line x1="0" y1="700" x2="700" y2="700" stroke="#9ca3af" stroke-width="2" marker-end="url(#arrow)"/><text x="685" y="690" fill="#6b7280" font-size="16" font-family="sans-serif" font-weight="bold">x</text><text x="110" y="15" fill="#6b7280" font-size="16" font-family="sans-serif" font-weight="bold">k</text><g><polygon points="108.33333333333333,700 141.66666666666669,700 591.6666666666667,100 558.3333333333333,100" fill="rgba(99, 102, 241, 0.12)"/><line x1="108.33333333333333" y1="700" x2="141.66666666666669" y2="700" stroke="#6366f1" stroke-width="2.5" stroke-dasharray=""/><line x1="108.33333333333333" y1="700" x2="558.3333333333333" y2="100" stroke="#6366f1" stroke-width="2.5" stroke-dasharray=""/><line x1="558.3333333333333" y1="100" x2="591.6666666666667" y2="100" stroke="#6366f1" stroke-width="2.5" stroke-dasharray="8,6"/><line x1="141.66666666666669" y1="700" x2="591.6666666666667" y2="100" stroke="#6366f1" stroke-width="2.5" stroke-dasharray="8,6"/></g><g stroke="#f59e0b" stroke-width="1.5" stroke-dasharray="5,5" opacity="0.6"><line x1="37.5" y1="800" x2="637.5" y2="0"/><line x1="50" y1="800" x2="650" y2="0"/><line x1="62.5" y1="800" x2="662.5" y2="0"/></g><g fill="#d1d5db"><circle cx="0" cy="800" r="3"/><circle cx="50" cy="800" r="3"/><circle cx="100" cy="800" r="3"/><circle cx="150" cy="800" r="3"/><circle cx="200" cy="800" r="3"/><circle cx="250" cy="800" r="3"/><circle cx="300" cy="800" r="3"/><circle cx="350" cy="800" r="3"/><circle cx="400" cy="800" r="3"/><circle cx="450" cy="800" r="3"/><circle cx="500" cy="800" r="3"/><circle cx="550" cy="800" r="3"/><circle cx="600" cy="800" r="3"/><circle cx="650" cy="800" r="3"/><circle cx="700" cy="800" r="3"/><circle cx="0" cy="750" r="3"/><circle cx="50" cy="750" r="3"/><circle cx="100" cy="750" r="3"/><circle cx="150" cy="750" r="3"/><circle cx="200" cy="750" r="3"/><circle cx="250" cy="750" r="3"/><circle cx="300" cy="750" r="3"/><circle cx="350" cy="750" r="3"/><circle cx="400" cy="750" r="3"/><circle cx="450" cy="750" r="3"/><circle cx="500" cy="750" r="3"/><circle cx="550" cy="750" r="3"/><circle cx="600" cy="750" r="3"/><circle cx="650" cy="750" r="3"/><circle cx="700" cy="750" r="3"/><circle cx="0" cy="700" r="3"/><circle cx="50" cy="700" r="3"/><circle cx="100" cy="700" r="3"/><circle cx="150" cy="700" r="3"/><circle cx="200" cy="700" r="3"/><circle cx="250" cy="700" r="3"/><circle cx="300" cy="700" r="3"/><circle cx="350" cy="700" r="3"/><circle cx="400" cy="700" r="3"/><circle cx="450" cy="700" r="3"/><circle cx="500" cy="700" r="3"/><circle cx="550" cy="700" r="3"/><circle cx="600" cy="700" r="3"/><circle cx="650" cy="700" r="3"/><circle cx="700" cy="700" r="3"/><circle cx="0" cy="650" r="3"/><circle cx="50" cy="650" r="3"/><circle cx="100" cy="650" r="3"/><circle cx="200" cy="650" r="3"/><circle cx="250" cy="650" r="3"/><circle cx="300" cy="650" r="3"/><circle cx="350" cy="650" r="3"/><circle cx="400" cy="650" r="3"/><circle cx="450" cy="650" r="3"/><circle cx="500" cy="650" r="3"/><circle cx="550" cy="650" r="3"/><circle cx="600" cy="650" r="3"/><circle cx="650" cy="650" r="3"/><circle cx="700" cy="650" r="3"/><circle cx="0" cy="600" r="3"/><circle cx="50" cy="600" r="3"/><circle cx="100" cy="600" r="3"/><circle cx="150" cy="600" r="3"/><circle cx="250" cy="600" r="3"/><circle cx="300" cy="600" r="3"/><circle cx="350" cy="600" r="3"/><circle cx="400" cy="600" r="3"/><circle cx="450" cy="600" r="3"/><circle cx="500" cy="600" r="3"/><circle cx="550" cy="600" r="3"/><circle cx="600" cy="600" r="3"/><circle cx="650" cy="600" r="3"/><circle cx="700" cy="600" r="3"/><circle cx="0" cy="550" r="3"/><circle cx="50" cy="550" r="3"/><circle cx="100" cy="550" r="3"/><circle cx="150" cy="550" r="3"/><circle cx="200" cy="550" r="3"/><circle cx="300" cy="550" r="3"/><circle cx="350" cy="550" r="3"/><circle cx="400" cy="550" r="3"/><circle cx="450" cy="550" r="3"/><circle cx="500" cy="550" r="3"/><circle cx="550" cy="550" r="3"/><circle cx="600" cy="550" r="3"/><circle cx="650" cy="550" r="3"/><circle cx="700" cy="550" r="3"/><circle cx="0" cy="500" r="3"/><circle cx="50" cy="500" r="3"/><circle cx="100" cy="500" r="3"/><circle cx="150" cy="500" r="3"/><circle cx="200" cy="500" r="3"/><circle cx="250" cy="500" r="3"/><circle cx="300" cy="500" r="3"/><circle cx="350" cy="500" r="3"/><circle cx="400" cy="500" r="3"/><circle cx="450" cy="500" r="3"/><circle cx="500" cy="500" r="3"/><circle cx="550" cy="500" r="3"/><circle cx="600" cy="500" r="3"/><circle cx="650" cy="500" r="3"/><circle cx="700" cy="500" r="3"/><circle cx="0" cy="450" r="3"/><circle cx="50" cy="450" r="3"/><circle cx="100" cy="450" r="3"/><circle cx="150" cy="450" r="3"/><circle cx="200" cy="450" r="3"/><circle cx="250" cy="450" r="3"/><circle cx="350" cy="450" r="3"/><circle cx="400" cy="450" r="3"/><circle cx="450" cy="450" r="3"/><circle cx="500" cy="450" r="3"/><circle cx="550" cy="450" r="3"/><circle cx="600" cy="450" r="3"/><circle cx="650" cy="450" r="3"/><circle cx="700" cy="450" r="3"/><circle cx="0" cy="400" r="3"/><circle cx="50" cy="400" r="3"/><circle cx="100" cy="400" r="3"/><circle cx="150" cy="400" r="3"/><circle cx="200" cy="400" r="3"/><circle cx="250" cy="400" r="3"/><circle cx="300" cy="400" r="3"/><circle cx="400" cy="400" r="3"/><circle cx="450" cy="400" r="3"/><circle cx="500" cy="400" r="3"/><circle cx="550" cy="400" r="3"/><circle cx="600" cy="400" r="3"/><circle cx="650" cy="400" r="3"/><circle cx="700" cy="400" r="3"/><circle cx="0" cy="350" r="3"/><circle cx="50" cy="350" r="3"/><circle cx="100" cy="350" r="3"/><circle cx="150" cy="350" r="3"/><circle cx="200" cy="350" r="3"/><circle cx="250" cy="350" r="3"/><circle cx="300" cy="350" r="3"/><circle cx="350" cy="350" r="3"/><circle cx="450" cy="350" r="3"/><circle cx="500" cy="350" r="3"/><circle cx="550" cy="350" r="3"/><circle cx="600" cy="350" r="3"/><circle cx="650" cy="350" r="3"/><circle cx="700" cy="350" r="3"/><circle cx="0" cy="300" r="3"/><circle cx="50" cy="300" r="3"/><circle cx="100" cy="300" r="3"/><circle cx="150" cy="300" r="3"/><circle cx="200" cy="300" r="3"/><circle cx="250" cy="300" r="3"/><circle cx="300" cy="300" r="3"/><circle cx="350" cy="300" r="3"/><circle cx="400" cy="300" r="3"/><circle cx="450" cy="300" r="3"/><circle cx="500" cy="300" r="3"/><circle cx="550" cy="300" r="3"/><circle cx="600" cy="300" r="3"/><circle cx="650" cy="300" r="3"/><circle cx="700" cy="300" r="3"/><circle cx="0" cy="250" r="3"/><circle cx="50" cy="250" r="3"/><circle cx="100" cy="250" r="3"/><circle cx="150" cy="250" r="3"/><circle cx="200" cy="250" r="3"/><circle cx="250" cy="250" r="3"/><circle cx="300" cy="250" r="3"/><circle cx="350" cy="250" r="3"/><circle cx="400" cy="250" r="3"/><circle cx="500" cy="250" r="3"/><circle cx="550" cy="250" r="3"/><circle cx="600" cy="250" r="3"/><circle cx="650" cy="250" r="3"/><circle cx="700" cy="250" r="3"/><circle cx="0" cy="200" r="3"/><circle cx="50" cy="200" r="3"/><circle cx="100" cy="200" r="3"/><circle cx="150" cy="200" r="3"/><circle cx="200" cy="200" r="3"/><circle cx="250" cy="200" r="3"/><circle cx="300" cy="200" r="3"/><circle cx="350" cy="200" r="3"/><circle cx="400" cy="200" r="3"/><circle cx="450" cy="200" r="3"/><circle cx="550" cy="200" r="3"/><circle cx="600" cy="200" r="3"/><circle cx="650" cy="200" r="3"/><circle cx="700" cy="200" r="3"/><circle cx="0" cy="150" r="3"/><circle cx="50" cy="150" r="3"/><circle cx="100" cy="150" r="3"/><circle cx="150" cy="150" r="3"/><circle cx="200" cy="150" r="3"/><circle cx="250" cy="150" r="3"/><circle cx="300" cy="150" r="3"/><circle cx="350" cy="150" r="3"/><circle cx="400" cy="150" r="3"/><circle cx="450" cy="150" r="3"/><circle cx="500" cy="150" r="3"/><circle cx="600" cy="150" r="3"/><circle cx="650" cy="150" r="3"/><circle cx="700" cy="150" r="3"/><circle cx="0" cy="100" r="3"/><circle cx="50" cy="100" r="3"/><circle cx="100" cy="100" r="3"/><circle cx="150" cy="100" r="3"/><circle cx="200" cy="100" r="3"/><circle cx="250" cy="100" r="3"/><circle cx="300" cy="100" r="3"/><circle cx="350" cy="100" r="3"/><circle cx="400" cy="100" r="3"/><circle cx="450" cy="100" r="3"/><circle cx="500" cy="100" r="3"/><circle cx="550" cy="100" r="3"/><circle cx="600" cy="100" r="3"/><circle cx="650" cy="100" r="3"/><circle cx="700" cy="100" r="3"/><circle cx="0" cy="50" r="3"/><circle cx="50" cy="50" r="3"/><circle cx="100" cy="50" r="3"/><circle cx="150" cy="50" r="3"/><circle cx="200" cy="50" r="3"/><circle cx="250" cy="50" r="3"/><circle cx="300" cy="50" r="3"/><circle cx="350" cy="50" r="3"/><circle cx="400" cy="50" r="3"/><circle cx="450" cy="50" r="3"/><circle cx="500" cy="50" r="3"/><circle cx="550" cy="50" r="3"/><circle cx="600" cy="50" r="3"/><circle cx="650" cy="50" r="3"/><circle cx="700" cy="50" r="3"/><circle cx="0" cy="0" r="3"/><circle cx="50" cy="0" r="3"/><circle cx="100" cy="0" r="3"/><circle cx="150" cy="0" r="3"/><circle cx="200" cy="0" r="3"/><circle cx="250" cy="0" r="3"/><circle cx="300" cy="0" r="3"/><circle cx="350" cy="0" r="3"/><circle cx="400" cy="0" r="3"/><circle cx="450" cy="0" r="3"/><circle cx="500" cy="0" r="3"/><circle cx="550" cy="0" r="3"/><circle cx="600" cy="0" r="3"/><circle cx="650" cy="0" r="3"/><circle cx="700" cy="0" r="3"/></g><g fill="#ef4444"><circle cx="150" cy="650" r="6" stroke="white" stroke-width="2"/><circle cx="200" cy="600" r="6" stroke="white" stroke-width="2"/><circle cx="250" cy="550" r="6" stroke="white" stroke-width="2"/><circle cx="300" cy="450" r="6" stroke="white" stroke-width="2"/><circle cx="350" cy="400" r="6" stroke="white" stroke-width="2"/><circle cx="400" cy="350" r="6" stroke="white" stroke-width="2"/><circle cx="450" cy="250" r="6" stroke="white" stroke-width="2"/><circle cx="500" cy="200" r="6" stroke="white" stroke-width="2"/><circle cx="550" cy="150" r="6" stroke="white" stroke-width="2"/></g></svg>