<?xml version="1.0" encoding="utf-8"?>
<!-- Generator: Adobe Illustrator 25.3.1, SVG Export Plug-In . SVG Version: 6.00 Build 0)  -->
<svg version="1.1" id="图层_1" xmlns="http://www.w3.org/2000/svg" xmlns:xlink="http://www.w3.org/1999/xlink" x="0px" y="0px"
	 width="504.5px" height="469.8px" viewBox="0 0 504.5 469.8" style="enable-background:new 0 0 504.5 469.8;" xml:space="preserve"
	>
<style type="text/css">
	.st0{fill:none;stroke:#000000;stroke-width:5.6693;stroke-linecap:round;stroke-linejoin:round;}
	.st1{fill:none;stroke:#D20000;stroke-width:2.8346;stroke-linecap:round;stroke-linejoin:round;}
	.st2{fill:none;stroke:#F65353;stroke-width:2.8346;stroke-linecap:round;stroke-linejoin:round;}
	.st3{fill:none;stroke:#007AFF;stroke-width:2.8346;stroke-linecap:round;stroke-linejoin:round;}
	.st4{fill:none;stroke:#7EC636;stroke-width:2.8346;stroke-linecap:round;stroke-linejoin:round;}
	.st5{fill:none;stroke:#F59A23;stroke-width:2.8346;stroke-linecap:round;stroke-linejoin:round;}
	.st6{fill:none;stroke:#000000;stroke-width:2.8346;stroke-linecap:round;stroke-linejoin:round;}
</style>
<g>
	<path class="st0" d="M398.4,177.1h25.6 M257.4,177.1H360 M154.9,177.1h76.9 M78,177.1h38.5"/>
	<path class="st0" d="M386.4,294.3h38.9 M269.7,294.3h77.8 M153.1,294.3h77.8 M75.3,294.3h38.9"/>
	<path class="st0" d="M193.7,274.8v12.4 M193.7,137.9v99.6 M193.7,63.2V113"/>
	<path class="st0" d="M312.1,394.7v12.5 M312.1,257v100.1 M312.1,181.9V232"/>
	<polyline class="st0" points="76.4,61.5 426.2,61.5 426.2,411.3 76.4,411.3 76.4,61.5 	"/>
	<path class="st0" d="M121.2,181.2c-0.3-0.7-0.1-1,0.6-1.1c0.5,0,0.9,0.1,1.3,0.3c0.4,0.2,0.8,0.5,1.1,0.8c0.4,0.4,0.7,0.8,0.9,1.3
		c0.3,0.5,0.5,1.1,0.7,1.6c0.2,0.6,0.3,1.2,0.4,1.9c0.1,0.9,0.2,1.9,0.2,2.8c0,1.1-0.1,2.1-0.3,3.2c-0.1,0.7-0.3,1.3-0.5,2
		c-0.2,0.6-0.5,1.3-0.8,1.9c-0.4,0.8-0.7,1.4-1,1.8c-0.3,0.4-0.5,0.8-0.8,1.1c-0.3,0.4-0.8,1-1.4,1.9c-0.6,0.9-1.2,1.8-1.7,2.6
		c-0.3,0.6-0.7,1.2-0.9,1.8c-0.2,0.5-0.2,0.9-0.3,1.4c-0.1,0.4-0.1,0.8,0,1.3c0.2,0.4,0.4,0.7,0.7,1c0.6,0.8,1.5,1.4,2.4,1.7
		c0.7,0.3,1.4,0.5,2.1,0.7c0.9,0.2,1.7,0.3,2.6,0.3c1.1,0,2.1-0.1,3.2-0.4c1.1-0.3,2.2-0.5,3.1-0.7c1-0.2,1.9-0.4,2.9-0.6
		c1-0.2,1.8-0.4,2.5-0.6c0.7-0.2,1.3-0.3,1.7-0.5c0.4-0.1,0.8-0.3,1.1-0.5c0.4-0.3,0.8-0.6,1.2-1c1-1.1,2-2.2,2.8-3.5
		c0.4-0.6,0.7-1.2,1-1.9c0.3-0.6,0.5-1.2,0.7-1.8c0.2-0.7,0.3-1.4,0.3-2.2c0-0.7,0-1.3,0-2c-0.1-0.5-0.2-1-0.3-1.6
		c-0.2-0.6-0.3-1.1-0.3-1.4c-0.1-0.5-0.1-1.1-0.1-1.6c0-0.7,0-1.3,0-1.6c0-0.4,0.1-0.7,0.2-1.1c0.2-0.5,0.5-1,0.8-1.5
		c0.4-0.6,0.8-1.3,1.3-2.1c0.5-0.8,0.9-1.5,1.3-2.1c0.2-0.5,0.5-0.9,0.9-1.3c0.4-0.2,0.9-0.4,1.4-0.3c0.9,0,2.6,0,5,0.1"/>
	<path class="st0" d="M196.2,106.4c-0.2,0.4-0.3,0.8-0.3,1.2c0,0.5,0.2,0.9,0.5,1.3c0.4,0.7,0.9,1.3,1.4,1.9
		c0.6,0.7,1.1,1.3,1.4,1.7c0.3,0.4,0.7,0.8,1.1,1.1c0.3,0.3,0.7,0.6,1.1,0.9c0.3,0.2,0.7,0.5,1,0.6c0.4,0.2,0.9,0.3,1.4,0.3
		c0.5,0,1,0,1.4-0.2c0.6-0.3,1.1-0.8,1.6-1.2c0.7-0.6,1.9-1.8,3.6-3.4c1.7-1.6,2.8-2.8,3.4-3.4c0.6-0.6,1.1-1.1,1.4-1.4
		c0.3-0.3,0.6-0.6,0.9-0.8c0.3-0.2,0.6-0.4,1-0.6c0.4-0.2,0.8-0.4,1.2-0.5c0.5-0.1,0.9-0.2,1.4-0.3c0.8-0.1,1.6-0.1,2.4-0.1
		c0.8,0,1.6,0,2.4,0.2c0.6,0.1,1.2,0.3,1.7,0.6c0.5,0.2,1,0.5,1.5,0.8c0.3,0.2,0.7,0.5,0.9,0.8c0.3,0.4,0.6,0.8,0.9,1.2
		c0.3,0.5,0.6,1.1,0.9,1.7c0.2,0.5,0.4,1.1,0.6,1.6c0.1,0.5,0.2,1,0.3,1.6c0.1,0.8,0.2,1.6,0.3,2.3c0.1,1,0.1,2.1,0.1,3.3
		c0,1.2,0,2.1,0,2.7c0,0.6-0.1,1.1-0.2,1.7c-0.1,0.6-0.3,1.4-0.5,2.5c-0.3,1.1-0.6,2.6-1,4.5s-0.7,3.2-0.8,3.7
		c-0.2,0.5-0.4,1.1-0.6,1.6c-0.2,0.5-0.5,0.9-0.8,1.4c-0.3,0.4-0.6,0.8-1,1.1c-0.4,0.3-0.9,0.5-1.4,0.7c-0.6,0.2-1.3,0.3-1.9,0.4
		c-0.7,0.1-1.6,0.2-2.5,0.2c-0.9,0.1-1.9,0.1-3,0.1c-0.7,0-1.5,0-2.2-0.1c-0.6-0.2-1.2-0.5-1.8-0.9c-0.7-0.4-1.5-0.8-2.3-1.2
		c-0.7-0.3-1.2-0.5-1.5-0.6c-0.8-0.2-1.6-0.4-2.4-0.6c-1.2-0.3-2.1-0.4-2.7-0.5c-0.5-0.1-1.1-0.1-1.7-0.1c-0.4,0-0.7,0-1.1,0
		c-0.4,0.1-0.8,0.4-1.2,0.6c-0.5,0.4-1,0.7-1.4,1.2c-0.5,0.4-0.9,0.9-1.3,1.4c-0.5,0.5-0.9,1.1-1.3,1.7c-0.4,0.6-0.7,1.1-0.9,1.4
		c-0.2,0.3-0.3,0.6-0.4,0.9c-0.2,0.7-0.4,1.4-0.4,2.1"/>
	<path class="st0" d="M231.9,180.6c0-0.3,0.1-0.6,0.4-0.8c0.2-0.1,0.5-0.2,0.8-0.1c0.3,0,0.6,0,0.9,0.1c0.3,0.1,0.6,0.2,0.8,0.3
		c0.7,0.3,1.3,0.8,1.8,1.3c0.3,0.3,0.5,0.6,0.7,0.9c0.2,0.3,0.4,0.7,0.5,1c0.2,0.4,0.3,0.8,0.4,1.2c0.1,0.7,0.2,1.5,0.2,2.2
		c0,0.8,0,1.7-0.2,2.5c-0.1,0.6-0.3,1.3-0.4,1.9c-0.2,0.6-0.4,1.2-0.6,1.8c-0.2,0.6-0.6,1.7-1,3.2c-0.5,1.6-0.8,2.6-0.9,3
		c-0.1,0.5-0.2,0.9-0.3,1.3c-0.1,0.6-0.1,1.3-0.1,1.9c0,0.6,0,1.3,0.1,1.9c0.1,0.4,0.2,0.7,0.4,1.1c0.2,0.4,0.4,0.7,0.7,1
		c0.4,0.5,0.9,1,1.4,1.4c0.7,0.6,1.4,1.1,2.1,1.7c0.7,0.5,1.3,0.9,1.7,1.2c0.4,0.3,0.8,0.5,1.3,0.7c0.5,0.2,0.9,0.4,1.4,0.6
		c1.2,0.4,2.5,0.7,3.8,0.8c0.7,0.1,1.8,0.1,3.5,0.1c1,0,2.1,0,3.1-0.1c0.4-0.1,1-0.1,1.9-0.2c0.7-0.1,1.4-0.2,2.1-0.3
		c0.5-0.1,1.1-0.2,1.7-0.4c0.6-0.2,1.1-0.3,1.6-0.6c0.5-0.2,0.9-0.4,1.4-0.7c0.4-0.3,0.9-0.6,1.2-0.9c0.4-0.3,0.7-0.6,0.9-1
		c0.2-0.3,0.4-0.7,0.5-1c0.2-0.6,0.2-1.1,0.3-1.7c0.1-0.6,0-1.3-0.1-1.9c-0.1-0.6-0.3-1.1-0.5-1.6c-0.2-0.6-0.4-1.3-0.7-1.9
		c-0.3-0.7-0.6-1.4-0.9-2.1c-0.3-0.7-0.7-1.4-1.1-2.1c-0.4-0.7-0.9-1.6-1.6-2.7c-0.7-1.1-1.1-1.9-1.4-2.4c-0.2-0.5-0.5-1-0.6-1.4
		c-0.2-0.4-0.3-0.9-0.3-1.3c-0.1-0.4-0.1-0.9-0.1-1.3c0-0.4,0.1-0.8,0.2-1.2c0.1-0.4,0.3-0.7,0.6-1c0.3-0.3,0.6-0.7,0.9-1
		c0.3-0.3,0.7-0.6,1.1-0.9c0.4-0.3,0.8-0.5,1.2-0.7c0.4-0.2,0.8-0.4,1.2-0.6c0.4-0.2,0.8-0.3,1.2-0.4c0.7-0.1,1.3-0.2,2-0.2
		c0.9-0.1,1.6-0.1,2.2-0.1c0.5,0,1.1,0,1.6,0c0.5,0,1,0.1,1.5,0.3c0.4,0.1,0.8,0.3,1.2,0.5c0.7,0.5,1.3,1.2,1.7,2"/>
	<path class="st0" d="M193.3,231.3c0.3,0.8,0.7,1.5,1.2,2.2c0.5,0.8,1,1.4,1.4,1.9c0.4,0.5,0.9,1,1.3,1.5c0.5,0.5,0.9,1,1.4,1.5
		c0.5,0.5,1,0.9,1.4,1.3c0.4,0.3,0.8,0.6,1.3,0.9c0.3,0.2,0.7,0.4,1.1,0.5c0.3,0.1,0.7,0.1,1.1,0.1c0.4,0,0.7-0.1,1-0.3
		c0.6-0.4,1.2-0.8,1.8-1.3c0.8-0.7,1.4-1.2,1.9-1.5c0.4-0.4,1-0.9,1.7-1.7c0.5-0.5,1-1.1,1.5-1.7c0.3-0.5,0.6-1,0.8-1.5
		c0.3-0.6,0.5-1.3,0.7-2c0.1-0.5,0.3-1,0.5-1.4c0.2-0.3,0.6-0.5,1-0.5c0.7,0,1.5,0.3,2.1,0.7c0.9,0.5,1.7,1,2.5,1.6
		c0.8,0.6,1.9,1.3,3.2,2.3c1.4,1,2.5,1.8,3.4,2.4c0.9,0.6,1.5,1.1,1.8,1.4c0.3,0.3,0.7,0.6,1,1c0.3,0.3,0.6,0.7,0.8,1
		c0.3,0.6,0.6,1.2,0.9,1.8c0.6,1.2,1,2.5,1.1,3.9c0.1,1,0.2,1.9,0.2,2.9c0,0.8,0,1.7-0.2,2.5c-0.1,0.6-0.3,1.3-0.4,1.9
		c-0.2,0.6-0.4,1.3-0.6,1.9s-0.5,1.3-0.7,2c-0.3,0.7-0.6,1.5-1.1,2.6s-0.9,1.9-1.1,2.4s-0.6,1-0.8,1.4c-0.3,0.4-0.6,0.8-0.9,1.2
		c-0.3,0.4-0.7,0.8-1.1,1.1c-0.4,0.3-0.8,0.6-1.2,0.9c-0.4,0.2-0.9,0.5-1.3,0.6c-0.5,0.2-1,0.3-1.5,0.3c-0.6,0.1-1.3,0.1-2,0.1
		c-0.6,0-1.2-0.1-1.8-0.2c-0.3-0.1-0.6-0.2-0.9-0.4c-0.4-0.2-0.8-0.5-1.2-0.8c-0.5-0.4-1-0.7-1.5-1c-0.6-0.3-1.2-0.6-1.8-0.7
		c-0.7-0.2-1.6-0.4-2.8-0.6s-2.8-0.6-4.7-1.1c-1.4-0.4-2.8-0.7-4.2-0.8c-0.7-0.1-1.4,0-2,0.2c-0.4,0.1-0.9,0.4-1.3,0.6
		c-0.3,0.2-0.6,0.5-0.8,0.9c-0.2,0.4-0.3,0.8-0.3,1.3c0,0.5,0,0.9,0.1,1.4c0.5,1.2,1.2,2.3,2,3.3"/>
	<path class="st0" d="M314.1,225.5c-0.6-0.3-0.9,0-0.9,0.7c0,0.5,0,1,0,1.4c0.1,0.5,0.2,1,0.4,1.4c0.2,0.5,0.4,1,0.7,1.5
		c0.3,0.5,0.6,1,0.9,1.5c0.3,0.5,0.6,0.9,1,1.3c0.3,0.4,0.7,0.7,1.1,1c0.4,0.3,0.7,0.5,1.2,0.6c0.4,0.1,0.8,0.2,1.2,0.2
		c0.5,0,0.9,0,1.4,0c0.5,0,1-0.2,1.4-0.4c0.5-0.2,0.9-0.5,1.3-0.7c0.5-0.3,0.9-0.6,1.3-1c0.4-0.3,0.8-0.7,1.2-1.1
		c0.3-0.4,0.7-0.8,0.9-1.3c0.3-0.5,0.6-1,0.8-1.6c0.3-0.6,0.5-1.2,0.6-1.8c0.2-0.6,0.3-1.6,0.6-2.9c0.2-1.3,0.4-2.1,0.5-2.6
		c0.1-0.4,0.3-0.8,0.4-1.2c0.2-0.3,0.3-0.6,0.5-0.9c0.3-0.3,0.6-0.6,1-0.8c0.5-0.3,1.1-0.6,1.7-0.7c0.5-0.2,1.1-0.3,1.6-0.4
		c0.6-0.1,1.2-0.2,1.9-0.2c0.6,0,1.3,0,1.9,0c0.4,0,0.8,0.1,1.2,0.3c0.4,0.1,0.7,0.3,1.1,0.5c0.5,0.3,0.9,0.6,1.3,1
		c0.4,0.4,0.8,0.8,1.2,1.2c0.3,0.5,0.6,1,0.9,1.5c0.4,0.7,0.8,1.5,1.1,2.4c0.4,0.8,0.7,1.8,1.1,2.8c0.4,1.1,0.6,1.8,0.7,2.3
		c0.1,0.5,0.3,1,0.4,1.6c0.1,0.9,0.2,1.9,0.2,2.8c0,0.9,0,1.8,0,2.7c0,0.4-0.2,1.3-0.5,2.7c-0.3,1.4-0.6,2.8-1,4.2
		c-0.4,1.4-0.7,2.5-0.9,3.4c-0.2,0.9-0.5,1.6-0.7,2.2c-0.2,0.6-0.5,1.2-0.8,1.7c-0.3,0.4-0.5,0.9-0.9,1.2c-0.3,0.4-0.7,0.6-1.1,0.9
		c-0.7,0.3-1.4,0.5-2.2,0.6c-1,0.2-2.2,0.4-3.8,0.6c-1.6,0.2-3.6,0.4-6,0.7c-2.4,0.2-4.1,0.4-4.8,0.5c-0.8,0.1-1.6,0.3-2.4,0.4
		c-0.8,0.2-1.5,0.3-1.9,0.4c-0.6,0.1-1.1,0.3-1.7,0.5c-0.5,0.2-1,0.4-1.4,0.6c-0.3,0.2-0.7,0.5-0.9,0.9c-0.3,0.3-0.5,0.7-0.7,1
		c-0.2,0.4-0.3,0.8-0.3,1.3c-0.1,0.6-0.2,1.3-0.1,1.9c0,0.8,0.2,1.5,0.6,2.2c0.3,0.6,0.5,1.2,0.9,1.7"/>
	<path class="st0" d="M356.5,183c0.5,0.4,1,0.7,1.5,0.9c0.7,0.3,1.5,0.7,2.4,1.1c0.9,0.4,1.6,0.7,2.1,0.9c0.5,0.3,1,0.5,1.6,0.8
		c0.5,0.3,1,0.6,1.4,1c0.4,0.3,0.8,0.7,1.2,1.1c0.4,0.4,0.7,0.8,1,1.2c0.3,0.4,0.5,0.8,0.8,1.2c0.2,0.4,0.4,0.7,0.5,1.1
		c0.1,0.3,0.2,0.7,0.3,1c0.1,0.6,0.2,1.2,0.1,1.9c0,0.8-0.1,1.5-0.3,2.2c-0.2,0.6-0.6,1.5-1.2,2.8c-0.6,1.3-1.2,2.6-1.8,3.8
		c-0.6,1.2-1.1,2.1-1.4,2.6c-0.3,0.5-0.6,1.1-0.9,1.7c-0.3,0.6-0.5,1.2-0.7,1.8c-0.2,0.7-0.3,1.4-0.3,2.1c0,0.6,0,1.1,0,1.7
		c0.1,0.6,0.3,1.2,0.6,1.7c0.2,0.6,0.5,1.1,0.8,1.7c0.2,0.4,0.4,0.7,0.7,1c0.2,0.3,0.5,0.6,0.7,0.8c0.4,0.3,0.9,0.6,1.3,0.9
		c0.5,0.3,1,0.5,1.5,0.8c0.4,0.2,0.8,0.3,1.2,0.3c0.4,0.1,0.9,0.1,1.5,0.2c0.6,0,1.5,0.1,2.7,0.1c1,0,1.9,0,2.9-0.1
		c0.6-0.1,1.2-0.2,1.7-0.3c0.7-0.2,1.4-0.4,2-0.7c1-0.4,2-0.9,3-1.5c1.1-0.6,1.9-1.1,2.3-1.3c0.4-0.3,0.8-0.5,1.1-0.8
		c0.4-0.3,0.7-0.7,1.1-1c0.3-0.4,0.6-0.8,0.9-1.2c0.3-0.4,0.5-0.9,0.7-1.4c0.2-0.5,0.4-1,0.5-1.6c0.1-0.6,0.2-1.1,0.2-1.7
		c0-0.6,0-1.2,0-1.9c0-0.7-0.1-1.4-0.3-2.2c-0.2-0.8-0.3-1.5-0.5-2.2c-0.2-0.7-0.5-1.7-0.9-2.8c-0.4-1.2-0.7-2.1-0.9-2.7
		c-0.2-0.6-0.3-1.2-0.4-1.8c0-0.5,0-0.9,0.1-1.4c0.2-0.6,0.4-1.2,0.6-1.8c0.3-0.9,0.7-1.9,1.1-3s0.8-2.1,1.2-3.1
		c0.4-0.9,0.8-1.7,1.1-2.4c0.3-0.6,0.7-1.2,1-1.7c0.3-0.5,0.7-0.9,1.1-1.3c0.4-0.4,0.8-0.7,1.3-1.1c1-0.7,2.1-1.1,3.3-1.2
		c0.6-0.1,1.2-0.1,1.8-0.1c0.9,0,1.3,0.4,1.2,1.1"/>
	<path class="st0" d="M346.6,296.8c-0.2-0.4,0-0.6,0.7-0.6c0.6,0,1.6,0,2.8,0c1.2,0,2,0,2.4,0.1c0.8,0.1,1.6,0.3,2.2,0.7
		c0.3,0.2,0.6,0.4,0.9,0.7c0.2,0.2,0.5,0.5,0.7,0.7c0.2,0.3,0.4,0.5,0.5,0.8c0.2,0.5,0.3,1,0.3,1.5c0.1,0.7,0.1,1.3,0.1,1.7
		c0,0.5,0,0.9-0.1,1.4c-0.1,0.7-0.3,1.5-0.4,2.2c-0.3,1-0.5,2-0.8,2.9c-0.3,0.9-0.6,1.9-0.9,2.9c-0.3,1-0.6,2-0.8,3
		c-0.2,1-0.4,1.8-0.5,2.3c-0.1,0.5-0.2,1.2-0.3,2.1s-0.2,1.7-0.2,2.3c0,0.7,0,1.2,0,1.5c0.1,0.4,0.2,0.8,0.4,1.2
		c0.3,0.5,0.6,1,1,1.5c0.3,0.4,0.6,0.7,1,1c0.3,0.2,0.6,0.5,1,0.7c0.4,0.2,0.8,0.5,1.2,0.6c0.5,0.2,1.1,0.4,1.6,0.6
		c0.6,0.2,1.3,0.4,2.1,0.5c0.8,0.2,1.5,0.3,2.3,0.4c0.8,0.1,1.8,0.2,3.1,0.3s2.9,0.2,4.8,0.2c1.9,0,3.1,0,3.7-0.1
		c0.6-0.1,1.2-0.1,1.7-0.2c0.5-0.1,0.9-0.2,1.4-0.3c0.4-0.1,0.7-0.3,1-0.5c0.3-0.2,0.5-0.4,0.6-0.7c0.2-0.3,0.4-0.6,0.5-1
		c0.2-0.6,0.4-1.2,0.5-1.9c0.2-0.9,0.3-1.6,0.4-2c0.1-0.7,0.1-1.4,0.1-2.1c0-0.9,0-1.6,0-2.1c-0.1-0.8-0.2-1.7-0.4-2.5
		c-0.3-1.2-0.6-2.6-1.1-4.2c-0.4-1.6-0.7-2.8-0.9-3.5c-0.1-0.7-0.2-1.4-0.2-2.2c0-0.5,0-1.1,0-1.6c0.1-0.4,0.1-0.8,0.3-1.3
		c0.1-0.5,0.3-1.1,0.7-2c0.2-0.7,0.5-1.4,0.8-2c0.2-0.4,0.4-0.8,0.7-1.2c0.2-0.3,0.5-0.7,0.8-1c0.3-0.3,0.6-0.6,1-0.8
		c0.4-0.2,0.7-0.5,1.2-0.6c0.4-0.2,0.9-0.3,1.3-0.4c0.5-0.1,0.9-0.2,1.4-0.3c0.6-0.1,1.2-0.1,1.9-0.2c0.5,0,1.1,0,1.6,0
		c0.3,0,0.5,0.1,0.8,0.3c0.3,0.2,0.5,0.5,0.7,0.8c0.5,0.9,0.8,1.8,0.9,2.8"/>
	<path class="st0" d="M114.2,294.9c-0.1-0.4,0-0.5,0.4-0.5c0.7,0.2,1.3,0.4,1.9,0.8c1,0.5,1.8,0.9,2.5,1.3c0.6,0.3,1.2,0.7,1.8,1.1
		c0.4,0.3,0.8,0.6,1.2,1c0.2,0.2,0.4,0.5,0.6,0.7c0.1,0.2,0.2,0.5,0.3,0.7c0.1,0.4,0.1,0.9,0.1,1.4c0,0.6-0.1,1.1-0.3,1.6
		c-0.2,0.5-0.5,0.9-0.7,1.3c-0.3,0.5-1,1.4-2.1,2.8c-1.1,1.4-1.8,2.3-2.1,2.7c-0.4,0.6-0.8,1.2-1.1,1.8c-0.4,0.7-0.7,1.4-0.9,2.2
		c-0.2,0.7-0.3,1.5-0.3,2.2c0,0.6,0,1.2,0,1.9c0,0.4,0.1,0.9,0.2,1.3c0.2,0.5,0.4,1,0.6,1.5c0.3,0.6,0.6,1.1,0.8,1.4
		c0.4,0.6,0.9,1.2,1.6,1.7c0.5,0.4,1.1,0.7,1.7,1c0.6,0.3,1.3,0.6,1.9,0.9c0.7,0.2,1.4,0.4,2.1,0.5c0.9,0.2,1.6,0.3,2,0.3
		c0.4,0,0.8,0.1,1.2,0.2c0.7,0.1,1.3,0.2,2,0.3c0.9,0.1,2.2,0.1,3.9,0.1c1.7,0,3.1,0.1,4.4,0.2c1.3,0.1,2.3,0.2,3.1,0.2
		c0.8,0,1.3,0,1.6,0c0.4-0.1,0.9-0.2,1.3-0.4c0.4-0.2,0.9-0.4,1.3-0.6c0.3-0.2,0.6-0.4,0.8-0.6c0.2-0.2,0.5-0.5,0.7-0.7
		c0.2-0.3,0.4-0.5,0.5-0.8c0.2-0.5,0.3-1,0.4-1.6c0.1-0.8,0.2-1.7,0.2-2.5c0-1-0.1-2-0.2-3c-0.1-1-0.3-2-0.4-2.9
		c-0.1-0.9-0.3-1.9-0.5-2.9c-0.2-1-0.4-2.1-0.6-3.2c-0.1-0.9-0.2-1.9-0.3-2.9c0-0.7,0.1-1.5,0.2-2.2c0.3-1.3,0.9-2.4,1.7-3.4
		c0.4-0.5,0.8-0.9,1.3-1.3c0.5-0.4,0.9-0.8,1.5-1.2c0.5-0.3,1-0.7,1.5-0.9c0.4-0.2,0.8-0.3,1.2-0.4c0.6-0.1,1.2-0.1,1.8-0.1
		c0.7,0,1.4,0.1,2.1,0.3c0.4,0.1,0.8,0.3,1.2,0.4c0.5,0.3,0.9,0.6,1.3,1"/>
	<path class="st0" d="M230.7,295.4c-0.2-1.3-0.1-2,0.4-2.1c0.5-0.1,1-0.2,1.5-0.2c0.7,0,1.2,0,1.7,0c0.5,0,1,0.1,1.4,0.2
		c0.5,0.1,1,0.3,1.5,0.5c0.5,0.2,1,0.4,1.4,0.7c0.4,0.3,0.8,0.6,1.2,0.9c0.4,0.3,0.7,0.7,1,1c0.3,0.3,0.5,0.7,0.7,1.1
		c0.2,0.3,0.3,0.7,0.4,1.1c0.1,0.4,0.2,0.8,0.2,1.1c0,0.4,0,0.9,0,1.3c-0.1,0.8-0.3,1.6-0.5,2.4c-0.3,1.1-0.7,2.3-1.2,3.5
		c-0.5,1.2-1,2.7-1.7,4.3c-0.7,1.7-1.1,2.8-1.3,3.3c-0.2,0.5-0.3,1-0.5,1.5c-0.1,0.4-0.2,0.9-0.3,1.4c-0.1,0.6-0.1,1.2-0.1,1.8
		c0,0.5,0,1,0.2,1.5c0.1,0.3,0.3,0.6,0.5,0.8c0.3,0.4,0.7,0.7,1.1,1c0.5,0.4,1,0.8,1.3,1.1c0.3,0.3,0.7,0.5,1,0.6
		c0.4,0.2,0.8,0.3,1.3,0.3c0.8,0.1,1.5,0.2,2.3,0.2c1.1,0,2.2,0.1,3.5,0.1c1.3,0,2.2,0,2.8-0.1c0.5,0,1-0.1,1.5-0.2
		c0.4-0.1,0.8-0.2,1.1-0.3c0.4-0.2,0.8-0.4,1.2-0.7c0.5-0.4,1.1-0.8,1.6-1.2c0.5-0.5,1.2-1,1.9-1.5c0.7-0.5,1.3-1,1.7-1.2
		c0.4-0.3,0.8-0.6,1.2-0.9c0.4-0.3,0.8-0.7,1.2-1c0.4-0.3,0.7-0.7,1-1.1c0.3-0.4,0.5-0.8,0.8-1.2c0.2-0.4,0.4-0.8,0.5-1.2
		c0.1-0.6,0.2-1.2,0.2-1.8c0-0.8,0-2-0.1-3.4c-0.1-1.4-0.1-2.7-0.1-3.6c0-1,0-1.7,0-2.2c0-0.5,0.1-1.4,0.2-2.7
		c0.1-0.9,0.3-1.8,0.6-2.7c0.2-0.4,0.4-0.8,0.7-1.1c0.2-0.2,0.5-0.4,0.8-0.5c0.8-0.2,1.7-0.2,2.6-0.2c1.4,0,2.7-0.1,3.8-0.1
		c1.1-0.1,2-0.2,2.7-0.3c0.5-0.1,1-0.2,1.5-0.3"/>
	<path class="st0" d="M316.9,357c-0.4,0.1-0.7,0.4-0.9,0.7c-0.1,0.3-0.2,0.7-0.2,1c0,0.5,0,0.9,0.2,1.4c0.2,0.6,0.5,1.3,0.8,1.9
		c0.4,0.7,0.7,1.4,1,1.8c0.3,0.5,0.6,0.9,0.9,1.3c0.3,0.4,0.8,0.8,1.3,1.1c0.6,0.3,1.2,0.5,1.8,0.5c0.6,0.1,1.1,0.1,1.7,0.1
		c0.4,0,0.8-0.1,1.2-0.2c0.4-0.2,0.8-0.3,1.2-0.5c0.4-0.2,0.8-0.4,1.1-0.7c0.5-0.4,1-0.9,1.5-1.4c0.6-0.6,1.1-1.2,1.5-1.9
		c0.4-0.6,0.8-1.3,1.1-1.9c0.3-0.7,0.6-1.3,0.9-1.8c0.5-1.1,1.3-2,2.3-2.8c0.6-0.4,1.1-0.8,1.8-1.1c0.7-0.3,1.3-0.6,2-0.8
		c0.7-0.2,1.4-0.4,2.2-0.6c0.8-0.2,1.7-0.3,2.9-0.5c1.2-0.2,2.2-0.3,3.1-0.3c0.9,0,1.8-0.1,2.7-0.1c0.6,0,1.3,0,1.9,0.1
		c0.5,0.1,1,0.4,1.4,0.7c0.4,0.3,0.8,0.6,1.2,0.9c0.5,0.6,1,1.1,1.4,1.8c0.7,0.9,1.2,1.7,1.6,2.4c0.4,0.7,0.8,1.4,1.1,2.1
		c0.3,0.6,0.5,1.1,0.7,1.7c0.1,0.4,0.2,0.8,0.3,1.2c0.1,1.2,0.2,2.4,0.1,3.6c0,2,0,3.2,0,3.7c0,0.5-0.1,1-0.2,1.4
		c-0.1,0.5-0.3,1.4-0.7,2.7c-0.4,1.3-0.8,2.6-1.3,3.8c-0.4,1.2-0.8,2.2-1.1,2.8c-0.3,0.6-0.6,1.3-0.9,1.9c-0.3,0.6-0.7,1.1-1.1,1.6
		c-0.3,0.4-0.7,0.7-1,1.1c-0.3,0.2-0.6,0.4-0.9,0.6c-0.5,0.3-0.9,0.5-1.4,0.6c-0.6,0.2-1.3,0.4-2,0.4c-0.7,0-1.7,0.1-3,0.1
		c-1.3,0-2.4,0-3.2,0.1c-0.8,0.1-1.5,0.1-2.3,0.1c-0.8,0-1.6-0.1-2.4-0.4c-0.8-0.3-1.8-0.5-2.8-0.8c-1.1-0.3-2-0.5-2.9-0.6
		c-1.7-0.2-3.4-0.3-5.1-0.3c-2.5,0-4.4,0-5.5-0.1c-0.7,0-1.4,0-2.1,0c-0.3,0-0.5,0.1-0.8,0.2c-0.3,0.2-0.6,0.4-0.8,0.7
		c-0.2,0.2-0.4,0.5-0.5,0.8c-0.1,0.4-0.2,0.8-0.3,1.2c-0.1,0.7-0.1,1.4-0.2,2.1c0,0.8,0,1.9,0,3.4c0,1.5,0.1,2.2,0.3,2.2"/>
	<path class="st1" d="M197.3,85.6c-0.3-0.6-0.5-1.2-0.8-1.8"/>
	<path class="st2" d="M85.7,71.3c-0.2-0.1-0.2,0.1-0.1,0.4c0.2,0.5,0.3,0.9,0.4,1.4c0.1,1.3,0.2,2.5,0.2,3.8c0,1.9,0,3.3-0.1,4.3
		c-0.1,1-0.2,2.1-0.2,3.4c-0.1,1.3-0.1,2.4-0.1,3.5c0,1,0,2.5-0.1,4.3c-0.1,1.8-0.1,3.3-0.1,4.2c0,1,0,3.2,0,6.8c0,3.5,0,5.5,0,5.8
		c0,0.3-0.1,0.8-0.1,1.5c-0.1,0.6-0.2,1.3-0.2,2c-0.1,0.7-0.1,1.5-0.1,2.5c0,1,0,2.6,0,4.7c0,2.2,0,3.6,0,4.3c0,0.7,0,1.3,0,2
		c0,0.7,0,1.6,0,2.8c0,1.2,0.1,2.3,0.1,3.5c0.1,1.2,0.1,2,0.2,2.6c0.1,0.6,0.1,1.3,0.3,2.2c0.1,0.9,0.2,1.6,0.3,2.2
		c0,0.6,0.1,1.4,0.1,2.4c0,1,0,1.8,0.1,2.5c0,0.6,0.1,1.4,0.2,2.2c0.1,0.8,0.2,1.5,0.2,2c0,0.5,0.1,1.3,0.1,2.5
		c0.1,1.1,0.1,2.2,0.2,3.1c0.1,1,0.1,1.9,0.2,2.8s0.2,1.9,0.3,3c0.1,1,0.1,1.8,0.2,2.4c0,0.5,0.1,1.3,0.2,2.2
		c0.1,0.9,0.1,1.6,0.2,2.3c0,0.5,0,0.9-0.2,1.3c-0.1,0.3-0.2,0.4-0.3,0.3c-0.2-0.1-0.3-0.3-0.4-0.8"/>
	<path class="st2" d="M89.4,71.8c-0.3,0-0.6-0.1-0.9-0.2c-0.1-0.1-0.1-0.1-0.1-0.1l0.4,0c0.2,0,0.8,0,1.8,0c1,0,1.9,0,2.9,0.1
		c0.9,0,3.4,0.1,7.6,0.1c4.1,0,6.4,0,6.9,0.1c0.5,0.1,0.9,0.1,1.4,0.2c0.5,0.1,1.3,0.3,2.4,0.6c1,0.3,2,0.5,3,0.6
		c0.8,0.1,2.1,0.3,3.8,0.5c1.7,0.2,3,0.3,3.9,0.4c0.9,0.1,2.2,0.1,3.6,0.2c1.5,0,3.3,0,5.5,0c2.2,0,3.5,0,4,0c0.5,0,1.5-0.1,2.9-0.2
		c1.5-0.1,2.9-0.1,4.5-0.2c1.5,0,2.7,0,3.5,0.1c0.8,0.1,1.8,0.1,3.1,0.2c1.2,0.1,2.7,0.1,4.3,0.1c1.6,0,2.6,0,3,0
		c0.7-0.1,1.4-0.2,2.1-0.3c1-0.2,1.8-0.4,2.3-0.5c0.5-0.1,0.9-0.2,1.2-0.2c0.3,0,1.1-0.1,2.4-0.1c1.3,0,2.4,0,3.1,0.1
		c0.8,0.1,1.6,0.1,2.4,0.1c0.7,0,1.4,0,2.1-0.1c0.6-0.1,1.4-0.2,2.4-0.2c0.9-0.1,1.8-0.1,2.5-0.1c0.9,0,1.7,0.1,2.6,0.2
		c0.7,0.1,1.3,0.2,1.9,0.5c0.4,0.2,0.3,0.5-0.4,0.7"/>
	<path class="st2" d="M87,186.5c-0.2-0.7-0.5-1-0.7-0.9c-0.1,0-0.3,0.2-0.5,0.5c-0.2,0.3-0.4,0.7-0.5,1c-0.2,0.4-0.3,0.8-0.4,1.2
		c-0.2,0.6-0.3,1.2-0.3,1.8c-0.1,0.7-0.2,1.6-0.2,2.5c0,0.9-0.1,2.6-0.1,5c0,2.4,0,4.1,0,5.1c0,1,0.1,2.4,0.2,4.4
		c0.1,2,0.1,3.6,0.2,5c0,1.3,0.1,2.4,0.1,3.1c0,0.8,0.1,1.5,0.2,2.4c0.1,0.8,0.1,1.9,0.2,3.3c0.1,1.4,0.2,2.7,0.3,3.9
		c0.1,1.2,0.2,2.6,0.3,4.1c0.1,1.5,0.1,2.7,0.2,3.7c0,1,0,1.9,0,2.7c0,0.8,0,1.5,0,2c0,0.5,0.1,1.2,0.1,2c0.1,0.8,0.1,1.7,0.2,2.6
		s0.1,1.8,0.2,2.6c0.1,0.9,0.1,1.9,0.2,3.1c0,1.2,0,2.1,0,2.5c0,0.6,0.1,1.2,0.2,1.7c0.1,0.7,0.2,1.5,0.3,2.4
		c0.1,0.9,0.2,1.7,0.3,2.5c0.1,0.8,0.2,1.5,0.2,2.3c0,0.8,0.1,1.7,0.1,2.7c0,1,0,2.3-0.1,3.8s-0.1,2.7-0.2,3.5c0,0.8,0,1.5,0,2
		c0,0.5,0,1.1,0.1,1.7c0.1,0.6,0.1,1.5,0.1,2.6c0,1.1,0.1,2.1,0.1,2.8c0.1,0.8,0.1,1.4,0.1,1.9c0,0.5,0,1,0.1,1.6
		c0.1,0.5,0.1,0.9,0.1,1.1c0,0.2,0.2,0.3,0.4,0.2"/>
	<path class="st2" d="M88.9,285.6c0.1-0.4,0.3-0.8,0.6-1.1c0.1-0.1,0.3-0.2,0.5-0.3c0.1,0,0.3,0.1,0.5,0.3c0.2,0.2,0.5,0.4,0.8,0.6
		c0.4,0.2,0.7,0.4,1.2,0.5c0.4,0.1,0.9,0.2,1.3,0.2c0.4,0,0.9,0,1.4,0c0.6,0,1.3,0,1.9-0.1c0.7-0.1,1.6-0.2,2.7-0.4
		c1.1-0.2,2.1-0.4,2.9-0.5c0.8-0.2,1.5-0.3,2-0.3c0.6-0.1,1.3-0.1,1.9-0.1c0.8,0,1.4,0,2,0.1c0.5,0,1.1,0.1,1.6,0.2
		c0.6,0.1,1.2,0.2,2,0.2s2.4,0.2,4.9,0.3c2.4,0.1,4,0.2,4.7,0.2c0.7,0,1.2,0,1.6,0.1c0.4,0,1,0.1,1.8,0.1c0.9,0,1.6,0.1,2.1,0.1
		c0.5,0.1,1.5,0.2,2.9,0.4c1.4,0.2,2.7,0.4,3.8,0.6c1.1,0.2,2.3,0.5,3.4,0.7c1.1,0.3,2,0.5,2.7,0.6c0.6,0.1,1.1,0.2,1.4,0.3
		c0.3,0.1,0.8,0.1,1.6,0.1s1.7,0,2.8,0c1.2,0,2.6-0.1,4.2-0.2s2.9-0.2,3.7-0.2c0.8,0,1.6-0.1,2.3-0.2c0.7-0.1,1.4-0.2,2.1-0.3
		c0.7-0.1,1.4-0.3,2.2-0.5s1.3-0.4,1.6-0.4c0.3,0,1.3-0.1,3-0.1c1.7,0,2.7,0,3,0c0.4,0,0.8,0.1,1.2,0.2c0.5,0.1,1,0.2,1.4,0.3
		c0.6,0.1,1.2,0.1,1.8,0.1c0.8,0,1.5,0.1,2.3,0.1c0.7,0.1,1.4,0.1,2.1,0.2c0.7,0,1.3,0.1,1.8,0.1s1,0,1.4,0c0.5,0,1-0.1,1.4-0.3
		c0.6-0.2,1.2-0.6,1.6-1.1"/>
	<path class="st2" d="M185.4,185.5c0-0.3-0.1-0.4-0.5-0.5c-0.2-0.1-0.5,0-0.6,0.2c-0.2,0.5-0.3,1-0.3,1.5c-0.1,0.8-0.2,1.6-0.2,2.4
		c-0.1,0.8-0.1,1.8-0.1,2.9c0,1.1,0,2.4,0,4c0,1.6,0,2.9,0,3.9c0,1,0.1,2,0.1,3c0,1,0.1,1.7,0.1,2.1c0,0.4,0.1,1,0.2,1.9
		c0.1,0.8,0.2,1.6,0.2,2.5c0.1,0.8,0.1,1.7,0.2,2.6c0,0.9,0.1,2.5,0.1,4.7c0,2.2,0,4-0.1,5.5c-0.1,1.4-0.1,3-0.1,4.6
		c0,1.6,0,2.9,0,3.8c0,0.9,0.1,1.7,0.1,2.5c0.1,0.8,0.1,2,0.2,3.5c0.1,1.5,0.1,2.6,0.1,3.4c0,0.8,0.1,2,0.1,3.8c0,1.8,0,3.2-0.1,4.3
		c-0.1,1.1-0.1,2.2-0.2,3.3c-0.1,1.1-0.2,2.1-0.3,3c-0.1,0.9-0.2,1.9-0.3,2.9c-0.1,1-0.2,1.8-0.2,2.5c-0.1,0.7-0.1,1.4-0.1,2
		c0,0.6,0,1.5,0,2.6c0,1.1,0,1.9,0,2.5c0,0.6,0,2.1,0,4.4c0,2.4,0,3.9,0,4.7c0,0.8,0,2,0,3.9c0,1.8,0,2.8,0,3"/>
	<path class="st2" d="M185.6,72.7c-0.1-0.4-0.3-0.8-0.5-1.1c-0.2-0.2-0.4-0.4-0.7-0.6c-0.3-0.2-0.6-0.3-0.9-0.4
		c-0.3-0.1-0.5,0-0.7,0.2c-0.2,0.2-0.3,0.5-0.4,0.8c-0.1,0.5-0.2,0.9-0.2,1.4c0,0.6-0.1,1.4-0.1,2.3c0,0.9,0,4.3,0,10.1
		c0,5.8,0,9.3,0,10.5s0,2.9,0,5c0,2.1,0,3.4,0.1,3.9c0,0.5,0.1,1.2,0.2,2.1c0.1,0.9,0.1,1.7,0.2,2.5s0,2.4,0.1,4.7
		c0,2.3,0,3.7,0,4.2c0,0.5,0.1,1.1,0.2,1.9c0.1,0.8,0.2,1.5,0.2,2.1c0.1,0.7,0.1,1.5,0.2,2.5c0.1,1,0.1,2,0.1,2.8
		c0,0.8,0.1,1.9,0.1,3.2c0.1,1.3,0.2,2.3,0.2,3.1c0,0.8,0.1,1.5,0.1,2.2c0,0.7,0,2.1,0,4c0,2,0,3.4-0.1,4.4
		c-0.1,0.9-0.1,1.7-0.2,2.5c-0.1,0.7-0.1,1.3-0.2,1.9c0,0.6-0.1,1.2-0.1,2s0,2.1,0,3.8c0,1.8,0,3.6,0.1,5.4c0.1,1.8,0.2,3.1,0.2,3.9
		c0,0.8,0.1,1.9,0.1,3.3c0,1.4,0,2.3,0,2.6c0,0.4,0,0.9,0,1.6c0,0.7,0,1.1,0,1.2l0,0.2v0l0,0c0,0,0-0.4,0.1-1.2"/>
	<path class="st3" d="M322.7,185.2c-0.3-0.2-0.6-0.2-1-0.2c-0.2,0-0.3,0.2-0.4,0.6c-0.1,0.4-0.2,1.3-0.3,2.8
		c-0.1,1.5-0.2,2.9-0.3,4.1c0,1.3-0.1,3-0.1,5.4c0,2.3,0,4-0.1,5c-0.1,1-0.1,2-0.1,2.9c0,1,0,1.9,0.1,2.8s0.1,1.7,0.2,2.5
		c0.1,0.8,0.1,1.8,0.1,2.9c0,1.1,0,2.6,0,4.5c0,1.9,0,3.3,0,4c0,0.8,0,1.5,0,2.3c0,0.5,0,1-0.1,1.5c0,0.1-0.1,0.2-0.1,0.3
		c0,0,0.1-0.2,0.2-0.4"/>
	<path class="st3" d="M324.1,262c0-0.5-0.1-1.1-0.3-1.6c-0.1-0.3-0.2-0.6-0.4-0.9c-0.1-0.1-0.2-0.1-0.3,0.1c-0.2,0.5-0.3,1-0.4,1.5
		c-0.2,0.8-0.3,1.7-0.5,2.7c-0.2,1-0.3,1.8-0.4,2.4c-0.1,0.6-0.1,1.1-0.2,1.7c-0.1,0.6-0.1,1.5-0.2,2.7c-0.1,1.2-0.1,2.8-0.1,4.7
		c0,1.9,0,3.3,0.1,4.4c0.1,1.1,0.1,1.7,0.2,2c0,0.3,0,0.8,0,1.5c0,0.6,0,1.1-0.1,1.7c0,0.4-0.1,0.8-0.2,1.2
		c-0.1,0.4-0.2,0.6-0.2,0.6c0,0,0,0,0,0s0-0.2,0-0.5c0.1-0.6,0.3-1.1,0.7-1.5"/>
	<path class="st3" d="M323.9,301.8c-0.4-0.4-0.7-0.8-0.9-1.3c-0.1-0.1-0.1-0.2-0.1-0.4l0-0.1c0,0,0,0,0,0.1s0,0.4,0,0.9
		c0,0.5,0,1.2,0,2s0,1.8-0.1,3s-0.1,2.5-0.2,3.9c-0.1,1.4-0.2,3-0.4,4.9c-0.2,1.9-0.4,3.8-0.6,5.6s-0.3,3.2-0.3,4s0,1.8,0,2.9
		c0,1.1,0,1.9,0,2.2c0,0.6,0.1,1.1,0.2,1.7c0.1,0.8,0.2,1.5,0.3,2.1c0.1,0.6,0.1,1.4,0.1,2.3c0,0.9,0,2.1,0,3.4c0,0.9,0,1.8-0.1,2.7
		c-0.1,0.5-0.2,1-0.3,1.6c-0.1,0.5-0.2,1-0.3,1.4c-0.1,0.4-0.1,0.9-0.1,1.5c0,0.6-0.1,1.4-0.1,2.4c0,0.9,0.1,1.5,0.4,1.6"/>
	<path class="st3" d="M323.1,392.4c-0.3-0.2-0.7-0.3-1-0.4c-0.1,0-0.2,0.1-0.3,0.3c-0.1,0.4-0.1,0.9-0.1,1.3c0,0.7,0,1.6,0.1,2.9
		c0,1.3,0.1,2.3,0.1,3c0,0.7,0.1,1.4,0.2,2c0.1,0.6,0.1,1.2,0.2,1.8c0.1,0.4,0.2,0.9,0.3,1.3c0.1,0.3,0.2,0.5,0.4,0.8
		c0.2,0.3,0.6,0.4,0.9,0.4"/>
	<path class="st3" d="M322.4,403.7l-0.3-0.2c0,0,0,0,0.1,0l0.7,0c0.6,0.1,1.3,0.1,1.9,0.3c0.9,0.2,1.8,0.3,2.6,0.4
		c0.8,0.1,1.8,0.2,3,0.3c1.2,0.1,2.1,0.1,2.7,0.2c0.6,0,1.2,0,1.8,0.1s1.4,0.1,2.3,0.2c1,0.1,2.3,0.3,3.9,0.6
		c1.6,0.3,2.8,0.5,3.5,0.6c0.7,0.1,1.5,0.2,2.3,0.3c0.7,0,1.8,0.1,3,0.1c1.3,0,2.1,0,2.4,0c0.4,0,0.8-0.1,1.4-0.1
		c0.6-0.1,1.4-0.1,2.5-0.2c1-0.1,2.2-0.2,3.5-0.3c1.3-0.1,2.5-0.2,3.6-0.3c1.1-0.1,2-0.2,2.5-0.2c0.6-0.1,1.3-0.2,2.3-0.3
		c0.9-0.2,1.7-0.3,2.3-0.4c1.2-0.2,2.5-0.2,3.7-0.2c1.9,0,3.2,0,4-0.1c0.8,0,1.5-0.1,2.2-0.1c0.7,0,2.6,0,5.8,0c3.2,0,5.1,0,5.7-0.1
		c0.5,0,1.1-0.1,1.7-0.1s1.2-0.1,1.9-0.2c0.6-0.1,1.3-0.1,1.9-0.2s1.1-0.1,1.6-0.1c0.4,0,0.8-0.1,1.1-0.1c0.5,0,1.1-0.1,1.6-0.1
		c0.8,0,1.4,0,1.8-0.1c0.4,0,0.9-0.1,1.5-0.2c0.7-0.1,1.3-0.2,1.9-0.3c0.6-0.1,1.2-0.1,1.8,0"/>
	<path class="st3" d="M417.5,305.6c0-0.5,0.1-1,0.2-1.5c0.1-0.3,0.1-0.7,0.2-1.1c0-0.2-0.1-0.4-0.3-0.5c-0.2-0.1-0.4-0.1-0.6-0.1
		c-0.2,0-0.3,0.2-0.4,0.4c-0.1,0.4-0.2,0.8-0.2,1.2c0,0.6-0.1,1.6-0.1,3.2c0,1.6,0,2.7,0,3.2c0,0.6,0.1,1.4,0.2,2.6
		c0.1,1.1,0.2,2.6,0.3,4.5c0.1,1.8,0.2,3.3,0.3,4.3c0.1,1,0.1,2.3,0.2,3.9c0.1,1.6,0.1,2.9,0.2,3.9c0,1,0.1,2,0.1,3
		c0,1,0,5.1,0,12.4c0,7.3,0,11.2,0,11.6c0,0.4-0.1,1.2-0.2,2.4c-0.1,1.2-0.2,2.2-0.3,3c-0.1,0.9-0.1,1.7-0.2,2.4
		c0,0.7-0.1,1.4-0.1,2.1c0,0.6,0,3.3,0,7.9c0,4.7,0,7.2,0,7.5c0,0.4,0.1,0.9,0.1,1.5c0.1,0.7,0.2,1.5,0.2,2.5c0.1,1,0.1,2.2,0.1,3.6
		c0,1.3,0,2.7-0.2,4c-0.1,1.3-0.2,2.2-0.3,2.7c-0.1,0.9-0.1,1.9-0.1,2.8c0,0.8,0,1.7,0.1,2.5c0.1,0.3-0.2,0.5-0.6,0.5
		c-0.6,0-1.3-0.1-1.9-0.4c-0.8-0.2-1.3-0.4-1.6-0.5c-0.6-0.3-1.2-0.7-1.7-1.2"/>
	<path class="st3" d="M415.9,187.3c-0.1-0.9,0-1.3,0.2-1.3c0.2,0,0.4,0.1,0.5,0.3c0.2,0.3,0.4,0.6,0.5,0.9c0.2,0.4,0.3,0.8,0.4,1.2
		c0.1,0.5,0.2,1,0.3,1.5c0.1,0.6,0.1,1.3,0.2,2.3c0,0.9,0.1,2,0.1,3.2c0,1.3,0,2.6,0,4c0,1.4,0,2.6,0,3.6c0,1,0,2.9,0,5.8
		c0,2.9,0,4.6,0,5.3c0,0.6-0.1,2-0.2,4c-0.1,2-0.2,4-0.4,5.9c-0.1,1.9-0.3,3.8-0.4,5.5c-0.1,1.7-0.2,3.2-0.2,4.3
		c0,1.1-0.1,2.2-0.1,3.2c0,1-0.1,2-0.1,3c0,1-0.1,2-0.1,2.9c0,1,0,2-0.1,3.1c0,1.1-0.1,1.9-0.1,2.5c0,0.5-0.1,1.2-0.2,1.9
		c-0.1,0.7-0.2,1.3-0.2,1.7c0,0.4-0.1,1.1-0.2,1.9c-0.1,0.8-0.2,1.5-0.2,1.9c0,0.4,0,1,0,1.7c0,0.7,0,1.4-0.1,2s-0.2,1.4-0.3,2.5
		s-0.3,1.9-0.3,2.4s-0.1,1.2-0.2,1.9s-0.2,1.4-0.2,1.8c0,0.5-0.1,1.4-0.1,2.7c0,1.3,0,2.3,0.1,3.1c0,0.8,0.1,1.5,0.2,2.2
		c0.1,0.7,0.2,1.3,0.2,1.6c0.1,0.4,0.2,1.1,0.3,2.1s0.2,1.8,0.3,2.2c0,0.4,0,0.9,0,1.5c0,0.3,0,0.6-0.1,0.9c-0.1,0.1-0.2,0-0.4-0.4"
		/>
	<path class="st3" d="M324.5,185.6c-0.2-0.2-0.3-0.5-0.4-0.8c0-0.2,0.1-0.3,0.4-0.4c0.5-0.1,0.9-0.2,1.4-0.2
		c0.7-0.1,1.5-0.1,2.2-0.1c0.6,0,1.2,0,1.8,0.1c0.4,0.1,1.2,0.2,2.4,0.5c1.3,0.3,2.3,0.5,3,0.7c0.8,0.2,1.6,0.3,2.4,0.4
		c0.8,0.1,1.7,0.2,2.7,0.3c1,0.1,1.8,0.2,2.5,0.3s1.2,0.2,1.5,0.2c0.3,0.1,0.6,0.2,0.9,0.3c0.6,0.2,1.3,0.2,2,0"/>
	<path class="st3" d="M402.6,184.9l-1.1,0.2c0,0-0.1,0,0,0c0,0,0.1-0.1,0.3-0.2c0.2-0.1,0.3-0.2,0.5-0.3c0.3-0.1,0.6-0.1,1-0.1
		c0.7,0,1.4,0.1,2,0.3c0.9,0.2,1.8,0.4,2.8,0.6c1,0.2,1.8,0.4,2.5,0.5c0.7,0.1,1.6,0.2,2.8,0.3c1.1,0.1,1.9,0.2,2.3,0.2
		c0.5,0,1,0.2,1.4,0.5"/>
	<path class="st4" d="M202.5,185.3c0.2-0.1,0.8,0,1.7,0.3c0.6,0.2,1.2,0.4,1.9,0.6c0.7,0.2,1.4,0.4,2.2,0.5c0.8,0.2,1.8,0.3,3,0.5
		c1.2,0.1,2.4,0.3,3.6,0.4c1.2,0.1,2.4,0.2,3.8,0.3c1.3,0.1,2.4,0.2,3.1,0.3c0.7,0.1,1.4,0.2,2,0.3c0.6,0.1,1.1,0.2,1.4,0.3
		c0.4,0.1,0.8,0.1,1.2,0.2c0.6,0.1,1.2,0.1,1.8,0.1c0.8,0,1.5,0,2.3-0.2"/>
	<path class="st4" d="M267.6,186.8c-0.1-0.5,0-0.8,0.2-0.9c0.3-0.1,0.5-0.2,0.8-0.2c0.4,0,1.3-0.1,2.6-0.1c1.3,0,2.4,0,3.2,0
		c0.8,0,1.6,0.1,2.4,0.1c0.8,0.1,1.6,0.1,2.4,0.2c0.8,0.1,1.9,0.2,3.5,0.3s2.7,0.2,3.4,0.3c0.7,0.1,1.9,0.1,3.4,0.2
		c1.5,0.1,2.7,0.1,3.7,0.1c0.9,0,1.6,0,2,0c0.4,0,0.8,0,1.1-0.1c1-0.3,2-0.7,3-1.2"/>
	<path class="st4" d="M302.2,185c-0.1-0.8-0.1-1.6,0.1-2.4c0.1-0.2,0.2-0.4,0.4-0.6c0.1-0.2,0.3-0.3,0.6-0.3c0.2-0.1,0.4,0,0.4,0.2
		c0,0.2,0.1,0.4,0.1,0.7c0,0.4-0.1,0.8-0.2,1.2c-0.1,0.4-0.1,0.8-0.2,1.3c0,0.3,0,0.4,0,0.5v0v0l0-0.2c0-0.1-0.1-0.1-0.2-0.1
		c-0.1,0-0.2,0.2-0.3,0.6c-0.1,0.5-0.2,0.9-0.2,1.4c0,0.6-0.1,1.6-0.1,3s0,3.5,0,6.2c0,2.7,0,4.4,0,4.8c0,0.5,0,1.1,0.1,1.9
		c0,0.8,0.1,1.6,0.1,2.5c0,0.9,0.1,1.7,0.1,2.6c0,0.9,0.1,1.7,0.1,2.4c0.1,0.7,0.1,1.5,0.2,2.2c0.1,0.7,0.1,1.5,0.2,2.2
		c0,0.8,0.1,1.7,0.1,2.8c0,1-0.1,2-0.2,3c-0.1,0.9-0.2,1.7-0.3,2.2c0,0.6,0,2.4,0,5.4c0,3,0,5.1,0,6.2c0,1.1,0,2,0,2.7
		c0,0.7,0.1,1.5,0.1,2.2c0.1,0.7,0.2,1.9,0.3,3.6c0.2,1.7,0.3,2.9,0.4,3.8c0.1,0.8,0.1,1.4,0.2,1.8c0.1,0.4,0.1,1,0.2,1.9
		c0.1,0.9,0.1,1.7,0.2,2.6c0,0.8,0.1,1.8,0.2,2.9c0.1,1.1,0.2,2,0.2,2.8c0,0.7,0,2.7,0,6c0,3.2,0,5.2,0,6c0,0.7,0,1.8,0,3.3
		c0,1.5,0,2.6-0.1,3.3c0,0.7-0.1,1.6-0.2,2.7c-0.1,1.1-0.2,1.9-0.2,2.4c0,0.5,0.1,0.8,0.4,0.8"/>
	<path class="st4" d="M304,303.9c-0.2-0.6-0.3-1.1-0.3-1.7c0-0.5,0-0.9,0.1-1.4c0-0.3,0.1-0.6,0.1-0.9l0.1-0.2c0,0,0,0,0,0.1
		c0,0.1,0,0.3,0,0.9c0,0.5,0,1-0.1,1.4c0,0.4-0.1,1.2-0.2,2.3s-0.1,2-0.1,2.6c0,0.6-0.1,1.7-0.1,3.2c0,1.5-0.1,2.6-0.1,3.4
		c0,0.8-0.1,2-0.2,3.7c-0.1,1.7-0.2,3.3-0.4,4.7s-0.2,2.9-0.2,4.3s0,3.1,0,5c0,1.9,0,4.1-0.1,6.4c0,2.4-0.1,4.4-0.1,6.1s0,3,0,3.9
		s0,2,0,3.2s0,2.7,0.1,4.3s0.1,3,0.2,4.1c0.1,1.1,0.2,2.5,0.3,4.3c0.2,1.8,0.3,3.1,0.3,4c0.1,0.9,0.1,1.9,0.1,3.1
		c0,1.2,0,2.2-0.1,3.1c-0.1,0.8-0.1,1.7-0.1,2.7c0,0.9,0,2.1,0.1,3.4c0.1,1.3,0.1,2.4,0.1,3.3c0,0.9,0,1.9,0,2.9s0,2.7,0,5.1
		c0,2.4,0,3.7,0,3.9c0,0.2-0.1,0.4-0.2,0.6c-0.1,0.2-0.2,0.2-0.3,0"/>
	<path class="st4" d="M154.7,185.5c-0.2-0.2-0.5-0.3-0.7-0.3c-0.1,0-0.1,0.1-0.1,0.2c0.2,0.2,0.4,0.4,0.6,0.4
		c0.5,0.2,0.9,0.3,1.4,0.4c0.6,0.1,1.1,0.2,1.5,0.3s0.8,0.1,1.2,0.1c0.4,0,1.5,0,3.4,0s3,0,3.6,0c0.6,0,1.8,0,3.6,0
		c1.9,0,2.9,0,3.2,0c0.3,0,0.7,0.1,1.2,0.1c0.5,0.1,1.1,0.2,1.6,0.3c0.5,0.1,1.1,0.3,1.9,0.5c0.7,0.2,1.2,0.4,1.5,0.4
		c0.2,0.1,0.5,0.1,0.8,0.1c0.3,0,0.7-0.1,0.9-0.4"/>
	<path class="st4" d="M90.5,185.5l-0.8,0.1c0.1,0,0.2,0,0.3,0l4.5,0c2.8,0,4.5,0,5,0c0.6,0,1.2,0,1.8,0.1c0.6,0,1.8,0.1,3.4,0.2
		c1.6,0.1,2.9,0.2,3.9,0.2c0.9,0,2.6,0,5,0s3.9,0,4.6,0.1c0.7,0.1,1.3,0.2,1.9,0.3c0.4,0.1,0.8,0.2,1.2,0.4"/>
	<path class="st4" d="M85.2,302.9c0-0.2,0-0.5-0.1-0.7l-0.1-0.2c0,0,0,0,0,0.1c0,0.1,0,0.4,0.1,0.7c0,0.4,0.1,1,0.2,1.8
		c0.1,0.8,0.2,1.8,0.2,3s0.1,2.9,0.1,5.2c0,2.3,0,4-0.1,5c0,1-0.1,1.9-0.1,2.7c0,0.8,0,2.4,0,4.7s0,4-0.1,5.1c0,1.1-0.1,2.3-0.1,3.5
		c0,1.2,0,2.8,0,4.8c0,2,0,3.4,0.1,4.1s0.1,1.5,0.2,2.2c0.1,0.7,0.2,1.3,0.3,1.9c0.1,0.6,0.2,1.2,0.3,1.9c0.1,0.7,0.1,1.4,0.2,2.2
		c0,0.8,0.1,2,0.2,3.6c0.1,1.6,0.1,3.2,0.2,4.6c0,1.4,0.1,2.5,0.1,3.3c0,0.8,0.1,1.6,0.1,2.6c0,1,0.1,3.8,0.1,8.3s0,7.6-0.1,9.3
		c-0.1,1.6-0.2,2.7-0.2,3.3c0,0.5-0.1,1-0.2,1.4c-0.1,0.5-0.2,0.9-0.3,1.4c-0.1,0.5-0.2,1.1-0.3,1.6c-0.1,0.8-0.1,1.6-0.1,2.5
		c0,0.8,0,1.6,0.1,2.3c0.1,0.5,0.2,1.4,0.5,2.8c0.3,1.3,0.4,2.2,0.5,2.6c0.1,0.4,0.2,0.7,0.2,0.9c0.1,0.2,0.1,0.2,0.1,0.1
		c0-0.2,0.2-0.7,0.4-1.5"/>
	<path class="st4" d="M92.8,187.7c-0.3,0.8-0.4,1.7-0.5,2.6c-0.1,0.7-0.2,1.6-0.4,2.6c-0.2,1-0.3,2.1-0.5,3.1
		c-0.2,1.1-0.3,1.9-0.4,2.5c-0.1,0.6-0.1,1.2-0.2,1.7c0,0.5-0.1,1.3-0.1,2.4c0,1.1,0,2.1,0,3c0,0.9,0,2,0,3.2c0,1.2,0,2.5,0,4
		c0,1.4,0,3.1,0.1,5c0.1,1.9,0.1,3.7,0.2,5.5c0.1,1.8,0.1,3,0.2,3.9s0,1.8,0,3c0,1.2,0,2.1,0,2.9c0,0.8,0.1,1.6,0.2,2.3
		c0.1,0.8,0.2,1.6,0.4,2.5c0.2,0.9,0.3,1.6,0.4,2.2c0.1,0.6,0.2,1.3,0.3,2.2c0.1,0.9,0.2,1.8,0.3,2.7c0.1,0.9,0.2,1.7,0.3,2.5
		c0.1,0.7,0.2,1.4,0.2,2.1c0.1,0.7,0.1,2.1,0.1,4.5c0,2.3,0,3.9,0,4.6c0,0.8,0,1.8,0,3c0,1.2,0,2.3,0,3.2c0,0.9,0.1,1.6,0.1,2
		c0,0.4,0.1,1,0.2,1.6c0.1,0.7,0.2,1.2,0.3,1.7s0.1,1.2,0.2,2.1c0.1,0.9,0.1,1.8,0.1,2.8c0,0.7,0,1.4-0.1,2.1
		c-0.1,0.3-0.1,0.7-0.1,1c0,0.4,0.2,0.7,0.5,0.8"/>
	<path class="st4" d="M88.3,401.1c-0.2-0.3-0.4-0.5-0.5-0.8c0-0.1-0.1-0.1-0.1-0.1c-0.1,0.1-0.1,0.3-0.1,0.4c0,0.2,0.2,0.5,0.4,0.6
		c0.4,0.2,0.9,0.4,1.4,0.5c0.7,0.2,1.4,0.4,2.2,0.6c0.8,0.2,1.6,0.4,2.5,0.5c0.9,0.2,1.7,0.3,2.5,0.4c0.9,0.1,1.8,0.2,2.7,0.2
		c1,0,1.8,0,2.2,0c0.4,0,1.2-0.1,2.3-0.3c1.2-0.2,2-0.3,2.6-0.4c0.6-0.1,1.1-0.2,1.6-0.3c0.5-0.1,1-0.1,1.6-0.1
		c0.5,0,1.5-0.1,2.9-0.1c1.4,0,2.3,0,2.9-0.1c0.5-0.1,1.2-0.2,2.2-0.4c0.9-0.2,1.9-0.3,2.7-0.4c0.9-0.1,1.7-0.2,2.5-0.2
		c0.8,0,2.2-0.1,4-0.1c1.8,0,3.9-0.1,6.3-0.1c2.4,0,4.1,0,5.2,0s2.6,0.1,4.3,0.1c1.7,0,3.1,0.1,4,0.1c0.9,0,1.7,0,2.2,0
		c0.5,0,1.1-0.1,1.6-0.1c0.5-0.1,1.3-0.2,2.5-0.5c1.2-0.3,2-0.5,2.4-0.6c0.5-0.1,0.9-0.2,1.4-0.2c0.5-0.1,1.5-0.1,2.9-0.1
		c1.4,0,2.9,0,4.2,0.1c1.4,0.1,2.7,0.1,3.9,0.2c1.2,0,2,0,2.3,0c0.3,0,0.8,0,1.3-0.1c0.6-0.1,1.2-0.1,1.9-0.1c0.7,0,1.2,0,1.6,0
		c0.4,0,1,0.1,1.8,0.2s1.6,0.2,2.3,0.4s1.5,0.3,2.2,0.4c0.6,0.1,1.2,0.2,1.9,0.3c0.5,0,1.2,0.1,2.1,0.1c0.9,0,2.6,0,5,0
		c2.4,0,4,0,4.8,0c0.8,0,1.5,0.1,2.3,0.2c0.7,0.1,1.4,0.2,2,0.3s1.4,0.1,2.2,0.2c0.8,0.1,1.7,0.1,2.6,0.2c0.9,0.1,1.7,0.2,2.4,0.3
		c0.7,0.1,1.3,0.2,1.6,0.2c0.3,0,1.1,0,2.3,0c1.2,0,2,0,2.4,0c0.5,0,1.1-0.1,2-0.1c0.9-0.1,1.5-0.1,1.9-0.2c0.4,0,1.4-0.1,3-0.1
		c1.6,0,3,0,4.1,0c1.1,0,2.3,0.1,3.4,0.1c1.2,0,2.5,0.1,3.9,0.2c1.4,0.1,2.6,0.2,3.7,0.3c1.1,0.1,2.2,0.2,3.4,0.3s2,0.2,2.6,0.2
		c0.6,0,1.1,0.1,1.6,0.1c0.5,0,1.5,0,3.1,0c1.6,0,2.7,0,3.3-0.1c0.7,0,1.2-0.1,1.8-0.1c0.5-0.1,1.8-0.2,3.9-0.6s3.4-0.5,4.2-0.6
		c0.7-0.1,1.4-0.2,1.9-0.3c0.6-0.1,1.1-0.2,1.5-0.3c0.5-0.1,1-0.2,1.5-0.3c0.5-0.1,1.2-0.1,1.8-0.2c0.7,0,1.5-0.1,2.5-0.1
		c1,0,2.4,0,4.4,0c2,0,3.4,0,4.4-0.1c0.9,0,1.9-0.1,2.9-0.1c0.8,0,1.6,0,2.4,0.1c0.6,0.1,1.3,0.2,2.1,0.4c0.8,0.2,1.6,0.3,2.4,0.4
		c0.8,0.1,1.6,0.3,2.2,0.3c0.6,0.1,1.4,0.2,2.4,0.2c1,0.1,1.8,0.2,2.6,0.2s1.5,0.2,2.3,0.3c0.7,0.1,1.5,0.1,2.2,0.2
		c0.7,0,1.1,0,1.2,0c0.2,0,0.3-0.1,0.5-0.2c0.2-0.1,0.4-0.2,0.7-0.2c0.3,0,0.8,0,1.7,0c0.5,0.1,1.1,0,1.6-0.3
		c0.3-0.3,0.5-0.6,0.7-0.9c0.2-0.3,0.5-0.7,0.6-1.1c0.1-0.2,0.2-0.4,0.2-0.7c0-0.2,0-0.3,0-0.5c-0.1-0.2-0.2-0.4-0.4-0.5
		c-0.3-0.3-0.6-0.5-1-0.7c-0.6-0.4-2.3-1.1-5.1-2.3"/>
	<path class="st5" d="M201.4,69.4c-0.4,0-0.5,0.3-0.3,1c0.1,0.7,0.2,1.3,0.3,2c0.1,0.6,0.2,1.4,0.2,2.2c0.1,0.8,0.2,2,0.4,3.6
		c0.2,1.6,0.3,2.9,0.4,3.8c0.1,0.9,0.1,1.8,0.1,2.6c0,0.7,0,1.4-0.1,2.2c-0.1,0.6-0.1,1.2-0.2,1.7s-0.2,1.6-0.3,3
		c-0.1,1.5-0.2,2.5-0.2,3.1c0,0.6-0.1,1.1-0.2,1.7c-0.1,0.5-0.2,1-0.2,1.5c0,0.4,0,1.7,0,3.9c0,2.1,0,3.3,0.1,3.6
		c0,0.3,0.3,0.6,0.6,0.7"/>
	<path class="st5" d="M203.6,143.9c-0.1-0.3-0.3-0.6-0.4-0.9c-0.1-0.1-0.1-0.2-0.1-0.2s0,0.1,0,0.3c0,0.2,0,0.9,0,2
		c0,1.1,0,2.1,0,3.1s0,2.4,0,4.3s0,3.4,0,4.6c0,1.2,0,2.8,0,5c0.1,1.2,0,2.4-0.1,3.6c-0.1,0.2-0.1,0.5-0.1,0.7
		c0,0.4,0.2,0.6,0.7,0.7"/>
	<path class="st5" d="M207.3,184.5c-0.4-0.1-0.7-0.2-1.1-0.3c-0.2,0-0.4,0.1-0.5,0.2c-0.3,0.3-0.4,0.6-0.6,0.9
		c-0.2,0.4-0.3,0.9-0.4,1.4c-0.1,0.8-0.1,1.7-0.1,2.5c0,1.3,0,2.2,0,2.8c0,0.6,0,1.5,0.1,2.7c0.1,1.2,0.1,2.3,0.2,3.3
		c0,1,0.1,2,0.1,3c0,1,0,1.7,0,2.2c0,0.4-0.1,1.3-0.3,2.5c-0.1,1.2-0.2,2.2-0.3,3c-0.1,0.8-0.1,1.8-0.1,2.9c0,1.1,0,2.3,0,3.5
		c0,1.2,0,2.1,0,2.6c0,0.5-0.1,1.1-0.2,2c-0.1,0.8-0.2,1.5-0.3,1.9c-0.1,0.4-0.2,0.8-0.2,1.1c-0.1,0.5-0.2,1-0.2,1.5
		c-0.1,0.7-0.1,1.3-0.2,1.9c-0.1,0.5-0.1,1.3-0.2,2.3c0,1-0.1,1.7-0.1,2.2c0,0.5,0.2,0.7,0.6,0.6"/>
	<path class="st5" d="M205.1,271.3l-0.2-0.3c0,0,0,0.1,0,0.3c0,0.2,0,0.7,0,1.6s-0.1,2.3-0.3,4.3c-0.2,2-0.3,3.3-0.3,3.8
		c0,0.6-0.1,1.3-0.1,2.2c0,0.6,0,1.1,0,1.7c0.1,0.4,0.3,0.7,0.7,0.8"/>
	<path class="st5" d="M207.4,286.3c-0.6-0.1-1.2-0.3-1.7-0.6c-0.2-0.1-0.4-0.3-0.5-0.6c0-0.2,0-0.3,0.1-0.4c0.1-0.1,0.2-0.1,0.4-0.1
		c0.3,0,0.5,0.1,0.7,0.2c0.4,0.2,0.9,0.3,1.3,0.4c0.6,0.2,1,0.3,1.4,0.3c0.6,0.1,1.1,0.1,1.7,0.2c0.7,0,1.7,0.1,3,0.1
		c1.3,0,2.4,0,3.3,0c0.9,0,1.6,0,2-0.1c0.4,0,0.9-0.1,1.5-0.2c0.5-0.1,1-0.2,1.4-0.2c0.4-0.1,0.9-0.1,1.6-0.1s1.6-0.1,2.9-0.1
		c1.3,0,2.1,0,2.6-0.1s1.1-0.1,1.9-0.1c0.8,0,1.5,0,1.9,0.1c0.5,0,0.9,0.1,1.4,0.1c0.5,0,0.9,0,1.3,0s0.9,0,1.6,0
		c0.5,0,0.9,0,1.4-0.1c0.2,0,0.3,0,0.4,0.2"/>
	<path class="st5" d="M268.3,284.3h-2c0,0,0,0,0,0l0.6,0.1c0.4,0,1.1,0.2,2.2,0.4c1.1,0.2,1.9,0.4,2.4,0.5c0.5,0.1,1,0.2,1.4,0.2
		c0.4,0,0.9,0.1,1.4,0.1c0.5,0,1.4,0,2.6,0c1.2,0,2.1,0,2.6,0c0.5,0,1.3-0.1,2.2-0.2s1.6-0.2,2.1-0.2s0.9-0.1,1.5-0.1
		c0.5,0,1.6-0.1,3.4-0.1c1.7,0,2.9,0,3.7,0c0.7,0,1.6,0.1,2.5,0.1c0.9,0,1.6,0,1.8,0c0.5,0,1-0.1,1.4-0.2c0.7-0.1,1.4-0.3,2.1-0.5
		c0.7-0.2,1.4-0.4,2.1-0.5c0.7-0.1,1.3-0.2,2-0.3c0.6-0.1,0.9,0,0.7,0.3"/>
	<path class="st5" d="M326.3,285.4c-0.3,0-0.5-0.1-0.8-0.3c-0.1-0.1-0.2-0.3-0.2-0.4c0-0.2,0.1-0.3,0.5-0.3c0.5,0,1,0,1.5,0.1
		c0.6,0.1,1.3,0.2,2.1,0.2c0.8,0.1,1.5,0.1,2.1,0.1s2.9,0,6.7,0c3.9,0,6,0,6.5,0.1c0.5,0.1,0.9,0.1,1.3,0.2c0.4,0.1,0.9,0.2,1.3,0.2
		c0.5,0,2.2,0.1,5.3,0.1c3,0,4.9,0,5.6-0.1c0.7,0,1.5-0.1,2.3-0.1c0.8,0,1.8-0.1,3-0.1c1.2-0.1,3.2-0.1,6.1-0.1c2.9,0,4.7,0,5.4-0.1
		c0.7,0,1.3-0.1,1.9-0.1s2.8,0,6.7,0c3.9,0,6,0,6.3,0c0.3,0.1,0.7,0.1,1,0.2c0.5,0.1,1,0.2,1.5,0.3c0.6,0.1,1.6,0.1,3.2,0.1
		c1.5,0,2.6,0,3.2,0c0.5,0,1,0.1,1.5,0.3c0.4,0.2,0.7,0.4,1.1,0.6c0.4,0.2,0.9,0.3,1.3,0.4c0.5,0.1,0.9,0.1,1.4,0.2
		c0.4,0,1.6,0,3.5,0c1.9,0,3,0,3.3,0c0.5,0.1,1,0.1,1.5,0.2c0.8,0.1,1,0.3,0.8,0.4"/>
	<path class="st5" d="M240.8,286.2c-0.8-0.3-1.2-0.6-1.3-0.8c-0.1-0.1-0.1-0.3,0-0.5c0.2-0.2,0.4-0.4,0.7-0.5
		c0.3-0.2,0.7-0.3,1.1-0.4c0.4-0.1,0.8-0.2,1.3-0.2c0.5-0.1,1-0.1,1.6-0.1c0.6,0,1.7-0.1,3.5-0.1c1.8,0,3.2,0,4.2,0.1
		c1.1,0.1,2.6,0.2,4.7,0.4c2.1,0.2,3.6,0.3,4.5,0.4c1.4,0.2,2.9,0.5,4.2,0.9"/>
	<path class="st5" d="M202.1,70.3c0.4-0.1,0.8,0,1.2,0.1c0.4,0.1,1.4,0.3,2.8,0.6c1.4,0.3,2.5,0.5,3.3,0.7c0.8,0.1,1.4,0.3,1.9,0.3
		s1.4,0.2,2.9,0.3c1.5,0.1,2.6,0.2,3.3,0.3c0.7,0.1,1.6,0.2,2.7,0.3c1.1,0.1,2,0.3,2.8,0.4c0.8,0.1,1.5,0.2,2.2,0.2
		c0.7,0,1.8,0.1,3.3,0.1c1.6,0,2.7,0,3.2,0c0.6,0,1.1-0.1,1.5-0.1c0.4,0,0.9-0.1,1.4-0.2c0.5-0.1,1-0.2,1.5-0.3
		c0.4-0.1,0.9-0.2,1.3-0.2c0.5,0,1.4,0,2.8,0c1.4,0,2.4,0,2.8-0.1c0.9-0.1,1.9-0.3,2.8-0.5c1.4-0.3,2.5-0.5,3.4-0.6
		c0.9-0.1,1.7-0.2,2.4-0.3c0.7,0,1.3-0.1,1.9-0.1c0.6,0,1.2,0,1.8,0c0.6,0,1.7,0,3.1,0.1c1.4,0.1,2.7,0.1,4,0.2
		c1.3,0.1,2.6,0.1,3.9,0.1c1.3,0,2.4,0,3.1,0.1c0.7,0,2,0,3.8,0.1c1.8,0,3,0,3.6,0c0.6,0,1.6-0.1,2.9-0.2c1.3-0.1,2.4-0.2,3.1-0.2
		c0.7,0,1.7,0,2.8,0c1.1,0,2.2,0,3.2,0c1,0,2.7,0,5.2,0c2.4,0,3.8,0,4.3,0c0.4,0,1.2,0.1,2.2,0.3c1,0.1,1.8,0.2,2.2,0.3
		c0.4,0,1.1,0.1,2.1,0.1c1,0.1,1.7,0.1,2.1,0.1s0.9,0,1.3,0s1.4,0,2.9,0c1.5,0,3,0,4.4,0.1c1.4,0.1,2.3,0.1,2.6,0.1
		c0.4,0,0.8,0.1,1.2,0.1c0.5,0.1,1.2,0.1,2.3,0.2c1.1,0.1,1.9,0.1,2.5,0.2c0.6,0,1.4,0.1,2.2,0.2s1.8,0.2,2.7,0.3
		c0.9,0.1,1.6,0.2,2.2,0.3c0.5,0.1,1.6,0.1,3.1,0.2c1.6,0.1,3.1,0.2,4.5,0.2c1.4,0,2.6,0.1,3.6,0.1c1,0,1.9,0,2.7,0
		c0.8,0,1.7,0,2.6,0c0.9,0,2.2-0.1,3.7-0.2s2.8-0.2,3.6-0.2c0.9,0,1.7-0.1,2.6-0.1c0.9,0,2.2,0,4.1,0c1.8,0,3.9,0,6.2,0.1
		c2.3,0.1,4.3,0.1,6,0.1c1.7,0,3.2,0,4.3-0.1s2.1-0.1,3-0.2s1.7-0.2,2.5-0.2c0.8-0.1,1.8-0.1,3-0.2c1.2-0.1,2.2-0.1,2.8-0.1
		s1.4,0,2.3-0.1c0.9,0,1.7-0.1,2.5-0.1c0.8,0,2.1,0,3.8,0c1.7,0,3.2,0,4.5,0s2.8,0,4.5,0c1.7,0,3,0,3.9,0.1c1,0.1,1.6,0.1,2,0.2
		s0.9,0.1,1.5,0.2c0.7,0.1,1.2,0.1,1.6,0.1c0.4,0,0.6,0,0.7,0"/>
	<path class="st5" d="M416.8,69.7c0-0.3-0.1-0.4-0.1-0.4c0,0-0.1,0.2-0.2,0.3c-0.1,0.3-0.2,0.6-0.2,1c-0.1,0.5-0.1,1.5-0.1,3.2
		c0,1.6,0,3,0.1,4c0.1,1,0.2,2.1,0.3,3.2c0.1,1.1,0.3,2.2,0.4,3.2c0.1,1,0.2,2.2,0.3,3.5c0.1,1.3,0.2,2.1,0.2,2.6
		c0,0.4,0.1,1,0.2,1.8c0.1,0.7,0.2,1.3,0.3,1.7c0.1,0.4,0.2,0.9,0.4,1.7c0.2,0.8,0.3,1.4,0.4,1.9c0.1,0.5,0.1,1,0.2,1.5
		c0,0.5,0,1.3,0,2.1c0,0.7,0,1.4-0.1,2.1c-0.1,0.6-0.1,1.1-0.2,1.6c-0.1,0.5-0.2,1.1-0.3,1.6c-0.1,0.5-0.1,1.1-0.2,1.7
		c0,0.6-0.1,1.4-0.1,2.3c0,0.9,0,1.9-0.1,2.8c0,0.9-0.1,1.7-0.1,2.3c0,0.6-0.1,1.6-0.1,3.1c0,1.5-0.1,2.7-0.1,3.8
		c0,1.1-0.1,2.1-0.1,3.2c-0.1,1-0.1,2.1-0.1,3.3c0,1.2-0.1,2.4-0.1,3.6c0,1.3,0,2.4-0.1,3.4c0,1,0,2.2,0,3.6c0,1.4,0,2.7-0.1,3.8
		c-0.1,1.1-0.1,2.2-0.2,3.5c0,1.2-0.1,2.3-0.2,3.3c-0.1,0.9-0.2,1.9-0.3,2.9c-0.1,1-0.3,1.9-0.4,2.8c-0.1,0.9-0.3,1.7-0.4,2.4
		c-0.1,0.9-0.2,1.8-0.2,2.7c0,0.8,0,1.6,0.1,2.4c0.1,0.7,0.3,1.3,0.6,2"/>
	<path class="st5" d="M411.3,189.9c0-0.3-0.1-0.4-0.3-0.2c-0.2,0.4-0.3,0.8-0.2,1.2c0,0.7-0.1,1.6-0.1,2.8c0,1.2,0,2.1,0.1,2.8
		c0,0.6,0.1,1.2,0.1,1.8c0.1,0.5,0.1,1.2,0.2,2c0.1,0.8,0.1,1.4,0.1,2s0,1,0,1.5c-0.1,0.7-0.2,1.4-0.5,2c-0.3,0.9-0.5,1.5-0.7,2
		c-0.2,0.4-0.3,0.9-0.4,1.4c-0.1,0.5-0.2,1-0.3,1.8c-0.1,0.7-0.2,1.4-0.3,2.1c-0.1,0.8-0.1,1.6-0.1,2.4c0,0.9,0,1.9,0,2.9
		c0,1,0,1.7,0.1,2.2c0,0.4,0.1,0.9,0.2,1.5c0.1,0.7,0.1,1.5,0.1,2.2c0,0.9,0,3.8,0,8.7c0,4.9,0,7.6,0.1,8.3c0,0.7,0.1,2,0.1,4.1
		c0,2.1,0,3.6-0.1,4.8c-0.1,1.1-0.2,2-0.2,2.7c0,0.7-0.1,1.4-0.1,2c0,0.6,0,2.2,0,4.8c0,2.6,0,4.3,0,5.2c0,0.9,0.1,1.6,0.1,2.3
		c0,0.6,0,1.4,0.1,2.2c0,0.9,0,1.8,0,2.9c0,1.1,0,2-0.1,2.9c-0.1,0.8-0.1,1.5-0.2,1.9c-0.1,0.4-0.1,0.8-0.2,1.1c0,0.1,0,0.3-0.1,0.4
		c0,0,0-0.1-0.1-0.3"/>
	<path class="st5" d="M335,303.2c-0.3-0.3-0.5-0.5-0.8-0.8"/>
	<path class="st5" d="M333.7,303.4c-1.3-0.4-2.5-0.7-3.8-0.9c-0.8-0.1-1.6-0.2-2.4-0.3c-0.6,0-0.9,0-0.7,0.1
		c0.1,0.1,0.5,0.2,1.1,0.4c0.9,0.3,1.9,0.6,2.9,0.7c1.4,0.3,2.7,0.5,4,0.7c1.3,0.2,2.3,0.3,3.2,0.4c0.8,0.1,1.8,0.1,2.9,0.2
		c1.1,0,2.7,0.1,4.8,0.1c2.1,0,3.2,0.2,3.2,0.5c0,0.3-0.3,0.5-1.1,0.6c-0.8,0.1-2.5,0.1-5.1,0.1c-2.6,0-4.5,0-5.5-0.1
		c-0.7-0.1-1.3-0.2-2-0.3l-0.5-0.1l0,0l0.1,0l2.6,0.8"/>
	<path class="st5" d="M389.4,307.1c1.9-0.2,3.9-0.3,5.8-0.2c2.9,0,5,0,6.1,0c1.2,0,2.6,0,4.2,0.1c1.7,0,2.8,0,3.4-0.1
		c0.8-0.1,1.5-0.2,2.3-0.5c0.7-0.2,1.4-0.3,2.1-0.4c1,0,2.1,0.2,3.1,0.6"/>
	<path class="st5" d="M201.4,305.3c-0.8-0.1-1.2-0.3-1.2-0.7c0-0.3,0.2-0.5,0.7-0.7c0.5-0.2,1.1-0.3,1.7-0.4
		c1.1-0.1,2.3-0.2,3.4-0.2c1.4,0,2.9,0,4.3,0.2c1.2,0.1,2.7,0.2,4.5,0.2s3.8-0.1,6.2-0.2c2.4-0.2,4.2-0.3,5.5-0.3
		c1.3,0,2.3-0.1,3.1-0.2c0.6,0,1.1-0.2,1.6-0.5c0.4-0.3,1,0.1,1.8,1.2"/>
	<path class="st5" d="M274.6,307.2c-0.1-0.6-0.3-1.2-0.6-1.7c-0.2-0.2-0.4-0.4-0.7-0.4l-0.3-0.1l0,0l0.6,0.2
		c1.2,0.2,2.3,0.3,3.5,0.3c2,0.1,4,0.3,5.8,0.5c1.9,0.2,3.2,0.3,4,0.4c0.8,0.1,1.9,0.1,3.3,0.1s2.7,0.1,3.9,0.1
		c1.2,0.1,2.3,0.1,3.1,0.2c1.1,0.1,2.1,0.4,2.9,1.1"/>
	<path class="st3" d="M319.6,165.7L319,166c0,0,0.1,0,0.5,0h3.6c2,0,4-0.1,5.9-0.2c2-0.1,3.5-0.2,4.7-0.3c1.1-0.1,2.6-0.2,4.5-0.4
		s4.4-0.3,7.5-0.3c3.2,0,5.8,0,7.8-0.1c1.7,0,3.4,0,5.1,0.2c1.4,0.1,3,0.3,4.8,0.3c1.8,0.1,3.3,0.2,4.5,0.4c1.2,0.2,2.3,0.3,3.3,0.5
		c1,0.1,2.4,0.4,4.1,0.8c1.7,0.4,3,0.6,4,0.8c1,0.2,2.2,0.3,3.6,0.5c1.4,0.1,3.4,0.2,6.2,0.3s4.5,0.1,5.2,0.1
		c0.7,0.1,1.9,0.1,3.6,0.1c1.7,0,3.1,0,4.2-0.1c1.1-0.1,2.1-0.1,3.1-0.1c0.8,0,1.7,0,2.5-0.2c0.7-0.1,1.4-0.2,2-0.4
		c0.7-0.2,1.4-0.3,2.2-0.4c0.8-0.1,1.2,0,1.3,0.3c0.1,0.3,0.4,0.6,0.8,0.7c0.4,0.1,0.6,0.2,0.6,0.2c0,0,0,0-0.1,0l-1.8-0.1
		c-1.6,0-3.5,0-5.8,0.2"/>
	<path class="st3" d="M324.3,169.5c-0.3-0.8-0.1-1.2,0.7-1.1c0.5,0.1,1.3,0.2,2.3,0.4c1,0.2,2.3,0.4,3.7,0.6
		c1.5,0.2,2.9,0.4,4.4,0.5c1.5,0.1,3.4,0.2,5.8,0.3c2.4,0.1,4.4,0.1,6,0.2c1.6,0.1,3.2,0.1,4.9,0.2c1.7,0.1,3,0.2,3.9,0.2
		c0.9,0,2.4,0.1,4.4,0.1c1.8,0,3.5-0.1,5.3-0.3c1.5-0.2,3-0.4,4.3-0.7c1.4-0.3,2.3-0.4,2.9-0.6c0.6-0.1,1.5-0.3,2.7-0.4
		c1.2-0.2,2.6-0.3,3.9-0.3c1.4-0.1,3-0.1,4.8-0.1c1.6,0,3.2,0.1,4.8,0.2c1.3,0.1,2.8,0.2,4.4,0.3c2.3,0.1,5.8,0.2,10.5,0.2"/>
	<path class="st4" d="M211.1,165c0-0.4-0.2-0.9-0.4-1.2l-0.2-0.2c0,0,0,0,0,0s0.1,0.2,0.3,0.4c0.5,0.4,1,0.7,1.5,0.9
		c0.7,0.4,1.5,0.6,2.2,0.8c1,0.2,2,0.3,3,0.3c1.3,0.1,3.1,0.1,5.4,0.1c2.2,0,4.3-0.1,6.2-0.2c1.9-0.1,3.2-0.2,4-0.2
		c0.8,0,1.7,0.2,2.4,0.4c0.8,0.3,1.7,0.5,2.5,0.6c1.7,0.2,3.4,0.3,5.1,0.2c2.6,0,4.2,0,4.9-0.1s3.8-0.1,9.2-0.1c5.4,0,9.7,0,13,0
		c3.2,0,5.7,0,7.4-0.2c1.7-0.1,3.4-0.3,5.1-0.6c1.7-0.2,3-0.4,3.9-0.4c0.9,0,2.2-0.1,4-0.3c1.8-0.1,3.4-0.3,4.7-0.4
		c1.3-0.1,3.1-0.1,5.3-0.1c1.4,0,2.9,0,4.3,0.2c1.2,0.1,2.4,0.2,3.6,0.2c1.3-0.1,2.5,0.2,3.6,0.9"/>
	<path class="st4" d="M94.2,166.4c-0.1-0.5-0.6-0.9-1.1-0.8c-0.4,0-0.8-0.1-1.2-0.2c-0.2-0.1-0.3-0.2-0.4-0.2c0,0,0,0,0.2,0l1.4,0
		c0.7,0,2.1,0.1,4.1,0.3c2,0.2,3.6,0.3,4.8,0.3c1.3,0,2.7,0.1,4.3,0.1s3.1-0.1,4.4-0.2c1.3-0.1,2.4-0.2,3.3-0.2
		c0.9,0,2.3-0.1,4.1-0.1c1.3,0,2.6,0,3.9,0.2c1.3,0.2,2.5,0.2,3.8,0.2c1.8,0,4.2,0,7.2,0s5.1,0,6.3,0.1c1.2,0.1,2.1,0.2,2.9,0.3
		c0.9,0.1,1.8,0.2,2.7,0.2c1.1,0,3.2,0.1,6.4,0.1c3.2,0,5.6,0.1,7.2,0.2c2.3,0.2,9.3,0.3,21.2,0.3"/>
	<path class="st2" d="M90.1,304.9c-0.1-0.8-0.3-1.6-0.6-2.4c-0.1-0.2-0.2-0.5-0.4-0.6c-0.2-0.1-0.3,0-0.3,0.2c0,0.2,0.2,0.4,0.6,0.7
		c0.4,0.3,0.9,0.5,1.3,0.7c0.5,0.2,1.1,0.4,1.7,0.5c0.7,0.1,1.3,0.3,1.9,0.5c0.7,0.2,1.3,0.5,1.9,0.7c0.7,0.3,1.5,0.4,2.2,0.4
		c1.2,0,2.4-0.1,3.6-0.3c1.5-0.3,2.6-0.5,3.3-0.6c1.1-0.2,2.3-0.3,3.5-0.3c1.2-0.1,2.3,0.2,3.3,0.9"/>
	<path class="st2" d="M110.9,305.2c0.1-0.8-0.1-1.6-0.5-2.2c-0.3-0.4-0.8-0.6-1.3-0.6c-1.5,0-2.9,0.2-4.3,0.6
		c-2.2,0.5-4.2,0.9-6,1.2c-1.8,0.3-3.3,0.6-4.7,0.9c-1.4,0.3-2.4,0.5-3.2,0.7c-0.5,0.1-0.9,0.3-1.4,0.5c-0.2,0.2,0.5,0.4,2.2,0.8"/>
	<path class="st2" d="M157.4,304.1c0-0.4-0.3-0.6-0.8-0.6c-0.6,0.1-1.2,0.3-1.6,0.6c-0.4,0.2-0.8,0.6-1,1c-0.1,0.3,0.5,0.4,1.7,0.4
		c1.2,0,2.3,0,3.5-0.2c1.1-0.2,1.9-0.3,2.4-0.5c0.6-0.1,1.1-0.2,1.7-0.2c0.6,0,1.2,0,1.8,0.1c1.1,0.1,2.2,0.2,3.3,0.1
		c1.6,0,2.7,0,3.3-0.1s1.5-0.2,2.7-0.4c1.2-0.2,2.2-0.4,3-0.6c0.8-0.2,1.6-0.4,2.5-0.5c0.9-0.1,1.7-0.3,2.5-0.4
		c0.6-0.1,1.3-0.2,1.9-0.3c0.8-0.1,1.6-0.2,2.4-0.2c1,0,2,0.1,3,0.4c0.6,0.2,1.1,0.4,1.7,0.6c0.4,0.2,0.6,0.6,0.5,1"/>
	<path class="st2" d="M84.8,70.8h-0.2C84.7,70.8,84.7,70.8,84.8,70.8l0.7,0.2c0.4,0.1,0.7,0.2,0.9,0.3c0.3,0.1,0.6,0.2,0.9,0.2
		c0.3,0.1,0.6,0.2,1,0.2c0.4,0.1,0.7,0.1,1.1,0.2c0.4,0,0.8,0.1,1.2,0.1c0.4,0,0.9,0,1.3,0c0.4,0,0.8,0,1.2,0s0.9,0,1.7-0.1
		c0.8,0,1.3-0.1,1.7-0.1c0.4,0,1.5,0,3.3,0c1.8,0,2.8,0,3.1,0c0.3,0,0.5,0,0.8-0.1c0.3,0,0.6-0.1,0.9-0.1c0.3,0,0.6-0.1,0.9-0.1
		c0.3,0,0.6,0,0.9-0.1c0.3,0,0.6,0,1,0s0.8,0,1.3,0c0.4,0,0.9,0,1.4,0c0.5,0,1.1,0,1.7,0c0.6,0,1.2,0,1.9,0c0.6,0,1.3,0,1.9,0
		c0.6,0,1.1,0,1.5,0c0.3,0,0.7-0.1,1.1-0.1s1.1-0.1,2.2-0.3c1.1-0.1,1.8-0.2,2.1-0.2c0.4,0,0.8-0.1,1.2-0.1c0.5,0,1-0.1,1.5-0.1
		c0.6,0,1.1,0,1.6,0c0.5,0,1,0,1.3,0s0.8,0,1.3,0.1s1.1,0.1,1.7,0.2c0.6,0.1,1.1,0.2,1.5,0.2c0.4,0,0.8,0.1,1.3,0.1
		c0.5,0,0.9,0.1,1.2,0.1c0.4,0,0.7,0.1,1.1,0.2c0.4,0.1,0.8,0.1,1.3,0.2c0.5,0,1,0.1,1.4,0.1s1.1,0,1.8,0.1s1.3,0,1.6,0.1
		s0.9,0.1,1.8,0.1s1.6,0.1,2.2,0.1c0.6,0,1.2,0,1.9,0c0.7,0,1.5,0,2.4,0c0.9,0,1.8-0.1,2.7-0.1c0.9,0,1.5-0.1,1.8-0.1s0.9,0,1.8-0.1
		c0.9,0,1.7,0,2.4-0.1c0.7,0,1.3,0,1.9,0c0.6,0,1.1,0,1.6,0c0.5,0,0.9,0,1.3,0c0.4,0,0.9,0,1.4,0c0.5,0,1.1,0,1.6,0s1,0,1.4,0
		c0.4,0,0.8,0,1.3-0.1c0.5,0,1.1-0.1,1.8-0.1s2.3,0,4.8,0c2.5,0,3.8,0,4.1,0s0.5,0.1,0.8,0.1c0.3,0,0.6,0.1,0.9,0.1s0.6,0.1,0.7,0.1
		l0.2,0h0h0l-0.4,0c-0.2,0-0.6,0-0.9-0.1c-0.4-0.1-0.9-0.1-1.6-0.2c-0.7-0.1-1.2-0.2-1.6-0.2c-0.4-0.1-0.8-0.1-1.3-0.2
		c-0.5-0.1-1-0.1-1.6-0.2c-0.6-0.1-1.2-0.1-1.7-0.2c-0.5-0.1-1.1-0.1-1.5-0.1c-0.5,0-1,0-1.5-0.1c-0.5,0-1.1,0-1.9,0s-1.4,0-1.7,0
		c-0.3,0-0.7,0-1.1,0s-1,0-1.8,0s-1.4,0-1.7,0c-0.3,0-0.9-0.1-1.6-0.2s-1.3-0.2-1.7-0.2c-0.3,0-0.7-0.1-0.9-0.1
		c-0.3,0-0.7-0.1-1.3-0.2c-0.6-0.1-1.3-0.2-2.2-0.2c-0.8-0.1-1.5-0.1-2-0.2s-1.1-0.1-1.9-0.1c-0.8,0-1.3-0.1-1.7-0.1
		c-0.3,0-0.7-0.1-1-0.1c-0.3,0-0.7-0.1-1.1-0.1s-0.8,0-1.3,0c-0.4,0-0.7,0-1.1,0.1c-0.3,0-0.6,0.1-0.9,0.1c-0.3,0.1-0.6,0.1-1,0.1
		c-0.4,0-0.8,0.1-1.5,0.1c-0.6,0-1.4,0-2.5,0c-1,0-1.8,0-2.3,0c-0.5,0-0.9,0-1.1,0c-0.2,0-0.8,0-1.8,0.1c-1,0.1-1.7,0.1-2.3,0.1
		c-0.5,0-0.9,0.1-1.2,0.1c-0.2,0-0.7,0-1.5,0.1c-0.8,0-1.4,0-1.9,0c-0.5,0-1,0-1.5,0c-0.5,0-1,0-1.6,0c-0.6,0-1.2,0.1-1.8,0.1
		c-0.6,0-1,0.1-1.3,0.1c-0.3,0-0.7,0.1-1.3,0.1c-0.6,0-1.2,0.1-1.9,0.1c-0.7,0-1.1,0-1.4,0.1s-0.7,0-1.3,0c-0.6,0-1,0-1.3,0
		c-0.3,0-1.1,0-2.4,0c-1.3,0-2.1,0-2.4,0c-0.3,0-0.7,0-1.2,0s-0.9,0-1.4,0c-0.4,0-1.6,0-3.6,0c-2,0-3.2,0-3.7,0s-1,0.1-1.4,0.1
		c-0.4,0-0.9,0.1-1.3,0.1c-0.5,0-1,0.1-1.6,0.2c-0.6,0.1-1.1,0.2-1.6,0.3c-0.5,0.1-0.9,0.2-1.4,0.3c-0.4,0.1-0.8,0.2-1,0.2
		c-0.2,0-0.5,0.1-0.8,0.1c-0.3,0-0.5,0.1-0.8,0.2c-0.2,0-0.4,0.2-0.5,0.4"/>
	<path class="st2" d="M90,75.4c0-0.2,0-0.3,0-0.5l0-0.1c0,0,0,0,0,0.1c0,0,0,0.1,0,0.3s0,0.5,0,1.1c0,0.8-0.1,1.7-0.2,2.5
		c-0.2,1.1-0.2,1.8-0.3,2.2c0,0.4-0.1,1-0.2,1.7c-0.1,0.8-0.1,1.8-0.2,3.1C89.1,87.2,89,88,89,88.3c0,0.3,0,0.5,0,0.8
		c0,0.2,0,0.7,0,1.5c0,0.7,0,1.3,0,1.8c0,0.4,0.1,1.1,0.2,1.9s0.2,1.4,0.2,1.9c0,0.4,0.1,0.9,0.2,1.4c0.1,0.5,0.1,1.1,0.1,1.8
		s0,1.3,0,2s0,1.2,0,1.7c0,0.4,0,0.9,0,1.4c0,0.5,0,1,0.1,1.5c0,0.5,0.1,1.1,0.1,1.8s0.1,1.4,0.2,2.2c0.1,0.8,0.1,1.4,0.1,1.8
		s0,1.4,0,2.8s0,2.5,0,3.2s0,1.4,0,2.1c0,0.7,0,1.1-0.1,1.3c0,0.2,0,0.6,0,1.2c0,0.6,0,1.2,0,1.9c0,0.7,0,1.3,0,1.8
		c0,0.6,0,1.1-0.1,1.7c0,0.6-0.1,1.1-0.1,1.6c0,0.5,0,1-0.1,1.6c0,0.6,0,1.1,0,1.6s0,1.1,0,2.1c0,0.9,0,1.8,0.1,2.5
		c0,0.7,0.1,1.3,0.1,1.8c0,0.5,0,0.8,0,1c0,0.2,0,0.8,0.1,1.7s0.1,1.9,0.1,3s0,1.8,0,2.1c0,0.3,0,0.7-0.1,1c0,0.3-0.1,0.8-0.1,1.3
		c-0.1,0.6-0.1,1-0.1,1.4c0,0.5,0,1.5,0,2.9"/>
	<path class="st2" d="M84.7,155.5c-0.2,0.4-0.3,0.7-0.4,1.1c-0.1,0.4-0.1,0.8-0.1,1.1c0,0.5,0,1.5,0,3c0,1.4,0,2.4,0,2.9
		c0,0.5,0.1,1,0.1,1.7c0.1,0.7,0.1,1.2,0.2,1.5s0.1,0.5,0.1,0.6c0,0.1,0.1,0.2,0.1,0.2c0,0,0.1-0.1,0.1-0.4c0.1-0.5,0.2-1,0.3-1.5"
		/>
	<path class="st2" d="M89.3,155c-0.1,0.5-0.2,0.9-0.2,1.2c0,0.2-0.1,0.5-0.1,0.8c0,0.4-0.1,0.9-0.1,1.6c0,0.7-0.1,1.4-0.1,2.1"/>
	<path class="st2" d="M184.7,75.7c-0.1,0-0.2,0.2-0.2,0.4c0,0.2,0,0.5,0,0.7c0,0.2,0.1,0.5,0.2,1c0.1,0.4,0.2,0.8,0.2,1.1
		s0.1,0.7,0.2,1c0.1,0.3,0.1,0.7,0.1,1c0,0.4,0.1,0.9,0.2,1.5s0.1,1.1,0.1,1.4c0,0.3,0,0.6,0,0.9c0,0.3,0,0.7,0,1.3c0,0.6,0,1,0,1.3
		c0,0.4-0.1,0.8-0.2,1.2c-0.1,0.5-0.2,0.9-0.3,1.2c-0.1,0.3-0.1,0.6-0.2,0.9c-0.1,0.3-0.1,0.6-0.2,0.9c-0.1,0.3-0.1,0.7-0.2,1.2
		c-0.1,0.5-0.2,1-0.2,1.4c-0.1,0.5-0.1,1.1-0.2,1.8s-0.1,1.3-0.1,1.7c0,0.4,0,1.2,0,2.4s0,2,0,2.4c0,0.4,0,0.9,0,1.4
		c0,0.5,0,1.2,0.1,2.1c0,0.8,0.1,1.5,0.1,1.9s0.2,1.2,0.3,2.2s0.3,1.7,0.3,2c0,0.3,0.1,0.6,0.2,1.1c0.1,0.4,0.1,1,0.2,1.7
		s0.1,1.2,0.1,1.4c0,0.2,0.1,0.5,0.2,0.8c0.1,0.3,0.1,0.6,0.2,0.9s0.1,0.8,0.1,1.3c0,0.5,0.1,1,0.1,1.5c0.1,0.4,0.1,0.9,0.1,1.3
		c0,0.4,0.1,0.9,0.1,1.5c0,0.5,0.1,1,0.1,1.3s0.1,0.8,0.2,1.5s0.1,1.2,0.1,1.5c0,0.4,0,0.8,0,1.4c0,0.6,0,1.7,0,3.5
		c0,1.8,0,2.9,0,3.6c0,0.6,0,1.4,0,2.2c0,0.9,0,2,0,3.3c0,1.3,0,2.2,0,2.6s0,0.9-0.1,1.4c0,0.6-0.1,1-0.1,1.3c0,0.3,0,0.6,0,0.8
		c0,0.2,0,0.5,0,1c0,0.4,0,1.3,0,2.5c0,1.2,0,2,0,2.4c0,0.3,0,0.7-0.1,1.1s-0.1,0.7-0.1,1c0,0.3-0.1,0.6-0.2,0.9
		c-0.1,0.4-0.2,0.6-0.2,0.8c0,0.3-0.1,0.5-0.1,0.8c0,0.3,0,0.7,0,1.2c0,0.5,0,0.9,0,1.2c0,0.3,0,0.7,0,1.1s0,0.8,0.1,1.1
		c0,0.3,0,0.6,0,1c0,0.3,0,0.5-0.1,0.8c0,0.1-0.1,0.2-0.1,0.2l0,0l0,0c0,0,0-0.2,0.1-0.4"/>
	<path class="st2" d="M87.7,190.9c0,0.6,0,1.9,0,3.9"/>
	<path class="st2" d="M84.5,184.6c-0.2,0.1-0.3,0.2-0.5,0.3c-0.1,0.1-0.1,0.2-0.2,0.4c0,0.2-0.1,0.4-0.1,0.5c0,0.2,0,0.8,0,1.7
		c0,0.9,0,1.8,0,2.7c0,0.8,0.1,1.7,0.1,2.6c0,0.9,0,1.8,0.1,2.6c0,0.9,0,1.5,0,2c0,0.5,0,0.9,0,1.3c0,0.4,0,1.1,0,1.9
		c0,0.8,0.1,1.9,0.1,3.3c0,1.4,0.1,2.5,0.1,3.4c0,0.9,0,1.6-0.1,2c0,0.5-0.1,1.1-0.2,2c-0.1,0.8-0.1,1.5-0.2,2c0,0.5,0,1.1-0.1,1.7
		c0,0.6,0,1.1,0,1.4c0,0.3,0,0.8-0.1,1.3c0,0.6,0,1.3,0,2.2c0,0.9,0,1.6,0,2.2c0,0.6,0,1.1,0,1.6c0,0.5,0,1,0,1.6s0,1.1,0.1,1.6
		c0,0.5,0,1,0.1,1.5c0,0.5,0,0.9,0.1,1.2c0,0.3,0,1.1,0,2.3c0,1.3,0,2.2,0,2.7c0,0.5,0,1.3,0,2.3s0,1.6,0,1.9c0,0.3,0,0.7,0.1,1.2
		c0,0.5,0.1,1.1,0.1,1.9s0.1,1.4,0.2,2.1s0.1,1.4,0.1,2.3c0,0.8,0.1,1.5,0.1,2.2s0,1.3,0.1,1.9s0,1.1,0,1.5s0,1,0,1.9
		s0.1,1.9,0.1,3.2c0.1,1.3,0.1,2.2,0.1,2.9c0,0.6,0.1,1.1,0.1,1.5s0.1,0.8,0.1,1.3s0,0.9,0.1,1.3s0,1,0,1.6s0,2.3,0,5
		c0,2.7,0,4.6,0.1,5.8c0.1,1.1,0.1,1.9,0.1,2.3c0,0.4,0.1,0.7,0.1,1c0,0.3,0.1,0.6,0.1,0.9c0,0.3,0,0.9,0,2c0,1,0,1.6,0,1.9
		c0,0.2-0.1,0.3-0.2,0.4c-0.1,0.1-0.1,0.1-0.1,0.2c0,0.1,0.1,0.3,0.4,0.6"/>
	<path class="st2" d="M187.2,184.1c0,0.5,0,0.9,0.1,1.4c0.1,0.6,0.2,1.3,0.2,1.9c0.1,0.7,0.1,1.2,0.1,1.5c0,0.3,0,0.8,0.1,1.3
		c0,0.6,0,1,0,1.3c0,0.3,0,0.7,0,1.3c0,0.6,0,1-0.1,1.3c0,0.3,0,0.7,0,1.2c0,0.5,0,0.9,0,1.2c0,0.3,0,0.7-0.1,1.2
		c0,0.5-0.1,0.9-0.1,1.1s0,0.9-0.1,2c0,1.1,0,1.9,0,2.4s0,1,0,1.4c0,0.4,0,0.8-0.1,1.2s-0.1,0.9-0.1,1.3c0,0.4-0.1,1.1-0.1,1.9
		c0,0.9-0.1,1.7-0.1,2.4c0,0.7,0,1.3-0.1,1.8c0,0.5,0,1,0,1.5s0,3.8,0,9.7s0,9.2,0,9.9s0,1.4,0,2.2c0,0.8,0,1.5,0,2
		c0,0.5,0,0.9,0,1.2c0,0.3,0,0.6,0,1.1c0,0.4-0.1,1-0.1,1.6c0,0.6-0.1,1.4-0.1,2.4s-0.1,2-0.1,2.9s-0.1,1.7-0.1,2.5
		c0,0.7,0,1.3,0,1.7c0,0.4,0,1.1,0,2.2c0,1,0,1.8,0,2.1c0,0.4,0,0.9,0,1.5s0,2,0,4.1s0,3.5,0,4.1c0,0.6,0,1.1,0.1,1.5s0,0.8,0,1.1
		c0,0.3,0,0.8,0,1.4c0,0.6,0,1.5,0,2.6s0,2,0,2.4c0,0.4,0,0.8,0,1.1s0,0.6,0,0.9c0,0.3,0,1.1,0,2.4s0,2.2,0,2.8c0,0.6,0,1.2,0.1,1.8
		s0.1,0.9,0.1,1v0.1"/>
	<path class="st2" d="M181.2,194.3c-0.1-0.2-0.2-0.5-0.5-0.6c-0.1-0.1-0.3-0.2-0.4-0.2c-0.1,0-0.2,0-0.3,0c-0.1,0-0.2,0.1-0.2,0.2
		c-0.1,0.1-0.1,0.3-0.2,0.4c0,0.2-0.1,0.4-0.1,0.5c0,0.2,0,0.7,0,1.4c0,0.7,0,1.6,0,2.5c0,1,0,1.7,0,2.2c0,0.5,0,1.2,0.1,2.1
		c0,0.9,0.1,1.8,0.1,2.5c0.1,0.8,0.1,1.6,0.2,2.4c0.1,0.8,0.1,1.6,0.2,2.5c0.1,0.8,0.1,1.8,0.2,3c0.1,1.2,0.2,2.1,0.2,2.9
		s0.1,1.3,0.1,1.7c0,0.4,0,0.7,0.1,1c0,0.3,0.1,1.1,0.3,2.4c0.2,1.3,0.3,2.3,0.4,2.9c0.1,0.6,0.2,1.3,0.2,1.9
		c0.1,0.6,0.1,1.4,0.2,2.3c0.1,0.9,0.1,1.7,0.2,2.3c0.1,0.6,0.1,1.3,0.2,2.1c0,0.8,0.1,1.7,0.1,2.8c0,1,0.1,2,0.1,2.8
		c0,0.8,0,1.6,0.1,2.4c0,0.8,0,1.3,0.1,1.6c0,0.2,0,1.8,0,4.8c0,2.9,0,4.7,0,5.3c0,0.6,0,2,0,4.2c0,2.2,0,3.4,0,3.8
		c0,0.3,0,1-0.1,2.1c-0.1,1.1-0.1,1.9-0.2,2.6c-0.1,0.7-0.1,1.4-0.1,2.2c0,0.8-0.1,1.6-0.1,2.3c0,0.7-0.1,1.5-0.1,2.4
		c0,0.8,0,1.6-0.1,2.4c0,0.8,0,1.6,0,2.4c0,0.9,0,1.7,0,2.4c0,0.7,0,1.4-0.1,2c0,0.6,0,1-0.1,1.2c0,0.2,0,0.3-0.1,0.5
		c0,0.2-0.1,0.2-0.3,0"/>
	<path class="st2" d="M95.1,282.6c-0.1-0.2,0-0.4,0.1-0.4c0.1,0,0.3,0,0.5,0c0.3,0,0.6,0.1,0.9,0.1c0.4,0.1,0.8,0.1,1.1,0.1
		c0.3,0,0.7,0,1.1,0c0.4,0,0.8,0,1.1,0c0.4,0,0.7,0,1.1-0.1s0.7-0.1,1-0.2c0.3-0.1,0.8-0.2,1.4-0.3c0.6-0.2,1.1-0.3,1.5-0.4
		s0.9-0.2,1.6-0.3c0.7-0.1,1.1-0.2,1.4-0.2c0.2,0,0.6-0.1,1.2-0.1s1.1,0,1.6,0c0.5,0,1,0,1.5,0s1-0.1,1.5-0.1
		c0.6-0.1,1.1-0.1,1.6-0.2c0.5,0,1-0.1,1.4-0.1c0.7,0,1.3,0.1,2,0.2c0.9,0.1,1.8,0.2,2.6,0.4c0.8,0.1,1.5,0.3,2,0.3
		c0.5,0.1,1.1,0.2,1.6,0.2c0.5,0.1,1,0.1,1.4,0.2c0.4,0.1,0.7,0.1,1,0.1s0.6,0.1,1.2,0.1c0.6,0,1,0.1,1.3,0.1c0.3,0,0.7,0.1,1.2,0.1
		c0.5,0.1,0.9,0.1,1.2,0.1c0.3,0,0.8,0.1,1.5,0.1c0.7,0.1,1.3,0.1,1.9,0.2c0.5,0.1,0.9,0.1,1.2,0.1s0.7,0.1,1.4,0.1
		c0.6,0.1,1.2,0.1,1.8,0.1c0.5,0,1.1,0.1,1.7,0.1c0.6,0,1.4,0,2.4,0c1,0,1.8,0,2.5,0c0.6,0,1.5,0,2.7,0c1.1,0,1.8,0,1.9,0
		c0.2,0,0.5,0.1,0.7,0.1c0.3,0.1,0.7,0.1,1,0.2c0.3,0.1,0.7,0.1,1,0.2c0.3,0.1,0.8,0.1,1.5,0.2c0.7,0.1,1.3,0.1,1.7,0.1
		c0.5,0,0.9,0,1.2,0.1s0.6,0.1,0.9,0.1c0.3,0,0.6,0.1,0.9,0.2c0.3,0.1,0.6,0.2,1,0.2c0.4,0.1,0.8,0.1,1.2,0.2c0.4,0,1.4,0,2.9,0
		c1.6,0,2.7,0,3.3,0c0.7,0,1.3,0,1.9-0.1c0.6,0,1.3-0.1,2.2-0.1c0.9,0,1.7,0,2.5,0s1.3,0,1.5,0c0.2,0,0.3,0,0.5,0.1
		c0.1,0,0.1,0.1,0.1,0.3"/>
	<path class="st2" d="M153.7,308.3c0.1-0.1,0.3-0.1,0.5-0.1c0.2,0,0.4,0,0.7,0s0.5,0,0.9,0.1c0.4,0,0.7,0.1,1.1,0.1
		c0.4,0,0.8,0.1,1.2,0.1c0.4,0,1,0,1.8,0c0.8,0,1.4,0,1.9,0c0.5,0,1.1,0,1.8-0.1c0.8-0.1,1.8-0.1,3-0.2c1.2-0.1,2.2-0.2,2.9-0.2
		s1.4-0.1,2.2-0.1s1.4,0,2-0.1c0.6,0,1.2,0,1.9,0s1.3,0,1.8,0c0.6,0,1,0,1.2,0.1c0.3,0,0.6,0,0.9,0.1c0.3,0,0.8,0,1.3,0
		c0.5,0,1.3,0,2.1,0s1.6,0,2.3,0s1.1,0.1,1.3,0.1c0.2,0,0.5,0.1,1,0.1c0.5,0.1,0.9,0.1,1.2,0.2c0.3,0,0.7,0,1.1,0s0.6,0,0.8,0l0.2,0
		"/>
	<path class="st2" d="M163.3,302.7c0.3-0.1,0.6-0.2,1-0.2c0.2,0,0.6,0,1.2-0.1s1.6,0,2.9,0s2.1,0,2.5,0c0.4,0,1,0,1.6,0.1
		c0.7,0,1.3,0.1,2,0.3"/>
	<path class="st2" d="M89,308.6c-0.1,0.2-0.2,0.3-0.2,0.5c0,0.1,0,0.2,0,0.3c0,0.1,0.1,0.1,0.2,0.2c0.1,0.1,0.3,0.1,0.5,0.2
		c0.2,0.1,0.5,0.1,0.7,0.1c0.3,0,0.5,0,0.9,0s0.7,0,1.2,0c0.5,0,1-0.1,1.5-0.1c0.5-0.1,1.1-0.2,1.8-0.3c0.7-0.1,1.3-0.2,2-0.3
		c0.7-0.1,1.3-0.2,2-0.3c0.7-0.1,1.3-0.2,1.9-0.2c0.6-0.1,1.2-0.1,1.8-0.2c0.6-0.1,1.3-0.1,2.3-0.2c1,0,1.7-0.1,2-0.1
		c0.4,0,0.8,0,1.4,0c0.6,0,1.1,0,1.5,0c0.4,0,0.7,0,0.8,0c0.1,0,0.2,0,0.1,0l-0.7,0"/>
	<path class="st2" d="M97.1,303.6c0.5-0.1,1-0.1,1.4-0.1c0.2,0,0.8,0,1.7,0c0.9,0,1.8,0,2.8,0s1.8,0,2.4,0c0.6,0,1.2,0,1.6,0
		c0.5,0,0.9,0,1.3,0c0.4,0,1.1,0,2,0l1.5,0c0,0,0,0,0.1,0l-0.3,0"/>
	<path class="st4" d="M96.6,189.5c0-0.1-0.1-0.3-0.2-0.3c-0.1-0.1-0.1-0.1-0.2-0.1c-0.1,0-0.1,0-0.2,0.2c-0.1,0.2-0.1,0.5-0.1,0.8
		c0,0.4-0.1,0.9-0.1,1.4c0,0.6,0,2.1,0,4.6c0,2.5,0,3.9,0,4.1c0,0.2,0,0.5,0,0.7c0,0.2,0.1,0.6,0.1,1.1c0.1,0.5,0.1,0.9,0.1,1.2
		s0.1,0.6,0.1,1.1s0.1,0.8,0.1,1c0,0.2,0.1,0.4,0.1,0.7s0,0.6,0.1,1c0,0.5,0,1.1,0,2.1c0,0.9,0,1.6,0,2.1c0,0.5-0.1,1.1-0.2,1.7
		c-0.1,0.7-0.1,1.3-0.2,2s-0.1,1.2-0.1,1.7c0,0.5-0.1,1.1-0.1,1.7c0,0.7-0.1,1.2-0.1,1.7c0,0.4-0.1,0.9-0.1,1.4s-0.1,1-0.1,1.7
		c0,0.7-0.1,1.2-0.1,1.7c0,0.5,0,1.1-0.1,1.8s0,1.6-0.1,2.5c-0.1,0.9-0.1,1.8-0.2,2.6c0,0.8-0.1,1.5-0.1,2.2c0,0.7,0,1.2,0,1.5
		c0,0.3,0,2,0,5.2c0,3.2,0,5.2,0,5.9s0.1,1.5,0.1,2.1c0,0.6,0.1,1.2,0.1,1.7c0,0.6,0,1.3,0.1,2.1s0.1,2,0.1,3.5
		c0,1.4,0.1,2.3,0.1,2.6c0,0.3,0,0.6,0.1,1c0,0.3,0.1,0.6,0.1,0.9c0,0.3,0.1,0.7,0.1,1.3c0.1,0.6,0.1,1.3,0.2,2.2
		c0,0.9,0.1,1.6,0.1,2.2c0,0.5,0,1.1,0,1.8s0,1.5,0,2.7c0,1.2,0,1.9,0,2.2s0,0.6-0.1,0.9c0,0.3-0.1,0.7-0.2,1.2
		c-0.1,0.5-0.2,0.9-0.3,1.3c-0.1,0.4-0.2,0.6-0.2,0.8c-0.1,0.2-0.2,0.2-0.4,0.1"/>
	<path class="st4" d="M95.3,190.7c0.4-0.1,0.9-0.1,1.3-0.1c0.6,0,1.2,0,1.8,0.1c0.6,0.1,1.2,0.1,1.6,0.1c0.4,0,0.8,0.1,1.2,0.1
		c0.4,0,1,0,1.7,0.1c0.7,0,1.2,0,1.6,0s1.2,0,2.6,0c1.3,0,2.2,0,2.5,0s0.8,0,1.4,0.1c0.6,0,1.1,0.1,1.4,0.1c0.4,0,0.7,0.1,0.9,0.1
		c0.2,0,0.7,0,1.4,0c0.7,0,1.1,0,1.3,0c0.2,0,0.4-0.1,0.6-0.1c0.1,0,0.3-0.1,0.4-0.1c0.1-0.1-0.1-0.1-0.5-0.1"/>
	<path class="st4" d="M152.2,188.8c0-0.2,0.1-0.3,0.3-0.4c0.1,0,0.2-0.1,0.3-0.1c0.3,0,0.6,0.1,0.8,0.2c0.4,0.1,0.7,0.2,0.9,0.3
		s0.5,0.1,1,0.2c0.4,0.1,0.8,0.2,1.1,0.2c0.3,0,0.6,0.1,1,0.2c0.4,0.1,0.8,0.1,1.2,0.1c0.3,0,0.8,0,1.5,0c0.7,0,1.1,0,1.4,0
		c0.3,0,0.5,0,0.8,0c0.3,0,0.8,0.1,1.7,0.2c0.8,0.1,1.5,0.2,2,0.2c0.5,0,0.9,0.1,1.3,0.1c0.5,0.1,1,0.1,1.6,0.1c0.7,0,1.1,0,1.4,0
		c0.3,0,0.6,0,1,0c0.4,0,1.2,0,2.5,0c1.3,0,2.1,0,2.3,0c0.4,0,0.8,0.1,1.1,0.2"/>
	<path class="st4" d="M91.3,168.6c-0.2,0-0.4,0-0.6,0l-0.2,0c0,0,0,0,0,0h0.4c0.2,0,0.5,0,0.8,0c0.3,0,1.8,0,4.4,0
		c2.6,0,4.2,0,4.6,0c0.4,0,0.8,0,1.2,0s0.8,0.1,1.3,0.1c0.5,0.1,1.1,0.1,1.7,0.2c0.6,0.1,1.2,0.1,1.8,0.1c0.6,0,1.1,0.1,1.7,0.1
		c0.5,0.1,1.2,0.1,1.9,0.1c0.7,0,1.4,0.1,2,0.1c0.6,0,1.6,0,2.8,0c1.2,0,2.1,0,2.6,0c0.5,0,1,0,1.6-0.1c0.6,0,1.6,0,3.1,0
		s2.7,0,3.6,0c0.9,0,1.5,0.1,1.9,0.1c0.3,0,1.9,0,4.8,0c2.8,0,4.6,0,5.3,0s1.3,0,1.9,0c0.6,0,1.5,0,2.8,0s2.4,0,3.2,0
		c0.8,0,1.4,0,2-0.1c0.5,0,1.6,0,3.2,0c1.6,0,2.7,0,3.2,0s1.3,0,2.3-0.1c1,0,1.9-0.1,2.5-0.1c0.7,0,1.9,0,3.5,0c1.7,0,2.8,0,3.2,0
		s0.8,0,1.1,0s0.5,0,0.7,0.1s0.6,0.1,1,0.1c0.5,0.1,1,0.1,1.5,0.2c0.6,0,1,0.1,1.5,0.1c0.4,0,0.8,0.1,1.2,0.1c0.4,0,0.7,0.1,1.2,0.1
		s0.8,0.1,1.1,0.1c0.3,0,0.8,0,1.4,0c0.4,0,0.8,0,1.2,0c0.2,0,0.3,0.1,0.3,0.3"/>
	<path class="st4" d="M208.6,168c-0.2,0-0.5-0.1-0.7-0.1l-0.2,0h0.1h2.9c1.9,0,3.3,0,4.4,0c1.1,0,1.9-0.1,2.5-0.1c0.5,0,1.2,0,2,0
		c0.8,0,1.4,0,1.7,0c0.3,0,0.7,0.1,1.2,0.1s0.8,0.1,1.1,0.1c0.3,0,0.7,0.1,1.3,0.1c0.6,0,1.2,0.1,1.8,0.1c0.6,0,1.1,0,1.7,0
		c0.6,0,2.9,0,7,0c4.1,0,6.4,0,7,0.1c0.6,0,1.2,0.1,1.9,0.1c0.7,0,1.5,0.1,2.3,0.2c0.9,0.1,1.6,0.1,2.3,0.2c0.7,0.1,1.4,0.2,2.2,0.3
		c0.8,0.1,1.5,0.2,2.1,0.3c0.6,0.1,1.2,0.2,1.7,0.2c0.5,0.1,1.1,0.1,1.7,0.2c0.6,0,1.4,0.1,2.4,0.1c1,0,1.8,0.1,2.5,0.1
		c0.7,0,1.5,0,2.5,0c1,0,2.1,0,3.2-0.1c1.1,0,1.9-0.1,2.2-0.1c0.3,0,1.1,0,2.3-0.1c1.2,0,2.2-0.1,2.9-0.1c0.7,0,1.3-0.1,1.7-0.1
		c0.4,0,0.9-0.1,1.3-0.1s1-0.1,1.8-0.2c0.8-0.1,1.4-0.2,1.9-0.2c0.4-0.1,0.9-0.1,1.3-0.2c0.4-0.1,0.8-0.1,1.2-0.2s0.7-0.1,1.1-0.2
		c0.4-0.1,0.8-0.1,1.3-0.2c0.5-0.1,1-0.1,1.7-0.2c0.7-0.1,1.2-0.1,1.5-0.2c0.4,0,1-0.1,2.1-0.2s1.8-0.1,2.3-0.2c0.5,0,1.5,0,2.9,0
		c1.4,0,2.6,0,3.4,0s1.6,0,2.1,0.1c0.6,0,1.1,0,1.5,0c0.4,0,1.1,0,2,0c0.9,0,1.8,0,2.5,0c0.7,0,1.5,0,2.3,0c0.8,0,1.4,0,1.8,0
		s0.8,0,1-0.1c0.3,0,0.6,0,0.9-0.1c0.2,0,0.5-0.1,0.7-0.1c0.1,0,0.2-0.1,0.3-0.1c0.1-0.1,0.1-0.1,0.1-0.2c0-0.2-0.1-0.3-0.2-0.5
		c-0.1-0.2-0.2-0.5-0.4-0.8c-0.1-0.3-0.2-0.6-0.3-0.9c-0.1-0.3-0.1-0.5-0.2-0.6l0-0.2c0,0,0,0,0,0c0,0,0.1,0.2,0.3,0.6"/>
	<path class="st4" d="M208.8,162.2c-0.4-0.3-0.6-0.4-0.6-0.3c0,0.1,0.1,0.2,0.2,0.3c0.1,0.1,0.3,0.2,0.5,0.3
		c0.2,0.1,0.4,0.2,0.6,0.2c0.2,0.1,0.5,0.1,0.7,0.1c0.2,0,0.6,0.1,1.2,0.1c0.6,0,1.3,0,2.1,0c0.8,0,1.4,0,2,0c0.5,0,1,0,1.5,0
		c0.5,0,1.8,0,3.9-0.1c2.1,0,3.5-0.1,4.1-0.1c0.6,0,1.2,0,1.8,0s2,0,4.3,0s4.1,0,5.3,0s2.1,0,2.8,0s1.3,0,2,0.1c0.7,0,1.7,0.1,3,0.1
		c1.4,0,2.7,0.1,4.1,0.1c1.4,0,2.4,0.1,3.1,0.1c0.7,0,1.6,0,3,0c1.3,0,2.3,0,3,0c0.7,0,1.3,0,2,0c0.6,0,1.3,0,1.8,0
		c0.6,0,1.2,0,1.8,0s1.3,0,1.8,0.1c0.6,0,1.2,0.1,1.7,0.1c0.6,0,1.2,0.1,1.7,0.1c0.6,0,1.1,0.1,1.6,0.1s1,0.1,1.5,0.1s1,0.1,1.6,0.1
		c0.5,0,1,0,1.4,0s0.9,0,1.4,0c0.5,0,1.2,0,2.1,0c0.9,0,1.8,0,2.7,0c0.9,0,3.1,0,6.7,0s5.6,0,6.1,0c0.5,0,1.1,0,1.8,0.1
		c0.7,0,1.3,0.1,1.9,0.1c0.6,0.1,1.2,0.1,1.8,0.2c0.6,0.1,1.3,0.1,1.9,0.2c0.7,0.1,1.3,0.1,1.9,0.2c0.6,0.1,1.1,0.1,1.7,0.2
		c0.6,0,1,0.1,1.5,0.1c0.4,0,0.8,0.1,1.1,0.1c0.3,0,0.6,0.1,0.9,0.3"/>
	<path class="st4" d="M205.3,169.6c-0.9,0.3-1.6,0.5-2,0.6c-0.3,0.1-0.6,0.1-0.8,0.2c-0.3,0-0.5,0.1-0.8,0.2"/>
	<path class="st4" d="M201.9,184.6c-0.1-0.1-0.1-0.1-0.1-0.2c0,0,0.1-0.1,0.2-0.1c0.2,0,0.7,0,1.7-0.1c0.9,0,2-0.1,3-0.1
		s1.8-0.1,2.2-0.1c0.4,0,1,0,1.9-0.1c0.9,0,1.8-0.1,2.8-0.1s1.8-0.1,2.4-0.1c0.6,0,1.3-0.1,2.1-0.1c0.8,0,1.4-0.1,1.8-0.1
		c0.4,0,1,0,1.6,0c0.7,0,1.1,0,1.3,0c0.3,0,0.5,0,0.8,0c0.3,0,0.4,0,0.5,0.1s-0.1,0.2-0.3,0.3c-0.2,0.2-0.3,0.3-0.4,0.4
		c-0.1,0.1-0.2,0.3-0.3,0.4c-0.1,0.1-0.2,0.3-0.2,0.4c0,0.1-0.1,0.2-0.1,0.3c0,0.1,0,0.3,0,0.4c0,0.1,0,0.3,0.1,0.4
		c0.1,0.1,0.2,0.2,0.3,0.3c0.2,0.1,0.4,0.3,0.5,0.4c0.2,0.1,0.4,0.2,0.6,0.3c0.2,0.1,0.4,0.2,0.6,0.2l0.3,0.1c0,0,0,0-0.1,0l-1.3,0
		c-0.8,0-1.5,0-2.1,0c-0.6,0-1.1,0-1.5,0c-0.4,0-1-0.1-1.7-0.1s-1.3-0.1-1.7-0.1c-0.4,0-0.9,0-1.6-0.1s-2.2,0-4.5,0
		c-2.3,0-3.8,0-4.4,0.1c-0.6,0-1.1,0.1-1.3,0.1s-0.5,0-0.8,0c-0.2,0-0.4,0-0.7,0.1c-0.3,0.1-0.5,0.2-0.8,0.3
		c-0.3,0.1-0.6,0.3-0.8,0.4c-0.2,0.1-0.3,0.2-0.3,0.4c0,0.1,0,0.2,0.2,0.3c0.2,0.1,0.4,0.2,0.7,0.3c0.3,0.1,0.6,0.2,0.9,0.3
		c0.3,0.1,0.6,0.1,0.8,0.2c0.2,0,0.4,0.1,0.6,0.1c0.2,0,0.7,0,1.4,0c0.7,0,1.3,0,1.7,0c0.4,0,1.1,0,2-0.1c0.9-0.1,1.6-0.1,2.1-0.1
		c0.5,0,0.9,0,1.3,0c0.4,0,1.1,0,2.2,0c1.1,0,1.8,0,2.4,0c0.5,0,1-0.1,1.5-0.1c0.5,0,0.8-0.1,1.1-0.1c0.3,0,0.8,0,1.6,0
		c0.5,0,1,0,1.5-0.1c0.5-0.1,1,0,1.6,0.1"/>
	<path class="st4" d="M267,189.5c0.1-0.2,0.2-0.4,0.4-0.5c0.2-0.1,0.3-0.1,0.5-0.1c0.2,0,0.4,0,0.9,0c0.5,0,1.1,0.1,1.6,0.1
		c0.7,0.1,1.4,0.2,2.1,0.2c0.7,0.1,1.7,0.2,3,0.3c1.3,0.1,2.3,0.2,2.9,0.2c0.6,0,1.1,0.1,1.4,0.1c0.3,0,0.8,0.1,1.4,0.1
		c0.6,0,1.3,0,2.1,0c0.8,0,1.6,0,2.6-0.1c1,0,1.7-0.1,2.3-0.1c0.5,0,1.6,0,3.2,0c1.6,0,2.6,0,3.2,0c0.6,0,1.2,0,1.7,0
		c0.5,0,1,0,1.3,0c0.3,0,0.8,0,1.4,0.1c0.6,0,1.1,0.1,1.4,0.1c0.4,0,0.6,0,0.8,0.1c0.1,0,0.2,0,0.4,0.1c0.1,0.1,0.1,0.2,0,0.3"/>
	<path class="st4" d="M297.2,190.1c-0.1-0.4-0.1-0.6-0.2-0.7c0,0,0,0,0,0.1v1.1c0,0.7,0,1.1,0,1.4c0,0.3,0,0.7-0.1,1.4
		c-0.1,0.6-0.1,1.1-0.1,1.5c0,0.4-0.1,0.9-0.1,1.6c-0.1,0.7-0.1,1.2-0.1,1.6c0,0.4,0,0.8,0,1.4c0,0.4,0,0.8,0.1,1.2
		c0,0.3,0.1,0.6,0.2,1.1c0.1,0.5,0.2,0.9,0.2,1.1c0.1,0.3,0.2,0.7,0.3,1.3c0.2,0.6,0.4,1.3,0.6,2c0.2,0.7,0.4,1.3,0.5,1.6
		c0.1,0.3,0.2,0.6,0.2,0.7c0.1,0.2,0.1,0.3,0.1,0.5c0,0.3,0.1,0.5,0.1,0.8c0,0.4,0,0.8,0,1.2c0,0.5,0,1,0,1.6s0,1.3,0,1.9
		s0,1.8,0,3.6s0,3.1-0.1,3.8c0,0.7-0.1,1.2-0.1,1.6c0,0.4,0,0.9,0,1.6c0,0.7,0,1.2,0,1.6c0,0.4,0,0.9,0,1.5c0,0.6,0,1.2,0,1.8
		s0,1.3,0,2.1s0,1.3,0,1.4c0,0.2,0.1,0.5,0.1,0.8c0.1,0.4,0.2,1,0.3,2c0.1,1,0.3,1.7,0.4,2.1c0.1,0.5,0.2,0.9,0.3,1.4
		s0.2,1.2,0.4,2.3s0.3,1.8,0.3,2.3c0.1,0.5,0.1,0.9,0.2,1.3c0,0.4,0.1,0.8,0.1,1.1c0,0.4,0.1,0.9,0.2,1.6s0.2,1.3,0.3,2
		c0.1,0.6,0.1,1.1,0.2,1.5c0,0.3,0.1,0.8,0.1,1.4s0.1,1.5,0.1,2.7c0.1,1.2,0.1,2,0.1,2.4c0,0.5,0,0.9,0,1.4c0,0.5,0,0.9,0.1,1.4
		c0,0.4,0,1.1,0.1,2.1c0,0.9,0,1.6,0,2.1c0,0.5,0,1.1,0.1,2c0,0.9,0.1,1.7,0.1,2.4s0.1,1.5,0.1,2.3c0,0.8,0.1,1.7,0.2,2.6
		c0.1,0.9,0.2,1.5,0.2,2c0,0.4,0.1,0.8,0.1,1.3l0,0.7l0,0l0,0c0,0,0-0.2-0.1-0.6"/>
	<path class="st4" d="M300.7,303.5c-0.2-0.4-0.3-0.7-0.2-1.1c0-0.2,0-0.4,0-0.7c0-0.1-0.1-0.2-0.1-0.3c-0.1-0.1-0.1-0.1-0.2-0.1
		c0,0-0.1,0.1-0.2,0.3c-0.1,0.3-0.2,0.6-0.2,0.9c-0.1,0.5-0.2,1.1-0.2,1.6c-0.1,0.7-0.1,1.6-0.1,2.9c0,1.3,0,2.4-0.1,3.3
		c0,0.9,0,1.7-0.1,2.5c0,0.8-0.1,1.5-0.1,2.3c0,0.7-0.1,1.4-0.1,2.1c0,0.6-0.1,1.1-0.1,1.5c0,0.3,0,0.7,0,1c0,0.3,0,0.6-0.1,0.9
		c0,0.3-0.1,0.7-0.2,1.2c-0.1,0.5-0.2,1.1-0.2,1.6s-0.2,1.1-0.3,1.6c-0.1,0.5-0.2,0.9-0.3,1.3s-0.2,0.7-0.2,0.9
		c0,0.2-0.1,0.5-0.1,0.9c0,0.4-0.1,0.8-0.1,1.1s0,0.8,0,1.3c0,0.5,0,1.9,0,4.1s0,3.6,0,4.1c0,0.5,0,0.9,0.1,1.1s0.1,0.6,0.1,1.1
		c0.1,0.5,0.1,0.9,0.2,1.4s0.2,1.1,0.4,1.7s0.3,1.1,0.3,1.3c0.1,0.2,0.1,0.4,0.2,0.7c0.1,0.2,0.1,0.5,0.1,0.8c0,0.3,0.1,0.6,0.2,1.2
		c0.1,0.5,0.1,1,0.1,1.5c0,0.5,0,1,0.1,1.5c0,0.5,0,1.6,0,3.2c0,1.6,0,2.6,0,3.1c0,0.5,0,1,0.1,1.5c0,0.5,0.1,0.9,0.1,1.1
		s0,1,0.1,2.1s0.1,2.1,0.1,3c0,0.9,0,1.7,0,2.4s0,1.5,0,2.5s0,1.9,0,2.9c0,0.9,0,1.7,0,2.4c0,0.7,0,1.3,0,1.9c0,0.6,0,1.3,0,1.9
		c0,0.7,0,1.5,0,2.5s0,1.6,0,1.9c0,0.3,0,1.6,0,4s0,3.9,0.1,4.7s0.1,1.5,0.1,2.1c0,0.6,0,1.2,0.1,1.7s0,1.1,0,1.6c0,0.3,0,0.5,0,0.8
		l0,0.1c0,0,0,0,0-0.1c0-0.1,0-0.4,0.1-0.9"/>
	<path class="st4" d="M90.2,397.7c-0.3,0-0.6,0-0.9,0c-0.1,0-0.2,0-0.2,0l0.1,0.1c0.2,0.1,0.5,0.1,0.7,0.2c0.4,0.1,0.8,0.2,1.3,0.2
		c0.4,0.1,0.8,0.1,1,0.1c0.3,0,0.8,0,1.6,0.1c0.8,0,1.7,0,2.6,0c0.9,0,1.6,0,2.1-0.1c0.5,0,1.1-0.1,2-0.3c0.9-0.1,1.6-0.3,2-0.4
		c0.5-0.1,1-0.2,1.6-0.4c0.6-0.2,1.1-0.3,1.4-0.3c0.4-0.1,0.9-0.1,1.3-0.2c0.6-0.1,1.2-0.1,1.8-0.1c0.6,0,1.2,0,1.7,0
		c0.5,0,0.9,0,1.1,0c0.4,0,0.8-0.1,1.2-0.2c0.6-0.1,1-0.2,1.3-0.3s0.7-0.1,1.1-0.2c0.4,0,0.9-0.1,1.5-0.1c0.6,0,1.1,0,1.6,0
		c0.5,0,1.1,0,1.6,0.1c0.6,0.1,1.5,0.1,2.7,0.2c1.2,0.1,2.1,0.1,2.7,0.1c0.6,0,1.4,0,2.5,0c1.1,0,2,0,2.6,0c0.7,0,1.6,0,2.6,0
		c1.1,0,2,0,2.9-0.1c0.9-0.1,1.7-0.1,2.4-0.2c0.7-0.1,1.2-0.2,1.6-0.2c0.4,0,1-0.1,1.8-0.1s1.7-0.1,2.7-0.1c1,0,1.9,0,2.6,0.1
		c0.7,0.1,1.5,0.1,2.3,0.2c0.8,0.1,1.4,0.1,1.7,0.1c0.3,0,0.7,0,1,0.1c0.3,0,0.9,0.1,1.7,0.1c0.8,0.1,1.7,0.1,2.5,0.2
		c0.8,0.1,1.5,0.2,2.1,0.3c0.6,0.1,1.3,0.2,2.1,0.3c0.8,0.1,1.4,0.2,1.8,0.2c0.4,0,0.8,0.1,1.2,0.1c0.4,0,0.9,0.1,1.4,0.2
		s1.2,0.1,1.8,0.1s1.5,0,2.5,0c1,0,2.1,0,3.3-0.1c1.2-0.1,2.1-0.1,2.8-0.2c0.7,0,1.4-0.1,1.9-0.1c0.6,0,1.1,0,1.7,0
		c0.5,0,1.3,0,2.2,0c1,0,1.6,0,1.9,0c0.3,0,0.6,0.1,0.9,0.1s0.7,0.1,1.2,0.1c0.5,0,2.4,0,5.7,0c3.3,0,5.3,0,6,0c0.8,0,1.8,0,3.1,0
		s2.4,0,3.3,0c0.9,0,2.1,0,3.6,0s2.8,0,3.9,0.1c1.2,0,2.1,0.1,3,0.1c0.8,0,1.8,0,2.8,0s1.9,0,2.5,0s1.3,0,2,0s1.2,0,1.5,0
		c0.3,0,1,0.1,2,0.3c1.1,0.2,2.3,0.3,3.8,0.5s2.5,0.3,3.1,0.3c0.6,0,1.3,0.1,2,0.1c0.7,0,1.4,0,2.2,0s1.2,0,1.6,0s0.6,0,1-0.1
		c0.3,0,0.9-0.1,1.7-0.1c0.8-0.1,1.4-0.1,1.8-0.2c0.5,0,1.2-0.2,2.3-0.3c1.1-0.2,2-0.3,2.7-0.4c0.8-0.1,1.3-0.2,1.7-0.2
		c0.4,0,0.9-0.1,1.5-0.2c0.6-0.1,1.1-0.1,1.6-0.2c0.5,0,1.2-0.1,2.1-0.1c1,0,2,0.1,3,0.2c1.1,0.1,1.9,0.2,2.5,0.3s1.2,0.1,1.9,0.2
		c0.7,0.1,1.2,0.2,1.5,0.2c0.3,0,0.7,0.1,1.1,0.2c0.4,0.1,0.8,0.2,1.3,0.2c0.4,0,0.9,0.1,1.4,0.1s2.1,0,4.8,0c2.7,0,4.3,0,4.9,0
		c0.6,0,1.1,0,1.6-0.1c0.5,0,1-0.1,1.6-0.1c0.6-0.1,1.3-0.1,2-0.1c0.7,0,1.9-0.1,3.5-0.1s2.9,0,3.9,0c1,0,2.1,0,3.2-0.1
		c1.1,0,2.2-0.1,3.1-0.1c0.6,0,1.2,0,1.8,0c0.2,0,0.4,0.1,0.6,0.3"/>
	<path class="st4" d="M152,402c0.3,0,0.6,0,0.8,0.1c0.3,0.1,0.6,0.2,0.9,0.3c0.3,0.1,0.7,0.3,1.2,0.5c0.4,0.2,0.8,0.4,1.2,0.5
		c0.3,0.1,0.6,0.2,0.8,0.2c0.3,0,0.6,0,0.9,0c0.3,0,0.6,0,0.8-0.1c0.2-0.1,0.4-0.1,0.7-0.2c0.3-0.1,0.5-0.1,0.8-0.1
		c0.3,0,0.6-0.1,0.9-0.1s0.8,0,1.4,0c0.6,0,1.2,0.1,1.7,0.2c0.5,0.1,1,0.3,1.5,0.3c0.4,0.1,4,0.1,10.7,0.1c6.7,0,10.3,0,10.7,0
		c0.5,0,1,0,1.4,0c0.5,0,1.1,0,2,0c0.8,0,1.8,0,2.7,0c1,0,1.7,0,2.2,0c0.5,0,1-0.1,1.4-0.1c0.7-0.1,2.3-0.3,4.8-0.6"/>
	<path class="st4" d="M91.3,314.1c-0.3,0.2-0.4,0.4-0.5,0.7c-0.1,0.5-0.2,1-0.3,1.5c-0.1,0.7-0.1,1.3-0.2,1.9c0,0.6-0.1,1.4-0.2,2.4
		c-0.1,1-0.1,1.9-0.2,2.8c0,0.8-0.1,1.6-0.1,2.3c0,0.7,0,1.4,0,2c0,0.6,0,1.2-0.1,1.9c0,0.7-0.1,1.2-0.1,1.5c0,0.3-0.1,0.8-0.1,1.4
		c0,0.6,0,1.6,0,3.2s0,2.9,0,4.2s0,3,0,5c0,2.1,0,3.3,0,3.7c0,0.4,0.1,1.2,0.1,2.4s0.2,2.3,0.2,3.1c0,0.8,0.1,1.8,0.1,3.1
		c0,1.3,0.1,2.4,0.1,3.5s0,1.8,0,2.2c0,0.4,0,0.9,0.1,1.7s0.1,1.5,0.1,2.1c0,0.6,0,1.3,0.1,1.9c0,0.6,0,1.4,0,2.4s0,1.7,0,2.3
		c0,0.6-0.1,1.3-0.1,2.1c-0.1,0.8-0.1,1.5-0.1,2.1c0,0.6,0,1.4,0,2.4c0,1,0,2.1,0,3.2c0,1.1,0,1.9,0,2.5c0,0.5,0,1.2,0,1.9
		s0,1.5,0,2.2c0,0.7,0,2,0,3.7s0,2.9-0.1,3.6c-0.1,0.6-0.1,1.1-0.1,1.2c0,0.2,0,0.3,0,0.2c0,0,0-0.2-0.1-0.4"/>
	<path class="st4" d="M84.7,403.3c-0.2,0.1-0.5,0.3-0.6,0.6c-0.1,0.1-0.1,0.3-0.2,0.4c-0.1,0.2,0,0.3,0.2,0.3"/>
	<path class="st5" d="M201,193.8c-0.1-0.2-0.1-0.2-0.1,0c0,0.2,0,0.4,0.1,0.6c0.1,0.3,0.2,0.7,0.2,1.1c0.1,0.5,0.1,1,0.2,1.5
		c0,0.6,0.1,1.1,0.1,1.5s0,1,0,2c0,0.9,0,1.7,0,2.1c0,0.5-0.1,1.2-0.2,2.1c-0.1,1-0.1,1.9-0.2,2.8c-0.1,0.9-0.1,1.6-0.1,2
		c0,0.4,0,1.2,0,2.3c0,1.1,0,2.2,0,3.2c0,1,0,1.7,0,2.2c0,0.5,0,1.2,0,2.2c0,1,0,2,0.1,2.9c0.1,1,0.1,1.8,0.2,2.4
		c0.1,0.7,0.1,1.4,0.1,2.2c0,0.8,0,1.3,0,1.6c0,0.2,0,0.6,0.1,1c0,0.4,0.1,0.9,0.2,1.3c0.1,0.3,0.1,0.6,0.2,0.9
		c0.1,0.3,0.2,0.4,0.4,0.4"/>
	<path class="st5" d="M202.1,270.6c0-0.2-0.1-0.4-0.1-0.5l-0.1-0.1c0,0,0,0.5,0,1.6c0,1.1,0,3.7,0,7.8c0,4.1,0,6.3,0,6.5
		c0,0.1,0,0.3,0.1,0.4c0.1,0.1,0.1-0.3,0.3-1.2"/>
	<path class="st5" d="M195,304.3c-0.2-0.3-0.1-0.7,0.2-0.9c0.2-0.2,0.5-0.4,0.8-0.7c0.3-0.2,0.5-0.4,0.8-0.7
		c0.1-0.1,0.3-0.3,0.4-0.5c0.1-0.1,0.1-0.2,0.2-0.4c0-0.1,0-0.1-0.1-0.1c-0.1,0.1-0.2,0.2-0.3,0.4c-0.2,0.3-0.3,0.6-0.4,0.9
		c-0.1,0.4-0.2,0.7-0.3,0.9c-0.1,0.4-0.2,0.8-0.2,1.2c-0.1,0.5-0.1,1-0.1,1.3c0,0.3,0,1,0,1.8c0,0.5,0,1.1,0.1,1.6
		c0,0.2,0.1,0.3,0.1,0.3c0,0,0-0.1,0.1-0.3c0.1-0.3,0.1-0.6,0.2-1c0.1-0.5,0.1-1,0.2-1.4c0.1-0.4,0.2-0.8,0.3-1.2
		c0.1-0.3,0.2-0.6,0.3-0.9c0.1-0.2,0.2-0.4,0.4-0.6c0.1-0.1,0.3-0.2,0.4-0.3c0.2,0,0.4-0.1,0.6-0.1c0.5,0,1.1,0.1,1.6,0.2
		c0.8,0.1,1.6,0.3,2.3,0.4c0.7,0.1,1.2,0.2,1.6,0.2c0.3,0,0.7,0.1,1.1,0.1c0.4,0,1.1,0.1,2,0.1c0.9,0,2.1,0,3.4,0c1.3,0,2.3,0,2.8,0
		c0.5,0,1.5-0.1,2.8-0.2c1.4-0.1,2.2-0.1,2.6-0.2c0.3,0,1.8,0,4.4,0s4.2,0,4.8,0.1c0.6,0,1.2,0.1,1.7,0.2c0.6,0.1,1,0.2,1.2,0.2
		c0.3,0,0.4,0.1,0.4,0.3c0,0.1,0,0.3,0,0.4c-0.1,0.2-0.3,0.3-0.4,0.4c-0.2,0.1-0.4,0.2-0.6,0.3c-0.3,0.1-0.5,0.2-0.8,0.3
		c-0.3,0.1-0.8,0.2-1.2,0.3s-1,0.2-1.6,0.3c-0.6,0.1-1.2,0.2-1.9,0.2c-0.7,0.1-1.4,0.1-2.2,0.2c-0.7,0-1.5,0.1-2.3,0.1
		c-0.8,0-1.5,0.1-2.2,0.1c-0.7,0-1.5,0.1-2.6,0.3s-2.1,0.2-3.1,0.3c-1,0.1-1.8,0.2-2.2,0.2c-0.4,0-0.8,0-1.1,0c-0.3,0-0.7,0-1.1,0
		c-0.4,0-0.8-0.1-1.3-0.1c-0.4-0.1-0.8-0.1-1.2-0.2c-0.3-0.1-0.8-0.2-1.5-0.4c-0.7-0.2-1.2-0.4-1.5-0.4c-0.3-0.1-0.6-0.1-0.9-0.1
		c-0.2,0-0.3,0-0.5,0c-0.1,0-0.1,0.1-0.2,0.3c0,0.1-0.1,0.3-0.1,0.5c0,0.2,0.2,0.4,0.6,0.8"/>
	<path class="st5" d="M272.9,304.2c0-0.2,0-0.5,0.2-0.7c0.2-0.1,0.4-0.2,0.6-0.3c0.6-0.1,1.2-0.2,1.9-0.2c1-0.1,1.7-0.1,2.3-0.2
		c0.5-0.1,1.3-0.1,2.4-0.3c1-0.1,1.9-0.2,2.6-0.3c0.7-0.1,1.3-0.2,1.8-0.3c0.5-0.1,1.1-0.2,1.6-0.3c0.6-0.1,1.1-0.1,1.7-0.2
		c0.6-0.1,1.2-0.1,1.8-0.1c0.5,0,1,0,1.5,0.1c0.5,0.1,1,0.2,1.5,0.2c0.6,0.1,0.9,0.3,0.9,0.7"/>
	<path class="st5" d="M275.1,307.9c0.2,0.2,0.4,0.4,0.7,0.6c0.3,0.1,0.6,0.3,1,0.3c0.4,0.1,0.8,0.2,1.1,0.2c0.5,0.1,1,0.1,1.5,0.1
		s1.4,0,2.5,0c1.1,0,2,0,2.8-0.1c0.8,0,1.6-0.1,2.3-0.2"/>
	<path class="st5" d="M207.3,282.4c-0.1-0.2,0-0.3,0.2-0.4c0.3-0.1,0.5-0.1,0.8-0.2c0.4-0.1,0.9-0.1,1.5-0.1c0.6,0,1.6-0.1,3.1-0.2
		c1.5-0.1,2.5-0.1,3-0.1c0.5,0,2.2,0,5.1,0c2.9,0,4.9,0,6,0.1c1.1,0.1,2.1,0.2,3,0.3c0.9,0.1,2,0.2,3.3,0.2s2.3,0.1,3.2,0.2
		c0.8,0.1,1.5,0.1,2,0.2c0.5,0.1,1.1,0.1,1.8,0.2c0.7,0.1,1.4,0.1,2.1,0.1c0.7,0,1.7,0,3.1,0c1.3,0,2.2,0,2.6,0c0.4,0,1-0.1,1.7-0.1
		c0.7-0.1,1.3-0.1,1.9-0.2c0.6,0,1.1-0.1,1.4-0.1c0.3,0,0.9,0,1.6-0.1c0.7,0,1.3,0,1.6,0c0.3,0,0.7,0,1.3,0c0.5,0,1,0,1.3,0
		c0.3,0,0.6,0,1,0c0.4,0,0.9,0,1.7,0c0.7,0,1.3,0,1.7,0c0.4,0,0.8,0,1.4-0.1c0.6,0,1.8,0,3.9,0c2,0,3.3,0,4,0c0.6,0,1.4,0.1,2.2,0.1
		c0.8,0,1.5,0,2.2,0.1c0.6,0,1.3,0,1.9,0.1s1.2,0,1.5,0c0.4,0,1.2,0,2.4,0c1.2,0,2.3,0,3-0.1c0.8,0,1.5-0.1,2.1-0.1
		c0.6,0,1.3-0.1,2.1-0.2c0.8-0.1,1.4-0.1,1.9-0.1s1.2,0,2-0.1c0.8,0,1.4-0.1,1.8-0.1s0.8-0.1,1.3-0.1c0.5,0,1-0.1,1.3-0.1
		c0.3,0,0.5,0,0.5,0.1c0,0.1,0,0.1-0.1,0.3c-0.1,0.1-0.2,0.2-0.2,0.4c0,0.2,0,0.3,0.2,0.5c0.2,0.2,0.4,0.4,0.5,0.6
		c0.1,0.3,0.2,0.4,0.3,0.5c0.1,0.1,0.2,0.2,0.4,0.2c0.4,0.1,0.9,0.2,1.3,0.2c0.7,0,1.3,0.1,1.9,0.1c0.6,0.1,1.1,0.1,1.5,0.1
		c0.4,0,0.7,0,0.8-0.2"/>
	<path class="st5" d="M208,74.8c-0.2,0-0.5,0.1-0.6,0.2c-0.1,0.1-0.2,0.2-0.3,0.4c-0.1,0.4-0.1,0.8-0.2,1.3c0,0.7-0.1,1.4-0.2,2.1
		c-0.1,0.7-0.1,1.4-0.1,2.2c0,0.8,0,1.6,0,2.6c0,1,0,1.7,0,2.2c0,0.5-0.1,1.4-0.3,2.6c-0.1,1.2-0.2,2-0.3,2.5c0,0.4-0.1,0.9-0.1,1.6
		c0,0.6,0,1.3-0.1,2c0,0.7-0.1,1.5-0.1,2.3c0,0.7-0.1,1.4-0.2,2.1c-0.1,0.5-0.2,1.1-0.2,1.6c0,0.5,0,0.9,0,1.1
		c0.1,0.4,0.2,0.8,0.4,1.2"/>
	<path class="st5" d="M206.9,142.4c-0.1-0.6-0.1-0.9-0.1-0.9c0,0,0,0,0,0c0,0,0,0.4,0,1c0,0.6,0,1.8,0.1,3.4c0,1.7,0.1,3.3,0.1,4.9
		c0,1.6,0,3-0.1,4.1c-0.1,1.1-0.1,1.9-0.2,2.3l-0.1,0.7c0,0,0,0.1,0,0c0-0.1,0.2-0.4,0.5-1"/>
	<path class="st5" d="M213.7,69c0.7,0,1.3,0,2,0.1c0.4,0.1,0.9,0.1,1.5,0.2c0.6,0.1,1,0.1,1.3,0.2c0.3,0,0.8,0.1,1.6,0.1
		c0.8,0,2.1,0,3.9,0c1.8,0,3.3,0,4.5,0.1c1.1,0,2,0.1,2.7,0.1c0.6,0,1.3,0.1,1.9,0.1c0.7,0,1.9,0,3.8,0c1.9,0,3.1,0,3.7,0
		c0.6,0,1.3,0,2.2,0c0.9,0,1.8,0,2.6,0c0.8,0,2,0,3.5-0.1c1.5,0,2.8,0,3.8,0c1,0,2.2,0,3.7,0c1.4,0,2.5,0,3.3,0
		c1.1,0,2.5-0.1,4.3-0.3"/>
	<path class="st5" d="M259,69.9c0.5-0.3,1-0.4,1.6-0.5c0.4-0.1,1.1-0.1,2-0.2c0.9-0.1,1.7-0.2,2.3-0.2c0.6-0.1,1.1-0.1,1.4-0.1
		c0.3,0,0.8-0.1,1.6-0.1c0.7,0,1.4,0,2.1,0c0.7,0,1.5,0,2.5,0.1c1,0.1,2,0.1,2.9,0.2c0.9,0.1,1.6,0.1,2.1,0.1c0.4,0,1.3,0.1,2.6,0.1
		c1.3,0.1,2.1,0.1,2.6,0.2c0.4,0,0.8,0.1,1.2,0.1c0.4,0,0.9,0.1,1.5,0.2c0.6,0.1,1.6,0.2,2.8,0.3c1.3,0.1,2.3,0.2,3,0.3
		c0.7,0.1,1.3,0.1,1.7,0.2s0.8,0.1,1.2,0.1c0.5,0,1.2,0,2.1,0.1c1,0,2.5,0,4.5,0c2.1,0,3.4,0,4.1,0c0.6,0,1.1,0,1.5,0.1
		c0.3,0,0.9,0,1.8,0c0.9,0,1.9,0,2.9,0c1,0,1.9,0,2.6,0c0.7,0,1.5,0,2.2,0c0.7,0,1.4,0,1.9-0.1c0.5,0,1.1-0.1,1.7-0.1
		c0.6,0,1.4,0,2.4-0.1c1,0,2.3-0.1,3.7-0.1c1.4-0.1,2.5-0.1,3.2-0.1c0.7,0,1.3,0,1.9-0.1s1.8,0,3.7,0c2,0,3.6,0,5,0.1
		c1.4,0.1,2.5,0.1,3.5,0.2c1,0,3,0,6,0c3,0,5.1,0,6.2,0c1.1,0,2.3-0.1,3.6-0.1c1.3-0.1,2.5-0.1,3.5-0.1s2.1,0,3,0s2.5,0,4.8,0
		s3.6,0,4,0c0.3,0,0.9,0,1.6,0.1c0.8,0.1,1.4,0.1,2,0.1c0.6,0,1.2,0.1,1.9,0.1s1.4,0.1,2.2,0.1c0.8,0,1.5,0,2.2,0.1
		c0.6,0,1.3,0.1,2,0.1c0.7,0,1.6,0.1,2.8,0.1c1.1,0,2.2,0,3.1,0.1c0.9,0,3.7,0,8.5,0c4.7,0,7.3,0,7.7,0c0.4,0,1,0,1.9,0.1
		c0.9,0,2,0.1,3.2,0.1c1.3,0,2,0.1,2.2,0.1c0.2,0,0.3,0.1,0.2,0.3"/>
	<path class="st6" d="M193.7,79.7l-0.1-0.3c0,0,0,0,0,0c0,0.1,0.1,0.2,0.2,0.4c0.2,0.3,0.4,0.7,0.5,1.1c0.2,0.5,0.4,1,0.6,1.5
		c0.2,0.4,0.3,0.8,0.4,1.2c0.1,0.3,0.1,0.6,0.2,0.9c0,0.3,0,0.6,0,0.9c0,0.3,0,0.6-0.1,0.8c-0.1,0.3-0.2,0.6-0.3,0.9
		c-0.1,0.3-0.3,0.6-0.5,1c-0.1,0.2-0.2,0.5-0.3,0.8c0,0.2-0.1,0.5-0.2,0.7c-0.1,0.2-0.2,0.4-0.3,0.6c-0.1,0.3-0.1,0.6-0.1,1
		c0,0.8,0.1,1.6,0.4,2.3"/>
	<path class="st5" d="M414.8,74.3c0-0.2-0.1-0.3-0.3-0.4c-0.1-0.1-0.2-0.1-0.3-0.1c-0.1,0-0.1,0.2-0.2,0.6c0,0.4,0,1.1,0,2
		c0,1,0,1.6,0,1.9c0,0.3,0,0.7,0.1,1.1c0,0.4,0.1,0.9,0.2,1.6c0.1,0.7,0.2,1.2,0.3,1.6s0.1,0.7,0.2,0.9c0.1,0.3,0.1,0.7,0.2,1
		c0.1,0.4,0.1,0.8,0.1,1.2c0,0.4,0,1,0,1.9c0,0.8,0,1.5,0.1,2.1c0.1,0.5,0.1,1.1,0.2,1.5c0.1,0.5,0.1,0.9,0.2,1.4s0.1,0.8,0.1,1.1
		c0,0.3,0.1,0.7,0.1,1c0,0.4,0,1,0,2c0,0.9,0,1.8,0,2.5c0,0.7,0,1.3-0.1,2c-0.1,0.6-0.1,1.1-0.2,1.5c-0.1,0.4-0.1,1-0.2,1.7
		c-0.1,0.7-0.1,1.5-0.2,2.3c0,0.8-0.1,1.6-0.1,2.3c0,0.7,0,1.3,0,1.9s0,1.2,0,1.8c0,0.6,0,1.3-0.1,2.1c0,0.8-0.1,1.4-0.1,1.8
		c0,0.4-0.1,1-0.2,1.7c-0.1,0.7-0.2,1.4-0.3,2c-0.1,0.6-0.2,1.1-0.2,1.5c-0.1,0.4-0.2,1-0.3,1.8c-0.1,0.8-0.2,1.5-0.3,2.2
		c-0.1,0.7-0.1,1.5-0.2,2.5c0,1-0.1,1.8-0.1,2.4c0,0.6-0.1,1.4-0.1,2.4c0,1,0,1.9-0.1,2.6s-0.1,2.1-0.1,4.1c0,2,0,3.4,0,4.1
		c0,0.7,0,1.3,0,1.7c0,0.4,0,1.1,0.1,2c0.1,0.9,0.1,1.6,0.2,2.3c0.1,0.6,0.1,1.1,0.2,1.4c0,0.3,0.1,0.9,0.2,1.9
		c0.1,1,0.2,1.8,0.2,2.4s0.1,1.2,0.1,1.5c0,0.4,0.1,0.8,0.1,1.1c0,0.3,0,0.7,0.1,1c0,0.3,0.1,0.5,0.2,0.7c0.1,0.2,0.1,0.4,0.1,0.7
		c0,0.2,0.1,0.4,0.2,0.6"/>
	<path class="st5" d="M417.7,162.6c-0.2,0.4-0.2,0.9-0.2,1.4c0,0.7,0,1.5,0,2.6v1.7c0,0,0,0.1,0,0.1c0,0,0-0.1,0.1-0.4"/>
	<path class="st5" d="M408.1,189.8c0-0.2-0.2-0.3-0.5-0.3c-0.2,0-0.4,0.1-0.5,0.3c-0.1,0.3-0.2,0.5-0.3,0.8
		c-0.1,0.4-0.2,0.7-0.2,1.1c-0.1,0.6-0.1,1.1-0.1,1.7c0,0.8,0,1.3,0,1.6c0,0.3,0.1,0.6,0.1,0.9c0.1,0.4,0.2,0.8,0.3,1.2
		c0.1,0.5,0.3,1.1,0.5,1.7c0.2,0.6,0.4,1.1,0.5,1.5c0.1,0.4,0.2,1,0.4,1.9c0.2,0.9,0.3,1.5,0.4,1.9c0.1,0.4,0.3,0.9,0.4,1.3
		c0.2,0.4,0.3,0.9,0.4,1.4c0.1,0.4,0.2,0.8,0.2,1.1c0,0.3,0,0.8,0,1.3s0,1.1,0,1.7c0,0.6,0,1.5,0,2.7c0,1.2,0,2.3-0.1,3.1
		c0,0.8-0.1,1.6-0.2,2.5c-0.1,0.8-0.1,1.5-0.1,2.1s-0.1,1.3-0.1,2s-0.1,1.7-0.2,2.8c-0.1,1.1-0.2,2.1-0.2,2.8s-0.1,1.5-0.2,2.4
		c-0.1,0.9-0.1,1.7-0.2,2.4c0,0.7-0.1,1.4-0.1,2.2c0,0.8-0.1,1.5-0.1,2.1c0,0.5-0.1,1.5-0.1,2.9c-0.1,1.4-0.1,2.4-0.1,3
		c0,0.6,0,1.2-0.1,1.8c0,0.6-0.1,1.1-0.1,1.7c0,0.6-0.1,1.3-0.1,2.2c0,0.9,0,2.2,0,3.8s0,2.7,0,3.3s0,1.2,0.1,1.8
		c0,0.7,0.1,1.2,0.1,1.6c0,0.4,0,1.6,0,3.7c0,2.1,0,3.5,0,4.2c0,0.7,0.1,1.5,0.1,2.4c0.1,0.9,0.1,1.5,0.1,1.8c0,0.3,0,0.8,0,1.4
		c0,0.6,0,1.1-0.1,1.7c-0.1,0.5-0.2,1-0.2,1.5c-0.1,0.5-0.1,0.8-0.1,1.2c0,0.3,0,1,0,2c0,1,0,1.6,0,1.9c0,0.2,0,0.5,0.1,0.7
		c0,0.2,0.1,0.3,0.1,0.2c0,0,0.1-0.1,0.1-0.3"/>
	<path class="st5" d="M325.4,281c0-0.2,0.1-0.4,0.3-0.4c0.2-0.1,0.5-0.1,0.8-0.1c0.3,0,0.5,0,0.8,0c0.2,0,0.5,0.1,1,0.2
		c0.5,0.1,0.9,0.2,1.4,0.3c0.7,0.1,1.4,0.2,2.1,0.1c1,0,2.1,0,3.5-0.1c1.4-0.1,2.5-0.1,3.3-0.2c0.8,0,1.5-0.1,2.1-0.1
		c0.6,0,1.6,0,3.2,0c1.5,0,2.7,0,3.4,0c0.8,0,1.6,0,2.4,0c0.8,0,1.7,0,2.4,0c0.8,0,1.6-0.1,2.5-0.1c0.9-0.1,2.1-0.2,3.3-0.3
		c1.3-0.1,2.9-0.2,4.7-0.3c1.9-0.1,3.4-0.2,4.4-0.2c1.1,0,2.5,0,4.1,0c1.7,0,2.8,0,3.4,0c0.6,0,1.4,0.1,2.5,0.1
		c1,0.1,2.1,0.2,3.1,0.2s2.2,0.2,3.4,0.2c1.3,0.1,2.6,0.1,4,0.2c1.4,0.1,2.7,0.1,4,0.2c1.3,0.1,2.6,0.1,4,0.2
		c1.4,0.1,2.3,0.2,2.6,0.2c0.3,0,0.9,0.1,1.6,0.1s1.7,0.1,2.7,0.1c1.1,0,2.2,0.1,3.4,0.1c1.2,0,2.3,0,3.2-0.1c0.9,0,1.8-0.1,2.7-0.1
		c0.9,0,1.4,0.1,1.4,0.4"/>
	<path class="st5" d="M328,307.2c0-0.2,0.1-0.2,0.4-0.3c0.3,0,0.6,0,0.9,0.1c0.3,0,0.6,0.1,1.1,0.1c0.4,0,0.8,0.1,1.2,0.1
		c0.3,0,1.3,0,2.9,0c1.6,0,2.6,0,3.1,0c0.5,0,1.5-0.1,2.9-0.2s2.3-0.2,2.7-0.2c0.4,0,0.9-0.1,1.5-0.2c0.6-0.1,1.2-0.1,1.6-0.2
		c0.5,0,1.1-0.1,1.8-0.1c0.5-0.1,1,0.1,1.4,0.3"/>
	<path class="st5" d="M386.1,305c-0.2-0.2-0.4-0.4-0.4-0.7c0-0.2,0.1-0.4,0.3-0.5c0.2-0.1,0.4-0.3,0.7-0.4c0.3-0.1,0.6-0.2,0.9-0.3
		c0.4-0.1,0.7-0.2,1.1-0.2c0.4-0.1,0.8-0.1,1.3-0.1c0.5,0,1.1,0,1.9,0c0.8,0,1.6,0,2.5,0.1c0.9,0,1.6,0.1,2.3,0.1c0.6,0,1.5,0,2.6,0
		c1.1,0,2,0,2.6,0c0.6,0,1.2,0,1.9,0s1.1,0,1.4,0c0.3,0,1.1,0,2.5,0c1.3,0,2.2,0,2.4-0.1c0.2,0,0.4-0.1,0.6-0.1
		c0.6-0.1,1.3-0.1,1.9-0.1"/>
	<path class="st3" d="M318.7,168.6v-1.3l0,0l0.1,0.1c0.1,0.1,0.7,0.3,2,0.5"/>
	<path class="st3" d="M373.8,165.3c1.4,0,4.3,0,8.8,0c4.5,0,7.1,0,7.7,0c0.7,0,1.5,0,2.6,0c1.1,0,2,0,2.7,0c0.7,0,1.4,0.1,2.1,0.1
		c0.6,0,1.3,0.1,1.9,0.1c0.6,0,1.3,0,2,0c0.7,0,1.4,0,2,0c0.6,0,1.4,0,2.3-0.1s1.7-0.2,2.4-0.2c0.7,0,1.2-0.1,1.4-0.1
		c0.2,0,0.3,0,0.3,0.1c0,0.1-0.1,0.3-0.3,0.5"/>
	<path class="st3" d="M323.6,188.9c-0.2,0-0.3,0-0.3,0.1c0,0.1,0,0.1,0.2,0.2c0.2,0.1,0.5,0.1,0.8,0.1c0.4,0,0.9,0,1.6,0
		c0.7,0,1.3,0,1.8-0.1c0.5,0,1-0.1,1.5-0.2c0.5-0.1,1-0.1,1.4-0.2c0.5-0.1,0.9-0.1,1.3-0.2s1-0.2,1.8-0.3c0.7-0.1,1.3-0.2,1.7-0.2
		c0.4,0,1-0.1,1.7-0.1c0.8,0,1.5-0.1,2.1-0.1s1.2,0,1.7,0c0.5,0,1.2,0,2,0c0.8,0,1.6,0,2.4,0c0.8,0,1.7,0,2.8-0.1
		c1.1-0.1,1.8-0.1,2.3-0.1c0.3,0,0.7,0,1-0.1c0.2,0,0.3-0.1,0.5-0.2l0.2-0.2c0,0,0,0,0,0l-0.1,0.2"/>
	<path class="st3" d="M397.1,187.1c0.3-0.3,0.5-0.6,0.9-0.9c0.2-0.1,0.4-0.3,0.6-0.4c0.2-0.1,0.4-0.2,0.6-0.2
		c0.3-0.1,0.6-0.1,0.9-0.1c0.4,0,0.9-0.1,1.5-0.1c0.6,0,1.5,0,2.8-0.1c1.2,0,2.1,0,2.7,0c0.6,0,1.7,0.1,3.4,0.2
		c1.7,0.1,3.1,0.2,4.3,0.2c1.1,0.1,2,0.1,2.7,0.1c0.6,0,1.2,0,1.7,0l0.8,0c0,0,0,0,0,0l-1.2,0.3"/>
	<path class="st3" d="M324.9,191.9c-0.2-0.4-0.3-0.9-0.3-1.4c0-0.1,0-0.2,0-0.2l0,0.2c0,0.4,0,0.8,0,1.1c0,0.6,0,1.5-0.1,2.5
		c-0.1,1.1-0.1,2.1-0.2,3.1c-0.1,1-0.1,1.9-0.2,2.8s-0.2,2-0.3,3.3c-0.1,1.3-0.2,2.3-0.3,3c-0.1,0.7-0.2,1.4-0.2,2
		c-0.1,0.7-0.2,1.5-0.3,2.6s-0.2,2-0.2,3c-0.1,0.9-0.1,1.7-0.1,2.3c0,0.6,0,1.2-0.1,1.7c0,0.5-0.1,1-0.1,1.4c0,0.4-0.1,0.7-0.1,1.1
		c-0.1,0.3-0.2,0.7-0.3,1c-0.2,0.4-0.3,0.7-0.3,0.8c-0.1,0.2-0.1,0.3-0.1,0.3l0,0l0,0c0,0,0.1-0.2,0.2-0.4"/>
	<path class="st3" d="M325.7,261c0.2-0.4,0.3-0.6,0.4-0.6l0,0l0,0c0,0-0.1,0.1-0.2,0.3c-0.1,0.2-0.2,0.4-0.3,0.7
		c-0.1,0.4-0.2,0.8-0.2,1.2c-0.1,0.5-0.1,1.1-0.2,1.7c-0.1,0.7-0.1,1.3-0.1,2c0,0.7-0.1,1.3-0.1,1.9c0,0.6,0,1.2-0.1,1.7
		c0,0.5-0.1,1.2-0.2,2c-0.1,0.8-0.2,1.3-0.2,1.6c0,0.3,0,1,0,2.2c0,0.7,0,1.5-0.1,2.2c-0.1,0.3-0.1,0.6-0.3,0.9
		c-0.1,0.2-0.2,0.5-0.4,0.7c-0.2,0.2-0.3,0.4-0.5,0.5c-0.3,0.2-0.5,0.5-0.8,0.8c-0.3,0.4-0.6,0.7-0.9,1.1c-0.3,0.5-0.6,0.9-0.9,1.5
		c-0.3,0.5-0.5,0.9-0.7,1.4c-0.3,0.6-0.4,1.2-0.5,1.9"/>
	<path class="st3" d="M414.8,190.2c-0.3-0.2-0.4-0.2-0.3,0.1c0.1,0.3,0.2,0.6,0.2,0.8c0.1,0.4,0.1,0.8,0.2,1.2
		c0,0.4,0.1,0.8,0.2,1.4c0.1,0.5,0.2,1.2,0.4,2c0.2,0.8,0.3,1.5,0.4,2c0.1,0.6,0.1,1.2,0.1,1.8c0,0.7,0,1.2,0,1.4s-0.1,0.8-0.4,1.8
		c-0.2,1-0.4,1.7-0.5,2.2c-0.1,0.5-0.2,1-0.3,1.5c-0.1,0.5-0.2,1-0.2,1.6c0,0.5,0,1.5,0,3.1c0,1.6,0,2.6,0,3.1c0,0.5,0,1-0.1,1.5
		c0,0.5,0,1,0,1.4c0,0.4,0,0.8,0.1,1.2c0.1,0.3,0.1,0.7,0.1,1c0,0.3,0,0.7,0,1.3c0,0.5,0,1.1,0,1.7c0,0.6,0.1,1.5,0.1,2.6
		c0.1,1.1,0.1,2,0.2,2.7c0,0.7,0.1,1.3,0.1,1.8c0,0.5,0,1.6,0,3.3c0,1.7,0,2.8,0,3.3c0,0.5,0,0.9,0.1,1.4c0,0.4,0.1,0.9,0.1,1.5
		c0,0.5,0,1,0.1,1.4c0,0.4,0.1,1.1,0.3,1.9c0.1,0.8,0.3,1.6,0.4,2.3c0.1,0.7,0.2,1.2,0.3,1.5c0.1,0.3,0.1,0.7,0.1,1.2
		c0,0.5,0.1,1.1,0.1,1.8c0,0.7,0,1.5,0,2.3c0,0.9,0,1.7,0,2.5c0,0.8,0,1.5,0.1,2s0.1,1,0.1,1.6c0.1,0.5,0.1,1.1,0.2,1.7
		s0.2,1.1,0.3,1.5c0.1,0.5,0.2,0.9,0.2,1.4s0.1,1,0.1,1.6c0,0.5,0.1,1.1,0.1,1.6s0,1.1,0.1,1.6s0.1,0.9,0.1,1.2c0,0.3,0.1,0.6,0.1,1
		c0.1,0.7,0.1,1.4,0.1,2c0,1,0,1.7,0,2.3c0,0.6-0.1,2.2-0.1,4.7c0,2.5,0,4-0.1,4.4c-0.1,0.4-0.1,0.7-0.1,1.1c0,0.3,0,0.5,0,0.4
		c0-0.1-0.1-0.4-0.2-0.9"/>
	<path class="st3" d="M319.2,302.4c-0.2,0.1-0.3,0.4-0.4,0.8c-0.1,0.4-0.1,0.7-0.1,1.1c0,0.4-0.1,0.9-0.1,1.6s0,2.7,0,6.2
		s0,5.6,0,6.2c0,0.6-0.1,1.3-0.1,2.1c0,0.9-0.1,1.6-0.1,2.2s0,1.2,0,2c0,0.7,0,2.5,0,5.3c0,2.8,0,4.4,0,4.8s0,1.2,0,2.4
		c0,1.2,0,2.1,0.1,2.7c0,0.6,0.1,1.5,0.1,2.7c0,1.2,0,1.9,0,2.2c0,0.4,0.1,0.7,0.2,1.1c0.1,0.4,0.2,1,0.4,1.8
		c0.2,0.8,0.3,1.3,0.4,1.5c0.1,0.3,0.2,0.6,0.3,0.9c0.2,0.4,0.3,0.6,0.4,0.9c0.1,0.2,0.3,0.5,0.4,0.9c0.1,0.4,0.3,0.7,0.5,1.1
		c0.2,0.3,0.3,0.7,0.4,1c0.1,0.4,0.1,0.7,0.1,1.1c0,0.3,0,0.6-0.1,0.9c-0.1,0.3-0.2,0.7-0.3,1c-0.1,0.3-0.2,0.7-0.3,1
		c0,0.2,0,0.3,0.1,0.3c0.2-0.1,0.3-0.2,0.4-0.3c0.2-0.2,0.3-0.3,0.5-0.5c0.2-0.1,0.4-0.2,0.6-0.3c0.2-0.1,0.4-0.2,0.6-0.3
		c0.2-0.1,0.4-0.3,0.5-0.4c0.2-0.2,0.3-0.4,0.4-0.6c0.2-0.3,0.3-0.3,0.4-0.2"/>
	<path class="st3" d="M325.1,394c-0.1-0.2-0.1-0.3-0.1-0.2c0,0,0,0.1-0.1,0.3c0,0.4-0.1,0.9,0,1.3c0,0.7,0.1,1.7,0.1,3.1
		c0.1,1.4,0.1,2.3,0.2,2.8c0.1,0.8,0.2,1.7,0.3,2.8"/>
	<path class="st3" d="M324.7,408.3c0.1-0.3,0.3-0.5,0.5-0.6c0.3-0.1,0.6-0.2,0.9-0.2c0.4,0,1.1-0.1,2-0.1c0.9,0,1.9,0,3,0
		c1.1,0,2.3,0,3.5,0c1.3,0,2.4-0.1,3.4-0.2c1-0.1,1.9-0.2,2.7-0.2c0.8,0,1.5-0.1,2.3-0.1c0.7,0,3,0,6.8,0s5.9,0,6.3,0
		c0.4,0,1.2-0.1,2.3-0.2c1.1-0.1,2.1-0.2,3-0.3c0.9-0.1,1.6-0.1,2.1-0.2c0.4,0,0.9-0.1,1.2-0.1c0.4,0,1.1-0.1,2-0.1
		c1-0.1,2-0.1,3-0.2c1-0.1,1.7-0.1,2.2-0.1s1.3-0.1,2.3-0.1c1.1,0,1.9-0.1,2.4-0.1c0.5,0,1-0.1,1.4-0.1c0.4,0,1.4-0.1,3-0.2
		c1.5-0.1,2.7-0.2,3.6-0.2c0.9-0.1,1.5-0.1,2-0.1c0.5,0,1.7,0,3.9,0c2.1,0,3.4,0,3.7,0c0.4,0,0.9,0,1.5-0.1c0.6-0.1,1.3-0.1,2-0.2
		c0.7-0.1,1.7-0.1,3-0.2c1.3-0.1,2.4-0.1,3.4-0.2c0.9-0.1,1.7-0.1,2.3-0.1c0.6,0,1.3,0,1.9,0c0.7,0,1.3,0,1.8,0.1
		c0.5,0,1.1,0.1,1.8,0.1c0.6,0,1.6,0,2.8,0.1c1.2,0,2.1,0,2.5,0c0.5,0,1.1,0.1,1.6,0.3"/>
	<path class="st3" d="M418.5,303.7c-0.2-0.1-0.3,0-0.4,0.3c-0.1,0.4-0.1,0.7-0.1,1.1c0,0.5,0,1.1,0.1,1.8c0.1,0.7,0.1,1.3,0.2,1.9
		c0,0.6,0.1,1.2,0.1,1.8s0,1.9,0,3.7c0,1.8,0,2.8,0,3c0,0.4,0.1,0.9,0.2,1.3c0.1,0.7,0.2,1.2,0.2,1.5c0,0.4,0.1,0.8,0.1,1.1
		c0,0.4,0,0.8,0,1s-0.1,0.8-0.2,1.5s-0.2,1.3-0.2,1.7c0,0.4-0.1,1.2-0.1,2.4c0,0.7,0,1.4,0.1,2.1c0.1,0.2,0.2,0.2,0.2-0.1"/>
	<path class="st3" d="M413.3,312.3c-0.1,0.3-0.1,0.5-0.1,0.5c0,0,0,0,0,0c0,0,0-0.1,0-0.2c0-0.2-0.1-0.3-0.1-0.4
		c-0.1-0.1-0.1-0.2-0.3-0.3c-0.1,0-0.1,0.1-0.1,0.5c0,0.5,0.1,0.9,0.1,1.4c0.1,0.5,0.2,1,0.3,1.4c0.1,0.4,0.2,1,0.2,1.7
		c0.1,0.7,0.2,1.5,0.2,2.3c0.1,0.8,0.1,2.1,0.2,3.9c0,1.8,0.1,3.4,0.1,5c0.1,1.5,0.1,2.6,0.2,3.3c0,0.7,0.1,1.5,0.1,2.5
		c0,1,0,1.8,0,2.5c0,0.7,0,1.3-0.1,1.9s-0.1,1.5-0.2,2.6c-0.1,1.2-0.2,2.1-0.2,2.9c-0.1,0.8-0.1,1.4-0.2,2c-0.1,0.5-0.1,1.3-0.2,2.3
		c-0.1,1-0.2,1.8-0.2,2.5c-0.1,0.6-0.1,1.1-0.2,1.5c0,0.4-0.1,0.9-0.1,1.6s-0.1,1.4-0.1,2.2c0,0.8,0,1.6,0,2.4s0,1.7,0,2.5
		c0,0.8,0.1,2,0.2,3.5s0.1,2.6,0.2,3.2c0,0.6,0.1,1.2,0.1,1.9c0,0.6,0.1,1.2,0.1,1.8c0,0.5,0,1.4,0,2.7c0,1.2,0,2.5,0,3.8
		c0,1.3,0,2.2,0,2.8c0,0.6,0,1.3,0,1.9c0,0.6,0,1.1,0,1.4s0,0.7,0,1.3c0,0.5,0.1,1.2,0.1,2s0.1,1.7,0.2,2.5c0,0.9,0.1,1.6,0.1,2.3
		c0,0.7,0,1.3,0,2s0,1.5,0.1,2.4c0.1,0.9,0.1,1.7,0.1,2.2c0,0.6,0.1,0.7,0.2,0.3"/>
</g>
</svg>
