<?xml version="1.0" encoding="utf-8"?>
<!-- Generator: Adobe Illustrator 25.3.1, SVG Export Plug-In . SVG Version: 6.00 Build 0)  -->
<svg version="1.1" id="图层_1" xmlns="http://www.w3.org/2000/svg" xmlns:xlink="http://www.w3.org/1999/xlink" x="0px" y="0px"
	 width="894.6px" height="410.6px" viewBox="0 0 894.6 410.6" style="enable-background:new 0 0 894.6 410.6;" xml:space="preserve"
	>
<style type="text/css">
	.st0{clip-path:url(#SVGID_2_);}
	.st1{fill:none;stroke:#000000;stroke-width:6.8267;stroke-linecap:round;stroke-linejoin:round;}
	.st2{fill:none;stroke:#7EC636;stroke-width:2.8346;stroke-linecap:round;stroke-linejoin:round;}
	.st3{fill:none;stroke:#007AFF;stroke-width:2.8346;stroke-linecap:round;stroke-linejoin:round;}
	.st4{fill:none;stroke:#007AFF;stroke-width:1.1339;stroke-linecap:round;stroke-linejoin:round;}
	.st5{fill:none;stroke:#7EC636;stroke-width:1.1339;stroke-linecap:round;stroke-linejoin:round;}
	.st6{opacity:0.1;fill:#7EC636;enable-background:new    ;}
	.st7{fill:none;stroke:#F65353;stroke-width:2.8346;stroke-linecap:round;stroke-linejoin:round;}
</style>
<g>
	<g>
		<defs>
			<rect id="SVGID_1_" x="-10.5" y="-111.6" width="1190.9" height="841.7"/>
		</defs>
		<clipPath id="SVGID_2_">
			<use xlink:href="#SVGID_1_"  style="overflow:visible;"/>
		</clipPath>
		<g class="st0">
			<polyline class="st1" points="126.9,114 757.2,111.5 758,272.8 127.7,275.4 126.9,114 			"/>
			<line class="st1" x1="299.8" y1="115.6" x2="300.1" y2="173.5"/>
			<path class="st1" d="M498.7,169.6"/>
			<path class="st1" d="M498.4,115"/>
			<line class="st1" x1="301.5" y1="214.8" x2="301.8" y2="271"/>
			<path class="st1" d="M303.4,175.7c-0.1-0.4,0.1-0.7,0.6-0.8s0.9-0.2,1.4-0.2c0.4,0,1.2-0.1,2.3-0.1c1.1,0,2.4,0,4,0.1
				s2.7,0.2,3.5,0.2c0.7,0.1,1.5,0.2,2.3,0.3s1.4,0.2,1.7,0.3c0.5,0.1,1,0.3,1.5,0.6c0.4,0.2,0.8,0.4,1.2,0.7
				c0.3,0.3,0.5,0.5,0.8,0.8c0.3,0.4,0.6,0.8,0.8,1.3c0.2,0.5,0.6,1,0.9,1.6c0.3,0.5,0.6,0.9,0.9,1.3c0.2,0.3,0.5,0.6,0.8,0.9
				c0.5,0.5,1,0.9,1.5,1.3c0.7,0.6,1.2,1,1.5,1.3s0.6,0.5,0.9,0.8c0.2,0.2,0.4,0.5,0.6,0.8s0.3,0.6,0.5,0.9c0.1,0.3,0.3,0.6,0.4,0.9
				c0.1,0.3,0.2,0.6,0.2,0.9c0.1,0.5,0.1,1.1,0.1,1.6c0,0.8,0.1,1.5,0.1,2.3c0,0.7,0,1.5-0.2,2.2c-0.1,0.7-0.2,1.2-0.3,1.5
				c-0.1,0.5-0.3,1-0.5,1.4c-0.2,0.6-0.4,1.1-0.6,1.5s-0.4,0.9-0.8,1.6c-0.4,0.7-0.7,1.2-1,1.6c-0.2,0.3-0.5,0.7-0.7,1
				c-0.4,0.4-0.8,0.8-1.2,1.1c-0.5,0.5-1.4,1.1-2.6,2c-1.2,0.8-2.1,1.5-2.6,1.9c-0.6,0.4-1,0.7-1.3,0.9s-0.6,0.4-1,0.5
				c-0.4,0.2-0.8,0.3-1.2,0.5c-0.4,0.2-1.3,0.4-2.5,0.8c-1.2,0.4-2.2,0.7-2.7,0.9c-0.4,0.2-0.8,0.3-1.2,0.4
				c-0.5,0.1-0.9,0.1-1.4,0.1c-0.6,0-1.2,0-1.8-0.1c-0.5-0.1-1.4-0.3-2.6-0.6s-1.9-0.5-2.2-0.6c-0.3-0.1-0.4-0.1-0.5-0.1
				s-0.1,0-0.1,0l0.2,0.1c0.5,0.2,1.1,0.4,1.6,0.5"/>
			<path class="st2" d="M306.8,291.4c0-0.8,0-1.1,0.1-0.9l0.5,0.9c0.3,0.7,0.6,1.4,0.8,2.1c0.2,0.8,0.5,1.5,0.9,2.2
				c0.4,0.6,0.8,1.1,1.3,1.5c0.7,0.5,1.5,0.9,2.3,1.2c1.4,0.4,2.9,0.7,4.3,0.9c1.9,0.2,3.8,0.4,5.7,0.5c1.9,0.1,4.6,0.1,8.3,0.1
				c3.6,0,5.9,0,6.8-0.1s2.3-0.2,4.3-0.5s4.2-0.5,6.7-0.7s4.4-0.4,5.7-0.6c1.3-0.2,3.1-0.4,5.3-0.7c2.2-0.3,4-0.5,5.3-0.7
				s2.5-0.4,3.6-0.7c1.2-0.3,2.3-0.5,3.5-0.6c1.3-0.1,2.8-0.2,4.5-0.3s3,0,3.8,0s1.9,0.1,3.4,0.3s2.6,0.3,3.3,0.4
				c0.7,0.1,2,0.2,3.7,0.3c1.7,0.1,2.9,0.2,3.7,0.3c0.7,0.1,1.4,0.2,2.1,0.3c0.8,0.2,1.6,0.5,2.3,1c0.9,0.5,1.8,1,2.7,1.4
				c0.9,0.4,1.9,0.9,2.9,1.3c1.1,0.4,2.1,1,3.2,1.6s2,1.2,2.8,1.8c0.6,0.4,1.1,0.9,1.6,1.5c0.3,0.5,0.5,1.1,0.5,1.8
				c0.1,0.4,0,0.9-0.1,1.3c-0.1,0.2-0.2,0.3-0.2,0.3l0,0l0.1-0.1c0.1-0.1,0.2-0.3,0.4-0.6c0.4-0.5,0.8-1,1.2-1.4
				c0.6-0.6,1.2-1.2,1.8-1.7c0.7-0.5,1.4-1,2.1-1.4c0.9-0.5,1.9-0.9,2.9-1.2c1.2-0.3,2.4-0.6,3.6-0.7c1.3-0.1,2.3-0.2,3-0.3
				c0.7,0,2-0.1,4.1-0.1c2,0,3.5,0,4.4,0s1.9,0.1,2.9,0.2s2.6,0.3,4.7,0.4s5.1,0.2,9.1,0.2s6.9,0,8.6,0s3.5,0,5.3,0s3.5,0,5.3-0.1
				s3.4-0.1,4.8-0.2c1.4,0,2.8-0.1,4.2-0.1c1.4,0,2.9,0,4.6,0.2c1.7,0.1,3,0.2,3.8,0.2c0.9,0,2.2,0.1,4.2,0.1c1.9,0,4.3,0,7,0.1
				s4.4,0.1,5.1,0.1c0.6,0,1.5,0,2.6,0.1s3.2,0.2,6.3,0.5c3.1,0.3,5.1,0.5,5.8,0.6c1.1,0.2,2.1,0.4,3.1,0.8c1.3,0.4,2.4,0.7,3.1,0.9
				c0.7,0.2,1.5,0.3,2.2,0.4c0.8,0.1,1.6,0.2,2.5,0.3c0.9,0.1,2.9,0.1,6,0.1s5.2,0,6.2-0.1s2.1-0.2,3.1-0.4c1-0.2,2.3-0.6,3.7-1
				c1.1-0.3,2.2-0.8,3.3-1.4c0.8-0.5,1.5-1,2.2-1.7c0.8-0.7,1.6-1.6,2.3-2.4c0.6-0.7,1.2-1.4,1.8-2.2c0.4-0.5,0.7-1.1,1-1.7
				s0.6-1.2,0.9-1.9c0.3-0.8,0.6-1.7,0.9-2.6c0.2-0.9,0.4-1.8,0.5-2.7c0.1-0.5,0-1.1-0.2-1.6c-0.3-0.5-1.4-0.7-3.4-0.5"/>
			<path class="st2" d="M425.5,343.9c-0.6-1.6-0.4-2,0.5-1.4c1.1,0.9,2.2,1.9,3.2,3c1.5,1.5,2.9,2.9,4.1,4.2s2.2,2.2,3,2.9
				c0.6,0.5,1.2,1,1.8,1.5c0.5,0.3,1,0.6,1.5,0.8c1.4,0.3,2.8,0.4,4.2,0.1"/>
			<path class="st2" d="M446.5,344.4c-0.4-1.1-0.7-1.7-0.7-1.8c0-0.1,0-0.1,0,0s0,0.5,0.1,1.2s0.1,1.6,0.1,2.6
				c0,1.1-0.1,2.2-0.3,3.3c-0.2,1.2-0.6,3-1.3,5.6c-0.7,2.6-1.4,5-2,7.2c-0.7,2.2-1.3,4-1.7,5.4s-0.7,2.1-0.8,2.2c0,0.1,0,0.1,0,0.1
				l2-2.3"/>
			<path class="st3" d="M134.5,104.1c-0.5,0.1-0.7-0.1-0.7-0.7c0-0.4,0.3-1,0.8-1.7s1.1-1.4,1.7-1.9c0.7-0.7,1.4-1.3,2.2-1.9
				c0.8-0.7,1.8-1.3,2.7-1.9s1.9-1.2,2.7-1.6c0.9-0.4,1.8-0.8,2.7-1c1-0.2,1.9-0.4,2.7-0.4c0.8-0.1,1.7-0.1,2.7-0.1s2,0,3.1-0.1
				c1.1,0,2-0.1,2.9-0.2s2.2-0.1,4.1-0.1c1.3,0,2.7,0,4,0.3c0.8,0.2,2,0.5,3.6,1s2.7,0.8,3.5,1c0.7,0.2,1.7,0.5,2.9,0.8
				s2.3,0.6,3.4,1c1.1,0.4,2.1,0.7,3,1.1c0.9,0.3,1.7,0.6,2.3,0.7s1.6,0.2,3,0.3c1.4,0.1,2.9,0.2,4.3,0.4c1.5,0.2,2.9,0.4,4.2,0.6
				s2.7,0.3,4.2,0.3s3.3,0,5.6,0s3.8,0.1,4.5,0.2s1.8,0.4,3.2,0.7c1.4,0.3,2.5,0.6,3.3,0.7s2.1,0.1,3.9,0.1c1.2,0.1,2.4,0,3.6-0.4
				c0.8-0.4,1.7-0.8,2.5-1.4c0.9-0.6,1.9-1.2,2.9-1.7c0.9-0.4,1.7-0.8,2.6-1.2c0.8-0.4,1.5-0.7,1.9-0.9c0.4-0.2,0.7-0.4,1-0.8
				c0.2-0.2,0.4-0.5,0.6-0.8c0.1-0.2,0.2-0.4,0.2-0.7v-0.2c0,0,0,0,0,0.2s0,0.5-0.1,1.2c-0.1,0.5,0,1,0.1,1.4c0.3,0.4,0.6,0.7,1,0.8
				c0.6,0.3,1.3,0.5,2,0.5c0.8,0.1,1.7,0.1,2.8,0.1s2,0,2.7,0s1.7-0.1,2.9-0.4c1.2-0.2,2.4-0.5,3.5-0.7s2.2-0.4,3.3-0.5
				s2.5-0.2,4-0.3c1.5-0.1,2.7-0.2,3.6-0.2s4-0.1,9.3-0.1s8.5,0,9.5-0.1s2.6-0.2,4.8-0.4c2.2-0.2,4.2-0.4,6-0.4s3.7,0,5.5,0
				s3.3,0,4.3,0s2.3-0.1,3.8-0.3c1.5-0.1,2.8-0.2,3.8-0.3s3.2-0.1,6.5-0.1s5.4,0,6.3,0.1s3.5,0.1,7.9,0.1c4.3,0,7.3,0,9-0.1
				c1.7,0,3.4-0.1,5.2-0.1c1.8,0,2.9,0,3.2,0c0.7,0.1,1.5,0.4,2.2,0.7c1.1,0.4,2.1,0.8,3,1.1c0.9,0.3,1.7,0.7,2.4,1
				c0.6,0.3,1.2,0.6,1.8,1.1c0.5,0.4,1,1,1.4,1.7c0.4,0.8,0.8,1.4,1,1.8c0.4,0.6,0.6,1.4,0.7,2.3"/>
			<path class="st3" d="M231.2,67.8c-0.2-0.9-0.2-1.9,0-2.8c0.1-0.4,0.3-0.5,0.5-0.4c0.5,0.4,0.9,0.9,1.1,1.5
				c0.5,0.9,1.1,1.8,1.8,2.6c0.7,0.9,1.4,1.8,2.2,2.7c0.8,0.9,1.5,1.6,2,2.1c0.7,0.7,1.5,1.3,2.3,1.8c1.4,1,2.8,1.9,4.4,2.6"/>
			<path class="st3" d="M244.5,63.3c-0.2-0.5-0.7-0.9-1.3-0.9s-1.1,0.2-1.4,0.7c-1,1.1-1.9,2.4-2.6,3.7c-1.2,2-2.1,3.4-2.7,4.3
				s-1.6,2.4-3.2,4.5c-1.6,2.1-2.7,3.7-3.3,4.7s-1.2,1.9-1.7,2.7c-0.8,1.3-1.4,2.8-1.8,4.3"/>
			<line class="st4" x1="136.5" y1="123.4" x2="372.7" y2="121.9"/>
			<path class="st4" d="M372.7,262.7"/>
			<path class="st4" d="M372.7,121.9"/>
			<line class="st4" x1="372.7" y1="263.5" x2="137.1" y2="264.2"/>
			<line class="st4" x1="136.5" y1="123.4" x2="137.1" y2="264.2"/>
			<line class="st5" x1="309.8" y1="129" x2="562.9" y2="127.8"/>
			<line class="st5" x1="562.9" y1="127.8" x2="562.9" y2="256.4"/>
			<line class="st5" x1="309.7" y1="257.7" x2="562.9" y2="256.4"/>
			<line class="st5" x1="309.8" y1="129" x2="309.7" y2="257.7"/>
			<line class="st2" x1="309.8" y1="129" x2="562.9" y2="127.8"/>
			<line class="st2" x1="562.9" y1="128.3" x2="562.9" y2="256.9"/>
			<line class="st2" x1="309.7" y1="257.7" x2="562.9" y2="256.4"/>
			<path class="st6" d="M309.8,129l-0.1,128.7L309.8,129z"/>
			<line class="st2" x1="309.8" y1="129" x2="309.7" y2="257.7"/>
			<line class="st3" x1="419.3" y1="122.7" x2="419.3" y2="263.5"/>
			<line class="st3" x1="136.5" y1="123.4" x2="419.3" y2="122.7"/>
			<line class="st3" x1="136.5" y1="123.4" x2="137.1" y2="264.2"/>
			<line class="st3" x1="137.1" y1="264.2" x2="419.3" y2="263.5"/>
		</g>
	</g>
</g>
<line class="st1" x1="427.5" y1="115.7" x2="427.8" y2="173.6"/>
<line class="st1" x1="429.2" y1="214.9" x2="429.5" y2="271.1"/>
<path class="st1" d="M431.1,175.9c-0.1-0.4,0.1-0.7,0.6-0.8s0.9-0.2,1.4-0.2c0.4,0,1.2-0.1,2.3-0.1c1.1,0,2.4,0,4,0.1
	s2.7,0.2,3.5,0.2c0.7,0.1,1.5,0.2,2.3,0.3s1.4,0.2,1.7,0.3c0.5,0.1,1,0.3,1.5,0.6c0.4,0.2,0.8,0.4,1.2,0.7c0.3,0.3,0.5,0.5,0.8,0.8
	c0.3,0.4,0.6,0.8,0.8,1.3c0.2,0.5,0.6,1,0.9,1.6c0.3,0.5,0.6,0.9,0.9,1.3c0.2,0.3,0.5,0.6,0.8,0.9c0.5,0.5,1,0.9,1.5,1.3
	c0.7,0.6,1.2,1,1.5,1.3s0.6,0.5,0.9,0.8c0.2,0.2,0.4,0.5,0.6,0.8s0.3,0.6,0.5,0.9c0.1,0.3,0.3,0.6,0.4,0.9c0.1,0.3,0.2,0.6,0.2,0.9
	c0.1,0.5,0.1,1.1,0.1,1.6c0,0.8,0.1,1.5,0.1,2.3c0,0.7,0,1.5-0.2,2.2c-0.1,0.7-0.2,1.2-0.3,1.5c-0.1,0.5-0.3,1-0.5,1.4
	c-0.2,0.6-0.4,1.1-0.6,1.5s-0.4,0.9-0.8,1.6c-0.4,0.7-0.7,1.2-1,1.6c-0.2,0.3-0.5,0.7-0.7,1c-0.4,0.4-0.8,0.8-1.2,1.1
	c-0.5,0.5-1.4,1.1-2.6,2c-1.2,0.8-2.1,1.5-2.6,1.9c-0.6,0.4-1,0.7-1.3,0.9s-0.6,0.4-1,0.5c-0.4,0.2-0.8,0.3-1.2,0.5
	c-0.4,0.2-1.3,0.4-2.5,0.8c-1.2,0.4-2.2,0.7-2.7,0.9c-0.4,0.2-0.8,0.3-1.2,0.4c-0.5,0.1-0.9,0.1-1.4,0.1c-0.6,0-1.2,0-1.8-0.1
	c-0.5-0.1-1.4-0.3-2.6-0.6s-1.9-0.5-2.2-0.6c-0.3-0.1-0.4-0.1-0.5-0.1s-0.1,0-0.1,0l0.2,0.1c0.5,0.2,1.1,0.4,1.6,0.5"/>
<path class="st5" d="M372.7,255.3"/>
<path class="st5" d="M372.8,126.6"/>
<path class="st6" d="M372.8,126.6"/>
<path class="st6" d="M372.7,255.3"/>
<path class="st6" d="M372.7,255.3"/>
<path class="st6" d="M372.8,126.6"/>
<path class="st2" d="M372.7,255.3"/>
<path class="st2" d="M372.8,126.6"/>
<line class="st1" x1="553" y1="113.3" x2="553.3" y2="171.1"/>
<line class="st1" x1="554.7" y1="212.5" x2="555" y2="268.7"/>
<path class="st1" d="M556.6,173.4c-0.1-0.4,0.1-0.7,0.6-0.8s0.9-0.2,1.4-0.2c0.4,0,1.2-0.1,2.3-0.1s2.4,0,4,0.1s2.7,0.2,3.5,0.2
	c0.7,0.1,1.5,0.2,2.3,0.3s1.4,0.2,1.7,0.3c0.5,0.1,1,0.3,1.5,0.6c0.4,0.2,0.8,0.4,1.2,0.7c0.3,0.3,0.5,0.5,0.8,0.8
	c0.3,0.4,0.6,0.8,0.8,1.3s0.6,1,0.9,1.6c0.3,0.5,0.6,0.9,0.9,1.3c0.2,0.3,0.5,0.6,0.8,0.9c0.5,0.5,1,0.9,1.5,1.3
	c0.7,0.6,1.2,1,1.5,1.3s0.6,0.5,0.9,0.8c0.2,0.2,0.4,0.5,0.6,0.8c0.2,0.3,0.3,0.6,0.5,0.9c0.1,0.3,0.3,0.6,0.4,0.9
	c0.1,0.3,0.2,0.6,0.2,0.9c0.1,0.5,0.1,1.1,0.1,1.6c0,0.8,0.1,1.5,0.1,2.3c0,0.7,0,1.5-0.2,2.2c-0.1,0.7-0.2,1.2-0.3,1.5
	c-0.1,0.5-0.3,1-0.5,1.4c-0.2,0.6-0.4,1.1-0.6,1.5s-0.4,0.9-0.8,1.6c-0.4,0.7-0.7,1.2-1,1.6c-0.2,0.3-0.5,0.7-0.7,1
	c-0.4,0.4-0.8,0.8-1.2,1.1c-0.5,0.5-1.4,1.1-2.6,2c-1.2,0.8-2.1,1.5-2.6,1.9c-0.6,0.4-1,0.7-1.3,0.9s-0.6,0.4-1,0.5
	c-0.4,0.2-0.8,0.3-1.2,0.5s-1.3,0.4-2.5,0.8c-1.2,0.4-2.2,0.7-2.7,0.9c-0.4,0.2-0.8,0.3-1.2,0.4c-0.5,0.1-0.9,0.1-1.4,0.1
	c-0.6,0-1.2,0-1.8-0.1c-0.5-0.1-1.4-0.3-2.6-0.6c-1.2-0.3-1.9-0.5-2.2-0.6s-0.4-0.1-0.5-0.1s-0.1,0-0.1,0l0.2,0.1
	c0.5,0.2,1.1,0.4,1.6,0.5"/>
<line class="st5" x1="563" y1="128.7" x2="562.9" y2="255.4"/>
<path class="st6" d="M562.9,255.4L563,129"/>
<path class="st6" d="M563,129l-0.1,126.4"/>
<rect x="436.7" y="123.1" class="st7" width="314" height="140.6"/>
<path class="st7" d="M517.5,93.3c-0.5,0.1-0.7-0.1-0.7-0.7c0-0.4,0.3-1,0.8-1.7s1.1-1.4,1.7-1.9c0.7-0.7,1.4-1.3,2.2-1.9
	c0.8-0.7,1.8-1.3,2.7-1.9c1-0.6,1.9-1.2,2.7-1.6c0.9-0.4,1.8-0.8,2.7-1c1-0.2,1.9-0.4,2.7-0.4c0.8-0.1,1.7-0.1,2.7-0.1s2,0,3.1-0.1
	c1.1,0,2-0.1,2.9-0.2s2.2-0.1,4.1-0.1c1.3,0,2.7,0,4,0.3c0.8,0.2,2,0.5,3.6,1s2.7,0.8,3.5,1c0.7,0.2,1.7,0.5,2.9,0.8s2.3,0.6,3.4,1
	c1.1,0.4,2.1,0.7,3,1.1c0.9,0.3,1.7,0.6,2.3,0.7s1.6,0.2,3,0.3s2.9,0.2,4.3,0.4c1.5,0.2,2.9,0.4,4.2,0.6s2.7,0.3,4.2,0.3
	s3.3,0,5.6,0s3.8,0.1,4.5,0.2s1.8,0.4,3.2,0.7s2.5,0.6,3.3,0.7s2.1,0.1,3.9,0.1c1.2,0.1,2.4,0,3.6-0.4c0.8-0.4,1.7-0.8,2.5-1.4
	c0.9-0.6,1.9-1.2,2.9-1.7c0.9-0.4,1.7-0.8,2.6-1.2c0.8-0.4,1.5-0.7,1.9-0.9c0.4-0.2,0.7-0.4,1-0.8c0.2-0.2,0.4-0.5,0.6-0.8
	c0.1-0.2,0.2-0.4,0.2-0.7v-0.2c0,0,0,0,0,0.2s0,0.5-0.1,1.2c-0.1,0.5,0,1,0.1,1.4c0.3,0.4,0.6,0.7,1,0.8c0.6,0.3,1.3,0.5,2,0.5
	c0.8,0.1,1.7,0.1,2.8,0.1s2,0,2.7,0s1.7-0.1,2.9-0.4c1.2-0.2,2.4-0.5,3.5-0.7s2.2-0.4,3.3-0.5s2.5-0.2,4-0.3
	c1.5-0.1,2.7-0.2,3.6-0.2c0.9,0,4-0.1,9.3-0.1s8.5,0,9.5-0.1s2.6-0.2,4.8-0.4c2.2-0.2,4.2-0.4,6-0.4s3.7,0,5.5,0s3.3,0,4.3,0
	s2.3-0.1,3.8-0.3c1.5-0.1,2.8-0.2,3.8-0.3c1,0,3.2-0.1,6.5-0.1s5.4,0,6.3,0.1c0.9,0.1,3.5,0.1,7.9,0.1c4.3,0,7.3,0,9-0.1
	s3.4-0.1,5.2-0.1s2.9,0,3.2,0c0.7,0.1,1.5,0.4,2.2,0.7c1.1,0.4,2.1,0.8,3,1.1s1.7,0.7,2.4,1c0.6,0.3,1.2,0.6,1.8,1.1
	c0.5,0.4,1,1,1.4,1.7c0.4,0.8,0.8,1.4,1,1.8c0.4,0.6,0.6,1.4,0.7,2.3"/>
<path class="st7" d="M608.9,54.2c-0.8-0.5-1.4-1.3-1.9-2.1c-0.2-0.4-0.1-0.6,0.2-0.6c0.6,0,1.3,0.1,1.8,0.4c1,0.3,2,0.6,3,0.8
	c1.1,0.2,2.2,0.4,3.5,0.5s2.2,0.2,2.9,0.3c1,0,1.9,0,2.9-0.1c1.7-0.1,3.4-0.5,5-1"/>
<path class="st7" d="M627.4,52.4c-0.2-0.5-0.7-0.9-1.3-0.9s-1.1,0.2-1.4,0.7c-1,1.1-1.9,2.4-2.6,3.7c-1.2,2-2.1,3.4-2.7,4.3
	c-0.6,0.9-1.6,2.4-3.2,4.5c-1.6,2.1-2.7,3.7-3.3,4.7s-1.2,1.9-1.7,2.7c-0.8,1.3-1.4,2.8-1.8,4.3"/>
<path class="st7" d="M626.7,73.3c0.8,0.5,1.5,1.2,2,1.9c0.2,0.4,0.1,0.6-0.1,0.6c-0.6,0-1.3-0.1-1.9-0.3c-1-0.3-2-0.4-3.1-0.6
	c-1.1-0.1-2.2-0.3-3.5-0.3c-1.3-0.1-2.2-0.1-2.9-0.1c-1,0-1.9,0.2-2.9,0.3c-1.7,0.2-3.3,0.7-4.9,1.3"/>
<path class="st7" d="M615.8,62.6c0.8,0.5,1.5,1.2,2,1.9c0.2,0.4,0.1,0.6-0.1,0.6"/>
</svg>
