<?xml version="1.0" encoding="utf-8"?>
<!-- Generator: Adobe Illustrator 25.3.1, SVG Export Plug-In . SVG Version: 6.00 Build 0)  -->
<svg version="1.1" id="图层_1" xmlns="http://www.w3.org/2000/svg" xmlns:xlink="http://www.w3.org/1999/xlink" x="0px" y="0px"
	 width="1190.9px" height="841.7px" viewBox="0 0 1190.9 841.7" style="enable-background:new 0 0 1190.9 841.7;"
	 xml:space="preserve">
<style type="text/css">
	.st0{fill:none;stroke:#000000;stroke-width:5.6693;stroke-linecap:round;stroke-linejoin:round;}
	.st1{fill:none;stroke:#D20000;stroke-width:2.8346;stroke-linecap:round;stroke-linejoin:round;}
	.st2{fill:none;stroke:#F65353;stroke-width:2.8346;stroke-linecap:round;stroke-linejoin:round;}
	.st3{fill:none;stroke:#007AFF;stroke-width:2.8346;stroke-linecap:round;stroke-linejoin:round;}
	.st4{fill:none;stroke:#7EC636;stroke-width:2.8346;stroke-linecap:round;stroke-linejoin:round;}
	.st5{fill:none;stroke:#F59A23;stroke-width:2.8346;stroke-linecap:round;stroke-linejoin:round;}
	.st6{fill:none;stroke:#000000;stroke-width:2.8346;stroke-linecap:round;stroke-linejoin:round;}
</style>
<g>
	<path class="st0" d="M742.9,342.3h25.6 M601.9,342.3h102.5 M499.4,342.3h76.9 M422.4,342.3h38.5"/>
	<path class="st0" d="M730.8,459.5h38.9 M614.2,459.5h77.8 M497.5,459.5h77.8 M419.7,459.5h38.9"/>
	<path class="st0" d="M538.1,440v12.4 M538.1,303.1v99.6 M538.1,228.4v49.8"/>
	<path class="st0" d="M656.5,559.9v12.5 M656.5,422.2v100.1 M656.5,347.1v50.1"/>
	<polyline class="st0" points="420.8,226.7 770.6,226.7 770.6,576.5 420.8,576.5 420.8,226.7 	"/>
	<path class="st0" d="M465.7,346.4c-0.3-0.7-0.1-1,0.6-1.1c0.5,0,0.9,0.1,1.3,0.3c0.4,0.2,0.8,0.5,1.1,0.8c0.4,0.4,0.7,0.8,0.9,1.3
		c0.3,0.5,0.5,1.1,0.7,1.6c0.2,0.6,0.3,1.2,0.4,1.9c0.1,0.9,0.2,1.9,0.2,2.8c0,1.1-0.1,2.1-0.3,3.2c-0.1,0.7-0.3,1.3-0.5,2
		c-0.2,0.6-0.5,1.3-0.8,1.9c-0.4,0.8-0.7,1.4-1,1.8c-0.3,0.4-0.5,0.8-0.8,1.1c-0.3,0.4-0.8,1-1.4,1.9c-0.6,0.9-1.2,1.8-1.7,2.6
		c-0.3,0.6-0.7,1.2-0.9,1.8c-0.2,0.5-0.2,0.9-0.3,1.4c-0.1,0.4-0.1,0.8,0,1.3c0.2,0.4,0.4,0.7,0.7,1c0.6,0.8,1.5,1.4,2.4,1.7
		c0.7,0.3,1.4,0.5,2.1,0.7c0.9,0.2,1.7,0.3,2.6,0.3c1.1,0,2.1-0.1,3.2-0.4c1.1-0.3,2.2-0.5,3.1-0.7c1-0.2,1.9-0.4,2.9-0.6
		c1-0.2,1.8-0.4,2.5-0.6c0.7-0.2,1.3-0.3,1.7-0.5c0.4-0.1,0.8-0.3,1.1-0.5c0.4-0.3,0.8-0.6,1.2-1c1-1.1,2-2.2,2.8-3.5
		c0.4-0.6,0.7-1.2,1-1.9c0.3-0.6,0.5-1.2,0.7-1.8c0.2-0.7,0.3-1.4,0.3-2.2c0-0.7,0-1.3,0-2c-0.1-0.5-0.2-1-0.3-1.6
		c-0.2-0.6-0.3-1.1-0.3-1.4c-0.1-0.5-0.1-1.1-0.1-1.6c0-0.7,0-1.3,0-1.6c0-0.4,0.1-0.7,0.2-1.1c0.2-0.5,0.5-1,0.8-1.5
		c0.4-0.6,0.8-1.3,1.3-2.1c0.5-0.8,0.9-1.5,1.3-2.1c0.2-0.5,0.5-0.9,0.9-1.3c0.4-0.2,0.9-0.4,1.4-0.3c0.9,0,2.6,0,5,0.1"/>
	<path class="st0" d="M540.7,271.6c-0.2,0.4-0.3,0.8-0.3,1.2c0,0.5,0.2,0.9,0.5,1.3c0.4,0.7,0.9,1.3,1.4,1.9
		c0.6,0.7,1.1,1.3,1.4,1.7s0.7,0.8,1.1,1.1c0.3,0.3,0.7,0.6,1.1,0.9c0.3,0.2,0.7,0.5,1,0.6c0.4,0.2,0.9,0.3,1.4,0.3
		c0.5,0,1,0,1.4-0.2c0.6-0.3,1.1-0.8,1.6-1.2c0.7-0.6,1.9-1.8,3.6-3.4c1.7-1.6,2.8-2.8,3.4-3.4c0.6-0.6,1.1-1.1,1.4-1.4
		c0.3-0.3,0.6-0.6,0.9-0.8c0.3-0.2,0.6-0.4,1-0.6c0.4-0.2,0.8-0.4,1.2-0.5c0.5-0.1,0.9-0.2,1.4-0.3c0.8-0.1,1.6-0.1,2.4-0.1
		c0.8,0,1.6,0,2.4,0.2c0.6,0.1,1.2,0.3,1.7,0.6c0.5,0.2,1,0.5,1.5,0.8c0.3,0.2,0.7,0.5,0.9,0.8c0.3,0.4,0.6,0.8,0.9,1.2
		c0.3,0.5,0.6,1.1,0.9,1.7c0.2,0.5,0.4,1.1,0.6,1.6c0.1,0.5,0.2,1,0.3,1.6c0.1,0.8,0.2,1.6,0.3,2.3c0.1,1,0.1,2.1,0.1,3.3
		c0,1.2,0,2.1,0,2.7c0,0.6-0.1,1.1-0.2,1.7c-0.1,0.6-0.3,1.4-0.5,2.5c-0.3,1.1-0.6,2.6-1,4.5c-0.4,1.9-0.7,3.2-0.8,3.7
		c-0.2,0.5-0.4,1.1-0.6,1.6c-0.2,0.5-0.5,0.9-0.8,1.4c-0.3,0.4-0.6,0.8-1,1.1c-0.4,0.3-0.9,0.5-1.4,0.7c-0.6,0.2-1.3,0.3-1.9,0.4
		c-0.7,0.1-1.6,0.2-2.5,0.2c-0.9,0.1-1.9,0.1-3,0.1c-0.7,0-1.5,0-2.2-0.1c-0.6-0.2-1.2-0.5-1.8-0.9c-0.7-0.4-1.5-0.8-2.3-1.2
		c-0.7-0.3-1.2-0.5-1.5-0.6c-0.8-0.2-1.6-0.4-2.4-0.6c-1.2-0.3-2.1-0.4-2.7-0.5c-0.5-0.1-1.1-0.1-1.7-0.1c-0.4,0-0.7,0-1.1,0
		c-0.4,0.1-0.8,0.4-1.2,0.6c-0.5,0.4-1,0.7-1.4,1.2c-0.5,0.4-0.9,0.9-1.3,1.4c-0.5,0.5-0.9,1.1-1.3,1.7c-0.4,0.6-0.7,1.1-0.9,1.4
		c-0.2,0.3-0.3,0.6-0.4,0.9c-0.2,0.7-0.4,1.4-0.4,2.1"/>
	<path class="st0" d="M576.4,345.8c0-0.3,0.1-0.6,0.4-0.8c0.2-0.1,0.5-0.2,0.8-0.1c0.3,0,0.6,0,0.9,0.1c0.3,0.1,0.6,0.2,0.8,0.3
		c0.7,0.3,1.3,0.8,1.8,1.3c0.3,0.3,0.5,0.6,0.7,0.9c0.2,0.3,0.4,0.7,0.5,1c0.2,0.4,0.3,0.8,0.4,1.2c0.1,0.7,0.2,1.5,0.2,2.2
		c0,0.8,0,1.7-0.2,2.5c-0.1,0.6-0.3,1.3-0.4,1.9c-0.2,0.6-0.4,1.2-0.6,1.8c-0.2,0.6-0.6,1.7-1,3.2c-0.5,1.6-0.8,2.6-0.9,3
		c-0.1,0.5-0.2,0.9-0.3,1.3c-0.1,0.6-0.1,1.3-0.1,1.9c0,0.6,0,1.3,0.1,1.9c0.1,0.4,0.2,0.7,0.4,1.1c0.2,0.4,0.4,0.7,0.7,1
		c0.4,0.5,0.9,1,1.4,1.4c0.7,0.6,1.4,1.1,2.1,1.7c0.7,0.5,1.3,0.9,1.7,1.2c0.4,0.3,0.8,0.5,1.3,0.7c0.5,0.2,0.9,0.4,1.4,0.6
		c1.2,0.4,2.5,0.7,3.8,0.8c0.7,0.1,1.8,0.1,3.5,0.1c1,0,2.1,0,3.1-0.1c0.4-0.1,1-0.1,1.9-0.2c0.7-0.1,1.4-0.2,2.1-0.3
		c0.5-0.1,1.1-0.2,1.7-0.4c0.6-0.2,1.1-0.3,1.6-0.6c0.5-0.2,0.9-0.4,1.4-0.7c0.4-0.3,0.9-0.6,1.2-0.9c0.4-0.3,0.7-0.6,0.9-1
		c0.2-0.3,0.4-0.7,0.5-1c0.2-0.6,0.2-1.1,0.3-1.7c0.1-0.6,0-1.3-0.1-1.9c-0.1-0.6-0.3-1.1-0.5-1.6c-0.2-0.6-0.4-1.3-0.7-1.9
		c-0.3-0.7-0.6-1.4-0.9-2.1c-0.3-0.7-0.7-1.4-1.1-2.1c-0.4-0.7-0.9-1.6-1.6-2.7c-0.7-1.1-1.1-1.9-1.4-2.4c-0.2-0.5-0.5-1-0.6-1.4
		c-0.2-0.4-0.3-0.9-0.3-1.3c-0.1-0.4-0.1-0.9-0.1-1.3c0-0.4,0.1-0.8,0.2-1.2c0.1-0.4,0.3-0.7,0.6-1c0.3-0.3,0.6-0.7,0.9-1
		c0.3-0.3,0.7-0.6,1.1-0.9c0.4-0.3,0.8-0.5,1.2-0.7c0.4-0.2,0.8-0.4,1.2-0.6c0.4-0.2,0.8-0.3,1.2-0.4c0.7-0.1,1.3-0.2,2-0.2
		c0.9-0.1,1.6-0.1,2.2-0.1c0.5,0,1.1,0,1.6,0c0.5,0,1,0.1,1.5,0.3c0.4,0.1,0.8,0.3,1.2,0.5c0.7,0.5,1.3,1.2,1.7,2"/>
	<path class="st0" d="M537.8,396.5c0.3,0.8,0.7,1.5,1.2,2.2c0.5,0.8,1,1.4,1.4,1.9c0.4,0.5,0.9,1,1.3,1.5c0.5,0.5,0.9,1,1.4,1.5
		s1,0.9,1.4,1.3c0.4,0.3,0.8,0.6,1.3,0.9c0.3,0.2,0.7,0.4,1.1,0.5c0.3,0.1,0.7,0.1,1.1,0.1c0.4,0,0.7-0.1,1-0.3
		c0.6-0.4,1.2-0.8,1.8-1.3c0.8-0.7,1.4-1.2,1.9-1.5c0.4-0.4,1-0.9,1.7-1.7c0.5-0.5,1-1.1,1.5-1.7c0.3-0.5,0.6-1,0.8-1.5
		c0.3-0.6,0.5-1.3,0.7-2c0.1-0.5,0.3-1,0.5-1.4c0.2-0.3,0.6-0.5,1-0.5c0.7,0,1.5,0.3,2.1,0.7c0.9,0.5,1.7,1,2.5,1.6
		c0.8,0.6,1.9,1.3,3.2,2.3c1.4,1,2.5,1.8,3.4,2.4c0.9,0.6,1.5,1.1,1.8,1.4c0.3,0.3,0.7,0.6,1,1c0.3,0.3,0.6,0.7,0.8,1
		c0.3,0.6,0.6,1.2,0.9,1.8c0.6,1.2,1,2.5,1.1,3.9c0.1,1,0.2,1.9,0.2,2.9c0,0.8,0,1.7-0.2,2.5c-0.1,0.6-0.3,1.3-0.4,1.9
		c-0.2,0.6-0.4,1.3-0.6,1.9c-0.2,0.7-0.5,1.3-0.7,2c-0.3,0.7-0.6,1.5-1.1,2.6c-0.5,1.1-0.9,1.9-1.1,2.4s-0.6,1-0.8,1.4
		c-0.3,0.4-0.6,0.8-0.9,1.2c-0.3,0.4-0.7,0.8-1.1,1.1c-0.4,0.3-0.8,0.6-1.2,0.9c-0.4,0.2-0.9,0.5-1.3,0.6c-0.5,0.2-1,0.3-1.5,0.3
		c-0.6,0.1-1.3,0.1-2,0.1c-0.6,0-1.2-0.1-1.8-0.2c-0.3-0.1-0.6-0.2-0.9-0.4c-0.4-0.2-0.8-0.5-1.2-0.8c-0.5-0.4-1-0.7-1.5-1
		c-0.6-0.3-1.2-0.6-1.8-0.7c-0.7-0.2-1.6-0.4-2.8-0.6c-1.2-0.2-2.8-0.6-4.7-1.1c-1.4-0.4-2.8-0.7-4.2-0.8c-0.7-0.1-1.4,0-2,0.2
		c-0.4,0.1-0.9,0.4-1.3,0.6c-0.3,0.2-0.6,0.5-0.8,0.9c-0.2,0.4-0.3,0.8-0.3,1.3c0,0.5,0,0.9,0.1,1.4c0.5,1.2,1.2,2.3,2,3.3"/>
	<path class="st0" d="M658.6,390.7c-0.6-0.3-0.9,0-0.9,0.7c0,0.5,0,1,0,1.4c0.1,0.5,0.2,1,0.4,1.4c0.2,0.5,0.4,1,0.7,1.5
		c0.3,0.5,0.6,1,0.9,1.5c0.3,0.5,0.6,0.9,1,1.3c0.3,0.4,0.7,0.7,1.1,1c0.4,0.3,0.7,0.5,1.2,0.6c0.4,0.1,0.8,0.2,1.2,0.2
		c0.5,0,0.9,0,1.4,0c0.5,0,1-0.2,1.4-0.4c0.5-0.2,0.9-0.5,1.3-0.7c0.5-0.3,0.9-0.6,1.3-1c0.4-0.3,0.8-0.7,1.2-1.1
		c0.3-0.4,0.7-0.8,0.9-1.3c0.3-0.5,0.6-1,0.8-1.6c0.3-0.6,0.5-1.2,0.6-1.8c0.2-0.6,0.3-1.6,0.6-2.9c0.2-1.3,0.4-2.1,0.5-2.6
		c0.1-0.4,0.3-0.8,0.4-1.2c0.2-0.3,0.3-0.6,0.5-0.9c0.3-0.3,0.6-0.6,1-0.8c0.5-0.3,1.1-0.6,1.7-0.7c0.5-0.2,1.1-0.3,1.6-0.4
		c0.6-0.1,1.2-0.2,1.9-0.2c0.6,0,1.3,0,1.9,0c0.4,0,0.8,0.1,1.2,0.3c0.4,0.1,0.7,0.3,1.1,0.5c0.5,0.3,0.9,0.6,1.3,1
		c0.4,0.4,0.8,0.8,1.2,1.2c0.3,0.5,0.6,1,0.9,1.5c0.4,0.7,0.8,1.5,1.1,2.4c0.4,0.8,0.7,1.8,1.1,2.8c0.4,1.1,0.6,1.8,0.7,2.3
		s0.3,1,0.4,1.6c0.1,0.9,0.2,1.9,0.2,2.8c0,0.9,0,1.8,0,2.7c0,0.4-0.2,1.3-0.5,2.7s-0.6,2.8-1,4.2c-0.4,1.4-0.7,2.5-0.9,3.4
		c-0.2,0.9-0.5,1.6-0.7,2.2c-0.2,0.6-0.5,1.2-0.8,1.7c-0.3,0.4-0.5,0.9-0.9,1.2c-0.3,0.4-0.7,0.6-1.1,0.9c-0.7,0.3-1.4,0.5-2.2,0.6
		c-1,0.2-2.2,0.4-3.8,0.6c-1.6,0.2-3.6,0.4-6,0.7c-2.4,0.2-4.1,0.4-4.8,0.5c-0.8,0.1-1.6,0.3-2.4,0.4c-0.8,0.2-1.5,0.3-1.9,0.4
		c-0.6,0.1-1.1,0.3-1.7,0.5c-0.5,0.2-1,0.4-1.4,0.6c-0.3,0.2-0.7,0.5-0.9,0.9c-0.3,0.3-0.5,0.7-0.7,1c-0.2,0.4-0.3,0.8-0.3,1.3
		c-0.1,0.6-0.2,1.3-0.1,1.9c0,0.8,0.2,1.5,0.6,2.2c0.3,0.6,0.5,1.2,0.9,1.7"/>
	<path class="st0" d="M701,348.2c0.5,0.4,1,0.7,1.5,0.9c0.7,0.3,1.5,0.7,2.4,1.1c0.9,0.4,1.6,0.7,2.1,0.9c0.5,0.3,1,0.5,1.6,0.8
		c0.5,0.3,1,0.6,1.4,1c0.4,0.3,0.8,0.7,1.2,1.1c0.4,0.4,0.7,0.8,1,1.2c0.3,0.4,0.5,0.8,0.8,1.2c0.2,0.4,0.4,0.7,0.5,1.1
		c0.1,0.3,0.2,0.7,0.3,1c0.1,0.6,0.2,1.2,0.1,1.9c0,0.8-0.1,1.5-0.3,2.2c-0.2,0.6-0.6,1.5-1.2,2.8c-0.6,1.3-1.2,2.6-1.8,3.8
		c-0.6,1.2-1.1,2.1-1.4,2.6c-0.3,0.5-0.6,1.1-0.9,1.7c-0.3,0.6-0.5,1.2-0.7,1.8c-0.2,0.7-0.3,1.4-0.3,2.1c0,0.6,0,1.1,0,1.7
		c0.1,0.6,0.3,1.2,0.6,1.7c0.2,0.6,0.5,1.1,0.8,1.7c0.2,0.4,0.4,0.7,0.7,1c0.2,0.3,0.5,0.6,0.7,0.8c0.4,0.3,0.9,0.6,1.3,0.9
		c0.5,0.3,1,0.5,1.5,0.8c0.4,0.2,0.8,0.3,1.2,0.3c0.4,0.1,0.9,0.1,1.5,0.2c0.6,0,1.5,0.1,2.7,0.1c1,0,1.9,0,2.9-0.1
		c0.6-0.1,1.2-0.2,1.7-0.3c0.7-0.2,1.4-0.4,2-0.7c1-0.4,2-0.9,3-1.5c1.1-0.6,1.9-1.1,2.3-1.3s0.8-0.5,1.1-0.8c0.4-0.3,0.7-0.7,1.1-1
		c0.3-0.4,0.6-0.8,0.9-1.2c0.3-0.4,0.5-0.9,0.7-1.4c0.2-0.5,0.4-1,0.5-1.6c0.1-0.6,0.2-1.1,0.2-1.7c0-0.6,0-1.2,0-1.9
		c0-0.7-0.1-1.4-0.3-2.2c-0.2-0.8-0.3-1.5-0.5-2.2c-0.2-0.7-0.5-1.7-0.9-2.8c-0.4-1.2-0.7-2.1-0.9-2.7c-0.2-0.6-0.3-1.2-0.4-1.8
		c0-0.5,0-0.9,0.1-1.4c0.2-0.6,0.4-1.2,0.6-1.8c0.3-0.9,0.7-1.9,1.1-3c0.4-1.1,0.8-2.1,1.2-3.1c0.4-0.9,0.8-1.7,1.1-2.4
		c0.3-0.6,0.7-1.2,1-1.7c0.3-0.5,0.7-0.9,1.1-1.3c0.4-0.4,0.8-0.7,1.3-1.1c1-0.7,2.1-1.1,3.3-1.2c0.6-0.1,1.2-0.1,1.8-0.1
		c0.9,0,1.3,0.4,1.2,1.1"/>
	<path class="st0" d="M691.1,462c-0.2-0.4,0-0.6,0.7-0.6c0.6,0,1.6,0,2.8,0c1.2,0,2,0,2.4,0.1c0.8,0.1,1.6,0.3,2.2,0.7
		c0.3,0.2,0.6,0.4,0.9,0.7c0.2,0.2,0.5,0.5,0.7,0.7c0.2,0.3,0.4,0.5,0.5,0.8c0.2,0.5,0.3,1,0.3,1.5c0.1,0.7,0.1,1.3,0.1,1.7
		c0,0.5,0,0.9-0.1,1.4c-0.1,0.7-0.3,1.5-0.4,2.2c-0.3,1-0.5,2-0.8,2.9c-0.3,0.9-0.6,1.9-0.9,2.9c-0.3,1-0.6,2-0.8,3
		c-0.2,1-0.4,1.8-0.5,2.3c-0.1,0.5-0.2,1.2-0.3,2.1c-0.1,0.9-0.2,1.7-0.2,2.3c0,0.7,0,1.2,0,1.5c0.1,0.4,0.2,0.8,0.4,1.2
		c0.3,0.5,0.6,1,1,1.5c0.3,0.4,0.6,0.7,1,1c0.3,0.2,0.6,0.5,1,0.7c0.4,0.2,0.8,0.5,1.2,0.6c0.5,0.2,1.1,0.4,1.6,0.6
		c0.6,0.2,1.3,0.4,2.1,0.5c0.8,0.2,1.5,0.3,2.3,0.4c0.8,0.1,1.8,0.2,3.1,0.3c1.3,0.1,2.9,0.2,4.8,0.2c1.9,0,3.1,0,3.7-0.1
		c0.6-0.1,1.2-0.1,1.7-0.2c0.5-0.1,0.9-0.2,1.4-0.3c0.4-0.1,0.7-0.3,1-0.5c0.3-0.2,0.5-0.4,0.6-0.7c0.2-0.3,0.4-0.6,0.5-1
		c0.2-0.6,0.4-1.2,0.5-1.9c0.2-0.9,0.3-1.6,0.4-2c0.1-0.7,0.1-1.4,0.1-2.1c0-0.9,0-1.6,0-2.1c-0.1-0.8-0.2-1.7-0.4-2.5
		c-0.3-1.2-0.6-2.6-1.1-4.2c-0.4-1.6-0.7-2.8-0.9-3.5c-0.1-0.7-0.2-1.4-0.2-2.2c0-0.5,0-1.1,0-1.6c0.1-0.4,0.1-0.8,0.3-1.3
		c0.1-0.5,0.3-1.1,0.7-2c0.2-0.7,0.5-1.4,0.8-2c0.2-0.4,0.4-0.8,0.7-1.2c0.2-0.3,0.5-0.7,0.8-1c0.3-0.3,0.6-0.6,1-0.8
		c0.4-0.2,0.7-0.5,1.2-0.6c0.4-0.2,0.9-0.3,1.3-0.4c0.5-0.1,0.9-0.2,1.4-0.3c0.6-0.1,1.2-0.1,1.9-0.2c0.5,0,1.1,0,1.6,0
		c0.3,0,0.5,0.1,0.8,0.3c0.3,0.2,0.5,0.5,0.7,0.8c0.5,0.9,0.8,1.8,0.9,2.8"/>
	<path class="st0" d="M458.6,460.2c-0.1-0.4,0-0.5,0.4-0.5c0.7,0.2,1.3,0.4,1.9,0.8c1,0.5,1.8,0.9,2.5,1.3c0.6,0.3,1.2,0.7,1.8,1.1
		c0.4,0.3,0.8,0.6,1.2,1c0.2,0.2,0.4,0.5,0.6,0.7c0.1,0.2,0.2,0.5,0.3,0.7c0.1,0.4,0.1,0.9,0.1,1.4c0,0.6-0.1,1.1-0.3,1.6
		c-0.2,0.5-0.5,0.9-0.7,1.3c-0.3,0.5-1,1.4-2.1,2.8c-1.1,1.4-1.8,2.3-2.1,2.7c-0.4,0.6-0.8,1.2-1.1,1.8c-0.4,0.7-0.7,1.4-0.9,2.2
		c-0.2,0.7-0.3,1.5-0.3,2.2c0,0.6,0,1.2,0,1.9c0,0.4,0.1,0.9,0.2,1.3c0.2,0.5,0.4,1,0.6,1.5c0.3,0.6,0.6,1.1,0.8,1.4
		c0.4,0.6,0.9,1.2,1.6,1.7c0.5,0.4,1.1,0.7,1.7,1c0.6,0.3,1.3,0.6,1.9,0.9c0.7,0.2,1.4,0.4,2.1,0.5c0.9,0.2,1.6,0.3,2,0.3
		c0.4,0,0.8,0.1,1.2,0.2c0.7,0.1,1.3,0.2,2,0.3c0.9,0.1,2.2,0.1,3.9,0.1c1.7,0,3.1,0.1,4.4,0.2c1.3,0.1,2.3,0.2,3.1,0.2
		c0.8,0,1.3,0,1.6,0c0.4-0.1,0.9-0.2,1.3-0.4c0.4-0.2,0.9-0.4,1.3-0.6c0.3-0.2,0.6-0.4,0.8-0.6c0.2-0.2,0.5-0.5,0.7-0.7
		c0.2-0.3,0.4-0.5,0.5-0.8c0.2-0.5,0.3-1,0.4-1.6c0.1-0.8,0.2-1.7,0.2-2.5c0-1-0.1-2-0.2-3c-0.1-1-0.3-2-0.4-2.9
		c-0.1-0.9-0.3-1.9-0.5-2.9c-0.2-1-0.4-2.1-0.6-3.2c-0.1-0.9-0.2-1.9-0.3-2.9c0-0.7,0.1-1.5,0.2-2.2c0.3-1.3,0.9-2.4,1.7-3.4
		c0.4-0.5,0.8-0.9,1.3-1.3c0.5-0.4,0.9-0.8,1.5-1.2c0.5-0.3,1-0.7,1.5-0.9c0.4-0.2,0.8-0.3,1.2-0.4c0.6-0.1,1.2-0.1,1.8-0.1
		c0.7,0,1.4,0.1,2.1,0.3c0.4,0.1,0.8,0.3,1.2,0.4c0.5,0.3,0.9,0.6,1.3,1"/>
	<path class="st0" d="M575.1,460.6c-0.2-1.3-0.1-2,0.4-2.1c0.5-0.1,1-0.2,1.5-0.2c0.7,0,1.2,0,1.7,0c0.5,0,1,0.1,1.4,0.2
		c0.5,0.1,1,0.3,1.5,0.5c0.5,0.2,1,0.4,1.4,0.7c0.4,0.3,0.8,0.6,1.2,0.9c0.4,0.3,0.7,0.7,1,1c0.3,0.3,0.5,0.7,0.7,1.1
		c0.2,0.3,0.3,0.7,0.4,1.1c0.1,0.4,0.2,0.8,0.2,1.1c0,0.4,0,0.9,0,1.3c-0.1,0.8-0.3,1.6-0.5,2.4c-0.3,1.1-0.7,2.3-1.2,3.5
		s-1,2.7-1.7,4.3c-0.7,1.7-1.1,2.8-1.3,3.3c-0.2,0.5-0.3,1-0.5,1.5c-0.1,0.4-0.2,0.9-0.3,1.4c-0.1,0.6-0.1,1.2-0.1,1.8
		c0,0.5,0,1,0.2,1.5c0.1,0.3,0.3,0.6,0.5,0.8c0.3,0.4,0.7,0.7,1.1,1c0.5,0.4,1,0.8,1.3,1.1c0.3,0.3,0.7,0.5,1,0.6
		c0.4,0.2,0.8,0.3,1.3,0.3c0.8,0.1,1.5,0.2,2.3,0.2c1.1,0,2.2,0.1,3.5,0.1c1.3,0,2.2,0,2.8-0.1c0.5,0,1-0.1,1.5-0.2
		c0.4-0.1,0.8-0.2,1.1-0.3c0.4-0.2,0.8-0.4,1.2-0.7c0.5-0.4,1.1-0.8,1.6-1.2c0.5-0.5,1.2-1,1.9-1.5c0.7-0.5,1.3-1,1.7-1.2
		c0.4-0.3,0.8-0.6,1.2-0.9c0.4-0.3,0.8-0.7,1.2-1c0.4-0.3,0.7-0.7,1-1.1c0.3-0.4,0.5-0.8,0.8-1.2c0.2-0.4,0.4-0.8,0.5-1.2
		c0.1-0.6,0.2-1.2,0.2-1.8c0-0.8,0-2-0.1-3.4c-0.1-1.4-0.1-2.7-0.1-3.6c0-1,0-1.7,0-2.2c0-0.5,0.1-1.4,0.2-2.7
		c0.1-0.9,0.3-1.8,0.6-2.7c0.2-0.4,0.4-0.8,0.7-1.1c0.2-0.2,0.5-0.4,0.8-0.5c0.8-0.2,1.7-0.2,2.6-0.2c1.4,0,2.7-0.1,3.8-0.1
		c1.1-0.1,2-0.2,2.7-0.3c0.5-0.1,1-0.2,1.5-0.3"/>
	<path class="st0" d="M661.3,522.2c-0.4,0.1-0.7,0.4-0.9,0.7c-0.1,0.3-0.2,0.7-0.2,1c0,0.5,0,0.9,0.2,1.4c0.2,0.6,0.5,1.3,0.8,1.9
		c0.4,0.7,0.7,1.4,1,1.8c0.3,0.5,0.6,0.9,0.9,1.3c0.3,0.4,0.8,0.8,1.3,1.1c0.6,0.3,1.2,0.5,1.8,0.5c0.6,0.1,1.1,0.1,1.7,0.1
		c0.4,0,0.8-0.1,1.2-0.2c0.4-0.2,0.8-0.3,1.2-0.5c0.4-0.2,0.8-0.4,1.1-0.7c0.5-0.4,1-0.9,1.5-1.4c0.6-0.6,1.1-1.2,1.5-1.9
		c0.4-0.6,0.8-1.3,1.1-1.9c0.3-0.7,0.6-1.3,0.9-1.8c0.5-1.1,1.3-2,2.3-2.8c0.6-0.4,1.1-0.8,1.8-1.1c0.7-0.3,1.3-0.6,2-0.8
		c0.7-0.2,1.4-0.4,2.2-0.6c0.8-0.2,1.7-0.3,2.9-0.5c1.2-0.2,2.2-0.3,3.1-0.3c0.9,0,1.8-0.1,2.7-0.1c0.6,0,1.3,0,1.9,0.1
		c0.5,0.1,1,0.4,1.4,0.7c0.4,0.3,0.8,0.6,1.2,0.9c0.5,0.6,1,1.1,1.4,1.8c0.7,0.9,1.2,1.7,1.6,2.4c0.4,0.7,0.8,1.4,1.1,2.1
		c0.3,0.6,0.5,1.1,0.7,1.7c0.1,0.4,0.2,0.8,0.3,1.2c0.1,1.2,0.2,2.4,0.1,3.6c0,2,0,3.2,0,3.7c0,0.5-0.1,1-0.2,1.4
		c-0.1,0.5-0.3,1.4-0.7,2.7c-0.4,1.3-0.8,2.6-1.3,3.8c-0.4,1.2-0.8,2.2-1.1,2.8c-0.3,0.6-0.6,1.3-0.9,1.9c-0.3,0.6-0.7,1.1-1.1,1.6
		c-0.3,0.4-0.7,0.7-1,1.1c-0.3,0.2-0.6,0.4-0.9,0.6c-0.5,0.3-0.9,0.5-1.4,0.6c-0.6,0.2-1.3,0.4-2,0.4c-0.7,0-1.7,0.1-3,0.1
		c-1.3,0-2.4,0-3.2,0.1c-0.8,0.1-1.5,0.1-2.3,0.1c-0.8,0-1.6-0.1-2.4-0.4c-0.8-0.3-1.8-0.5-2.8-0.8c-1.1-0.3-2-0.5-2.9-0.6
		c-1.7-0.2-3.4-0.3-5.1-0.3c-2.5,0-4.4,0-5.5-0.1c-0.7,0-1.4,0-2.1,0c-0.3,0-0.5,0.1-0.8,0.2c-0.3,0.2-0.6,0.4-0.8,0.7
		c-0.2,0.2-0.4,0.5-0.5,0.8c-0.1,0.4-0.2,0.8-0.3,1.2c-0.1,0.7-0.1,1.4-0.2,2.1c0,0.8,0,1.9,0,3.4c0,1.5,0.1,2.2,0.3,2.2"/>
	<path class="st1" d="M541.8,250.8c-0.3-0.6-0.5-1.2-0.8-1.8"/>
	<path class="st2" d="M430.2,236.5c-0.2-0.1-0.2,0.1-0.1,0.4c0.2,0.5,0.3,0.9,0.4,1.4c0.1,1.3,0.2,2.5,0.2,3.8c0,1.9,0,3.3-0.1,4.3
		c-0.1,1-0.2,2.1-0.2,3.4c-0.1,1.3-0.1,2.4-0.1,3.5c0,1,0,2.5-0.1,4.3c-0.1,1.8-0.1,3.3-0.1,4.2s0,3.2,0,6.8c0,3.5,0,5.5,0,5.8
		c0,0.3-0.1,0.8-0.1,1.5c-0.1,0.6-0.2,1.3-0.2,2c-0.1,0.7-0.1,1.5-0.1,2.5c0,1,0,2.6,0,4.7c0,2.2,0,3.6,0,4.3c0,0.7,0,1.3,0,2
		c0,0.7,0,1.6,0,2.8c0,1.2,0.1,2.3,0.1,3.5c0.1,1.2,0.1,2,0.2,2.6c0.1,0.6,0.1,1.3,0.3,2.2c0.1,0.9,0.2,1.6,0.3,2.2
		c0,0.6,0.1,1.4,0.1,2.4c0,1,0,1.8,0.1,2.5c0,0.6,0.1,1.4,0.2,2.2c0.1,0.8,0.2,1.5,0.2,2c0,0.5,0.1,1.3,0.1,2.5
		c0.1,1.1,0.1,2.2,0.2,3.1c0.1,1,0.1,1.9,0.2,2.8s0.2,1.9,0.3,3c0.1,1,0.1,1.8,0.2,2.4c0,0.5,0.1,1.3,0.2,2.2
		c0.1,0.9,0.1,1.6,0.2,2.3c0,0.5,0,0.9-0.2,1.3c-0.1,0.3-0.2,0.4-0.3,0.3c-0.2-0.1-0.3-0.3-0.4-0.8"/>
	<path class="st2" d="M433.8,237c-0.3,0-0.6-0.1-0.9-0.2c-0.1-0.1-0.1-0.1-0.1-0.1l0.4,0c0.2,0,0.8,0,1.8,0c1,0,1.9,0,2.9,0.1
		c0.9,0,3.4,0.1,7.6,0.1c4.1,0,6.4,0,6.9,0.1c0.5,0.1,0.9,0.1,1.4,0.2c0.5,0.1,1.3,0.3,2.4,0.6c1,0.3,2,0.5,3,0.6
		c0.8,0.1,2.1,0.3,3.8,0.5c1.7,0.2,3,0.3,3.9,0.4c0.9,0.1,2.2,0.1,3.6,0.2c1.5,0,3.3,0,5.5,0c2.2,0,3.5,0,4,0c0.5,0,1.5-0.1,2.9-0.2
		c1.5-0.1,2.9-0.1,4.5-0.2c1.5,0,2.7,0,3.5,0.1c0.8,0.1,1.8,0.1,3.1,0.2c1.2,0.1,2.7,0.1,4.3,0.1c1.6,0,2.6,0,3,0
		c0.7-0.1,1.4-0.2,2.1-0.3c1-0.2,1.8-0.4,2.3-0.5s0.9-0.2,1.2-0.2c0.3,0,1.1-0.1,2.4-0.1c1.3,0,2.4,0,3.1,0.1
		c0.8,0.1,1.6,0.1,2.4,0.1c0.7,0,1.4,0,2.1-0.1c0.6-0.1,1.4-0.2,2.4-0.2c0.9-0.1,1.8-0.1,2.5-0.1c0.9,0,1.7,0.1,2.6,0.2
		c0.7,0.1,1.3,0.2,1.9,0.5c0.4,0.2,0.3,0.5-0.4,0.7"/>
	<path class="st2" d="M431.5,351.7c-0.2-0.7-0.5-1-0.7-0.9c-0.1,0-0.3,0.2-0.5,0.5c-0.2,0.3-0.4,0.7-0.5,1c-0.2,0.4-0.3,0.8-0.4,1.2
		c-0.2,0.6-0.3,1.2-0.3,1.8c-0.1,0.7-0.2,1.6-0.2,2.5c0,0.9-0.1,2.6-0.1,5c0,2.4,0,4.1,0,5.1c0,1,0.1,2.4,0.2,4.4
		c0.1,2,0.1,3.6,0.2,5c0,1.3,0.1,2.4,0.1,3.1c0,0.8,0.1,1.5,0.2,2.4c0.1,0.8,0.1,1.9,0.2,3.3c0.1,1.4,0.2,2.7,0.3,3.9
		c0.1,1.2,0.2,2.6,0.3,4.1c0.1,1.5,0.1,2.7,0.2,3.7c0,1,0,1.9,0,2.7c0,0.8,0,1.5,0,2c0,0.5,0.1,1.2,0.1,2c0.1,0.8,0.1,1.7,0.2,2.6
		c0.1,0.9,0.1,1.8,0.2,2.6c0.1,0.9,0.1,1.9,0.2,3.1c0,1.2,0,2.1,0,2.5c0,0.6,0.1,1.2,0.2,1.7c0.1,0.7,0.2,1.5,0.3,2.4
		s0.2,1.7,0.3,2.5c0.1,0.8,0.2,1.5,0.2,2.3c0,0.8,0.1,1.7,0.1,2.7c0,1,0,2.3-0.1,3.8c-0.1,1.5-0.1,2.7-0.2,3.5c0,0.8,0,1.5,0,2
		c0,0.5,0,1.1,0.1,1.7c0.1,0.6,0.1,1.5,0.1,2.6c0,1.1,0.1,2.1,0.1,2.8c0.1,0.8,0.1,1.4,0.1,1.9c0,0.5,0,1,0.1,1.6
		c0.1,0.5,0.1,0.9,0.1,1.1c0,0.2,0.2,0.3,0.4,0.2"/>
	<path class="st2" d="M433.3,450.8c0.1-0.4,0.3-0.8,0.6-1.1c0.1-0.1,0.3-0.2,0.5-0.3c0.1,0,0.3,0.1,0.5,0.3c0.2,0.2,0.5,0.4,0.8,0.6
		c0.4,0.2,0.7,0.4,1.2,0.5c0.4,0.1,0.9,0.2,1.3,0.2c0.4,0,0.9,0,1.4,0c0.6,0,1.3,0,1.9-0.1c0.7-0.1,1.6-0.2,2.7-0.4
		c1.1-0.2,2.1-0.4,2.9-0.5c0.8-0.2,1.5-0.3,2-0.3c0.6-0.1,1.3-0.1,1.9-0.1c0.8,0,1.4,0,2,0.1c0.5,0,1.1,0.1,1.6,0.2
		c0.6,0.1,1.2,0.2,2,0.2c0.8,0.1,2.4,0.2,4.9,0.3c2.4,0.1,4,0.2,4.7,0.2c0.7,0,1.2,0,1.6,0.1c0.4,0,1,0.1,1.8,0.1
		c0.9,0,1.6,0.1,2.1,0.1c0.5,0.1,1.5,0.2,2.9,0.4s2.7,0.4,3.8,0.6c1.1,0.2,2.3,0.5,3.4,0.7c1.1,0.3,2,0.5,2.7,0.6
		c0.6,0.1,1.1,0.2,1.4,0.3c0.3,0.1,0.8,0.1,1.6,0.1s1.7,0,2.8,0s2.6-0.1,4.2-0.2c1.6-0.1,2.9-0.2,3.7-0.2c0.8,0,1.6-0.1,2.3-0.2
		c0.7-0.1,1.4-0.2,2.1-0.3c0.7-0.1,1.4-0.3,2.2-0.5s1.3-0.4,1.6-0.4s1.3-0.1,3-0.1c1.7,0,2.7,0,3,0c0.4,0,0.8,0.1,1.2,0.2
		c0.5,0.1,1,0.2,1.4,0.3c0.6,0.1,1.2,0.1,1.8,0.1c0.8,0,1.5,0.1,2.3,0.1c0.7,0.1,1.4,0.1,2.1,0.2c0.7,0,1.3,0.1,1.8,0.1
		c0.6,0,1,0,1.4,0c0.5,0,1-0.1,1.4-0.3c0.6-0.2,1.2-0.6,1.6-1.1"/>
	<path class="st2" d="M529.8,350.7c0-0.3-0.1-0.4-0.5-0.5c-0.2-0.1-0.5,0-0.6,0.2c-0.2,0.5-0.3,1-0.3,1.5c-0.1,0.8-0.2,1.6-0.2,2.4
		c-0.1,0.8-0.1,1.8-0.1,2.9c0,1.1,0,2.4,0,4s0,2.9,0,3.9c0,1,0.1,2,0.1,3c0,1,0.1,1.7,0.1,2.1c0,0.4,0.1,1,0.2,1.9
		c0.1,0.8,0.2,1.6,0.2,2.5c0.1,0.8,0.1,1.7,0.2,2.6c0,0.9,0.1,2.5,0.1,4.7c0,2.2,0,4-0.1,5.5c-0.1,1.4-0.1,3-0.1,4.6
		c0,1.6,0,2.9,0,3.8s0.1,1.7,0.1,2.5c0.1,0.8,0.1,2,0.2,3.5c0.1,1.5,0.1,2.6,0.1,3.4c0,0.8,0.1,2,0.1,3.8c0,1.8,0,3.2-0.1,4.3
		c-0.1,1.1-0.1,2.2-0.2,3.3c-0.1,1.1-0.2,2.1-0.3,3c-0.1,0.9-0.2,1.9-0.3,2.9c-0.1,1-0.2,1.8-0.2,2.5c-0.1,0.7-0.1,1.4-0.1,2
		c0,0.6,0,1.5,0,2.6c0,1.1,0,1.9,0,2.5c0,0.6,0,2.1,0,4.4c0,2.4,0,3.9,0,4.7c0,0.8,0,2,0,3.9c0,1.8,0,2.8,0,3"/>
	<path class="st2" d="M530,237.9c-0.1-0.4-0.3-0.8-0.5-1.1c-0.2-0.2-0.4-0.4-0.7-0.6c-0.3-0.2-0.6-0.3-0.9-0.4
		c-0.3-0.1-0.5,0-0.7,0.2c-0.2,0.2-0.3,0.5-0.4,0.8c-0.1,0.5-0.2,0.9-0.2,1.4c0,0.6-0.1,1.4-0.1,2.3c0,0.9,0,4.3,0,10.1
		c0,5.8,0,9.3,0,10.5c0,1.2,0,2.9,0,5c0,2.1,0,3.4,0.1,3.9c0,0.5,0.1,1.2,0.2,2.1c0.1,0.9,0.1,1.7,0.2,2.5c0,0.8,0,2.4,0.1,4.7
		c0,2.3,0,3.7,0,4.2c0,0.5,0.1,1.1,0.2,1.9c0.1,0.8,0.2,1.5,0.2,2.1c0.1,0.7,0.1,1.5,0.2,2.5c0.1,1,0.1,2,0.1,2.8
		c0,0.8,0.1,1.9,0.1,3.2c0.1,1.3,0.2,2.3,0.2,3.1c0,0.8,0.1,1.5,0.1,2.2c0,0.7,0,2.1,0,4c0,2,0,3.4-0.1,4.4
		c-0.1,0.9-0.1,1.7-0.2,2.5c-0.1,0.7-0.1,1.3-0.2,1.9c0,0.6-0.1,1.2-0.1,2c0,0.8,0,2.1,0,3.8c0,1.8,0,3.6,0.1,5.4
		c0.1,1.8,0.2,3.1,0.2,3.9c0,0.8,0.1,1.9,0.1,3.3c0,1.4,0,2.3,0,2.6c0,0.4,0,0.9,0,1.6c0,0.7,0,1.1,0,1.2l0,0.2v0l0,0
		c0,0,0-0.4,0.1-1.2"/>
	<path class="st3" d="M667.1,350.4c-0.3-0.2-0.6-0.2-1-0.2c-0.2,0-0.3,0.2-0.4,0.6s-0.2,1.3-0.3,2.8c-0.1,1.5-0.2,2.9-0.3,4.1
		c0,1.3-0.1,3-0.1,5.4c0,2.3,0,4-0.1,5s-0.1,2-0.1,2.9c0,1,0,1.9,0.1,2.8s0.1,1.7,0.2,2.5c0.1,0.8,0.1,1.8,0.1,2.9
		c0,1.1,0,2.6,0,4.5c0,1.9,0,3.3,0,4c0,0.8,0,1.5,0,2.3c0,0.5,0,1-0.1,1.5c0,0.1-0.1,0.2-0.1,0.3c0,0,0.1-0.2,0.2-0.4"/>
	<path class="st3" d="M668.5,427.2c0-0.5-0.1-1.1-0.3-1.6c-0.1-0.3-0.2-0.6-0.4-0.9c-0.1-0.1-0.2-0.1-0.3,0.1
		c-0.2,0.5-0.3,1-0.4,1.5c-0.2,0.8-0.3,1.7-0.5,2.7c-0.2,1-0.3,1.8-0.4,2.4c-0.1,0.6-0.1,1.1-0.2,1.7c-0.1,0.6-0.1,1.5-0.2,2.7
		c-0.1,1.2-0.1,2.8-0.1,4.7c0,1.9,0,3.3,0.1,4.4c0.1,1.1,0.1,1.7,0.2,2c0,0.3,0,0.8,0,1.5c0,0.6,0,1.1-0.1,1.7
		c0,0.4-0.1,0.8-0.2,1.2c-0.1,0.4-0.2,0.6-0.2,0.6c0,0,0,0,0,0s0-0.2,0-0.5c0.1-0.6,0.3-1.1,0.7-1.5"/>
	<path class="st3" d="M668.3,467c-0.4-0.4-0.7-0.8-0.9-1.3c-0.1-0.1-0.1-0.2-0.1-0.4l0-0.1c0,0,0,0,0,0.1s0,0.4,0,0.9s0,1.2,0,2
		s0,1.8-0.1,3s-0.1,2.5-0.2,3.9s-0.2,3-0.4,4.9c-0.2,1.9-0.4,3.8-0.6,5.6c-0.2,1.9-0.3,3.2-0.3,4s0,1.8,0,2.9c0,1.1,0,1.9,0,2.2
		c0,0.6,0.1,1.1,0.2,1.7c0.1,0.8,0.2,1.5,0.3,2.1c0.1,0.6,0.1,1.4,0.1,2.3c0,0.9,0,2.1,0,3.4c0,0.9,0,1.8-0.1,2.7
		c-0.1,0.5-0.2,1-0.3,1.6c-0.1,0.5-0.2,1-0.3,1.4c-0.1,0.4-0.1,0.9-0.1,1.5s-0.1,1.4-0.1,2.4c0,0.9,0.1,1.5,0.4,1.6"/>
	<path class="st3" d="M667.5,557.6c-0.3-0.2-0.7-0.3-1-0.4c-0.1,0-0.2,0.1-0.3,0.3c-0.1,0.4-0.1,0.9-0.1,1.3c0,0.7,0,1.6,0.1,2.9
		c0,1.3,0.1,2.3,0.1,3c0,0.7,0.1,1.4,0.2,2c0.1,0.6,0.1,1.2,0.2,1.8c0.1,0.4,0.2,0.9,0.3,1.3c0.1,0.3,0.2,0.5,0.4,0.8
		c0.2,0.3,0.6,0.4,0.9,0.4"/>
	<path class="st3" d="M666.9,568.9l-0.3-0.2c0,0,0,0,0.1,0l0.7,0c0.6,0.1,1.3,0.1,1.9,0.3c0.9,0.2,1.8,0.3,2.6,0.4
		c0.8,0.1,1.8,0.2,3,0.3c1.2,0.1,2.1,0.1,2.7,0.2c0.6,0,1.2,0,1.8,0.1c0.6,0,1.4,0.1,2.3,0.2s2.3,0.3,3.9,0.6
		c1.6,0.3,2.8,0.5,3.5,0.6c0.7,0.1,1.5,0.2,2.3,0.3c0.7,0,1.8,0.1,3,0.1c1.3,0,2.1,0,2.4,0c0.4,0,0.8-0.1,1.4-0.1
		c0.6-0.1,1.4-0.1,2.5-0.2c1-0.1,2.2-0.2,3.5-0.3s2.5-0.2,3.6-0.3c1.1-0.1,2-0.2,2.5-0.2c0.6-0.1,1.3-0.2,2.3-0.3
		c0.9-0.2,1.7-0.3,2.3-0.4c1.2-0.2,2.5-0.2,3.7-0.2c1.9,0,3.2,0,4-0.1c0.8,0,1.5-0.1,2.2-0.1c0.7,0,2.6,0,5.8,0c3.2,0,5.1,0,5.7-0.1
		c0.5,0,1.1-0.1,1.7-0.1c0.6-0.1,1.2-0.1,1.9-0.2c0.6-0.1,1.3-0.1,1.9-0.2s1.1-0.1,1.6-0.1c0.4,0,0.8-0.1,1.1-0.1
		c0.5,0,1.1-0.1,1.6-0.1c0.8,0,1.4,0,1.8-0.1c0.4,0,0.9-0.1,1.5-0.2c0.7-0.1,1.3-0.2,1.9-0.3c0.6-0.1,1.2-0.1,1.8,0"/>
	<path class="st3" d="M762,470.8c0-0.5,0.1-1,0.2-1.5c0.1-0.3,0.1-0.7,0.2-1.1c0-0.2-0.1-0.4-0.3-0.5c-0.2-0.1-0.4-0.1-0.6-0.1
		c-0.2,0-0.3,0.2-0.4,0.4c-0.1,0.4-0.2,0.8-0.2,1.2c0,0.6-0.1,1.6-0.1,3.2c0,1.6,0,2.7,0,3.2c0,0.6,0.1,1.4,0.2,2.6
		c0.1,1.1,0.2,2.6,0.3,4.5c0.1,1.8,0.2,3.3,0.3,4.3c0.1,1,0.1,2.3,0.2,3.9c0.1,1.6,0.1,2.9,0.2,3.9c0,1,0.1,2,0.1,3
		c0,1,0,5.1,0,12.4c0,7.3,0,11.2,0,11.6c0,0.4-0.1,1.2-0.2,2.4c-0.1,1.2-0.2,2.2-0.3,3c-0.1,0.9-0.1,1.7-0.2,2.4
		c0,0.7-0.1,1.4-0.1,2.1c0,0.6,0,3.3,0,7.9c0,4.7,0,7.2,0,7.5c0,0.4,0.1,0.9,0.1,1.5c0.1,0.7,0.2,1.5,0.2,2.5c0.1,1,0.1,2.2,0.1,3.6
		c0,1.3,0,2.7-0.2,4c-0.1,1.3-0.2,2.2-0.3,2.7c-0.1,0.9-0.1,1.9-0.1,2.8c0,0.8,0,1.7,0.1,2.5c0.1,0.3-0.2,0.5-0.6,0.5
		c-0.6,0-1.3-0.1-1.9-0.4c-0.8-0.2-1.3-0.4-1.6-0.5c-0.6-0.3-1.2-0.7-1.7-1.2"/>
	<path class="st3" d="M760.3,352.5c-0.1-0.9,0-1.3,0.2-1.3c0.2,0,0.4,0.1,0.5,0.3c0.2,0.3,0.4,0.6,0.5,0.9c0.2,0.4,0.3,0.8,0.4,1.2
		c0.1,0.5,0.2,1,0.3,1.5c0.1,0.6,0.1,1.3,0.2,2.3c0,0.9,0.1,2,0.1,3.2c0,1.3,0,2.6,0,4c0,1.4,0,2.6,0,3.6c0,1,0,2.9,0,5.8
		c0,2.9,0,4.6,0,5.3c0,0.6-0.1,2-0.2,4c-0.1,2-0.2,4-0.4,5.9c-0.1,1.9-0.3,3.8-0.4,5.5s-0.2,3.2-0.2,4.3c0,1.1-0.1,2.2-0.1,3.2
		c0,1-0.1,2-0.1,3c0,1-0.1,2-0.1,2.9s0,2-0.1,3.1c0,1.1-0.1,1.9-0.1,2.5c0,0.5-0.1,1.2-0.2,1.9c-0.1,0.7-0.2,1.3-0.2,1.7
		c0,0.4-0.1,1.1-0.2,1.9c-0.1,0.8-0.2,1.5-0.2,1.9c0,0.4,0,1,0,1.7c0,0.7,0,1.4-0.1,2c-0.1,0.6-0.2,1.4-0.3,2.5
		c-0.1,1.1-0.3,1.9-0.3,2.4c-0.1,0.5-0.1,1.2-0.2,1.9c-0.1,0.8-0.2,1.4-0.2,1.8c0,0.5-0.1,1.4-0.1,2.7c0,1.3,0,2.3,0.1,3.1
		c0,0.8,0.1,1.5,0.2,2.2c0.1,0.7,0.2,1.3,0.2,1.6c0.1,0.4,0.2,1.1,0.3,2.1c0.1,1,0.2,1.8,0.3,2.2c0,0.4,0,0.9,0,1.5
		c0,0.3,0,0.6-0.1,0.9c-0.1,0.1-0.2,0-0.4-0.4"/>
	<path class="st3" d="M668.9,350.8c-0.2-0.2-0.3-0.5-0.4-0.8c0-0.2,0.1-0.3,0.4-0.4c0.5-0.1,0.9-0.2,1.4-0.2
		c0.7-0.1,1.5-0.1,2.2-0.1c0.6,0,1.2,0,1.8,0.1c0.4,0.1,1.2,0.2,2.4,0.5s2.3,0.5,3,0.7c0.8,0.2,1.6,0.3,2.4,0.4
		c0.8,0.1,1.7,0.2,2.7,0.3c1,0.1,1.8,0.2,2.5,0.3s1.2,0.2,1.5,0.2c0.3,0.1,0.6,0.2,0.9,0.3c0.6,0.2,1.3,0.2,2,0"/>
	<path class="st3" d="M747.1,350.1l-1.1,0.2c0,0-0.1,0,0,0c0,0,0.1-0.1,0.3-0.2c0.2-0.1,0.3-0.2,0.5-0.3c0.3-0.1,0.6-0.1,1-0.1
		c0.7,0,1.4,0.1,2,0.3c0.9,0.2,1.8,0.4,2.8,0.6s1.8,0.4,2.5,0.5c0.7,0.1,1.6,0.2,2.8,0.3c1.1,0.1,1.9,0.2,2.3,0.2
		c0.5,0,1,0.2,1.4,0.5"/>
	<path class="st4" d="M546.9,350.5c0.2-0.1,0.8,0,1.7,0.3c0.6,0.2,1.2,0.4,1.9,0.6c0.7,0.2,1.4,0.4,2.2,0.5c0.8,0.2,1.8,0.3,3,0.5
		s2.4,0.3,3.6,0.4c1.2,0.1,2.4,0.2,3.8,0.3s2.4,0.2,3.1,0.3c0.7,0.1,1.4,0.2,2,0.3c0.6,0.1,1.1,0.2,1.4,0.3c0.4,0.1,0.8,0.1,1.2,0.2
		c0.6,0.1,1.2,0.1,1.8,0.1c0.8,0,1.5,0,2.3-0.2"/>
	<path class="st4" d="M612,352c-0.1-0.5,0-0.8,0.2-0.9c0.3-0.1,0.5-0.2,0.8-0.2c0.4,0,1.3-0.1,2.6-0.1c1.3,0,2.4,0,3.2,0
		c0.8,0,1.6,0.1,2.4,0.1c0.8,0.1,1.6,0.1,2.4,0.2c0.8,0.1,1.9,0.2,3.5,0.3s2.7,0.2,3.4,0.3c0.7,0.1,1.9,0.1,3.4,0.2
		c1.5,0.1,2.7,0.1,3.7,0.1c0.9,0,1.6,0,2,0c0.4,0,0.8,0,1.1-0.1c1-0.3,2-0.7,3-1.2"/>
	<path class="st4" d="M646.7,350.2c-0.1-0.8-0.1-1.6,0.1-2.4c0.1-0.2,0.2-0.4,0.4-0.6c0.1-0.2,0.3-0.3,0.6-0.3
		c0.2-0.1,0.4,0,0.4,0.2c0,0.2,0.1,0.4,0.1,0.7c0,0.4-0.1,0.8-0.2,1.2c-0.1,0.4-0.1,0.8-0.2,1.3c0,0.3,0,0.4,0,0.5v0v0l0-0.2
		c0-0.1-0.1-0.1-0.2-0.1c-0.1,0-0.2,0.2-0.3,0.6c-0.1,0.5-0.2,0.9-0.2,1.4c0,0.6-0.1,1.6-0.1,3c0,1.4,0,3.5,0,6.2c0,2.7,0,4.4,0,4.8
		c0,0.5,0,1.1,0.1,1.9c0,0.8,0.1,1.6,0.1,2.5c0,0.9,0.1,1.7,0.1,2.6c0,0.9,0.1,1.7,0.1,2.4c0.1,0.7,0.1,1.5,0.2,2.2
		c0.1,0.7,0.1,1.5,0.2,2.2c0,0.8,0.1,1.7,0.1,2.8c0,1-0.1,2-0.2,3c-0.1,0.9-0.2,1.7-0.3,2.2c0,0.6,0,2.4,0,5.4c0,3,0,5.1,0,6.2
		s0,2,0,2.7c0,0.7,0.1,1.5,0.1,2.2s0.2,1.9,0.3,3.6c0.2,1.7,0.3,2.9,0.4,3.8c0.1,0.8,0.1,1.4,0.2,1.8c0.1,0.4,0.1,1,0.2,1.9
		c0.1,0.9,0.1,1.7,0.2,2.6c0,0.8,0.1,1.8,0.2,2.9c0.1,1.1,0.2,2,0.2,2.8c0,0.7,0,2.7,0,6c0,3.2,0,5.2,0,6c0,0.7,0,1.8,0,3.3
		c0,1.5,0,2.6-0.1,3.3c0,0.7-0.1,1.6-0.2,2.7c-0.1,1.1-0.2,1.9-0.2,2.4c0,0.5,0.1,0.8,0.4,0.8"/>
	<path class="st4" d="M648.5,469.1c-0.2-0.6-0.3-1.1-0.3-1.7c0-0.5,0-0.9,0.1-1.4c0-0.3,0.1-0.6,0.1-0.9l0.1-0.2c0,0,0,0,0,0.1
		c0,0.1,0,0.3,0,0.9s0,1-0.1,1.4c0,0.4-0.1,1.2-0.2,2.3c-0.1,1.1-0.1,2-0.1,2.6s-0.1,1.7-0.1,3.2s-0.1,2.6-0.1,3.4
		c0,0.8-0.1,2-0.2,3.7c-0.1,1.7-0.2,3.3-0.4,4.7s-0.2,2.9-0.2,4.3c0,1.4,0,3.1,0,5c0,1.9,0,4.1-0.1,6.4c0,2.4-0.1,4.4-0.1,6.1
		s0,3,0,3.9c0,0.9,0,2,0,3.2c0,1.2,0,2.7,0.1,4.3c0.1,1.6,0.1,3,0.2,4.1c0.1,1.1,0.2,2.5,0.3,4.3c0.2,1.8,0.3,3.1,0.3,4
		c0.1,0.9,0.1,1.9,0.1,3.1c0,1.2,0,2.2-0.1,3.1c-0.1,0.8-0.1,1.7-0.1,2.7c0,0.9,0,2.1,0.1,3.4c0.1,1.3,0.1,2.4,0.1,3.3
		c0,0.9,0,1.9,0,2.9c0,1,0,2.7,0,5.1c0,2.4,0,3.7,0,3.9c0,0.2-0.1,0.4-0.2,0.6c-0.1,0.2-0.2,0.2-0.3,0"/>
	<path class="st4" d="M499.1,350.7c-0.2-0.2-0.5-0.3-0.7-0.3c-0.1,0-0.1,0.1-0.1,0.2c0.2,0.2,0.4,0.4,0.6,0.4
		c0.5,0.2,0.9,0.3,1.4,0.4c0.6,0.1,1.1,0.2,1.5,0.3s0.8,0.1,1.2,0.1c0.4,0,1.5,0,3.4,0c1.8,0,3,0,3.6,0c0.6,0,1.8,0,3.6,0
		c1.9,0,2.9,0,3.2,0c0.3,0,0.7,0.1,1.2,0.1c0.5,0.1,1.1,0.2,1.6,0.3c0.5,0.1,1.1,0.3,1.9,0.5s1.2,0.4,1.5,0.4
		c0.2,0.1,0.5,0.1,0.8,0.1c0.3,0,0.7-0.1,0.9-0.4"/>
	<path class="st4" d="M434.9,350.7l-0.8,0.1c0.1,0,0.2,0,0.3,0l4.5,0c2.8,0,4.5,0,5,0c0.6,0,1.2,0,1.8,0.1c0.6,0,1.8,0.1,3.4,0.2
		c1.6,0.1,2.9,0.2,3.9,0.2s2.6,0,5,0c2.4,0,3.9,0,4.6,0.1c0.7,0.1,1.3,0.2,1.9,0.3c0.4,0.1,0.8,0.2,1.2,0.4"/>
	<path class="st4" d="M429.7,468.1c0-0.2,0-0.5-0.1-0.7l-0.1-0.2c0,0,0,0,0,0.1s0,0.4,0.1,0.7c0,0.4,0.1,1,0.2,1.8
		c0.1,0.8,0.2,1.8,0.2,3c0.1,1.2,0.1,2.9,0.1,5.2s0,4-0.1,5c0,1-0.1,1.9-0.1,2.7c0,0.8,0,2.4,0,4.7c0,2.3,0,4-0.1,5.1
		s-0.1,2.3-0.1,3.5c0,1.2,0,2.8,0,4.8c0,2,0,3.4,0.1,4.1s0.1,1.5,0.2,2.2c0.1,0.7,0.2,1.3,0.3,1.9c0.1,0.6,0.2,1.2,0.3,1.9
		c0.1,0.7,0.1,1.4,0.2,2.2c0,0.8,0.1,2,0.2,3.6c0.1,1.6,0.1,3.2,0.2,4.6c0,1.4,0.1,2.5,0.1,3.3s0.1,1.6,0.1,2.6c0,1,0.1,3.8,0.1,8.3
		c0,4.5,0,7.6-0.1,9.3c-0.1,1.6-0.2,2.7-0.2,3.3c0,0.5-0.1,1-0.2,1.4c-0.1,0.5-0.2,0.9-0.3,1.4c-0.1,0.5-0.2,1.1-0.3,1.6
		c-0.1,0.8-0.1,1.6-0.1,2.5c0,0.8,0,1.6,0.1,2.3c0.1,0.5,0.2,1.4,0.5,2.8c0.3,1.3,0.4,2.2,0.5,2.6c0.1,0.4,0.2,0.7,0.2,0.9
		c0.1,0.2,0.1,0.2,0.1,0.1c0-0.2,0.2-0.7,0.4-1.5"/>
	<path class="st4" d="M437.2,352.9c-0.3,0.8-0.4,1.7-0.5,2.6c-0.1,0.7-0.2,1.6-0.4,2.6c-0.2,1-0.3,2.1-0.5,3.1
		c-0.2,1.1-0.3,1.9-0.4,2.5c-0.1,0.6-0.1,1.2-0.2,1.7c0,0.5-0.1,1.3-0.1,2.4c0,1.1,0,2.1,0,3c0,0.9,0,2,0,3.2c0,1.2,0,2.5,0,4
		c0,1.4,0,3.1,0.1,5c0.1,1.9,0.1,3.7,0.2,5.5c0.1,1.8,0.1,3,0.2,3.9c0,0.8,0,1.8,0,3c0,1.2,0,2.1,0,2.9s0.1,1.6,0.2,2.3
		c0.1,0.8,0.2,1.6,0.4,2.5c0.2,0.9,0.3,1.6,0.4,2.2c0.1,0.6,0.2,1.3,0.3,2.2c0.1,0.9,0.2,1.8,0.3,2.7c0.1,0.9,0.2,1.7,0.3,2.5
		c0.1,0.7,0.2,1.4,0.2,2.1c0.1,0.7,0.1,2.1,0.1,4.5s0,3.9,0,4.6c0,0.8,0,1.8,0,3c0,1.2,0,2.3,0,3.2c0,0.9,0.1,1.6,0.1,2
		c0,0.4,0.1,1,0.2,1.6c0.1,0.7,0.2,1.2,0.3,1.7c0.1,0.5,0.1,1.2,0.2,2.1c0.1,0.9,0.1,1.8,0.1,2.8c0,0.7,0,1.4-0.1,2.1
		c-0.1,0.3-0.1,0.7-0.1,1c0,0.4,0.2,0.7,0.5,0.8"/>
	<path class="st4" d="M432.8,566.3c-0.2-0.3-0.4-0.5-0.5-0.8c0-0.1-0.1-0.1-0.1-0.1c-0.1,0.1-0.1,0.3-0.1,0.4c0,0.2,0.2,0.5,0.4,0.6
		c0.4,0.2,0.9,0.4,1.4,0.5c0.7,0.2,1.4,0.4,2.2,0.6c0.8,0.2,1.6,0.4,2.5,0.5c0.9,0.2,1.7,0.3,2.5,0.4c0.9,0.1,1.8,0.2,2.7,0.2
		c1,0,1.8,0,2.2,0c0.4,0,1.2-0.1,2.3-0.3c1.2-0.2,2-0.3,2.6-0.4c0.6-0.1,1.1-0.2,1.6-0.3c0.5-0.1,1-0.1,1.6-0.1
		c0.5,0,1.5-0.1,2.9-0.1c1.4,0,2.3,0,2.9-0.1c0.5-0.1,1.2-0.2,2.2-0.4c0.9-0.2,1.9-0.3,2.7-0.4c0.9-0.1,1.7-0.2,2.5-0.2
		c0.8,0,2.2-0.1,4-0.1c1.8,0,3.9-0.1,6.3-0.1c2.4,0,4.1,0,5.2,0s2.6,0.1,4.3,0.1c1.7,0,3.1,0.1,4,0.1c0.9,0,1.7,0,2.2,0
		c0.5,0,1.1-0.1,1.6-0.1c0.5-0.1,1.3-0.2,2.5-0.5c1.2-0.3,2-0.5,2.4-0.6c0.5-0.1,0.9-0.2,1.4-0.2c0.5-0.1,1.5-0.1,2.9-0.1
		c1.4,0,2.9,0,4.2,0.1c1.4,0.1,2.7,0.1,3.9,0.2c1.2,0,2,0,2.3,0c0.3,0,0.8,0,1.3-0.1s1.2-0.1,1.9-0.1c0.7,0,1.2,0,1.6,0
		c0.4,0,1,0.1,1.8,0.2s1.6,0.2,2.3,0.4c0.7,0.1,1.5,0.3,2.2,0.4c0.6,0.1,1.2,0.2,1.9,0.3c0.5,0,1.2,0.1,2.1,0.1c0.9,0,2.6,0,5,0
		c2.4,0,4,0,4.8,0c0.8,0,1.5,0.1,2.3,0.2c0.7,0.1,1.4,0.2,2,0.3c0.6,0.1,1.4,0.1,2.2,0.2c0.8,0.1,1.7,0.1,2.6,0.2
		c0.9,0.1,1.7,0.2,2.4,0.3c0.7,0.1,1.3,0.2,1.6,0.2c0.3,0,1.1,0,2.3,0c1.2,0,2,0,2.4,0c0.5,0,1.1-0.1,2-0.1c0.9-0.1,1.5-0.1,1.9-0.2
		c0.4,0,1.4-0.1,3-0.1c1.6,0,3,0,4.1,0c1.1,0,2.3,0.1,3.4,0.1c1.2,0,2.5,0.1,3.9,0.2c1.4,0.1,2.6,0.2,3.7,0.3
		c1.1,0.1,2.2,0.2,3.4,0.3c1.2,0.1,2,0.2,2.6,0.2c0.6,0,1.1,0.1,1.6,0.1c0.5,0,1.5,0,3.1,0c1.6,0,2.7,0,3.3-0.1s1.2-0.1,1.8-0.1
		c0.5-0.1,1.8-0.2,3.9-0.6s3.4-0.5,4.2-0.6c0.7-0.1,1.4-0.2,1.9-0.3c0.6-0.1,1.1-0.2,1.5-0.3c0.5-0.1,1-0.2,1.5-0.3
		c0.5-0.1,1.2-0.1,1.8-0.2c0.7,0,1.5-0.1,2.5-0.1c1,0,2.4,0,4.4,0c2,0,3.4,0,4.4-0.1c0.9,0,1.9-0.1,2.9-0.1c0.8,0,1.6,0,2.4,0.1
		c0.6,0.1,1.3,0.2,2.1,0.4c0.8,0.2,1.6,0.3,2.4,0.4c0.8,0.1,1.6,0.3,2.2,0.3c0.6,0.1,1.4,0.2,2.4,0.2c1,0.1,1.8,0.2,2.6,0.2
		s1.5,0.2,2.3,0.3c0.7,0.1,1.5,0.1,2.2,0.2c0.7,0,1.1,0,1.2,0c0.2,0,0.3-0.1,0.5-0.2c0.2-0.1,0.4-0.2,0.7-0.2c0.3,0,0.8,0,1.7,0
		c0.5,0.1,1.1,0,1.6-0.3c0.3-0.3,0.5-0.6,0.7-0.9c0.2-0.3,0.5-0.7,0.6-1.1c0.1-0.2,0.2-0.4,0.2-0.7c0-0.2,0-0.3,0-0.5
		c-0.1-0.2-0.2-0.4-0.4-0.5c-0.3-0.3-0.6-0.5-1-0.7c-0.6-0.4-2.3-1.1-5.1-2.3"/>
	<path class="st5" d="M545.9,234.6c-0.4,0-0.5,0.3-0.3,1c0.1,0.7,0.2,1.3,0.3,2c0.1,0.6,0.2,1.4,0.2,2.2s0.2,2,0.4,3.6
		c0.2,1.6,0.3,2.9,0.4,3.8c0.1,0.9,0.1,1.8,0.1,2.6c0,0.7,0,1.4-0.1,2.2c-0.1,0.6-0.1,1.2-0.2,1.7c-0.1,0.5-0.2,1.6-0.3,3
		c-0.1,1.5-0.2,2.5-0.2,3.1c0,0.6-0.1,1.1-0.2,1.7c-0.1,0.5-0.2,1-0.2,1.5c0,0.4,0,1.7,0,3.9c0,2.1,0,3.3,0.1,3.6
		c0,0.3,0.3,0.6,0.6,0.7"/>
	<path class="st5" d="M548,309.1c-0.1-0.3-0.3-0.6-0.4-0.9c-0.1-0.1-0.1-0.2-0.1-0.2c0,0,0,0.1,0,0.3s0,0.9,0,2c0,1.1,0,2.1,0,3.1
		c0,1,0,2.4,0,4.3c0,1.9,0,3.4,0,4.6c0,1.2,0,2.8,0,5c0.1,1.2,0,2.4-0.1,3.6c-0.1,0.2-0.1,0.5-0.1,0.7c0,0.4,0.2,0.6,0.7,0.7"/>
	<path class="st5" d="M551.8,349.7c-0.4-0.1-0.7-0.2-1.1-0.3c-0.2,0-0.4,0.1-0.5,0.2c-0.3,0.3-0.4,0.6-0.6,0.9
		c-0.2,0.4-0.3,0.9-0.4,1.4c-0.1,0.8-0.1,1.7-0.1,2.5c0,1.3,0,2.2,0,2.8c0,0.6,0,1.5,0.1,2.7c0.1,1.2,0.1,2.3,0.2,3.3
		c0,1,0.1,2,0.1,3c0,1,0,1.7,0,2.2s-0.1,1.3-0.3,2.5c-0.1,1.2-0.2,2.2-0.3,3c-0.1,0.8-0.1,1.8-0.1,2.9c0,1.1,0,2.3,0,3.5
		c0,1.2,0,2.1,0,2.6c0,0.5-0.1,1.1-0.2,2c-0.1,0.8-0.2,1.5-0.3,1.9c-0.1,0.4-0.2,0.8-0.2,1.1c-0.1,0.5-0.2,1-0.2,1.5
		c-0.1,0.7-0.1,1.3-0.2,1.9c-0.1,0.5-0.1,1.3-0.2,2.3c0,1-0.1,1.7-0.1,2.2c0,0.5,0.2,0.7,0.6,0.6"/>
	<path class="st5" d="M549.5,436.5l-0.2-0.3c0,0,0,0.1,0,0.3c0,0.2,0,0.7,0,1.6c0,0.8-0.1,2.3-0.3,4.3c-0.2,2-0.3,3.3-0.3,3.8
		c0,0.6-0.1,1.3-0.1,2.2c0,0.6,0,1.1,0,1.7c0.1,0.4,0.3,0.7,0.7,0.8"/>
	<path class="st5" d="M551.8,451.5c-0.6-0.1-1.2-0.3-1.7-0.6c-0.2-0.1-0.4-0.3-0.5-0.6c0-0.2,0-0.3,0.1-0.4c0.1-0.1,0.2-0.1,0.4-0.1
		c0.3,0,0.5,0.1,0.7,0.2c0.4,0.2,0.9,0.3,1.3,0.4c0.6,0.2,1,0.3,1.4,0.3c0.6,0.1,1.1,0.1,1.7,0.2c0.7,0,1.7,0.1,3,0.1
		c1.3,0,2.4,0,3.3,0c0.9,0,1.6,0,2-0.1c0.4,0,0.9-0.1,1.5-0.2c0.5-0.1,1-0.2,1.4-0.2c0.4-0.1,0.9-0.1,1.6-0.1s1.6-0.1,2.9-0.1
		s2.1,0,2.6-0.1c0.4,0,1.1-0.1,1.9-0.1c0.8,0,1.5,0,1.9,0.1c0.5,0,0.9,0.1,1.4,0.1c0.5,0,0.9,0,1.3,0c0.4,0,0.9,0,1.6,0
		c0.5,0,0.9,0,1.4-0.1c0.2,0,0.3,0,0.4,0.2"/>
	<path class="st5" d="M612.7,449.5h-2c0,0,0,0,0,0l0.6,0.1c0.4,0,1.1,0.2,2.2,0.4c1.1,0.2,1.9,0.4,2.4,0.5c0.5,0.1,1,0.2,1.4,0.2
		c0.4,0,0.9,0.1,1.4,0.1c0.5,0,1.4,0,2.6,0s2.1,0,2.6,0c0.5,0,1.3-0.1,2.2-0.2c0.9-0.1,1.6-0.2,2.1-0.2c0.4,0,0.9-0.1,1.5-0.1
		c0.5,0,1.6-0.1,3.4-0.1c1.7,0,2.9,0,3.7,0c0.7,0,1.6,0.1,2.5,0.1c0.9,0,1.6,0,1.8,0c0.5,0,1-0.1,1.4-0.2c0.7-0.1,1.4-0.3,2.1-0.5
		c0.7-0.2,1.4-0.4,2.1-0.5c0.7-0.1,1.3-0.2,2-0.3c0.6-0.1,0.9,0,0.7,0.3"/>
	<path class="st5" d="M670.7,450.6c-0.3,0-0.5-0.1-0.8-0.3c-0.1-0.1-0.2-0.3-0.2-0.4c0-0.2,0.1-0.3,0.5-0.3c0.5,0,1,0,1.5,0.1
		c0.6,0.1,1.3,0.2,2.1,0.2c0.8,0.1,1.5,0.1,2.1,0.1c0.6,0,2.9,0,6.7,0c3.9,0,6,0,6.5,0.1c0.5,0.1,0.9,0.1,1.3,0.2
		c0.4,0.1,0.9,0.2,1.3,0.2c0.5,0,2.2,0.1,5.3,0.1c3,0,4.9,0,5.6-0.1c0.7,0,1.5-0.1,2.3-0.1c0.8,0,1.8-0.1,3-0.1
		c1.2-0.1,3.2-0.1,6.1-0.1c2.9,0,4.7,0,5.4-0.1c0.7,0,1.3-0.1,1.9-0.1c0.6,0,2.8,0,6.7,0c3.9,0,6,0,6.3,0c0.3,0.1,0.7,0.1,1,0.2
		c0.5,0.1,1,0.2,1.5,0.3c0.6,0.1,1.6,0.1,3.2,0.1c1.5,0,2.6,0,3.2,0c0.5,0,1,0.1,1.5,0.3c0.4,0.2,0.7,0.4,1.1,0.6
		c0.4,0.2,0.9,0.3,1.3,0.4c0.5,0.1,0.9,0.1,1.4,0.2c0.4,0,1.6,0,3.5,0c1.9,0,3,0,3.3,0c0.5,0.1,1,0.1,1.5,0.2c0.8,0.1,1,0.3,0.8,0.4
		"/>
	<path class="st5" d="M585.2,451.4c-0.8-0.3-1.2-0.6-1.3-0.8c-0.1-0.1-0.1-0.3,0-0.5c0.2-0.2,0.4-0.4,0.7-0.5
		c0.3-0.2,0.7-0.3,1.1-0.4c0.4-0.1,0.8-0.2,1.3-0.2c0.5-0.1,1-0.1,1.6-0.1c0.6,0,1.7-0.1,3.5-0.1c1.8,0,3.2,0,4.2,0.1
		c1.1,0.1,2.6,0.2,4.7,0.4c2.1,0.2,3.6,0.3,4.5,0.4c1.4,0.2,2.9,0.5,4.2,0.9"/>
	<path class="st5" d="M546.5,235.5c0.4-0.1,0.8,0,1.2,0.1c0.4,0.1,1.4,0.3,2.8,0.6s2.5,0.5,3.3,0.7c0.8,0.1,1.4,0.3,1.9,0.3
		c0.5,0.1,1.4,0.2,2.9,0.3c1.5,0.1,2.6,0.2,3.3,0.3c0.7,0.1,1.6,0.2,2.7,0.3c1.1,0.1,2,0.3,2.8,0.4c0.8,0.1,1.5,0.2,2.2,0.2
		c0.7,0,1.8,0.1,3.3,0.1c1.6,0,2.7,0,3.2,0c0.6,0,1.1-0.1,1.5-0.1c0.4,0,0.9-0.1,1.4-0.2c0.5-0.1,1-0.2,1.5-0.3
		c0.4-0.1,0.9-0.2,1.3-0.2c0.5,0,1.4,0,2.8,0s2.4,0,2.8-0.1c0.9-0.1,1.9-0.3,2.8-0.5c1.4-0.3,2.5-0.5,3.4-0.6
		c0.9-0.1,1.7-0.2,2.4-0.3c0.7,0,1.3-0.1,1.9-0.1c0.6,0,1.2,0,1.8,0c0.6,0,1.7,0,3.1,0.1c1.4,0.1,2.7,0.1,4,0.2
		c1.3,0.1,2.6,0.1,3.9,0.1c1.3,0,2.4,0,3.1,0.1c0.7,0,2,0,3.8,0.1c1.8,0,3,0,3.6,0c0.6,0,1.6-0.1,2.9-0.2c1.3-0.1,2.4-0.2,3.1-0.2
		c0.7,0,1.7,0,2.8,0c1.1,0,2.2,0,3.2,0c1,0,2.7,0,5.2,0c2.4,0,3.8,0,4.3,0c0.4,0,1.2,0.1,2.2,0.3c1,0.1,1.8,0.2,2.2,0.3
		c0.4,0,1.1,0.1,2.1,0.1s1.7,0.1,2.1,0.1c0.4,0,0.9,0,1.3,0c0.4,0,1.4,0,2.9,0c1.5,0,3,0,4.4,0.1c1.4,0.1,2.3,0.1,2.6,0.1
		c0.4,0,0.8,0.1,1.2,0.1c0.5,0.1,1.2,0.1,2.3,0.2c1.1,0.1,1.9,0.1,2.5,0.2c0.6,0,1.4,0.1,2.2,0.2s1.8,0.2,2.7,0.3
		c0.9,0.1,1.6,0.2,2.2,0.3c0.5,0.1,1.6,0.1,3.1,0.2c1.6,0.1,3.1,0.2,4.5,0.2c1.4,0,2.6,0.1,3.6,0.1c1,0,1.9,0,2.7,0s1.7,0,2.6,0
		c0.9,0,2.2-0.1,3.7-0.2c1.6-0.1,2.8-0.2,3.6-0.2c0.9,0,1.7-0.1,2.6-0.1s2.2,0,4.1,0s3.9,0,6.2,0.1s4.3,0.1,6,0.1
		c1.7,0,3.2,0,4.3-0.1s2.1-0.1,3-0.2c0.9-0.1,1.7-0.2,2.5-0.2c0.8-0.1,1.8-0.1,3-0.2s2.2-0.1,2.8-0.1s1.4,0,2.3-0.1s1.7-0.1,2.5-0.1
		s2.1,0,3.8,0s3.2,0,4.5,0c1.3,0,2.8,0,4.5,0c1.7,0,3,0,3.9,0.1c1,0.1,1.6,0.1,2,0.2c0.4,0.1,0.9,0.1,1.5,0.2
		c0.7,0.1,1.2,0.1,1.6,0.1c0.4,0,0.6,0,0.7,0"/>
	<path class="st5" d="M761.2,234.9c0-0.3-0.1-0.4-0.1-0.4c0,0-0.1,0.2-0.2,0.3c-0.1,0.3-0.2,0.6-0.2,1c-0.1,0.5-0.1,1.5-0.1,3.2
		s0,3,0.1,4c0.1,1,0.2,2.1,0.3,3.2c0.1,1.1,0.3,2.2,0.4,3.2c0.1,1,0.2,2.2,0.3,3.5c0.1,1.3,0.2,2.1,0.2,2.6c0,0.4,0.1,1,0.2,1.8
		s0.2,1.3,0.3,1.7c0.1,0.4,0.2,0.9,0.4,1.7c0.2,0.8,0.3,1.4,0.4,1.9c0.1,0.5,0.1,1,0.2,1.5c0,0.5,0,1.3,0,2.1c0,0.7,0,1.4-0.1,2.1
		c-0.1,0.6-0.1,1.1-0.2,1.6c-0.1,0.5-0.2,1.1-0.3,1.6c-0.1,0.5-0.1,1.1-0.2,1.7c0,0.6-0.1,1.4-0.1,2.3c0,0.9,0,1.9-0.1,2.8
		c0,0.9-0.1,1.7-0.1,2.3c0,0.6-0.1,1.6-0.1,3.1c0,1.5-0.1,2.7-0.1,3.8c0,1.1-0.1,2.1-0.1,3.2c-0.1,1-0.1,2.1-0.1,3.3
		c0,1.2-0.1,2.4-0.1,3.6c0,1.3,0,2.4-0.1,3.4c0,1,0,2.2,0,3.6c0,1.4,0,2.7-0.1,3.8c-0.1,1.1-0.1,2.2-0.2,3.5c0,1.2-0.1,2.3-0.2,3.3
		c-0.1,0.9-0.2,1.9-0.3,2.9s-0.3,1.9-0.4,2.8c-0.1,0.9-0.3,1.7-0.4,2.4c-0.1,0.9-0.2,1.8-0.2,2.7c0,0.8,0,1.6,0.1,2.4
		c0.1,0.7,0.3,1.3,0.6,2"/>
	<path class="st5" d="M755.8,355.1c0-0.3-0.1-0.4-0.3-0.2c-0.2,0.4-0.3,0.8-0.2,1.2c0,0.7-0.1,1.6-0.1,2.8c0,1.2,0,2.1,0.1,2.8
		c0,0.6,0.1,1.2,0.1,1.8c0.1,0.5,0.1,1.2,0.2,2c0.1,0.8,0.1,1.4,0.1,2s0,1,0,1.5c-0.1,0.7-0.2,1.4-0.5,2c-0.3,0.9-0.5,1.5-0.7,2
		c-0.2,0.4-0.3,0.9-0.4,1.4c-0.1,0.5-0.2,1-0.3,1.8s-0.2,1.4-0.3,2.1c-0.1,0.8-0.1,1.6-0.1,2.4c0,0.9,0,1.9,0,2.9c0,1,0,1.7,0.1,2.2
		c0,0.4,0.1,0.9,0.2,1.5c0.1,0.7,0.1,1.5,0.1,2.2c0,0.9,0,3.8,0,8.7c0,4.9,0,7.6,0.1,8.3c0,0.7,0.1,2,0.1,4.1c0,2.1,0,3.6-0.1,4.8
		c-0.1,1.1-0.2,2-0.2,2.7c0,0.7-0.1,1.4-0.1,2c0,0.6,0,2.2,0,4.8c0,2.6,0,4.3,0,5.2c0,0.9,0.1,1.6,0.1,2.3c0,0.6,0,1.4,0.1,2.2
		c0,0.9,0,1.8,0,2.9c0,1.1,0,2-0.1,2.9c-0.1,0.8-0.1,1.5-0.2,1.9c-0.1,0.4-0.1,0.8-0.2,1.1c0,0.1,0,0.3-0.1,0.4c0,0,0-0.1-0.1-0.3"
		/>
	<path class="st5" d="M679.4,468.4c-0.3-0.3-0.5-0.5-0.8-0.8"/>
	<path class="st5" d="M678.1,468.6c-1.3-0.4-2.5-0.7-3.8-0.9c-0.8-0.1-1.6-0.2-2.4-0.3c-0.6,0-0.9,0-0.7,0.1
		c0.1,0.1,0.5,0.2,1.1,0.4c0.9,0.3,1.9,0.6,2.9,0.7c1.4,0.3,2.7,0.5,4,0.7c1.3,0.2,2.3,0.3,3.2,0.4c0.8,0.1,1.8,0.1,2.9,0.2
		c1.1,0,2.7,0.1,4.8,0.1c2.1,0,3.2,0.2,3.2,0.5c0,0.3-0.3,0.5-1.1,0.6c-0.8,0.1-2.5,0.1-5.1,0.1c-2.6,0-4.5,0-5.5-0.1
		c-0.7-0.1-1.3-0.2-2-0.3l-0.5-0.1l0,0l0.1,0l2.6,0.8"/>
	<path class="st5" d="M733.8,472.3c1.9-0.2,3.9-0.3,5.8-0.2c2.9,0,5,0,6.1,0c1.2,0,2.6,0,4.2,0.1c1.7,0,2.8,0,3.4-0.1
		c0.8-0.1,1.5-0.2,2.3-0.5c0.7-0.2,1.4-0.3,2.1-0.4c1,0,2.1,0.2,3.1,0.6"/>
	<path class="st5" d="M545.8,470.5c-0.8-0.1-1.2-0.3-1.2-0.7c0-0.3,0.2-0.5,0.7-0.7c0.5-0.2,1.1-0.3,1.7-0.4
		c1.1-0.1,2.3-0.2,3.4-0.2c1.4,0,2.9,0,4.3,0.2c1.2,0.1,2.7,0.2,4.5,0.2c1.8,0,3.8-0.1,6.2-0.2c2.4-0.2,4.2-0.3,5.5-0.3
		c1.3,0,2.3-0.1,3.1-0.2c0.6,0,1.1-0.2,1.6-0.5c0.4-0.3,1,0.1,1.8,1.2"/>
	<path class="st5" d="M619,472.4c-0.1-0.6-0.3-1.2-0.6-1.7c-0.2-0.2-0.4-0.4-0.7-0.4l-0.3-0.1l0,0l0.6,0.2c1.2,0.2,2.3,0.3,3.5,0.3
		c2,0.1,4,0.3,5.8,0.5c1.9,0.2,3.2,0.3,4,0.4c0.8,0.1,1.9,0.1,3.3,0.1c1.4,0,2.7,0.1,3.9,0.1c1.2,0.1,2.3,0.1,3.1,0.2
		c1.1,0.1,2.1,0.4,2.9,1.1"/>
	<path class="st3" d="M664.1,330.9l-0.6,0.3c0,0,0.1,0,0.5,0h3.6c2,0,4-0.1,5.9-0.2c2-0.1,3.5-0.2,4.7-0.3c1.1-0.1,2.6-0.2,4.5-0.4
		c1.9-0.2,4.4-0.3,7.5-0.3c3.2,0,5.8,0,7.8-0.1c1.7,0,3.4,0,5.1,0.2c1.4,0.1,3,0.3,4.8,0.3c1.8,0.1,3.3,0.2,4.5,0.4
		c1.2,0.2,2.3,0.3,3.3,0.5c1,0.1,2.4,0.4,4.1,0.8c1.7,0.4,3,0.6,4,0.8c1,0.2,2.2,0.3,3.6,0.5c1.4,0.1,3.4,0.2,6.2,0.3
		c2.8,0,4.5,0.1,5.2,0.1c0.7,0.1,1.9,0.1,3.6,0.1c1.7,0,3.1,0,4.2-0.1c1.1-0.1,2.1-0.1,3.1-0.1c0.8,0,1.7,0,2.5-0.2
		c0.7-0.1,1.4-0.2,2-0.4c0.7-0.2,1.4-0.3,2.2-0.4c0.8-0.1,1.2,0,1.3,0.3c0.1,0.3,0.4,0.6,0.8,0.7c0.4,0.1,0.6,0.2,0.6,0.2
		c0,0,0,0-0.1,0l-1.8-0.1c-1.6,0-3.5,0-5.8,0.2"/>
	<path class="st3" d="M668.8,334.7c-0.3-0.8-0.1-1.2,0.7-1.1c0.5,0.1,1.3,0.2,2.3,0.4c1,0.2,2.3,0.4,3.7,0.6
		c1.5,0.2,2.9,0.4,4.4,0.5c1.5,0.1,3.4,0.2,5.8,0.3c2.4,0.1,4.4,0.1,6,0.2c1.6,0.1,3.2,0.1,4.9,0.2c1.7,0.1,3,0.2,3.9,0.2
		c0.9,0,2.4,0.1,4.4,0.1c1.8,0,3.5-0.1,5.3-0.3c1.5-0.2,3-0.4,4.3-0.7c1.4-0.3,2.3-0.4,2.9-0.6c0.6-0.1,1.5-0.3,2.7-0.4
		c1.2-0.2,2.6-0.3,3.9-0.3c1.4-0.1,3-0.1,4.8-0.1c1.6,0,3.2,0.1,4.8,0.2c1.3,0.1,2.8,0.2,4.4,0.3c2.3,0.1,5.8,0.2,10.5,0.2"/>
	<path class="st4" d="M555.5,330.2c0-0.4-0.2-0.9-0.4-1.2l-0.2-0.2c0,0,0,0,0,0c0,0,0.1,0.2,0.3,0.4c0.5,0.4,1,0.7,1.5,0.9
		c0.7,0.4,1.5,0.6,2.2,0.8c1,0.2,2,0.3,3,0.3c1.3,0.1,3.1,0.1,5.4,0.1c2.2,0,4.3-0.1,6.2-0.2c1.9-0.1,3.2-0.2,4-0.2
		c0.8,0,1.7,0.2,2.4,0.4c0.8,0.3,1.7,0.5,2.5,0.6c1.7,0.2,3.4,0.3,5.1,0.2c2.6,0,4.2,0,4.9-0.1s3.8-0.1,9.2-0.1c5.4,0,9.7,0,13,0
		c3.2,0,5.7,0,7.4-0.2c1.7-0.1,3.4-0.3,5.1-0.6c1.7-0.2,3-0.4,3.9-0.4c0.9,0,2.2-0.1,4-0.3c1.8-0.1,3.4-0.3,4.7-0.4
		c1.3-0.1,3.1-0.1,5.3-0.1c1.4,0,2.9,0,4.3,0.2c1.2,0.1,2.4,0.2,3.6,0.2c1.3-0.1,2.5,0.2,3.6,0.9"/>
	<path class="st4" d="M438.7,331.6c-0.1-0.5-0.6-0.9-1.1-0.8c-0.4,0-0.8-0.1-1.2-0.2c-0.2-0.1-0.3-0.2-0.4-0.2c0,0,0,0,0.2,0l1.4,0
		c0.7,0,2.1,0.1,4.1,0.3c2,0.2,3.6,0.3,4.8,0.3c1.3,0,2.7,0.1,4.3,0.1c1.6,0,3.1-0.1,4.4-0.2c1.3-0.1,2.4-0.2,3.3-0.2
		s2.3-0.1,4.1-0.1c1.3,0,2.6,0,3.9,0.2c1.3,0.2,2.5,0.2,3.8,0.2c1.8,0,4.2,0,7.2,0s5.1,0,6.3,0.1c1.2,0.1,2.1,0.2,2.9,0.3
		c0.9,0.1,1.8,0.2,2.7,0.2c1.1,0,3.2,0.1,6.4,0.1c3.2,0,5.6,0.1,7.2,0.2c2.3,0.2,9.3,0.3,21.2,0.3"/>
	<path class="st2" d="M434.6,470.1c-0.1-0.8-0.3-1.6-0.6-2.4c-0.1-0.2-0.2-0.5-0.4-0.6c-0.2-0.1-0.3,0-0.3,0.2
		c0,0.2,0.2,0.4,0.6,0.7c0.4,0.3,0.9,0.5,1.3,0.7c0.5,0.2,1.1,0.4,1.7,0.5c0.7,0.1,1.3,0.3,1.9,0.5c0.7,0.2,1.3,0.5,1.9,0.7
		c0.7,0.3,1.5,0.4,2.2,0.4c1.2,0,2.4-0.1,3.6-0.3c1.5-0.3,2.6-0.5,3.3-0.6c1.1-0.2,2.3-0.3,3.5-0.3c1.2-0.1,2.3,0.2,3.3,0.9"/>
	<path class="st2" d="M455.3,470.5c0.1-0.8-0.1-1.6-0.5-2.2c-0.3-0.4-0.8-0.6-1.3-0.6c-1.5,0-2.9,0.2-4.3,0.6
		c-2.2,0.5-4.2,0.9-6,1.2c-1.8,0.3-3.3,0.6-4.7,0.9c-1.4,0.3-2.4,0.5-3.2,0.7c-0.5,0.1-0.9,0.3-1.4,0.5c-0.2,0.2,0.5,0.4,2.2,0.8"/>
	<path class="st2" d="M501.9,469.3c0-0.4-0.3-0.6-0.8-0.6c-0.6,0.1-1.2,0.3-1.6,0.6c-0.4,0.2-0.8,0.6-1,1c-0.1,0.3,0.5,0.4,1.7,0.4
		c1.2,0,2.3,0,3.5-0.2c1.1-0.2,1.9-0.3,2.4-0.5c0.6-0.1,1.1-0.2,1.7-0.2c0.6,0,1.2,0,1.8,0.1c1.1,0.1,2.2,0.2,3.3,0.1
		c1.6,0,2.7,0,3.3-0.1c0.6-0.1,1.5-0.2,2.7-0.4c1.2-0.2,2.2-0.4,3-0.6c0.8-0.2,1.6-0.4,2.5-0.5c0.9-0.1,1.7-0.3,2.5-0.4
		c0.6-0.1,1.3-0.2,1.9-0.3c0.8-0.1,1.6-0.2,2.4-0.2c1,0,2,0.1,3,0.4c0.6,0.2,1.1,0.4,1.7,0.6c0.4,0.2,0.6,0.6,0.5,1"/>
	<path class="st2" d="M429.2,236h-0.2C429.1,236,429.2,236,429.2,236l0.7,0.2c0.4,0.1,0.7,0.2,0.9,0.3c0.3,0.1,0.6,0.2,0.9,0.2
		c0.3,0.1,0.6,0.2,1,0.2c0.4,0.1,0.7,0.1,1.1,0.2c0.4,0,0.8,0.1,1.2,0.1c0.4,0,0.9,0,1.3,0c0.4,0,0.8,0,1.2,0c0.3,0,0.9,0,1.7-0.1
		c0.8,0,1.3-0.1,1.7-0.1s1.5,0,3.3,0c1.8,0,2.8,0,3.1,0c0.3,0,0.5,0,0.8-0.1c0.3,0,0.6-0.1,0.9-0.1s0.6-0.1,0.9-0.1
		c0.3,0,0.6,0,0.9-0.1c0.3,0,0.6,0,1,0c0.4,0,0.8,0,1.3,0s0.9,0,1.4,0c0.5,0,1.1,0,1.7,0c0.6,0,1.2,0,1.9,0c0.6,0,1.3,0,1.9,0
		c0.6,0,1.1,0,1.5,0c0.3,0,0.7-0.1,1.1-0.1s1.1-0.1,2.2-0.3c1.1-0.1,1.8-0.2,2.1-0.2c0.4,0,0.8-0.1,1.2-0.1c0.5,0,1-0.1,1.5-0.1
		s1.1,0,1.6,0c0.5,0,1,0,1.3,0s0.8,0,1.3,0.1c0.5,0.1,1.1,0.1,1.7,0.2c0.6,0.1,1.1,0.2,1.5,0.2c0.4,0,0.8,0.1,1.3,0.1
		s0.9,0.1,1.2,0.1c0.4,0,0.7,0.1,1.1,0.2c0.4,0.1,0.8,0.1,1.3,0.2c0.5,0,1,0.1,1.4,0.1c0.5,0,1.1,0,1.8,0.1c0.7,0,1.3,0,1.6,0.1
		c0.3,0,0.9,0.1,1.8,0.1s1.6,0.1,2.2,0.1s1.2,0,1.9,0c0.7,0,1.5,0,2.4,0s1.8-0.1,2.7-0.1c0.9,0,1.5-0.1,1.8-0.1c0.3,0,0.9,0,1.8-0.1
		c0.9,0,1.7,0,2.4-0.1c0.7,0,1.3,0,1.9,0c0.6,0,1.1,0,1.6,0c0.5,0,0.9,0,1.3,0c0.4,0,0.9,0,1.4,0c0.5,0,1.1,0,1.6,0c0.5,0,1,0,1.4,0
		c0.4,0,0.8,0,1.3-0.1c0.5,0,1.1-0.1,1.8-0.1s2.3,0,4.8,0c2.5,0,3.8,0,4.1,0c0.3,0,0.5,0.1,0.8,0.1c0.3,0,0.6,0.1,0.9,0.1
		c0.3,0,0.6,0.1,0.7,0.1l0.2,0h0h0l-0.4,0c-0.2,0-0.6,0-0.9-0.1c-0.4-0.1-0.9-0.1-1.6-0.2c-0.7-0.1-1.2-0.2-1.6-0.2
		c-0.4-0.1-0.8-0.1-1.3-0.2c-0.5-0.1-1-0.1-1.6-0.2c-0.6-0.1-1.2-0.1-1.7-0.2c-0.5-0.1-1.1-0.1-1.5-0.1c-0.5,0-1,0-1.5-0.1
		s-1.1,0-1.9,0c-0.8,0-1.4,0-1.7,0c-0.3,0-0.7,0-1.1,0c-0.4,0-1,0-1.8,0c-0.8,0-1.4,0-1.7,0s-0.9-0.1-1.6-0.2
		c-0.8-0.1-1.3-0.2-1.7-0.2s-0.7-0.1-0.9-0.1c-0.3,0-0.7-0.1-1.3-0.2c-0.6-0.1-1.3-0.2-2.2-0.2c-0.8-0.1-1.5-0.1-2-0.2
		c-0.5,0-1.1-0.1-1.9-0.1s-1.3-0.1-1.7-0.1c-0.3,0-0.7-0.1-1-0.1c-0.3,0-0.7-0.1-1.1-0.1c-0.4,0-0.8,0-1.3,0c-0.4,0-0.7,0-1.1,0.1
		c-0.3,0-0.6,0.1-0.9,0.1c-0.3,0.1-0.6,0.1-1,0.1c-0.4,0-0.8,0.1-1.5,0.1c-0.6,0-1.4,0-2.5,0c-1,0-1.8,0-2.3,0c-0.5,0-0.9,0-1.1,0
		s-0.8,0-1.8,0.1s-1.7,0.1-2.3,0.1s-0.9,0.1-1.2,0.1c-0.2,0-0.7,0-1.5,0.1c-0.8,0-1.4,0-1.9,0s-1,0-1.5,0c-0.5,0-1,0-1.6,0
		c-0.6,0-1.2,0.1-1.8,0.1c-0.6,0-1,0.1-1.3,0.1c-0.3,0-0.7,0.1-1.3,0.1c-0.6,0-1.2,0.1-1.9,0.1c-0.7,0-1.1,0-1.4,0.1
		c-0.3,0-0.7,0-1.3,0c-0.6,0-1,0-1.3,0c-0.3,0-1.1,0-2.4,0c-1.3,0-2.1,0-2.4,0c-0.3,0-0.7,0-1.2,0c-0.5,0-0.9,0-1.4,0s-1.6,0-3.6,0
		s-3.2,0-3.7,0c-0.5,0-1,0.1-1.4,0.1c-0.4,0-0.9,0.1-1.3,0.1c-0.5,0-1,0.1-1.6,0.2c-0.6,0.1-1.1,0.2-1.6,0.3
		c-0.5,0.1-0.9,0.2-1.4,0.3c-0.4,0.1-0.8,0.2-1,0.2c-0.2,0-0.5,0.1-0.8,0.1c-0.3,0-0.5,0.1-0.8,0.2c-0.2,0-0.4,0.2-0.5,0.4"/>
	<path class="st2" d="M434.4,240.6c0-0.2,0-0.3,0-0.5l0-0.1c0,0,0,0,0,0.1s0,0.1,0,0.3c0,0.2,0,0.5,0,1.1c0,0.8-0.1,1.7-0.2,2.5
		c-0.2,1.1-0.2,1.8-0.3,2.2s-0.1,1-0.2,1.7c-0.1,0.8-0.1,1.8-0.2,3.1c-0.1,1.3-0.1,2.1-0.2,2.4c0,0.3,0,0.5,0,0.8c0,0.2,0,0.7,0,1.5
		c0,0.7,0,1.3,0,1.8s0.1,1.1,0.2,1.9c0.1,0.8,0.2,1.4,0.2,1.9c0,0.4,0.1,0.9,0.2,1.4s0.1,1.1,0.1,1.8c0,0.6,0,1.3,0,2
		c0,0.7,0,1.2,0,1.7c0,0.4,0,0.9,0,1.4c0,0.5,0,1,0.1,1.5s0.1,1.1,0.1,1.8s0.1,1.4,0.2,2.2s0.1,1.4,0.1,1.8s0,1.4,0,2.8
		c0,1.4,0,2.5,0,3.2s0,1.4,0,2.1c0,0.7,0,1.1-0.1,1.3c0,0.2,0,0.6,0,1.2c0,0.6,0,1.2,0,1.9c0,0.7,0,1.3,0,1.8c0,0.6,0,1.1-0.1,1.7
		c0,0.6-0.1,1.1-0.1,1.6c0,0.5,0,1-0.1,1.6c0,0.6,0,1.1,0,1.6c0,0.4,0,1.1,0,2.1c0,0.9,0,1.8,0.1,2.5c0,0.7,0.1,1.3,0.1,1.8
		s0,0.8,0,1c0,0.2,0,0.8,0.1,1.7c0,0.9,0.1,1.9,0.1,3s0,1.8,0,2.1s0,0.7-0.1,1c0,0.3-0.1,0.8-0.1,1.3c-0.1,0.6-0.1,1-0.1,1.4
		c0,0.5,0,1.5,0,2.9"/>
	<path class="st2" d="M429.1,320.7c-0.2,0.4-0.3,0.7-0.4,1.1c-0.1,0.4-0.1,0.8-0.1,1.1c0,0.5,0,1.5,0,3c0,1.4,0,2.4,0,2.9
		c0,0.5,0.1,1,0.1,1.7c0.1,0.7,0.1,1.2,0.2,1.5c0.1,0.3,0.1,0.5,0.1,0.6c0,0.1,0.1,0.2,0.1,0.2c0,0,0.1-0.1,0.1-0.4
		c0.1-0.5,0.2-1,0.3-1.5"/>
	<path class="st2" d="M433.7,320.2c-0.1,0.5-0.2,0.9-0.2,1.2c0,0.2-0.1,0.5-0.1,0.8c0,0.4-0.1,0.9-0.1,1.6c0,0.7-0.1,1.4-0.1,2.1"/>
	<path class="st2" d="M529.1,241c-0.1,0-0.2,0.2-0.2,0.4c0,0.2,0,0.5,0,0.7c0,0.2,0.1,0.5,0.2,1c0.1,0.4,0.2,0.8,0.2,1.1
		s0.1,0.7,0.2,1s0.1,0.7,0.1,1c0,0.4,0.1,0.9,0.2,1.5c0.1,0.7,0.1,1.1,0.1,1.4c0,0.3,0,0.6,0,0.9s0,0.7,0,1.3s0,1,0,1.3
		c0,0.4-0.1,0.8-0.2,1.2c-0.1,0.5-0.2,0.9-0.3,1.2c-0.1,0.3-0.1,0.6-0.2,0.9c-0.1,0.3-0.1,0.6-0.2,0.9s-0.1,0.7-0.2,1.2
		c-0.1,0.5-0.2,1-0.2,1.4c-0.1,0.5-0.1,1.1-0.2,1.8c-0.1,0.7-0.1,1.3-0.1,1.7s0,1.2,0,2.4s0,2,0,2.4c0,0.4,0,0.9,0,1.4
		c0,0.5,0,1.2,0.1,2.1c0,0.8,0.1,1.5,0.1,1.9c0,0.5,0.2,1.2,0.3,2.2c0.2,1,0.3,1.7,0.3,2c0,0.3,0.1,0.6,0.2,1.1
		c0.1,0.4,0.1,1,0.2,1.7c0,0.7,0.1,1.2,0.1,1.4c0,0.2,0.1,0.5,0.2,0.8c0.1,0.3,0.1,0.6,0.2,0.9c0,0.3,0.1,0.8,0.1,1.3s0.1,1,0.1,1.5
		c0.1,0.4,0.1,0.9,0.1,1.3c0,0.4,0.1,0.9,0.1,1.5c0,0.5,0.1,1,0.1,1.3c0,0.3,0.1,0.8,0.2,1.5s0.1,1.2,0.1,1.5s0,0.8,0,1.4
		c0,0.6,0,1.7,0,3.5s0,2.9,0,3.6c0,0.6,0,1.4,0,2.2c0,0.9,0,2,0,3.3c0,1.3,0,2.2,0,2.6c0,0.4,0,0.9-0.1,1.4c0,0.6-0.1,1-0.1,1.3
		c0,0.3,0,0.6,0,0.8c0,0.2,0,0.5,0,1c0,0.4,0,1.3,0,2.5s0,2,0,2.4c0,0.3,0,0.7-0.1,1.1c0,0.4-0.1,0.7-0.1,1c0,0.3-0.1,0.6-0.2,0.9
		c-0.1,0.4-0.2,0.6-0.2,0.8c0,0.3-0.1,0.5-0.1,0.8c0,0.3,0,0.7,0,1.2c0,0.5,0,0.9,0,1.2c0,0.3,0,0.7,0,1.1c0,0.4,0,0.8,0.1,1.1
		c0,0.3,0,0.6,0,1c0,0.3,0,0.5-0.1,0.8c0,0.1-0.1,0.2-0.1,0.2l0,0l0,0c0,0,0-0.2,0.1-0.4"/>
	<path class="st2" d="M432.1,356.1c0,0.6,0,1.9,0,3.9"/>
	<path class="st2" d="M428.9,349.8c-0.2,0.1-0.3,0.2-0.5,0.3c-0.1,0.1-0.1,0.2-0.2,0.4c0,0.2-0.1,0.4-0.1,0.5c0,0.2,0,0.8,0,1.7
		c0,0.9,0,1.8,0,2.7c0,0.8,0.1,1.7,0.1,2.6c0,0.9,0,1.8,0.1,2.6c0,0.9,0,1.5,0,2c0,0.5,0,0.9,0,1.3c0,0.4,0,1.1,0,1.9
		c0,0.8,0.1,1.9,0.1,3.3c0,1.4,0.1,2.5,0.1,3.4c0,0.9,0,1.6-0.1,2c0,0.5-0.1,1.1-0.2,2c-0.1,0.8-0.1,1.5-0.2,2c0,0.5,0,1.1-0.1,1.7
		c0,0.6,0,1.1,0,1.4c0,0.3,0,0.8-0.1,1.3s0,1.3,0,2.2c0,0.9,0,1.6,0,2.2c0,0.6,0,1.1,0,1.6c0,0.5,0,1,0,1.6c0,0.6,0,1.1,0.1,1.6
		c0,0.5,0,1,0.1,1.5s0,0.9,0.1,1.2c0,0.3,0,1.1,0,2.3c0,1.3,0,2.2,0,2.7c0,0.5,0,1.3,0,2.3s0,1.6,0,1.9c0,0.3,0,0.7,0.1,1.2
		c0,0.5,0.1,1.1,0.1,1.9s0.1,1.4,0.2,2.1c0.1,0.7,0.1,1.4,0.1,2.3c0,0.8,0.1,1.5,0.1,2.2c0,0.7,0,1.3,0.1,1.9s0,1.1,0,1.5s0,1,0,1.9
		c0,0.9,0.1,1.9,0.1,3.2c0.1,1.3,0.1,2.2,0.1,2.9c0,0.6,0.1,1.1,0.1,1.5c0,0.4,0.1,0.8,0.1,1.3c0,0.5,0,0.9,0.1,1.3c0,0.4,0,1,0,1.6
		c0,0.6,0,2.3,0,5s0,4.6,0.1,5.8c0.1,1.1,0.1,1.9,0.1,2.3s0.1,0.7,0.1,1c0,0.3,0.1,0.6,0.1,0.9c0,0.3,0,0.9,0,2c0,1,0,1.6,0,1.9
		c0,0.2-0.1,0.3-0.2,0.4c-0.1,0.1-0.1,0.1-0.1,0.2c0,0.1,0.1,0.3,0.4,0.6"/>
	<path class="st2" d="M531.7,349.4c0,0.5,0,0.9,0.1,1.4c0.1,0.6,0.2,1.3,0.2,1.9c0.1,0.7,0.1,1.2,0.1,1.5c0,0.3,0,0.8,0.1,1.3
		c0,0.6,0,1,0,1.3c0,0.3,0,0.7,0,1.3c0,0.6,0,1-0.1,1.3c0,0.3,0,0.7,0,1.2c0,0.5,0,0.9,0,1.2s0,0.7-0.1,1.2s-0.1,0.9-0.1,1.1
		c0,0.2,0,0.9-0.1,2c0,1.1,0,1.9,0,2.4s0,1,0,1.4s0,0.8-0.1,1.2c0,0.4-0.1,0.9-0.1,1.3c0,0.4-0.1,1.1-0.1,1.9c0,0.9-0.1,1.7-0.1,2.4
		c0,0.7,0,1.3-0.1,1.8c0,0.5,0,1,0,1.5c0,0.5,0,3.8,0,9.7s0,9.2,0,9.9s0,1.4,0,2.2c0,0.8,0,1.5,0,2c0,0.5,0,0.9,0,1.2s0,0.6,0,1.1
		c0,0.4-0.1,1-0.1,1.6s-0.1,1.4-0.1,2.4c-0.1,1-0.1,2-0.1,2.9c0,0.9-0.1,1.7-0.1,2.5s0,1.3,0,1.7c0,0.4,0,1.1,0,2.2s0,1.8,0,2.1
		c0,0.4,0,0.9,0,1.5c0,0.6,0,2,0,4.1s0,3.5,0,4.1s0,1.1,0.1,1.5s0,0.8,0,1.1c0,0.3,0,0.8,0,1.4c0,0.6,0,1.5,0,2.6s0,2,0,2.4
		c0,0.4,0,0.8,0,1.1c0,0.3,0,0.6,0,0.9c0,0.3,0,1.1,0,2.4c0,1.3,0,2.2,0,2.8c0,0.6,0,1.2,0.1,1.8c0,0.6,0.1,0.9,0.1,1v0.1"/>
	<path class="st2" d="M525.7,359.5c-0.1-0.2-0.2-0.5-0.5-0.6c-0.1-0.1-0.3-0.2-0.4-0.2c-0.1,0-0.2,0-0.3,0c-0.1,0-0.2,0.1-0.2,0.2
		c-0.1,0.1-0.1,0.3-0.2,0.4c0,0.2-0.1,0.4-0.1,0.5c0,0.2,0,0.7,0,1.4c0,0.7,0,1.6,0,2.5c0,1,0,1.7,0,2.2c0,0.5,0,1.2,0.1,2.1
		c0,0.9,0.1,1.8,0.1,2.5c0.1,0.8,0.1,1.6,0.2,2.4c0.1,0.8,0.1,1.6,0.2,2.5c0.1,0.8,0.1,1.8,0.2,3c0.1,1.2,0.2,2.1,0.2,2.9
		c0,0.8,0.1,1.3,0.1,1.7c0,0.4,0,0.7,0.1,1c0,0.3,0.1,1.1,0.3,2.4c0.2,1.3,0.3,2.3,0.4,2.9c0.1,0.6,0.2,1.3,0.2,1.9
		c0.1,0.6,0.1,1.4,0.2,2.3c0.1,0.9,0.1,1.7,0.2,2.3c0.1,0.6,0.1,1.3,0.2,2.1s0.1,1.7,0.1,2.8c0,1,0.1,2,0.1,2.8s0,1.6,0.1,2.4
		c0,0.8,0,1.3,0.1,1.6c0,0.2,0,1.8,0,4.8c0,2.9,0,4.7,0,5.3c0,0.6,0,2,0,4.2c0,2.2,0,3.4,0,3.8c0,0.3,0,1-0.1,2.1
		c-0.1,1.1-0.1,1.9-0.2,2.6s-0.1,1.4-0.1,2.2c0,0.8-0.1,1.6-0.1,2.3c0,0.7-0.1,1.5-0.1,2.4c0,0.8,0,1.6-0.1,2.4c0,0.8,0,1.6,0,2.4
		c0,0.9,0,1.7,0,2.4c0,0.7,0,1.4-0.1,2c0,0.6,0,1-0.1,1.2c0,0.2,0,0.3-0.1,0.5c0,0.2-0.1,0.2-0.3,0"/>
	<path class="st2" d="M439.5,447.9c-0.1-0.2,0-0.4,0.1-0.4c0.1,0,0.3,0,0.5,0c0.3,0,0.6,0.1,0.9,0.1c0.4,0.1,0.8,0.1,1.1,0.1
		c0.3,0,0.7,0,1.1,0c0.4,0,0.8,0,1.1,0c0.4,0,0.7,0,1.1-0.1c0.4,0,0.7-0.1,1-0.2c0.3-0.1,0.8-0.2,1.4-0.3c0.6-0.2,1.1-0.3,1.5-0.4
		s0.9-0.2,1.6-0.3c0.7-0.1,1.1-0.2,1.4-0.2c0.2,0,0.6-0.1,1.2-0.1s1.1,0,1.6,0c0.5,0,1,0,1.5,0c0.5,0,1-0.1,1.5-0.1
		c0.6-0.1,1.1-0.1,1.6-0.2c0.5,0,1-0.1,1.4-0.1c0.7,0,1.3,0.1,2,0.2c0.9,0.1,1.8,0.2,2.6,0.4c0.8,0.1,1.5,0.3,2,0.3
		c0.5,0.1,1.1,0.2,1.6,0.2c0.5,0.1,1,0.1,1.4,0.2c0.4,0.1,0.7,0.1,1,0.1c0.2,0,0.6,0.1,1.2,0.1c0.6,0,1,0.1,1.3,0.1
		c0.3,0,0.7,0.1,1.2,0.1c0.5,0.1,0.9,0.1,1.2,0.1c0.3,0,0.8,0.1,1.5,0.1s1.3,0.1,1.9,0.2c0.5,0.1,0.9,0.1,1.2,0.1
		c0.3,0,0.7,0.1,1.4,0.1c0.6,0.1,1.2,0.1,1.8,0.1s1.1,0.1,1.7,0.1c0.6,0,1.4,0,2.4,0c1,0,1.8,0,2.5,0s1.5,0,2.7,0c1.1,0,1.8,0,1.9,0
		c0.2,0,0.5,0.1,0.7,0.1c0.3,0.1,0.7,0.1,1,0.2c0.3,0.1,0.7,0.1,1,0.2c0.3,0.1,0.8,0.1,1.5,0.2c0.7,0.1,1.3,0.1,1.7,0.1
		c0.5,0,0.9,0,1.2,0.1c0.3,0,0.6,0.1,0.9,0.1c0.3,0,0.6,0.1,0.9,0.2c0.3,0.1,0.6,0.2,1,0.2c0.4,0.1,0.8,0.1,1.2,0.2
		c0.4,0,1.4,0,2.9,0c1.6,0,2.7,0,3.3,0c0.7,0,1.3,0,1.9-0.1c0.6,0,1.3-0.1,2.2-0.1c0.9,0,1.7,0,2.5,0c0.8,0,1.3,0,1.5,0
		c0.2,0,0.3,0,0.5,0.1c0.1,0,0.1,0.1,0.1,0.3"/>
	<path class="st2" d="M498.2,473.5c0.1-0.1,0.3-0.1,0.5-0.1c0.2,0,0.4,0,0.7,0s0.5,0,0.9,0.1s0.7,0.1,1.1,0.1c0.4,0,0.8,0.1,1.2,0.1
		s1,0,1.8,0s1.4,0,1.9,0s1.1,0,1.8-0.1c0.8-0.1,1.8-0.1,3-0.2c1.2-0.1,2.2-0.2,2.9-0.2c0.7,0,1.4-0.1,2.2-0.1c0.7,0,1.4,0,2-0.1
		c0.6,0,1.2,0,1.9,0s1.3,0,1.8,0c0.6,0,1,0,1.2,0.1c0.3,0,0.6,0,0.9,0.1c0.3,0,0.8,0,1.3,0c0.5,0,1.3,0,2.1,0c0.9,0,1.6,0,2.3,0
		c0.7,0,1.1,0.1,1.3,0.1c0.2,0,0.5,0.1,1,0.1c0.5,0.1,0.9,0.1,1.2,0.2c0.3,0,0.7,0,1.1,0s0.6,0,0.8,0l0.2,0"/>
	<path class="st2" d="M507.7,467.9c0.3-0.1,0.6-0.2,1-0.2c0.2,0,0.6,0,1.2-0.1c0.7,0,1.6,0,2.9,0c1.3,0,2.1,0,2.5,0
		c0.4,0,1,0,1.6,0.1c0.7,0,1.3,0.1,2,0.3"/>
	<path class="st2" d="M433.4,473.8c-0.1,0.1-0.2,0.3-0.2,0.5c0,0.1,0,0.2,0,0.3c0,0.1,0.1,0.1,0.2,0.2c0.1,0.1,0.3,0.1,0.5,0.2
		c0.2,0.1,0.5,0.1,0.7,0.1c0.2,0,0.5,0,0.9,0c0.3,0,0.7,0,1.2,0c0.5,0,1-0.1,1.5-0.1c0.5-0.1,1.1-0.2,1.8-0.3c0.7-0.1,1.3-0.2,2-0.3
		c0.7-0.1,1.3-0.2,2-0.3c0.7-0.1,1.3-0.2,1.9-0.2c0.6-0.1,1.2-0.1,1.8-0.2c0.6-0.1,1.3-0.1,2.3-0.2c1,0,1.7-0.1,2-0.1
		c0.4,0,0.8,0,1.4,0c0.6,0,1.1,0,1.5,0c0.4,0,0.7,0,0.8,0c0.1,0,0.2,0,0.1,0l-0.7,0"/>
	<path class="st2" d="M441.6,468.8c0.5-0.1,1-0.1,1.4-0.1c0.2,0,0.8,0,1.7,0c0.9,0,1.8,0,2.8,0s1.8,0,2.4,0c0.6,0,1.2,0,1.6,0
		s0.9,0,1.3,0c0.4,0,1.1,0,2,0l1.5,0c0,0,0,0,0.1,0l-0.3,0"/>
	<path class="st4" d="M441.1,354.7c0-0.1-0.1-0.3-0.2-0.3c-0.1-0.1-0.1-0.1-0.2-0.1c-0.1,0-0.1,0-0.2,0.2c-0.1,0.2-0.1,0.5-0.1,0.8
		c0,0.4-0.1,0.9-0.1,1.4c0,0.6,0,2.1,0,4.6c0,2.5,0,3.9,0,4.1c0,0.2,0,0.5,0,0.7c0,0.2,0.1,0.6,0.1,1.1c0.1,0.5,0.1,0.9,0.1,1.2
		c0,0.2,0.1,0.6,0.1,1.1c0.1,0.5,0.1,0.8,0.1,1c0,0.2,0.1,0.4,0.1,0.7s0,0.6,0.1,1c0,0.5,0,1.1,0,2.1c0,0.9,0,1.6,0,2.1
		c0,0.5-0.1,1.1-0.2,1.7c-0.1,0.7-0.1,1.3-0.2,2c-0.1,0.6-0.1,1.2-0.1,1.7s-0.1,1.1-0.1,1.7c0,0.7-0.1,1.2-0.1,1.7
		c0,0.4-0.1,0.9-0.1,1.4c0,0.5-0.1,1-0.1,1.7c0,0.7-0.1,1.2-0.1,1.7c0,0.5,0,1.1-0.1,1.8c0,0.7,0,1.6-0.1,2.5
		c-0.1,0.9-0.1,1.8-0.2,2.6c0,0.8-0.1,1.5-0.1,2.2c0,0.7,0,1.2,0,1.5s0,2,0,5.2c0,3.2,0,5.2,0,5.9c0,0.8,0.1,1.5,0.1,2.1
		c0,0.6,0.1,1.2,0.1,1.7c0,0.6,0,1.3,0.1,2.1s0.1,2,0.1,3.5c0,1.4,0.1,2.3,0.1,2.6s0,0.6,0.1,1c0,0.3,0.1,0.6,0.1,0.9
		c0,0.3,0.1,0.7,0.1,1.3c0.1,0.6,0.1,1.3,0.2,2.2s0.1,1.6,0.1,2.2s0,1.1,0,1.8c0,0.6,0,1.5,0,2.7c0,1.2,0,1.9,0,2.2s0,0.6-0.1,0.9
		c0,0.3-0.1,0.7-0.2,1.2s-0.2,0.9-0.3,1.3c-0.1,0.4-0.2,0.6-0.2,0.8c-0.1,0.2-0.2,0.2-0.4,0.1"/>
	<path class="st4" d="M439.7,355.9c0.4-0.1,0.9-0.1,1.3-0.1c0.6,0,1.2,0,1.8,0.1c0.6,0.1,1.2,0.1,1.6,0.1c0.4,0,0.8,0.1,1.2,0.1
		s1,0,1.7,0.1c0.7,0,1.2,0,1.6,0c0.4,0,1.2,0,2.6,0c1.3,0,2.2,0,2.5,0c0.3,0,0.8,0,1.4,0.1c0.6,0,1.1,0.1,1.4,0.1
		c0.4,0,0.7,0.1,0.9,0.1c0.2,0,0.7,0,1.4,0c0.7,0,1.1,0,1.3,0c0.2,0,0.4-0.1,0.6-0.1c0.1,0,0.3-0.1,0.4-0.1c0.1-0.1-0.1-0.1-0.5-0.1
		"/>
	<path class="st4" d="M496.6,354c0-0.2,0.1-0.3,0.3-0.4c0.1,0,0.2-0.1,0.3-0.1c0.3,0,0.6,0.1,0.8,0.2c0.4,0.1,0.7,0.2,0.9,0.3
		c0.2,0.1,0.5,0.1,1,0.2c0.4,0.1,0.8,0.2,1.1,0.2s0.6,0.1,1,0.2c0.4,0.1,0.8,0.1,1.2,0.1s0.8,0,1.5,0c0.7,0,1.1,0,1.4,0s0.5,0,0.8,0
		c0.3,0,0.8,0.1,1.7,0.2c0.8,0.1,1.5,0.2,2,0.2s0.9,0.1,1.3,0.1c0.5,0.1,1,0.1,1.6,0.1c0.7,0,1.1,0,1.4,0c0.3,0,0.6,0,1,0
		c0.4,0,1.2,0,2.5,0c1.3,0,2.1,0,2.3,0c0.4,0,0.8,0.1,1.1,0.2"/>
	<path class="st4" d="M435.7,333.9c-0.2,0-0.4,0-0.6,0l-0.2,0c0,0,0,0,0,0h0.4c0.2,0,0.5,0,0.8,0c0.3,0,1.8,0,4.4,0
		c2.6,0,4.2,0,4.6,0c0.4,0,0.8,0,1.2,0c0.4,0,0.8,0.1,1.3,0.1s1.1,0.1,1.7,0.2c0.6,0.1,1.2,0.1,1.8,0.1c0.6,0,1.1,0.1,1.7,0.1
		c0.5,0.1,1.2,0.1,1.9,0.1c0.7,0,1.4,0.1,2,0.1c0.6,0,1.6,0,2.8,0c1.2,0,2.1,0,2.6,0s1,0,1.6-0.1c0.6,0,1.6,0,3.1,0
		c1.5,0,2.7,0,3.6,0c0.9,0,1.5,0.1,1.9,0.1c0.3,0,1.9,0,4.8,0c2.8,0,4.6,0,5.3,0c0.7,0,1.3,0,1.9,0c0.6,0,1.5,0,2.8,0
		c1.3,0,2.4,0,3.2,0c0.8,0,1.4,0,2-0.1c0.5,0,1.6,0,3.2,0s2.7,0,3.2,0c0.5,0,1.3,0,2.3-0.1c1,0,1.9-0.1,2.5-0.1c0.7,0,1.9,0,3.5,0
		s2.8,0,3.2,0c0.5,0,0.8,0,1.1,0c0.2,0,0.5,0,0.7,0.1s0.6,0.1,1,0.1c0.5,0.1,1,0.1,1.5,0.2c0.6,0,1,0.1,1.5,0.1s0.8,0.1,1.2,0.1
		c0.4,0,0.7,0.1,1.2,0.1c0.4,0,0.8,0.1,1.1,0.1c0.3,0,0.8,0,1.4,0c0.4,0,0.8,0,1.2,0c0.2,0,0.3,0.1,0.3,0.3"/>
	<path class="st4" d="M553.1,333.2c-0.2,0-0.5-0.1-0.7-0.1l-0.2,0h0.1h2.9c1.9,0,3.3,0,4.4,0c1.1,0,1.9-0.1,2.5-0.1c0.5,0,1.2,0,2,0
		c0.8,0,1.4,0,1.7,0c0.3,0,0.7,0.1,1.2,0.1c0.5,0.1,0.8,0.1,1.1,0.1c0.3,0,0.7,0.1,1.3,0.1c0.6,0,1.2,0.1,1.8,0.1c0.6,0,1.1,0,1.7,0
		c0.6,0,2.9,0,7,0c4.1,0,6.4,0,7,0.1c0.6,0,1.2,0.1,1.9,0.1c0.7,0,1.5,0.1,2.3,0.2c0.9,0.1,1.6,0.1,2.3,0.2c0.7,0.1,1.4,0.2,2.2,0.3
		c0.8,0.1,1.5,0.2,2.1,0.3c0.6,0.1,1.2,0.2,1.7,0.2c0.5,0.1,1.1,0.1,1.7,0.2c0.6,0,1.4,0.1,2.4,0.1c1,0,1.8,0.1,2.5,0.1
		c0.7,0,1.5,0,2.5,0c1,0,2.1,0,3.2-0.1c1.1,0,1.9-0.1,2.2-0.1c0.3,0,1.1,0,2.3-0.1c1.2,0,2.2-0.1,2.9-0.1c0.7,0,1.3-0.1,1.7-0.1
		c0.4,0,0.9-0.1,1.3-0.1c0.4,0,1-0.1,1.8-0.2c0.8-0.1,1.4-0.2,1.9-0.2c0.4-0.1,0.9-0.1,1.3-0.2c0.4-0.1,0.8-0.1,1.2-0.2
		c0.3-0.1,0.7-0.1,1.1-0.2c0.4-0.1,0.8-0.1,1.3-0.2c0.5-0.1,1-0.1,1.7-0.2c0.7-0.1,1.2-0.1,1.5-0.2c0.4,0,1-0.1,2.1-0.2
		s1.8-0.1,2.3-0.2c0.5,0,1.5,0,2.9,0c1.4,0,2.6,0,3.4,0c0.9,0,1.6,0,2.1,0.1c0.6,0,1.1,0,1.5,0c0.4,0,1.1,0,2,0c0.9,0,1.8,0,2.5,0
		c0.7,0,1.5,0,2.3,0c0.8,0,1.4,0,1.8,0s0.8,0,1-0.1c0.3,0,0.6,0,0.9-0.1c0.2,0,0.5-0.1,0.7-0.1c0.1,0,0.2-0.1,0.3-0.1
		c0.1-0.1,0.1-0.1,0.1-0.2c0-0.2-0.1-0.3-0.2-0.5c-0.1-0.2-0.2-0.5-0.4-0.8c-0.1-0.3-0.2-0.6-0.3-0.9c-0.1-0.3-0.1-0.5-0.2-0.6
		l0-0.2c0,0,0,0,0,0c0,0,0.1,0.2,0.3,0.6"/>
	<path class="st4" d="M553.2,327.4c-0.4-0.3-0.6-0.4-0.6-0.3c0,0.1,0.1,0.2,0.2,0.3c0.1,0.1,0.3,0.2,0.5,0.3
		c0.2,0.1,0.4,0.2,0.6,0.2c0.2,0.1,0.5,0.1,0.7,0.1c0.2,0,0.6,0.1,1.2,0.1c0.6,0,1.3,0,2.1,0c0.8,0,1.4,0,2,0c0.5,0,1,0,1.5,0
		c0.5,0,1.8,0,3.9-0.1c2.1,0,3.5-0.1,4.1-0.1c0.6,0,1.2,0,1.8,0s2,0,4.3,0c2.3,0,4.1,0,5.3,0s2.1,0,2.8,0s1.3,0,2,0.1
		c0.7,0,1.7,0.1,3,0.1c1.4,0,2.7,0.1,4.1,0.1s2.4,0.1,3.1,0.1s1.6,0,3,0c1.3,0,2.3,0,3,0c0.7,0,1.3,0,2,0c0.6,0,1.3,0,1.8,0
		c0.6,0,1.2,0,1.8,0c0.6,0,1.3,0,1.8,0.1c0.6,0,1.2,0.1,1.7,0.1c0.6,0,1.2,0.1,1.7,0.1c0.6,0,1.1,0.1,1.6,0.1s1,0.1,1.5,0.1
		c0.5,0,1,0.1,1.6,0.1c0.5,0,1,0,1.4,0c0.5,0,0.9,0,1.4,0c0.5,0,1.2,0,2.1,0s1.8,0,2.7,0s3.1,0,6.7,0s5.6,0,6.1,0
		c0.5,0,1.1,0,1.8,0.1c0.7,0,1.3,0.1,1.9,0.1c0.6,0.1,1.2,0.1,1.8,0.2c0.6,0.1,1.3,0.1,1.9,0.2c0.7,0.1,1.3,0.1,1.9,0.2
		c0.6,0.1,1.1,0.1,1.7,0.2c0.6,0,1,0.1,1.5,0.1c0.4,0,0.8,0.1,1.1,0.1c0.3,0,0.6,0.1,0.9,0.3"/>
	<path class="st4" d="M549.8,334.8c-0.9,0.3-1.6,0.5-2,0.6c-0.3,0.1-0.6,0.1-0.8,0.2c-0.3,0-0.5,0.1-0.8,0.2"/>
	<path class="st4" d="M546.3,349.8c-0.1-0.1-0.1-0.1-0.1-0.2c0,0,0.1-0.1,0.2-0.1c0.2,0,0.7,0,1.7-0.1c0.9,0,2-0.1,3-0.1
		c1.1,0,1.8-0.1,2.2-0.1c0.4,0,1,0,1.9-0.1c0.9,0,1.8-0.1,2.8-0.1c1,0,1.8-0.1,2.4-0.1s1.3-0.1,2.1-0.1c0.8,0,1.4-0.1,1.8-0.1
		s1,0,1.6,0c0.7,0,1.1,0,1.3,0c0.3,0,0.5,0,0.8,0c0.3,0,0.4,0,0.5,0.1c0,0-0.1,0.2-0.3,0.3c-0.2,0.2-0.3,0.3-0.4,0.4
		c-0.1,0.1-0.2,0.3-0.3,0.4c-0.1,0.1-0.2,0.3-0.2,0.4c0,0.1-0.1,0.2-0.1,0.3c0,0.1,0,0.3,0,0.4c0,0.1,0,0.3,0.1,0.4
		c0.1,0.1,0.2,0.2,0.3,0.3c0.2,0.1,0.4,0.3,0.5,0.4c0.2,0.1,0.4,0.2,0.6,0.3c0.2,0.1,0.4,0.2,0.6,0.2l0.3,0.1c0,0,0,0-0.1,0l-1.3,0
		c-0.8,0-1.5,0-2.1,0c-0.6,0-1.1,0-1.5,0s-1-0.1-1.7-0.1c-0.7-0.1-1.3-0.1-1.7-0.1c-0.4,0-0.9,0-1.6-0.1s-2.2,0-4.5,0
		c-2.3,0-3.8,0-4.4,0.1c-0.6,0-1.1,0.1-1.3,0.1c-0.2,0-0.5,0-0.8,0c-0.2,0-0.4,0-0.7,0.1c-0.3,0.1-0.5,0.2-0.8,0.3
		c-0.3,0.1-0.6,0.3-0.8,0.4c-0.2,0.1-0.3,0.2-0.3,0.4c0,0.1,0,0.2,0.2,0.3c0.2,0.1,0.4,0.2,0.7,0.3c0.3,0.1,0.6,0.2,0.9,0.3
		c0.3,0.1,0.6,0.1,0.8,0.2s0.4,0.1,0.6,0.1c0.2,0,0.7,0,1.4,0c0.7,0,1.3,0,1.7,0c0.4,0,1.1,0,2-0.1c0.9-0.1,1.6-0.1,2.1-0.1
		c0.5,0,0.9,0,1.3,0c0.4,0,1.1,0,2.2,0c1.1,0,1.8,0,2.4,0c0.5,0,1-0.1,1.5-0.1c0.5,0,0.8-0.1,1.1-0.1s0.8,0,1.6,0c0.5,0,1,0,1.5-0.1
		c0.5-0.1,1,0,1.6,0.1"/>
	<path class="st4" d="M611.4,354.7c0.1-0.2,0.2-0.4,0.4-0.5c0.2-0.1,0.3-0.1,0.5-0.1c0.2,0,0.4,0,0.9,0c0.5,0,1.1,0.1,1.6,0.1
		c0.7,0.1,1.4,0.2,2.1,0.2s1.7,0.2,3,0.3c1.3,0.1,2.3,0.2,2.9,0.2c0.6,0,1.1,0.1,1.4,0.1c0.3,0,0.8,0.1,1.4,0.1c0.6,0,1.3,0,2.1,0
		c0.8,0,1.6,0,2.6-0.1s1.7-0.1,2.3-0.1c0.5,0,1.6,0,3.2,0c1.6,0,2.6,0,3.2,0c0.6,0,1.2,0,1.7,0c0.5,0,1,0,1.3,0c0.3,0,0.8,0,1.4,0.1
		c0.6,0,1.1,0.1,1.4,0.1c0.4,0,0.6,0,0.8,0.1c0.1,0,0.2,0,0.4,0.1c0.1,0.1,0.1,0.2,0,0.3"/>
	<path class="st4" d="M641.7,355.3c-0.1-0.4-0.1-0.6-0.2-0.7c0,0,0,0,0,0.1v1.1c0,0.7,0,1.1,0,1.4c0,0.3,0,0.7-0.1,1.4
		c-0.1,0.6-0.1,1.1-0.1,1.5c0,0.4-0.1,0.9-0.1,1.6c-0.1,0.7-0.1,1.2-0.1,1.6c0,0.4,0,0.8,0,1.4c0,0.4,0,0.8,0.1,1.2
		c0,0.3,0.1,0.6,0.2,1.1c0.1,0.5,0.2,0.9,0.2,1.1c0.1,0.3,0.2,0.7,0.3,1.3s0.4,1.3,0.6,2c0.2,0.7,0.4,1.3,0.5,1.6
		c0.1,0.3,0.2,0.6,0.2,0.7c0.1,0.2,0.1,0.3,0.1,0.5c0,0.3,0.1,0.5,0.1,0.8c0,0.4,0,0.8,0,1.2c0,0.5,0,1,0,1.6s0,1.3,0,1.9
		c0,0.6,0,1.8,0,3.6c0,1.8,0,3.1-0.1,3.8c0,0.7-0.1,1.2-0.1,1.6s0,0.9,0,1.6s0,1.2,0,1.6c0,0.4,0,0.9,0,1.5c0,0.6,0,1.2,0,1.8
		c0,0.6,0,1.3,0,2.1c0,0.8,0,1.3,0,1.4c0,0.2,0.1,0.5,0.1,0.8c0.1,0.4,0.2,1,0.3,2c0.1,1,0.3,1.7,0.4,2.1s0.2,0.9,0.3,1.4
		c0.1,0.5,0.2,1.2,0.4,2.3c0.2,1.1,0.3,1.8,0.3,2.3c0.1,0.5,0.1,0.9,0.2,1.3s0.1,0.8,0.1,1.1c0,0.4,0.1,0.9,0.2,1.6s0.2,1.3,0.3,2
		c0.1,0.6,0.1,1.1,0.2,1.5c0,0.3,0.1,0.8,0.1,1.4c0,0.6,0.1,1.5,0.1,2.7s0.1,2,0.1,2.4c0,0.5,0,0.9,0,1.4c0,0.5,0,0.9,0.1,1.4
		c0,0.4,0,1.1,0.1,2.1c0,0.9,0,1.6,0,2.1c0,0.5,0,1.1,0.1,2c0,0.9,0.1,1.7,0.1,2.4c0,0.7,0.1,1.5,0.1,2.3s0.1,1.7,0.2,2.6
		c0.1,0.9,0.2,1.5,0.2,2c0,0.4,0.1,0.8,0.1,1.3l0,0.7l0,0l0,0c0,0,0-0.2-0.1-0.6"/>
	<path class="st4" d="M645.1,468.7c-0.2-0.4-0.3-0.7-0.2-1.1c0-0.2,0-0.4,0-0.7c0-0.1-0.1-0.2-0.1-0.3c-0.1-0.1-0.1-0.1-0.2-0.1
		s-0.1,0.1-0.2,0.3c-0.1,0.3-0.2,0.6-0.2,0.9c-0.1,0.5-0.2,1.1-0.2,1.6c-0.1,0.7-0.1,1.6-0.1,2.9c0,1.3,0,2.4-0.1,3.3
		c0,0.9,0,1.7-0.1,2.5c0,0.8-0.1,1.5-0.1,2.3s-0.1,1.4-0.1,2.1c0,0.6-0.1,1.1-0.1,1.5s0,0.7,0,1c0,0.3,0,0.6-0.1,0.9
		s-0.1,0.7-0.2,1.2c-0.1,0.5-0.2,1.1-0.2,1.6c-0.1,0.5-0.2,1.1-0.3,1.6s-0.2,0.9-0.3,1.3c-0.1,0.4-0.2,0.7-0.2,0.9
		c0,0.2-0.1,0.5-0.1,0.9c0,0.4-0.1,0.8-0.1,1.1s0,0.8,0,1.3s0,1.9,0,4.1s0,3.6,0,4.1c0,0.5,0,0.9,0.1,1.1s0.1,0.6,0.1,1.1
		s0.1,0.9,0.2,1.4c0.1,0.5,0.2,1.1,0.4,1.7c0.2,0.7,0.3,1.1,0.3,1.3c0.1,0.2,0.1,0.4,0.2,0.7c0.1,0.2,0.1,0.5,0.1,0.8
		c0,0.3,0.1,0.6,0.2,1.2c0.1,0.5,0.1,1,0.1,1.5c0,0.5,0,1,0.1,1.5c0,0.5,0,1.6,0,3.2c0,1.6,0,2.6,0,3.1c0,0.5,0,1,0.1,1.5
		c0,0.5,0.1,0.9,0.1,1.1c0,0.3,0,1,0.1,2.1c0,1.1,0.1,2.1,0.1,3c0,0.9,0,1.7,0,2.4c0,0.7,0,1.5,0,2.5c0,1,0,1.9,0,2.9
		c0,0.9,0,1.7,0,2.4s0,1.3,0,1.9s0,1.3,0,1.9c0,0.7,0,1.5,0,2.5c0,1,0,1.6,0,1.9c0,0.3,0,1.6,0,4s0,3.9,0.1,4.7
		c0,0.8,0.1,1.5,0.1,2.1c0,0.6,0,1.2,0.1,1.7c0,0.6,0,1.1,0,1.6c0,0.3,0,0.5,0,0.8l0,0.1c0,0,0,0,0-0.1c0-0.1,0-0.4,0.1-0.9"/>
	<path class="st4" d="M434.7,562.9c-0.3,0-0.6,0-0.9,0c-0.1,0-0.2,0-0.2,0l0.1,0.1c0.2,0.1,0.5,0.1,0.7,0.2c0.4,0.1,0.8,0.2,1.3,0.2
		c0.4,0.1,0.8,0.1,1,0.1c0.3,0,0.8,0,1.6,0.1c0.8,0,1.7,0,2.6,0c0.9,0,1.6,0,2.1-0.1c0.5,0,1.1-0.1,2-0.3c0.9-0.1,1.6-0.3,2-0.4
		s1-0.2,1.6-0.4c0.6-0.2,1.1-0.3,1.4-0.3c0.4-0.1,0.9-0.1,1.3-0.2c0.6-0.1,1.2-0.1,1.8-0.1c0.6,0,1.2,0,1.7,0c0.5,0,0.9,0,1.1,0
		c0.4,0,0.8-0.1,1.2-0.2c0.6-0.1,1-0.2,1.3-0.3c0.3-0.1,0.7-0.1,1.1-0.2c0.4,0,0.9-0.1,1.5-0.1c0.6,0,1.1,0,1.6,0
		c0.5,0,1.1,0,1.6,0.1c0.6,0.1,1.5,0.1,2.7,0.2c1.2,0.1,2.1,0.1,2.7,0.1c0.6,0,1.4,0,2.5,0c1.1,0,2,0,2.6,0c0.7,0,1.6,0,2.6,0
		c1.1,0,2,0,2.9-0.1c0.9-0.1,1.7-0.1,2.4-0.2c0.7-0.1,1.2-0.2,1.6-0.2s1-0.1,1.8-0.1c0.8-0.1,1.7-0.1,2.7-0.1s1.9,0,2.6,0.1
		c0.7,0.1,1.5,0.1,2.3,0.2c0.8,0.1,1.4,0.1,1.7,0.1c0.3,0,0.7,0,1,0.1c0.3,0,0.9,0.1,1.7,0.1c0.8,0.1,1.7,0.1,2.5,0.2
		c0.8,0.1,1.5,0.2,2.1,0.3s1.3,0.2,2.1,0.3c0.8,0.1,1.4,0.2,1.8,0.2c0.4,0,0.8,0.1,1.2,0.1c0.4,0,0.9,0.1,1.4,0.2s1.2,0.1,1.8,0.1
		c0.7,0,1.5,0,2.5,0c1,0,2.1,0,3.3-0.1s2.1-0.1,2.8-0.2s1.4-0.1,1.9-0.1c0.6,0,1.1,0,1.7,0c0.5,0,1.3,0,2.2,0c1,0,1.6,0,1.9,0
		c0.3,0,0.6,0.1,0.9,0.1c0.3,0,0.7,0.1,1.2,0.1c0.5,0,2.4,0,5.7,0s5.3,0,6,0c0.8,0,1.8,0,3.1,0c1.3,0,2.4,0,3.3,0c0.9,0,2.1,0,3.6,0
		s2.8,0,3.9,0.1c1.2,0,2.1,0.1,3,0.1c0.8,0,1.8,0,2.8,0s1.9,0,2.5,0s1.3,0,2,0c0.7,0,1.2,0,1.5,0c0.3,0,1,0.1,2,0.3
		c1.1,0.2,2.3,0.3,3.8,0.5c1.5,0.2,2.5,0.3,3.1,0.3c0.6,0,1.3,0.1,2,0.1s1.4,0,2.2,0s1.2,0,1.6,0c0.3,0,0.6,0,1-0.1
		c0.3,0,0.9-0.1,1.7-0.1c0.8-0.1,1.4-0.1,1.8-0.2c0.5,0,1.2-0.2,2.3-0.3c1.1-0.2,2-0.3,2.7-0.4c0.8-0.1,1.3-0.2,1.7-0.2
		c0.4,0,0.9-0.1,1.5-0.2c0.6-0.1,1.1-0.1,1.6-0.2c0.5,0,1.2-0.1,2.1-0.1c1,0,2,0.1,3,0.2c1.1,0.1,1.9,0.2,2.5,0.3s1.2,0.1,1.9,0.2
		c0.7,0.1,1.2,0.2,1.5,0.2c0.3,0,0.7,0.1,1.1,0.2c0.4,0.1,0.8,0.2,1.3,0.2c0.4,0,0.9,0.1,1.4,0.1c0.5,0,2.1,0,4.8,0
		c2.7,0,4.3,0,4.9,0c0.6,0,1.1,0,1.6-0.1c0.5,0,1-0.1,1.6-0.1c0.6-0.1,1.3-0.1,2-0.1c0.7,0,1.9-0.1,3.5-0.1c1.6,0,2.9,0,3.9,0
		c1,0,2.1,0,3.2-0.1c1.1,0,2.2-0.1,3.1-0.1c0.6,0,1.2,0,1.8,0c0.2,0,0.4,0.1,0.6,0.3"/>
	<path class="st4" d="M496.4,567.2c0.3,0,0.6,0,0.8,0.1c0.3,0.1,0.6,0.2,0.9,0.3c0.3,0.1,0.7,0.3,1.2,0.5c0.4,0.2,0.8,0.4,1.2,0.5
		c0.3,0.1,0.6,0.2,0.8,0.2c0.3,0,0.6,0,0.9,0c0.3,0,0.6,0,0.8-0.1c0.2-0.1,0.4-0.1,0.7-0.2c0.3-0.1,0.5-0.1,0.8-0.1
		c0.3,0,0.6-0.1,0.9-0.1c0.3,0,0.8,0,1.4,0c0.6,0,1.2,0.1,1.7,0.2c0.5,0.1,1,0.3,1.5,0.3c0.4,0.1,4,0.1,10.7,0.1
		c6.7,0,10.3,0,10.7,0c0.5,0,1,0,1.4,0c0.5,0,1.1,0,2,0c0.8,0,1.8,0,2.7,0c1,0,1.7,0,2.2,0c0.5,0,1-0.1,1.4-0.1
		c0.7-0.1,2.3-0.3,4.8-0.6"/>
	<path class="st4" d="M435.8,479.3c-0.3,0.2-0.4,0.4-0.5,0.7c-0.1,0.5-0.2,1-0.3,1.5c-0.1,0.7-0.1,1.3-0.2,1.9
		c0,0.6-0.1,1.4-0.2,2.4c-0.1,1-0.1,1.9-0.2,2.8c0,0.8-0.1,1.6-0.1,2.3c0,0.7,0,1.4,0,2c0,0.6,0,1.2-0.1,1.9c0,0.7-0.1,1.2-0.1,1.5
		c0,0.3-0.1,0.8-0.1,1.4c0,0.6,0,1.6,0,3.2s0,2.9,0,4.2s0,3,0,5c0,2.1,0,3.3,0,3.7c0,0.4,0.1,1.2,0.1,2.4c0.1,1.3,0.2,2.3,0.2,3.1
		c0,0.8,0.1,1.8,0.1,3.1c0,1.3,0.1,2.4,0.1,3.5c0,1.1,0,1.8,0,2.2c0,0.4,0,0.9,0.1,1.7c0,0.8,0.1,1.5,0.1,2.1s0,1.3,0.1,1.9
		c0,0.6,0,1.4,0,2.4s0,1.7,0,2.3s-0.1,1.3-0.1,2.1c-0.1,0.8-0.1,1.5-0.1,2.1s0,1.4,0,2.4s0,2.1,0,3.2c0,1.1,0,1.9,0,2.5s0,1.2,0,1.9
		c0,0.7,0,1.5,0,2.2s0,2,0,3.7s0,2.9-0.1,3.6c-0.1,0.6-0.1,1.1-0.1,1.2c0,0.2,0,0.3,0,0.2c0,0,0-0.2-0.1-0.4"/>
	<path class="st4" d="M429.2,568.5c-0.2,0.1-0.5,0.3-0.6,0.6c-0.1,0.1-0.1,0.3-0.2,0.4c-0.1,0.2,0,0.3,0.2,0.3"/>
	<path class="st5" d="M545.4,359c-0.1-0.2-0.1-0.2-0.1,0c0,0.2,0,0.4,0.1,0.6c0.1,0.3,0.2,0.7,0.2,1.1c0.1,0.5,0.1,1,0.2,1.5
		c0,0.6,0.1,1.1,0.1,1.5c0,0.4,0,1,0,2c0,0.9,0,1.7,0,2.1c0,0.5-0.1,1.2-0.2,2.1c-0.1,1-0.1,1.9-0.2,2.8s-0.1,1.6-0.1,2
		c0,0.4,0,1.2,0,2.3c0,1.1,0,2.2,0,3.2c0,1,0,1.7,0,2.2c0,0.5,0,1.2,0,2.2c0,1,0,2,0.1,2.9c0.1,1,0.1,1.8,0.2,2.4
		c0.1,0.7,0.1,1.4,0.1,2.2c0,0.8,0,1.3,0,1.6c0,0.2,0,0.6,0.1,1c0,0.4,0.1,0.9,0.2,1.3c0.1,0.3,0.1,0.6,0.2,0.9
		c0.1,0.3,0.2,0.4,0.4,0.4"/>
	<path class="st5" d="M546.5,435.8c0-0.2-0.1-0.4-0.1-0.5l-0.1-0.1c0,0,0,0.5,0,1.6c0,1.1,0,3.7,0,7.8c0,4.1,0,6.3,0,6.5
		c0,0.1,0,0.3,0.1,0.4c0.1,0.1,0.1-0.3,0.3-1.2"/>
	<path class="st5" d="M539.5,469.5c-0.2-0.3-0.1-0.7,0.2-0.9c0.2-0.2,0.5-0.4,0.8-0.7c0.3-0.2,0.5-0.4,0.8-0.7
		c0.1-0.1,0.3-0.3,0.4-0.5c0.1-0.1,0.1-0.2,0.2-0.4c0-0.1,0-0.1-0.1-0.1c-0.1,0.1-0.2,0.2-0.3,0.4c-0.2,0.3-0.3,0.6-0.4,0.9
		c-0.1,0.4-0.2,0.7-0.3,0.9c-0.1,0.4-0.2,0.8-0.2,1.2c-0.1,0.5-0.1,1-0.1,1.3s0,1,0,1.8c0,0.5,0,1.1,0.1,1.6c0,0.2,0.1,0.3,0.1,0.3
		c0,0,0-0.1,0.1-0.3c0.1-0.3,0.1-0.6,0.2-1c0.1-0.5,0.1-1,0.2-1.4c0.1-0.4,0.2-0.8,0.3-1.2c0.1-0.3,0.2-0.6,0.3-0.9
		c0.1-0.2,0.2-0.4,0.4-0.6c0.1-0.1,0.3-0.2,0.4-0.3c0.2,0,0.4-0.1,0.6-0.1c0.5,0,1.1,0.1,1.6,0.2c0.8,0.1,1.6,0.3,2.3,0.4
		c0.7,0.1,1.2,0.2,1.6,0.2c0.3,0,0.7,0.1,1.1,0.1s1.1,0.1,2,0.1c0.9,0,2.1,0,3.4,0c1.3,0,2.3,0,2.8,0c0.5,0,1.5-0.1,2.8-0.2
		c1.4-0.1,2.2-0.1,2.6-0.2c0.3,0,1.8,0,4.4,0s4.2,0,4.8,0.1c0.6,0,1.2,0.1,1.7,0.2c0.6,0.1,1,0.2,1.2,0.2c0.3,0,0.4,0.1,0.4,0.3
		c0,0.1,0,0.3,0,0.4c-0.1,0.2-0.3,0.3-0.4,0.4c-0.2,0.1-0.4,0.2-0.6,0.3c-0.3,0.1-0.5,0.2-0.8,0.3c-0.3,0.1-0.8,0.2-1.2,0.3
		c-0.5,0.1-1,0.2-1.6,0.3c-0.6,0.1-1.2,0.2-1.9,0.2c-0.7,0.1-1.4,0.1-2.2,0.2c-0.7,0-1.5,0.1-2.3,0.1c-0.8,0-1.5,0.1-2.2,0.1
		c-0.7,0-1.5,0.1-2.6,0.3c-1.1,0.1-2.1,0.2-3.1,0.3c-1,0.1-1.8,0.2-2.2,0.2c-0.4,0-0.8,0-1.1,0c-0.3,0-0.7,0-1.1,0
		c-0.4,0-0.8-0.1-1.3-0.1c-0.4-0.1-0.8-0.1-1.2-0.2c-0.3-0.1-0.8-0.2-1.5-0.4c-0.7-0.2-1.2-0.4-1.5-0.4c-0.3-0.1-0.6-0.1-0.9-0.1
		c-0.2,0-0.3,0-0.5,0c-0.1,0-0.1,0.1-0.2,0.3c0,0.1-0.1,0.3-0.1,0.5c0,0.2,0.2,0.4,0.6,0.8"/>
	<path class="st5" d="M617.4,469.4c0-0.2,0-0.5,0.2-0.7c0.2-0.1,0.4-0.2,0.6-0.3c0.6-0.1,1.2-0.2,1.9-0.2c1-0.1,1.7-0.1,2.3-0.2
		c0.5-0.1,1.3-0.1,2.4-0.3c1-0.1,1.9-0.2,2.6-0.3c0.7-0.1,1.3-0.2,1.8-0.3c0.5-0.1,1.1-0.2,1.6-0.3c0.6-0.1,1.1-0.1,1.7-0.2
		c0.6-0.1,1.2-0.1,1.8-0.1c0.5,0,1,0,1.5,0.1c0.5,0.1,1,0.2,1.5,0.2c0.6,0.1,0.9,0.3,0.9,0.7"/>
	<path class="st5" d="M619.5,473.1c0.2,0.2,0.4,0.4,0.7,0.6c0.3,0.1,0.6,0.3,1,0.3c0.4,0.1,0.8,0.2,1.1,0.2c0.5,0.1,1,0.1,1.5,0.1
		c0.6,0,1.4,0,2.5,0c1.1,0,2,0,2.8-0.1c0.8,0,1.6-0.1,2.3-0.2"/>
	<path class="st5" d="M551.7,447.6c-0.1-0.2,0-0.3,0.2-0.4c0.3-0.1,0.5-0.1,0.8-0.2c0.4-0.1,0.9-0.1,1.5-0.1c0.6,0,1.6-0.1,3.1-0.2
		c1.5-0.1,2.5-0.1,3-0.1c0.5,0,2.2,0,5.1,0c2.9,0,4.9,0,6,0.1c1.1,0.1,2.1,0.2,3,0.3c0.9,0.1,2,0.2,3.3,0.2c1.3,0,2.3,0.1,3.2,0.2
		c0.8,0.1,1.5,0.1,2,0.2s1.1,0.1,1.8,0.2c0.7,0.1,1.4,0.1,2.1,0.1c0.7,0,1.7,0,3.1,0c1.3,0,2.2,0,2.6,0c0.4,0,1-0.1,1.7-0.1
		c0.7-0.1,1.3-0.1,1.9-0.2c0.6,0,1.1-0.1,1.4-0.1c0.3,0,0.9,0,1.6-0.1c0.7,0,1.3,0,1.6,0c0.3,0,0.7,0,1.3,0c0.5,0,1,0,1.3,0
		c0.3,0,0.6,0,1,0c0.4,0,0.9,0,1.7,0c0.7,0,1.3,0,1.7,0c0.4,0,0.8,0,1.4-0.1c0.6,0,1.8,0,3.9,0c2,0,3.3,0,4,0c0.6,0,1.4,0.1,2.2,0.1
		c0.8,0,1.5,0,2.2,0.1c0.6,0,1.3,0,1.9,0.1s1.2,0,1.5,0c0.4,0,1.2,0,2.4,0c1.2,0,2.3,0,3-0.1c0.8,0,1.5-0.1,2.1-0.1
		c0.6,0,1.3-0.1,2.1-0.2s1.4-0.1,1.9-0.1c0.5,0,1.2,0,2-0.1c0.8,0,1.4-0.1,1.8-0.1c0.4,0,0.8-0.1,1.3-0.1c0.5,0,1-0.1,1.3-0.1
		c0.3,0,0.5,0,0.5,0.1s0,0.1-0.1,0.3c-0.1,0.1-0.2,0.2-0.2,0.4c0,0.2,0,0.3,0.2,0.5c0.2,0.2,0.4,0.4,0.5,0.6
		c0.1,0.3,0.2,0.4,0.3,0.5c0.1,0.1,0.2,0.2,0.4,0.2c0.4,0.1,0.9,0.2,1.3,0.2c0.7,0,1.3,0.1,1.9,0.1c0.6,0.1,1.1,0.1,1.5,0.1
		c0.4,0,0.7,0,0.8-0.2"/>
	<path class="st5" d="M552.4,240c-0.2,0-0.5,0.1-0.6,0.2c-0.1,0.1-0.2,0.2-0.3,0.4c-0.1,0.4-0.1,0.8-0.2,1.3c0,0.7-0.1,1.4-0.2,2.1
		c-0.1,0.7-0.1,1.4-0.1,2.2c0,0.8,0,1.6,0,2.6c0,1,0,1.7,0,2.2c0,0.5-0.1,1.4-0.3,2.6c-0.1,1.2-0.2,2-0.3,2.5c0,0.4-0.1,0.9-0.1,1.6
		c0,0.6,0,1.3-0.1,2c0,0.7-0.1,1.5-0.1,2.3c0,0.7-0.1,1.4-0.2,2.1c-0.1,0.5-0.2,1.1-0.2,1.6c0,0.5,0,0.9,0,1.1
		c0.1,0.4,0.2,0.8,0.4,1.2"/>
	<path class="st5" d="M551.3,307.6c-0.1-0.6-0.1-0.9-0.1-0.9c0,0,0,0,0,0s0,0.4,0,1c0,0.6,0,1.8,0.1,3.4c0,1.7,0.1,3.3,0.1,4.9
		c0,1.6,0,3-0.1,4.1c-0.1,1.1-0.1,1.9-0.2,2.3l-0.1,0.7c0,0,0,0.1,0,0c0-0.1,0.2-0.4,0.5-1"/>
	<path class="st5" d="M558.1,234.2c0.7,0,1.3,0,2,0.1c0.4,0.1,0.9,0.1,1.5,0.2c0.6,0.1,1,0.1,1.3,0.2c0.3,0,0.8,0.1,1.6,0.1
		c0.8,0,2.1,0,3.9,0c1.8,0,3.3,0,4.5,0.1c1.1,0,2,0.1,2.7,0.1c0.6,0,1.3,0.1,1.9,0.1c0.7,0,1.9,0,3.8,0c1.9,0,3.1,0,3.7,0
		c0.6,0,1.3,0,2.2,0c0.9,0,1.8,0,2.6,0c0.8,0,2,0,3.5-0.1c1.5,0,2.8,0,3.8,0c1,0,2.2,0,3.7,0c1.4,0,2.5,0,3.3,0
		c1.1,0,2.5-0.1,4.3-0.3"/>
	<path class="st5" d="M603.4,235.1c0.5-0.3,1-0.4,1.6-0.5c0.4-0.1,1.1-0.1,2-0.2c0.9-0.1,1.7-0.2,2.3-0.2c0.6-0.1,1.1-0.1,1.4-0.1
		c0.3,0,0.8-0.1,1.6-0.1c0.7,0,1.4,0,2.1,0c0.7,0,1.5,0,2.5,0.1c1,0.1,2,0.1,2.9,0.2c0.9,0.1,1.6,0.1,2.1,0.1c0.4,0,1.3,0.1,2.6,0.1
		c1.3,0.1,2.1,0.1,2.6,0.2c0.4,0,0.8,0.1,1.2,0.1s0.9,0.1,1.5,0.2c0.6,0.1,1.6,0.2,2.8,0.3c1.3,0.1,2.3,0.2,3,0.3
		c0.7,0.1,1.3,0.1,1.7,0.2c0.4,0,0.8,0.1,1.2,0.1c0.5,0,1.2,0,2.1,0.1c1,0,2.5,0,4.5,0c2.1,0,3.4,0,4.1,0c0.6,0,1.1,0,1.5,0.1
		c0.3,0,0.9,0,1.8,0s1.9,0,2.9,0c1,0,1.9,0,2.6,0c0.7,0,1.5,0,2.2,0c0.7,0,1.4,0,1.9-0.1c0.5,0,1.1-0.1,1.7-0.1c0.6,0,1.4,0,2.4-0.1
		c1,0,2.3-0.1,3.7-0.1c1.4-0.1,2.5-0.1,3.2-0.1c0.7,0,1.3,0,1.9-0.1c0.5,0,1.8,0,3.7,0c2,0,3.6,0,5,0.1c1.4,0.1,2.5,0.1,3.5,0.2
		c1,0,3,0,6,0c3,0,5.1,0,6.2,0c1.1,0,2.3-0.1,3.6-0.1c1.3-0.1,2.5-0.1,3.5-0.1s2.1,0,3,0c0.9,0,2.5,0,4.8,0c2.3,0,3.6,0,4,0
		s0.9,0,1.6,0.1c0.8,0.1,1.4,0.1,2,0.1c0.6,0,1.2,0.1,1.9,0.1c0.7,0,1.4,0.1,2.2,0.1c0.8,0,1.5,0,2.2,0.1c0.6,0,1.3,0.1,2,0.1
		s1.6,0.1,2.8,0.1c1.1,0,2.2,0,3.1,0.1c0.9,0,3.7,0,8.5,0s7.3,0,7.7,0c0.4,0,1,0,1.9,0.1c0.9,0,2,0.1,3.2,0.1c1.3,0,2,0.1,2.2,0.1
		s0.3,0.1,0.2,0.3"/>
	<path class="st6" d="M538.1,244.9l-0.1-0.3c0,0,0,0,0,0c0,0.1,0.1,0.2,0.2,0.4c0.2,0.3,0.4,0.7,0.5,1.1c0.2,0.5,0.4,1,0.6,1.5
		c0.2,0.4,0.3,0.8,0.4,1.2c0.1,0.3,0.1,0.6,0.2,0.9c0,0.3,0,0.6,0,0.9c0,0.3,0,0.6-0.1,0.8c-0.1,0.3-0.2,0.6-0.3,0.9
		c-0.1,0.3-0.3,0.6-0.5,1c-0.1,0.2-0.2,0.5-0.3,0.8c0,0.2-0.1,0.5-0.2,0.7c-0.1,0.2-0.2,0.4-0.3,0.6c-0.1,0.3-0.1,0.6-0.1,1
		c0,0.8,0.1,1.6,0.4,2.3"/>
	<path class="st5" d="M759.3,239.5c0-0.2-0.1-0.3-0.3-0.4c-0.1-0.1-0.2-0.1-0.3-0.1c-0.1,0-0.1,0.2-0.2,0.6c0,0.4,0,1.1,0,2
		c0,1,0,1.6,0,1.9s0,0.7,0.1,1.1s0.1,0.9,0.2,1.6s0.2,1.2,0.3,1.6c0.1,0.3,0.1,0.7,0.2,0.9c0.1,0.3,0.1,0.7,0.2,1
		c0.1,0.4,0.1,0.8,0.1,1.2c0,0.4,0,1,0,1.9c0,0.8,0,1.5,0.1,2.1c0.1,0.5,0.1,1.1,0.2,1.5c0.1,0.5,0.1,0.9,0.2,1.4
		c0.1,0.4,0.1,0.8,0.1,1.1c0,0.3,0.1,0.7,0.1,1c0,0.4,0,1,0,2c0,0.9,0,1.8,0,2.5c0,0.7,0,1.3-0.1,2c-0.1,0.6-0.1,1.1-0.2,1.5
		c-0.1,0.4-0.1,1-0.2,1.7c-0.1,0.7-0.1,1.5-0.2,2.3c0,0.8-0.1,1.6-0.1,2.3c0,0.7,0,1.3,0,1.9s0,1.2,0,1.8c0,0.6,0,1.3-0.1,2.1
		c0,0.8-0.1,1.4-0.1,1.8c0,0.4-0.1,1-0.2,1.7c-0.1,0.7-0.2,1.4-0.3,2c-0.1,0.6-0.2,1.1-0.2,1.5s-0.2,1-0.3,1.8
		c-0.1,0.8-0.2,1.5-0.3,2.2c-0.1,0.7-0.1,1.5-0.2,2.5c0,1-0.1,1.8-0.1,2.4c0,0.6-0.1,1.4-0.1,2.4c0,1,0,1.9-0.1,2.6
		c0,0.7-0.1,2.1-0.1,4.1c0,2,0,3.4,0,4.1c0,0.7,0,1.3,0,1.7c0,0.4,0,1.1,0.1,2c0.1,0.9,0.1,1.6,0.2,2.3c0.1,0.6,0.1,1.1,0.2,1.4
		c0,0.3,0.1,0.9,0.2,1.9c0.1,1,0.2,1.8,0.2,2.4c0,0.6,0.1,1.2,0.1,1.5c0,0.4,0.1,0.8,0.1,1.1c0,0.3,0,0.7,0.1,1
		c0,0.3,0.1,0.5,0.2,0.7c0.1,0.2,0.1,0.4,0.1,0.7c0,0.2,0.1,0.4,0.2,0.6"/>
	<path class="st5" d="M762.2,327.8c-0.2,0.4-0.2,0.9-0.2,1.4c0,0.7,0,1.5,0,2.6v1.7c0,0,0,0.1,0,0.1c0,0,0-0.1,0.1-0.4"/>
	<path class="st5" d="M752.6,355.1c0-0.2-0.2-0.3-0.5-0.3c-0.2,0-0.4,0.1-0.5,0.3c-0.1,0.3-0.2,0.5-0.3,0.8
		c-0.1,0.4-0.2,0.7-0.2,1.1c-0.1,0.6-0.1,1.1-0.1,1.7c0,0.8,0,1.3,0,1.6s0.1,0.6,0.1,0.9c0.1,0.4,0.2,0.8,0.3,1.2
		c0.1,0.5,0.3,1.1,0.5,1.7c0.2,0.6,0.4,1.1,0.5,1.5c0.1,0.4,0.2,1,0.4,1.9c0.2,0.9,0.3,1.5,0.4,1.9c0.1,0.4,0.3,0.9,0.4,1.3
		c0.2,0.4,0.3,0.9,0.4,1.4c0.1,0.4,0.2,0.8,0.2,1.1c0,0.3,0,0.8,0,1.3s0,1.1,0,1.7c0,0.6,0,1.5,0,2.7c0,1.2,0,2.3-0.1,3.1
		s-0.1,1.6-0.2,2.5c-0.1,0.8-0.1,1.5-0.1,2.1c0,0.6-0.1,1.3-0.1,2c-0.1,0.7-0.1,1.7-0.2,2.8c-0.1,1.1-0.2,2.1-0.2,2.8
		c0,0.7-0.1,1.5-0.2,2.4c-0.1,0.9-0.1,1.7-0.2,2.4c0,0.7-0.1,1.4-0.1,2.2c0,0.8-0.1,1.5-0.1,2.1s-0.1,1.5-0.1,2.9
		c-0.1,1.4-0.1,2.4-0.1,3c0,0.6,0,1.2-0.1,1.8c0,0.6-0.1,1.1-0.1,1.7c0,0.6-0.1,1.3-0.1,2.2c0,0.9,0,2.2,0,3.8c0,1.6,0,2.7,0,3.3
		c0,0.6,0,1.2,0.1,1.8c0,0.7,0.1,1.2,0.1,1.6c0,0.4,0,1.6,0,3.7c0,2.1,0,3.5,0,4.2c0,0.7,0.1,1.5,0.1,2.4s0.1,1.5,0.1,1.8
		c0,0.3,0,0.8,0,1.4c0,0.6,0,1.1-0.1,1.7c-0.1,0.5-0.2,1-0.2,1.5c-0.1,0.5-0.1,0.8-0.1,1.2c0,0.3,0,1,0,2c0,1,0,1.6,0,1.9
		c0,0.2,0,0.5,0.1,0.7c0,0.2,0.1,0.3,0.1,0.2c0,0,0.1-0.1,0.1-0.3"/>
	<path class="st5" d="M669.9,446.2c0-0.2,0.1-0.4,0.3-0.4c0.2-0.1,0.5-0.1,0.8-0.1c0.3,0,0.5,0,0.8,0c0.2,0,0.5,0.1,1,0.2
		s0.9,0.2,1.4,0.3c0.7,0.1,1.4,0.2,2.1,0.1c1,0,2.1,0,3.5-0.1c1.4-0.1,2.5-0.1,3.3-0.2c0.8,0,1.5-0.1,2.1-0.1c0.6,0,1.6,0,3.2,0
		c1.5,0,2.7,0,3.4,0c0.8,0,1.6,0,2.4,0c0.8,0,1.7,0,2.4,0c0.8,0,1.6-0.1,2.5-0.1c0.9-0.1,2.1-0.2,3.3-0.3c1.3-0.1,2.9-0.2,4.7-0.3
		c1.9-0.1,3.4-0.2,4.4-0.2c1.1,0,2.5,0,4.1,0c1.7,0,2.8,0,3.4,0c0.6,0,1.4,0.1,2.5,0.1c1,0.1,2.1,0.2,3.1,0.2s2.2,0.2,3.4,0.2
		c1.3,0.1,2.6,0.1,4,0.2c1.4,0.1,2.7,0.1,4,0.2c1.3,0.1,2.6,0.1,4,0.2c1.4,0.1,2.3,0.2,2.6,0.2c0.3,0,0.9,0.1,1.6,0.1
		c0.8,0,1.7,0.1,2.7,0.1c1.1,0,2.2,0.1,3.4,0.1c1.2,0,2.3,0,3.2-0.1c0.9,0,1.8-0.1,2.7-0.1c0.9,0,1.4,0.1,1.4,0.4"/>
	<path class="st5" d="M672.5,472.4c0-0.2,0.1-0.2,0.4-0.3c0.3,0,0.6,0,0.9,0.1c0.3,0,0.6,0.1,1.1,0.1s0.8,0.1,1.2,0.1
		c0.3,0,1.3,0,2.9,0c1.6,0,2.6,0,3.1,0c0.5,0,1.5-0.1,2.9-0.2c1.4-0.1,2.3-0.2,2.7-0.2c0.4,0,0.9-0.1,1.5-0.2
		c0.6-0.1,1.2-0.1,1.6-0.2c0.5,0,1.1-0.1,1.8-0.1c0.5-0.1,1,0.1,1.4,0.3"/>
	<path class="st5" d="M730.6,470.2c-0.2-0.2-0.4-0.4-0.4-0.7c0-0.2,0.1-0.4,0.3-0.5c0.2-0.1,0.4-0.3,0.7-0.4
		c0.3-0.1,0.6-0.2,0.9-0.3c0.4-0.1,0.7-0.2,1.1-0.2c0.4-0.1,0.8-0.1,1.3-0.1c0.5,0,1.1,0,1.9,0c0.8,0,1.6,0,2.5,0.1
		c0.9,0,1.6,0.1,2.3,0.1c0.6,0,1.5,0,2.6,0c1.1,0,2,0,2.6,0c0.6,0,1.2,0,1.9,0c0.7,0,1.1,0,1.4,0c0.3,0,1.1,0,2.5,0s2.2,0,2.4-0.1
		c0.2,0,0.4-0.1,0.6-0.1c0.6-0.1,1.3-0.1,1.9-0.1"/>
	<path class="st3" d="M663.1,333.8v-1.3l0,0l0.1,0.1c0.1,0.1,0.7,0.3,2,0.5"/>
	<path class="st3" d="M718.3,330.5c1.4,0,4.3,0,8.8,0c4.5,0,7.1,0,7.7,0c0.7,0,1.5,0,2.6,0c1.1,0,2,0,2.7,0c0.7,0,1.4,0.1,2.1,0.1
		c0.6,0,1.3,0.1,1.9,0.1c0.6,0,1.3,0,2,0c0.7,0,1.4,0,2,0c0.6,0,1.4,0,2.3-0.1s1.7-0.2,2.4-0.2c0.7,0,1.2-0.1,1.4-0.1
		c0.2,0,0.3,0,0.3,0.1c0,0.1-0.1,0.3-0.3,0.5"/>
	<path class="st3" d="M668,354.1c-0.2,0-0.3,0-0.3,0.1c0,0.1,0,0.1,0.2,0.2c0.2,0.1,0.5,0.1,0.8,0.1c0.4,0,0.9,0,1.6,0
		c0.7,0,1.3,0,1.8-0.1c0.5,0,1-0.1,1.5-0.2c0.5-0.1,1-0.1,1.4-0.2c0.5-0.1,0.9-0.1,1.3-0.2c0.4-0.1,1-0.2,1.8-0.3
		c0.7-0.1,1.3-0.2,1.7-0.2c0.4,0,1-0.1,1.7-0.1c0.8,0,1.5-0.1,2.1-0.1c0.6,0,1.2,0,1.7,0c0.5,0,1.2,0,2,0c0.8,0,1.6,0,2.4,0
		c0.8,0,1.7,0,2.8-0.1c1.1-0.1,1.8-0.1,2.3-0.1c0.3,0,0.7,0,1-0.1c0.2,0,0.3-0.1,0.5-0.2l0.2-0.2c0,0,0,0,0,0l-0.1,0.2"/>
	<path class="st3" d="M741.6,352.3c0.3-0.3,0.5-0.6,0.9-0.9c0.2-0.1,0.4-0.3,0.6-0.4c0.2-0.1,0.4-0.2,0.6-0.2
		c0.3-0.1,0.6-0.1,0.9-0.1c0.4,0,0.9-0.1,1.5-0.1c0.6,0,1.5,0,2.8-0.1c1.2,0,2.1,0,2.7,0c0.6,0,1.7,0.1,3.4,0.2
		c1.7,0.1,3.1,0.2,4.3,0.2c1.1,0.1,2,0.1,2.7,0.1c0.6,0,1.2,0,1.7,0l0.8,0c0,0,0,0,0,0l-1.2,0.3"/>
	<path class="st3" d="M669.4,357.1c-0.2-0.4-0.3-0.9-0.3-1.4c0-0.1,0-0.2,0-0.2l0,0.2c0,0.4,0,0.8,0,1.1c0,0.6,0,1.5-0.1,2.5
		c-0.1,1.1-0.1,2.1-0.2,3.1c-0.1,1-0.1,1.9-0.2,2.8c-0.1,0.9-0.2,2-0.3,3.3c-0.1,1.3-0.2,2.3-0.3,3c-0.1,0.7-0.2,1.4-0.2,2
		c-0.1,0.7-0.2,1.5-0.3,2.6c-0.1,1-0.2,2-0.2,3c-0.1,0.9-0.1,1.7-0.1,2.3c0,0.6,0,1.2-0.1,1.7c0,0.5-0.1,1-0.1,1.4
		c0,0.4-0.1,0.7-0.1,1.1c-0.1,0.3-0.2,0.7-0.3,1c-0.2,0.4-0.3,0.7-0.3,0.8c-0.1,0.2-0.1,0.3-0.1,0.3l0,0l0,0c0,0,0.1-0.2,0.2-0.4"/>
	<path class="st3" d="M670.2,426.2c0.2-0.4,0.3-0.6,0.4-0.6l0,0l0,0c0,0-0.1,0.1-0.2,0.3c-0.1,0.2-0.2,0.4-0.3,0.7
		c-0.1,0.4-0.2,0.8-0.2,1.2c-0.1,0.5-0.1,1.1-0.2,1.7c-0.1,0.7-0.1,1.3-0.1,2c0,0.7-0.1,1.3-0.1,1.9c0,0.6,0,1.2-0.1,1.7
		c0,0.5-0.1,1.2-0.2,2c-0.1,0.8-0.2,1.3-0.2,1.6c0,0.3,0,1,0,2.2c0,0.7,0,1.5-0.1,2.2c-0.1,0.3-0.1,0.6-0.3,0.9
		c-0.1,0.2-0.2,0.5-0.4,0.7c-0.2,0.2-0.3,0.4-0.5,0.5c-0.3,0.2-0.5,0.5-0.8,0.8c-0.3,0.4-0.6,0.7-0.9,1.1c-0.3,0.5-0.6,0.9-0.9,1.5
		c-0.3,0.5-0.5,0.9-0.7,1.4c-0.3,0.6-0.4,1.2-0.5,1.9"/>
	<path class="st3" d="M759.2,355.4c-0.3-0.2-0.4-0.2-0.3,0.1c0.1,0.3,0.2,0.6,0.2,0.8c0.1,0.4,0.1,0.8,0.2,1.2
		c0,0.4,0.1,0.8,0.2,1.4c0.1,0.5,0.2,1.2,0.4,2c0.2,0.8,0.3,1.5,0.4,2c0.1,0.6,0.1,1.2,0.1,1.8c0,0.7,0,1.2,0,1.4
		c0,0.2-0.1,0.8-0.4,1.8s-0.4,1.7-0.5,2.2c-0.1,0.5-0.2,1-0.3,1.5c-0.1,0.5-0.2,1-0.2,1.6c0,0.5,0,1.5,0,3.1c0,1.6,0,2.6,0,3.1
		c0,0.5,0,1-0.1,1.5c0,0.5,0,1,0,1.4c0,0.4,0,0.8,0.1,1.2c0.1,0.3,0.1,0.7,0.1,1c0,0.3,0,0.7,0,1.3c0,0.5,0,1.1,0,1.7
		c0,0.6,0.1,1.5,0.1,2.6c0.1,1.1,0.1,2,0.2,2.7c0,0.7,0.1,1.3,0.1,1.8c0,0.5,0,1.6,0,3.3c0,1.7,0,2.8,0,3.3c0,0.5,0,0.9,0.1,1.4
		c0,0.4,0.1,0.9,0.1,1.5c0,0.5,0,1,0.1,1.4c0,0.4,0.1,1.1,0.3,1.9c0.1,0.8,0.3,1.6,0.4,2.3c0.1,0.7,0.2,1.2,0.3,1.5s0.1,0.7,0.1,1.2
		c0,0.5,0.1,1.1,0.1,1.8c0,0.7,0,1.5,0,2.3c0,0.9,0,1.7,0,2.5c0,0.8,0,1.5,0.1,2c0,0.5,0.1,1,0.1,1.6s0.1,1.1,0.2,1.7
		c0.1,0.6,0.2,1.1,0.3,1.5s0.2,0.9,0.2,1.4s0.1,1,0.1,1.6s0.1,1.1,0.1,1.6s0,1.1,0.1,1.6c0,0.5,0.1,0.9,0.1,1.2s0.1,0.6,0.1,1
		c0.1,0.7,0.1,1.4,0.1,2c0,1,0,1.7,0,2.3c0,0.6-0.1,2.2-0.1,4.7c0,2.5,0,4-0.1,4.4c-0.1,0.4-0.1,0.7-0.1,1.1c0,0.3,0,0.5,0,0.4
		c0-0.1-0.1-0.4-0.2-0.9"/>
	<path class="st3" d="M663.7,467.6c-0.2,0.1-0.3,0.4-0.4,0.8c-0.1,0.4-0.1,0.7-0.1,1.1c0,0.4-0.1,0.9-0.1,1.6s0,2.7,0,6.2
		s0,5.6,0,6.2s-0.1,1.3-0.1,2.1s-0.1,1.6-0.1,2.2c0,0.6,0,1.2,0,2c0,0.7,0,2.5,0,5.3c0,2.8,0,4.4,0,4.8c0,0.4,0,1.2,0,2.4
		c0,1.2,0,2.1,0.1,2.7c0,0.6,0.1,1.5,0.1,2.7c0,1.2,0,1.9,0,2.2c0,0.4,0.1,0.7,0.2,1.1c0.1,0.4,0.2,1,0.4,1.8
		c0.2,0.8,0.3,1.3,0.4,1.5c0.1,0.3,0.2,0.6,0.3,0.9c0.2,0.4,0.3,0.6,0.4,0.9c0.1,0.2,0.3,0.5,0.4,0.9c0.1,0.4,0.3,0.7,0.5,1.1
		c0.2,0.3,0.3,0.7,0.4,1c0.1,0.4,0.1,0.7,0.1,1.1c0,0.3,0,0.6-0.1,0.9c-0.1,0.3-0.2,0.7-0.3,1c-0.1,0.3-0.2,0.7-0.3,1
		c0,0.2,0,0.3,0.1,0.3c0.2-0.1,0.3-0.2,0.4-0.3c0.2-0.2,0.3-0.3,0.5-0.5c0.2-0.1,0.4-0.2,0.6-0.3c0.2-0.1,0.4-0.2,0.6-0.3
		c0.2-0.1,0.4-0.3,0.5-0.4c0.2-0.2,0.3-0.4,0.4-0.6c0.2-0.3,0.3-0.3,0.4-0.2"/>
	<path class="st3" d="M669.5,559.2c-0.1-0.2-0.1-0.3-0.1-0.2c0,0,0,0.1-0.1,0.3c0,0.4-0.1,0.9,0,1.3c0,0.7,0.1,1.7,0.1,3.1
		c0.1,1.4,0.1,2.3,0.2,2.8c0.1,0.8,0.2,1.7,0.3,2.8"/>
	<path class="st3" d="M669.2,573.5c0.1-0.3,0.3-0.5,0.5-0.6c0.3-0.1,0.6-0.2,0.9-0.2c0.4,0,1.1-0.1,2-0.1s1.9,0,3,0
		c1.1,0,2.3,0,3.5,0c1.3,0,2.4-0.1,3.4-0.2c1-0.1,1.9-0.2,2.7-0.2c0.8,0,1.5-0.1,2.3-0.1c0.7,0,3,0,6.8,0c3.8,0,5.9,0,6.3,0
		c0.4,0,1.2-0.1,2.3-0.2c1.1-0.1,2.1-0.2,3-0.3c0.9-0.1,1.6-0.1,2.1-0.2c0.4,0,0.9-0.1,1.2-0.1c0.4,0,1.1-0.1,2-0.1s2-0.1,3-0.2
		c1-0.1,1.7-0.1,2.2-0.1s1.3-0.1,2.3-0.1c1.1,0,1.9-0.1,2.4-0.1c0.5,0,1-0.1,1.4-0.1c0.4,0,1.4-0.1,3-0.2c1.5-0.1,2.7-0.2,3.6-0.2
		c0.9-0.1,1.5-0.1,2-0.1c0.5,0,1.7,0,3.9,0c2.1,0,3.4,0,3.7,0c0.4,0,0.9,0,1.5-0.1c0.6-0.1,1.3-0.1,2-0.2c0.7-0.1,1.7-0.1,3-0.2
		c1.3-0.1,2.4-0.1,3.4-0.2c0.9-0.1,1.7-0.1,2.3-0.1c0.6,0,1.3,0,1.9,0c0.7,0,1.3,0,1.8,0.1c0.5,0,1.1,0.1,1.8,0.1
		c0.6,0,1.6,0,2.8,0.1c1.2,0,2.1,0,2.5,0c0.5,0,1.1,0.1,1.6,0.3"/>
	<path class="st3" d="M763,468.9c-0.2-0.1-0.3,0-0.4,0.3c-0.1,0.4-0.1,0.7-0.1,1.1c0,0.5,0,1.1,0.1,1.8c0.1,0.7,0.1,1.3,0.2,1.9
		c0,0.6,0.1,1.2,0.1,1.8s0,1.9,0,3.7c0,1.8,0,2.8,0,3c0,0.4,0.1,0.9,0.2,1.3c0.1,0.7,0.2,1.2,0.2,1.5c0,0.4,0.1,0.8,0.1,1.1
		c0,0.4,0,0.8,0,1c0,0.3-0.1,0.8-0.2,1.5s-0.2,1.3-0.2,1.7c0,0.4-0.1,1.2-0.1,2.4c0,0.7,0,1.4,0.1,2.1c0.1,0.2,0.2,0.2,0.2-0.1"/>
	<path class="st3" d="M757.7,477.5c-0.1,0.3-0.1,0.5-0.1,0.5c0,0,0,0,0,0s0-0.1,0-0.2c0-0.2-0.1-0.3-0.1-0.4
		c-0.1-0.1-0.1-0.2-0.3-0.3c-0.1,0-0.1,0.1-0.1,0.5c0,0.5,0.1,0.9,0.1,1.4c0.1,0.5,0.2,1,0.3,1.4c0.1,0.4,0.2,1,0.2,1.7
		c0.1,0.7,0.2,1.5,0.2,2.3c0.1,0.8,0.1,2.1,0.2,3.9c0,1.8,0.1,3.4,0.1,5c0.1,1.5,0.1,2.6,0.2,3.3c0,0.7,0.1,1.5,0.1,2.5
		c0,1,0,1.8,0,2.5c0,0.7,0,1.3-0.1,1.9c0,0.6-0.1,1.5-0.2,2.6c-0.1,1.2-0.2,2.1-0.2,2.9c-0.1,0.8-0.1,1.4-0.2,2
		c-0.1,0.5-0.1,1.3-0.2,2.3c-0.1,1-0.2,1.8-0.2,2.5c-0.1,0.6-0.1,1.1-0.2,1.5c0,0.4-0.1,0.9-0.1,1.6c0,0.7-0.1,1.4-0.1,2.2
		c0,0.8,0,1.6,0,2.4s0,1.7,0,2.5s0.1,2,0.2,3.5c0.1,1.5,0.1,2.6,0.2,3.2c0,0.6,0.1,1.2,0.1,1.9c0,0.6,0.1,1.2,0.1,1.8
		c0,0.5,0,1.4,0,2.7c0,1.2,0,2.5,0,3.8c0,1.3,0,2.2,0,2.8c0,0.6,0,1.3,0,1.9s0,1.1,0,1.4c0,0.3,0,0.7,0,1.3c0,0.5,0.1,1.2,0.1,2
		s0.1,1.7,0.2,2.5c0,0.9,0.1,1.6,0.1,2.3c0,0.7,0,1.3,0,2s0,1.5,0.1,2.4c0.1,0.9,0.1,1.7,0.1,2.2s0.1,0.7,0.2,0.3"/>
</g>
</svg>
